<?xml version='1.0' encoding='US-ASCII' standalone='no'?>
<!DOCTYPE score-partwise PUBLIC '-//Recordare//DTD MusicXML 1.0 Partwise//EN' 'http://www.musicxml.org/dtds/partwise.dtd'>
<score-partwise>
	<movement-title>Near the Cross</movement-title>
	<identification>
		<creator type='composer'>William H. Doane</creator>
		<creator type='lyricist'>Frances J. Crosby, pub.1869</creator>
		<rights>PUBLIC DOMAIN</rights>
		<encoding>
			<software>Sibelius</software>
			<software>Dolet for Sibelius 1.1</software>
		</encoding>
	</identification>
	<part-list>
		<score-part id='P1'>
			<part-name>Treble</part-name>
		</score-part>
		<score-part id='P2'>
			<part-name>Bass</part-name>
		</score-part>
	</part-list>
	<part id='P1'>
		<measure number='1'>
			<attributes>
				<divisions>768</divisions>
				<key>
					<fifths>-1</fifths>
					<mode>major</mode>
				</key>
				<time>
					<beats>6</beats>
					<beat-type>4</beat-type>
				</time>
				<clef>
					<sign>G</sign>
					<line>2</line>
				</clef>
			</attributes>
			<direction placement='above'>
				<direction-type>
					<metronome>
						<beat-unit>quarter</beat-unit>
						<per-minute>110</per-minute>
					</metronome>
				</direction-type>
				<sound tempo='110'/>
			</direction>
			<note>
				<pitch>
					<step>F</step>
					<octave>4</octave>
				</pitch>
				<duration>1536</duration>
				<voice>1</voice>
				<type>half</type>
				<lyric number='1'>
					<syllabic>middle</syllabic>
					<text>1. Je</text>
				</lyric>
				<lyric number='2'>
					<syllabic>end</syllabic>
					<text>2. Near</text>
				</lyric>
				<lyric number='3'>
					<syllabic>end</syllabic>
					<text>3. Near</text>
				</lyric>
				<lyric number='4'>
					<syllabic>end</syllabic>
					<text>4. Near</text>
				</lyric>
			</note>
			<note>
				<chord/>
				<pitch>
					<step>A</step>
					<octave>4</octave>
				</pitch>
				<duration>1536</duration>
				<voice>1</voice>
				<type>half</type>
			</note>
			<note>
				<pitch>
					<step>F</step>
					<octave>4</octave>
				</pitch>
				<duration>768</duration>
				<voice>1</voice>
				<type>quarter</type>
				<lyric number='1'>
					<syllabic>end</syllabic>
					<text>sus,</text>
				</lyric>
				<lyric number='2'>
					<syllabic>end</syllabic>
					<text>the</text>
				</lyric>
				<lyric number='3'>
					<syllabic>end</syllabic>
					<text>the</text>
				</lyric>
				<lyric number='4'>
					<syllabic>end</syllabic>
					<text>the</text>
				</lyric>
			</note>
			<note>
				<chord/>
				<pitch>
					<step>B</step>
					<alter>-1</alter>
					<octave>4</octave>
				</pitch>
				<duration>768</duration>
				<voice>1</voice>
				<type>quarter</type>
			</note>
			<note>
				<pitch>
					<step>F</step>
					<octave>4</octave>
				</pitch>
				<duration>1536</duration>
				<voice>1</voice>
				<type>half</type>
				<lyric number='1'>
					<syllabic>end</syllabic>
					<text>keep</text>
				</lyric>
				<lyric number='2'>
					<syllabic>end</syllabic>
					<text>cross,</text>
				</lyric>
				<lyric number='3'>
					<syllabic>end</syllabic>
					<text>cross!</text>
				</lyric>
				<lyric number='4'>
					<syllabic>end</syllabic>
					<text>cross</text>
				</lyric>
			</note>
			<note>
				<chord/>
				<pitch>
					<step>A</step>
					<octave>4</octave>
				</pitch>
				<duration>1536</duration>
				<voice>1</voice>
				<type>half</type>
			</note>
			<note>
				<pitch>
					<step>E</step>
					<octave>4</octave>
				</pitch>
				<duration>768</duration>
				<voice>1</voice>
				<type>quarter</type>
				<lyric number='1'>
					<syllabic>end</syllabic>
					<text>me</text>
				</lyric>
				<lyric number='2'>
					<syllabic>end</syllabic>
					<text>a</text>
				</lyric>
				<lyric number='3'>
					<syllabic>end</syllabic>
					<text>O</text>
				</lyric>
				<lyric number='4'>
					<syllabic>end</syllabic>
					<text>I&#8217;ll</text>
				</lyric>
			</note>
			<note>
				<chord/>
				<pitch>
					<step>G</step>
					<octave>4</octave>
				</pitch>
				<duration>768</duration>
				<voice>1</voice>
				<type>quarter</type>
			</note>
		</measure>
		<measure number='2'>
			<note>
				<pitch>
					<step>D</step>
					<octave>4</octave>
				</pitch>
				<duration>1536</duration>
				<voice>1</voice>
				<type>half</type>
				<lyric number='1'>
					<syllabic>end</syllabic>
					<text>near</text>
				</lyric>
				<lyric number='2'>
					<syllabic>middle</syllabic>
					<text>trem</text>
				</lyric>
				<lyric number='3'>
					<syllabic>end</syllabic>
					<text>Lamb</text>
				</lyric>
				<lyric number='4'>
					<syllabic>end</syllabic>
					<text>watch</text>
				</lyric>
			</note>
			<note>
				<chord/>
				<pitch>
					<step>F</step>
					<octave>4</octave>
				</pitch>
				<duration>1536</duration>
				<voice>1</voice>
				<type>half</type>
			</note>
			<backup>
				<duration>1536</duration>
			</backup>
			<note>
				<rest/>
				<duration>1536</duration>
				<voice>2</voice>
				<type>half</type>
			</note>
			<note>
				<pitch>
					<step>D</step>
					<octave>4</octave>
				</pitch>
				<duration>768</duration>
				<voice>1</voice>
				<type>quarter</type>
				<lyric number='1'>
					<syllabic>end</syllabic>
					<text>the</text>
				</lyric>
				<lyric number='2'>
					<syllabic>end</syllabic>
					<text>bling</text>
				</lyric>
				<lyric number='3'>
					<syllabic>end</syllabic>
					<text>of</text>
				</lyric>
				<lyric number='4'>
					<syllabic>end</syllabic>
					<text>and</text>
				</lyric>
			</note>
			<backup>
				<duration>768</duration>
			</backup>
			<note>
				<pitch>
					<step>D</step>
					<octave>4</octave>
				</pitch>
				<duration>768</duration>
				<voice>2</voice>
				<type>quarter</type>
			</note>
			<note>
				<pitch>
					<step>D</step>
					<octave>4</octave>
				</pitch>
				<duration>2304</duration>
				<voice>1</voice>
				<type>half</type>
				<dot/>
				<lyric number='1'>
					<syllabic>end</syllabic>
					<text>cross,</text>
				</lyric>
				<lyric number='2'>
					<syllabic>end</syllabic>
					<text>soul,</text>
				</lyric>
				<lyric number='3'>
					<syllabic>end</syllabic>
					<text>God,</text>
				</lyric>
				<lyric number='4'>
					<syllabic>end</syllabic>
					<text>wait</text>
				</lyric>
			</note>
			<backup>
				<duration>2304</duration>
			</backup>
			<note>
				<pitch>
					<step>D</step>
					<octave>4</octave>
				</pitch>
				<duration>2304</duration>
				<voice>2</voice>
				<type>half</type>
				<dot/>
			</note>
		</measure>
		<measure number='3'>
			<note>
				<pitch>
					<step>A</step>
					<octave>3</octave>
				</pitch>
				<duration>1536</duration>
				<voice>1</voice>
				<type>half</type>
				<lyric number='1'>
					<syllabic>end</syllabic>
					<text>There</text>
				</lyric>
				<lyric number='2'>
					<syllabic>end</syllabic>
					<text>Love</text>
				</lyric>
				<lyric number='3'>
					<syllabic>end</syllabic>
					<text>Bring</text>
				</lyric>
				<lyric number='4'>
					<syllabic>middle</syllabic>
					<text>Hop</text>
				</lyric>
			</note>
			<note>
				<chord/>
				<pitch>
					<step>C</step>
					<octave>4</octave>
				</pitch>
				<duration>1536</duration>
				<voice>1</voice>
				<type>half</type>
			</note>
			<note>
				<pitch>
					<step>C</step>
					<octave>4</octave>
				</pitch>
				<duration>768</duration>
				<voice>1</voice>
				<type>quarter</type>
				<lyric number='1'>
					<syllabic>end</syllabic>
					<text>a</text>
				</lyric>
				<lyric number='2'>
					<syllabic>end</syllabic>
					<text>and</text>
				</lyric>
				<lyric number='3'>
					<syllabic>end</syllabic>
					<text>its</text>
				</lyric>
				<lyric number='4'>
					<syllabic>end</syllabic>
					<text>ing,</text>
				</lyric>
			</note>
			<note>
				<chord/>
				<pitch>
					<step>F</step>
					<octave>4</octave>
				</pitch>
				<duration>768</duration>
				<voice>1</voice>
				<type>quarter</type>
			</note>
			<note>
				<pitch>
					<step>C</step>
					<octave>4</octave>
				</pitch>
				<duration>1536</duration>
				<voice>1</voice>
				<type>half</type>
				<lyric number='1'>
					<syllabic>middle</syllabic>
					<text>pre</text>
				</lyric>
				<lyric number='2'>
					<syllabic>middle</syllabic>
					<text>Mer</text>
				</lyric>
				<lyric number='3'>
					<syllabic>end</syllabic>
					<text>scenes</text>
				</lyric>
				<lyric number='4'>
					<syllabic>middle</syllabic>
					<text>trust</text>
				</lyric>
			</note>
			<note>
				<chord/>
				<pitch>
					<step>F</step>
					<octave>4</octave>
				</pitch>
				<duration>1536</duration>
				<voice>1</voice>
				<type>half</type>
			</note>
			<note>
				<pitch>
					<step>F</step>
					<octave>4</octave>
				</pitch>
				<duration>768</duration>
				<voice>1</voice>
				<type>quarter</type>
				<lyric number='1'>
					<syllabic>end</syllabic>
					<text>cious</text>
				</lyric>
				<lyric number='2'>
					<syllabic>end</syllabic>
					<text>cy</text>
				</lyric>
				<lyric number='3'>
					<syllabic>middle</syllabic>
					<text>be</text>
				</lyric>
				<lyric number='4'>
					<syllabic>end</syllabic>
					<text>ing</text>
				</lyric>
			</note>
			<note>
				<chord/>
				<pitch>
					<step>A</step>
					<octave>4</octave>
				</pitch>
				<duration>768</duration>
				<voice>1</voice>
				<type>quarter</type>
			</note>
		</measure>
		<measure number='4'>
			<note>
				<pitch>
					<step>F</step>
					<octave>4</octave>
				</pitch>
				<duration>2304</duration>
				<voice>1</voice>
				<type>half</type>
				<dot/>
				<lyric number='1'>
					<syllabic>middle</syllabic>
					<text>foun</text>
				</lyric>
				<lyric number='2'>
					<syllabic>end</syllabic>
					<text>found</text>
				</lyric>
				<lyric number='3'>
					<syllabic>end</syllabic>
					<text>fore</text>
				</lyric>
				<lyric number='4'>
					<syllabic>middle</syllabic>
					<text>ev</text>
				</lyric>
			</note>
			<note>
				<chord/>
				<pitch>
					<step>A</step>
					<octave>4</octave>
				</pitch>
				<duration>2304</duration>
				<voice>1</voice>
				<type>half</type>
				<dot/>
			</note>
			<note>
				<pitch>
					<step>E</step>
					<octave>4</octave>
				</pitch>
				<duration>2304</duration>
				<voice>1</voice>
				<type>half</type>
				<dot/>
				<lyric number='1'>
					<syllabic>end</syllabic>
					<text>tain&#8212;</text>
				</lyric>
				<lyric number='2'>
					<syllabic>end</syllabic>
					<text>me;</text>
				</lyric>
				<lyric number='3'>
					<syllabic>end</syllabic>
					<text>me;</text>
				</lyric>
				<lyric number='4'>
					<syllabic>end</syllabic>
					<text>er,</text>
				</lyric>
			</note>
			<note>
				<chord/>
				<pitch>
					<step>G</step>
					<octave>4</octave>
				</pitch>
				<duration>2304</duration>
				<voice>1</voice>
				<type>half</type>
				<dot/>
			</note>
		</measure>
		<measure number='5'>
			<note>
				<pitch>
					<step>F</step>
					<octave>4</octave>
				</pitch>
				<duration>1536</duration>
				<voice>1</voice>
				<type>half</type>
				<lyric number='1'>
					<syllabic>end</syllabic>
					<text>Free</text>
				</lyric>
				<lyric number='2'>
					<syllabic>end</syllabic>
					<text>There</text>
				</lyric>
				<lyric number='3'>
					<syllabic>end</syllabic>
					<text>Help</text>
				</lyric>
				<lyric number='4'>
					<syllabic>end</syllabic>
					<text>Till</text>
				</lyric>
			</note>
			<note>
				<chord/>
				<pitch>
					<step>A</step>
					<octave>4</octave>
				</pitch>
				<duration>1536</duration>
				<voice>1</voice>
				<type>half</type>
			</note>
			<note>
				<pitch>
					<step>F</step>
					<octave>4</octave>
				</pitch>
				<duration>768</duration>
				<voice>1</voice>
				<type>quarter</type>
				<lyric number='1'>
					<syllabic>end</syllabic>
					<text>to</text>
				</lyric>
				<lyric number='2'>
					<syllabic>end</syllabic>
					<text>the</text>
				</lyric>
				<lyric number='3'>
					<syllabic>end</syllabic>
					<text>me</text>
				</lyric>
				<lyric number='4'>
					<syllabic>end</syllabic>
					<text>I</text>
				</lyric>
			</note>
			<note>
				<chord/>
				<pitch>
					<step>B</step>
					<alter>-1</alter>
					<octave>4</octave>
				</pitch>
				<duration>768</duration>
				<voice>1</voice>
				<type>quarter</type>
			</note>
			<note>
				<pitch>
					<step>F</step>
					<octave>4</octave>
				</pitch>
				<duration>1536</duration>
				<voice>1</voice>
				<type>half</type>
				<lyric number='1'>
					<syllabic>end</syllabic>
					<text>all,</text>
				</lyric>
				<lyric number='2'>
					<syllabic>end</syllabic>
					<text>bright</text>
				</lyric>
				<lyric number='3'>
					<syllabic>end</syllabic>
					<text>walk</text>
				</lyric>
				<lyric number='4'>
					<syllabic>end</syllabic>
					<text>reach</text>
				</lyric>
			</note>
			<note>
				<chord/>
				<pitch>
					<step>A</step>
					<octave>4</octave>
				</pitch>
				<duration>1536</duration>
				<voice>1</voice>
				<type>half</type>
			</note>
			<note>
				<pitch>
					<step>E</step>
					<octave>4</octave>
				</pitch>
				<duration>768</duration>
				<voice>1</voice>
				<type>quarter</type>
				<lyric number='1'>
					<syllabic>end</syllabic>
					<text>a</text>
				</lyric>
				<lyric number='2'>
					<syllabic>end</syllabic>
					<text>and</text>
				</lyric>
				<lyric number='3'>
					<syllabic>end</syllabic>
					<text>from</text>
				</lyric>
				<lyric number='4'>
					<syllabic>end</syllabic>
					<text>the</text>
				</lyric>
			</note>
			<note>
				<chord/>
				<pitch>
					<step>G</step>
					<octave>4</octave>
				</pitch>
				<duration>768</duration>
				<voice>1</voice>
				<type>quarter</type>
			</note>
		</measure>
		<measure number='6'>
			<note>
				<pitch>
					<step>D</step>
					<octave>4</octave>
				</pitch>
				<duration>1536</duration>
				<voice>1</voice>
				<type>half</type>
				<lyric number='1'>
					<syllabic>middle</syllabic>
					<text>heal</text>
				</lyric>
				<lyric number='2'>
					<syllabic>middle</syllabic>
					<text>morn</text>
				</lyric>
				<lyric number='3'>
					<syllabic>end</syllabic>
					<text>day</text>
				</lyric>
				<lyric number='4'>
					<syllabic>middle</syllabic>
					<text>gold</text>
				</lyric>
			</note>
			<note>
				<chord/>
				<pitch>
					<step>F</step>
					<octave>4</octave>
				</pitch>
				<duration>1536</duration>
				<voice>1</voice>
				<type>half</type>
			</note>
			<backup>
				<duration>1536</duration>
			</backup>
			<note>
				<rest/>
				<duration>1536</duration>
				<voice>2</voice>
				<type>half</type>
			</note>
			<note>
				<pitch>
					<step>D</step>
					<octave>4</octave>
				</pitch>
				<duration>768</duration>
				<voice>1</voice>
				<type>quarter</type>
				<lyric number='1'>
					<syllabic>end</syllabic>
					<text>ing</text>
				</lyric>
				<lyric number='2'>
					<syllabic>end</syllabic>
					<text>ing</text>
				</lyric>
				<lyric number='3'>
					<syllabic>end</syllabic>
					<text>to</text>
				</lyric>
				<lyric number='4'>
					<syllabic>end</syllabic>
					<text>en</text>
				</lyric>
			</note>
			<backup>
				<duration>768</duration>
			</backup>
			<note>
				<pitch>
					<step>D</step>
					<octave>4</octave>
				</pitch>
				<duration>768</duration>
				<voice>2</voice>
				<type>quarter</type>
			</note>
			<note>
				<pitch>
					<step>B</step>
					<alter>-1</alter>
					<octave>3</octave>
				</pitch>
				<duration>2304</duration>
				<voice>1</voice>
				<type>half</type>
				<dot/>
				<lyric number='1'>
					<syllabic>end</syllabic>
					<text>stream&#8212;</text>
				</lyric>
				<lyric number='2'>
					<syllabic>end</syllabic>
					<text>star</text>
				</lyric>
				<lyric number='3'>
					<syllabic>end</syllabic>
					<text>day,</text>
				</lyric>
				<lyric number='4'>
					<syllabic>end</syllabic>
					<text>strand,</text>
				</lyric>
			</note>
			<note>
				<chord/>
				<pitch>
					<step>D</step>
					<octave>4</octave>
				</pitch>
				<duration>2304</duration>
				<voice>1</voice>
				<type>half</type>
				<dot/>
			</note>
			<backup>
				<duration>2304</duration>
			</backup>
			<note>
				<rest/>
				<duration>2304</duration>
				<voice>2</voice>
				<type>half</type>
				<dot/>
			</note>
		</measure>
		<measure number='7'>
			<note>
				<pitch>
					<step>A</step>
					<octave>3</octave>
				</pitch>
				<duration>1536</duration>
				<voice>1</voice>
				<type>half</type>
				<lyric number='1'>
					<syllabic>end</syllabic>
					<text>Flows</text>
				</lyric>
				<lyric number='2'>
					<syllabic>end</syllabic>
					<text>Sheds</text>
				</lyric>
				<lyric number='3'>
					<syllabic>end</syllabic>
					<text>With</text>
				</lyric>
				<lyric number='4'>
					<syllabic>end</syllabic>
					<text>Just</text>
				</lyric>
			</note>
			<note>
				<chord/>
				<pitch>
					<step>C</step>
					<octave>4</octave>
				</pitch>
				<duration>1536</duration>
				<voice>1</voice>
				<type>half</type>
			</note>
			<note>
				<pitch>
					<step>C</step>
					<octave>4</octave>
				</pitch>
				<duration>768</duration>
				<voice>1</voice>
				<type>quarter</type>
				<lyric number='1'>
					<syllabic>end</syllabic>
					<text>from</text>
				</lyric>
				<lyric number='2'>
					<syllabic>end</syllabic>
					<text>its</text>
				</lyric>
				<lyric number='3'>
					<syllabic>end</syllabic>
					<text>its</text>
				</lyric>
				<lyric number='4'>
					<syllabic>middle</syllabic>
					<text>be</text>
				</lyric>
			</note>
			<note>
				<chord/>
				<pitch>
					<step>F</step>
					<octave>4</octave>
				</pitch>
				<duration>768</duration>
				<voice>1</voice>
				<type>quarter</type>
			</note>
			<note>
				<pitch>
					<step>C</step>
					<octave>4</octave>
				</pitch>
				<duration>1536</duration>
				<voice>1</voice>
				<type>half</type>
				<lyric number='1'>
					<syllabic>middle</syllabic>
					<text>Cal</text>
				</lyric>
				<lyric number='2'>
					<syllabic>end</syllabic>
					<text>beams</text>
				</lyric>
				<lyric number='3'>
					<syllabic>middle</syllabic>
					<text>shad</text>
				</lyric>
				<lyric number='4'>
					<syllabic>end</syllabic>
					<text>yond</text>
				</lyric>
			</note>
			<note>
				<chord/>
				<pitch>
					<step>F</step>
					<octave>4</octave>
				</pitch>
				<duration>1536</duration>
				<voice>1</voice>
				<type>half</type>
			</note>
			<note>
				<pitch>
					<step>C</step>
					<octave>4</octave>
				</pitch>
				<duration>768</duration>
				<voice>1</voice>
				<type>quarter</type>
				<lyric number='1'>
					<syllabic>end</syllabic>
					<text>v&#8217;ry&#8217;s</text>
				</lyric>
				<lyric number='2'>
					<syllabic>middle</syllabic>
					<text>a</text>
				</lyric>
				<lyric number='3'>
					<syllabic>end</syllabic>
					<text>ows</text>
				</lyric>
				<lyric number='4'>
					<syllabic>end</syllabic>
					<text>the</text>
				</lyric>
			</note>
			<note>
				<chord/>
				<pitch>
					<step>E</step>
					<octave>4</octave>
				</pitch>
				<duration>768</duration>
				<voice>1</voice>
				<type>quarter</type>
			</note>
		</measure>
		<measure number='8'>
			<note>
				<pitch>
					<step>E</step>
					<octave>4</octave>
				</pitch>
				<duration>2304</duration>
				<voice>1</voice>
				<type>half</type>
				<dot/>
				<lyric number='1'>
					<syllabic>middle</syllabic>
					<text>moun</text>
				</lyric>
				<lyric number='2'>
					<syllabic>end</syllabic>
					<text>round</text>
				</lyric>
				<lyric number='3'>
					<syllabic>end</syllabic>
					<text>o&#8217;er</text>
				</lyric>
				<lyric number='4'>
					<syllabic>middle</syllabic>
					<text>riv</text>
				</lyric>
			</note>
			<note>
				<chord/>
				<pitch>
					<step>G</step>
					<octave>4</octave>
				</pitch>
				<duration>2304</duration>
				<voice>1</voice>
				<type>half</type>
				<dot/>
			</note>
			<backup>
				<duration>2304</duration>
			</backup>
			<note>
				<rest/>
				<duration>2304</duration>
				<voice>2</voice>
				<type>half</type>
				<dot/>
			</note>
			<note>
				<pitch>
					<step>F</step>
					<octave>4</octave>
				</pitch>
				<duration>2304</duration>
				<voice>1</voice>
				<type>half</type>
				<dot/>
				<lyric number='1'>
					<syllabic>end</syllabic>
					<text>tain.</text>
				</lyric>
				<lyric number='2'>
					<syllabic>end</syllabic>
					<text>me.</text>
				</lyric>
				<lyric number='3'>
					<syllabic>end</syllabic>
					<text>me.</text>
				</lyric>
				<lyric number='4'>
					<syllabic>end</syllabic>
					<text>er.</text>
				</lyric>
			</note>
			<backup>
				<duration>2304</duration>
			</backup>
			<note>
				<pitch>
					<step>F</step>
					<octave>4</octave>
				</pitch>
				<duration>2304</duration>
				<voice>2</voice>
				<type>half</type>
				<dot/>
			</note>
			<barline location='right'>
				<bar-style>light-light</bar-style>
			</barline>
		</measure>
		<measure number='9'>
			<direction>
				<direction-type>
					<words default-y='25' relative-x='-52'>Refrain</words>
				</direction-type>
			</direction>
			<note>
				<pitch>
					<step>F</step>
					<octave>4</octave>
				</pitch>
				<duration>1536</duration>
				<voice>1</voice>
				<type>half</type>
				<lyric number='1'>
					<syllabic>end</syllabic>
					<text>In</text>
				</lyric>
			</note>
			<note>
				<chord/>
				<pitch>
					<step>A</step>
					<octave>4</octave>
				</pitch>
				<duration>1536</duration>
				<voice>1</voice>
				<type>half</type>
			</note>
			<note>
				<pitch>
					<step>F</step>
					<octave>4</octave>
				</pitch>
				<duration>768</duration>
				<voice>1</voice>
				<type>quarter</type>
				<lyric number='1'>
					<syllabic>end</syllabic>
					<text>the</text>
				</lyric>
			</note>
			<note>
				<chord/>
				<pitch>
					<step>C</step>
					<octave>5</octave>
				</pitch>
				<duration>768</duration>
				<voice>1</voice>
				<type>quarter</type>
			</note>
			<note>
				<pitch>
					<step>F</step>
					<octave>4</octave>
				</pitch>
				<duration>2304</duration>
				<voice>1</voice>
				<type>half</type>
				<dot/>
				<lyric number='1'>
					<syllabic>end</syllabic>
					<text>cross,</text>
				</lyric>
			</note>
			<note>
				<chord/>
				<pitch>
					<step>C</step>
					<octave>5</octave>
				</pitch>
				<duration>2304</duration>
				<voice>1</voice>
				<type>half</type>
				<dot/>
			</note>
		</measure>
		<measure number='10'>
			<note>
				<pitch>
					<step>F</step>
					<octave>4</octave>
				</pitch>
				<duration>1536</duration>
				<voice>1</voice>
				<type>half</type>
				<lyric number='1'>
					<syllabic>end</syllabic>
					<text>in</text>
				</lyric>
			</note>
			<note>
				<chord/>
				<pitch>
					<step>B</step>
					<alter>-1</alter>
					<octave>4</octave>
				</pitch>
				<duration>1536</duration>
				<voice>1</voice>
				<type>half</type>
			</note>
			<note>
				<pitch>
					<step>F</step>
					<octave>4</octave>
				</pitch>
				<duration>768</duration>
				<voice>1</voice>
				<type>quarter</type>
				<lyric number='1'>
					<syllabic>end</syllabic>
					<text>the</text>
				</lyric>
			</note>
			<note>
				<chord/>
				<pitch>
					<step>D</step>
					<octave>5</octave>
				</pitch>
				<duration>768</duration>
				<voice>1</voice>
				<type>quarter</type>
			</note>
			<note>
				<pitch>
					<step>F</step>
					<octave>4</octave>
				</pitch>
				<duration>2304</duration>
				<voice>1</voice>
				<type>half</type>
				<dot/>
				<lyric number='1'>
					<syllabic>end</syllabic>
					<text>cross,</text>
				</lyric>
			</note>
			<note>
				<chord/>
				<pitch>
					<step>D</step>
					<octave>5</octave>
				</pitch>
				<duration>2304</duration>
				<voice>1</voice>
				<type>half</type>
				<dot/>
			</note>
		</measure>
		<measure number='11'>
			<note>
				<pitch>
					<step>F</step>
					<octave>4</octave>
				</pitch>
				<duration>1536</duration>
				<voice>1</voice>
				<type>half</type>
				<lyric number='1'>
					<syllabic>end</syllabic>
					<text>Be</text>
				</lyric>
			</note>
			<note>
				<chord/>
				<pitch>
					<step>C</step>
					<octave>5</octave>
				</pitch>
				<duration>1536</duration>
				<voice>1</voice>
				<type>half</type>
			</note>
			<note>
				<pitch>
					<step>F</step>
					<octave>4</octave>
				</pitch>
				<duration>768</duration>
				<voice>1</voice>
				<type>quarter</type>
				<lyric number='1'>
					<syllabic>end</syllabic>
					<text>my</text>
				</lyric>
			</note>
			<note>
				<chord/>
				<pitch>
					<step>D</step>
					<octave>5</octave>
				</pitch>
				<duration>768</duration>
				<voice>1</voice>
				<type>quarter</type>
			</note>
			<note>
				<pitch>
					<step>F</step>
					<octave>4</octave>
				</pitch>
				<duration>1536</duration>
				<voice>1</voice>
				<type>half</type>
				<lyric number='1'>
					<syllabic>middle</syllabic>
					<text>glo</text>
				</lyric>
			</note>
			<note>
				<chord/>
				<pitch>
					<step>C</step>
					<octave>5</octave>
				</pitch>
				<duration>1536</duration>
				<voice>1</voice>
				<type>half</type>
			</note>
			<note>
				<pitch>
					<step>F</step>
					<octave>4</octave>
				</pitch>
				<duration>768</duration>
				<voice>1</voice>
				<type>quarter</type>
				<lyric number='1'>
					<syllabic>end</syllabic>
					<text>ry</text>
				</lyric>
			</note>
			<note>
				<chord/>
				<pitch>
					<step>A</step>
					<octave>4</octave>
				</pitch>
				<duration>768</duration>
				<voice>1</voice>
				<type>quarter</type>
			</note>
		</measure>
		<measure number='12'>
			<note>
				<pitch>
					<step>F</step>
					<octave>4</octave>
				</pitch>
				<duration>2304</duration>
				<voice>1</voice>
				<type>half</type>
				<dot/>
				<lyric number='1'>
					<syllabic>middle</syllabic>
					<text>ev</text>
				</lyric>
			</note>
			<note>
				<chord/>
				<pitch>
					<step>A</step>
					<octave>4</octave>
				</pitch>
				<duration>2304</duration>
				<voice>1</voice>
				<type>half</type>
				<dot/>
			</note>
			<note>
				<pitch>
					<step>E</step>
					<octave>4</octave>
				</pitch>
				<duration>2304</duration>
				<voice>1</voice>
				<type>half</type>
				<dot/>
				<lyric number='1'>
					<syllabic>end</syllabic>
					<text>er;</text>
				</lyric>
			</note>
			<note>
				<chord/>
				<pitch>
					<step>G</step>
					<octave>4</octave>
				</pitch>
				<duration>2304</duration>
				<voice>1</voice>
				<type>half</type>
				<dot/>
			</note>
		</measure>
		<measure number='13'>
			<note>
				<pitch>
					<step>C</step>
					<octave>4</octave>
				</pitch>
				<duration>1536</duration>
				<voice>1</voice>
				<type>half</type>
				<lyric number='1'>
					<syllabic>end</syllabic>
					<text>Till</text>
				</lyric>
			</note>
			<note>
				<chord/>
				<pitch>
					<step>A</step>
					<octave>4</octave>
				</pitch>
				<duration>1536</duration>
				<voice>1</voice>
				<type>half</type>
			</note>
			<note>
				<pitch>
					<step>D</step>
					<octave>4</octave>
				</pitch>
				<duration>768</duration>
				<voice>1</voice>
				<type>quarter</type>
				<lyric number='1'>
					<syllabic>end</syllabic>
					<text>my</text>
				</lyric>
			</note>
			<note>
				<chord/>
				<pitch>
					<step>B</step>
					<alter>-1</alter>
					<octave>4</octave>
				</pitch>
				<duration>768</duration>
				<voice>1</voice>
				<type>quarter</type>
			</note>
			<note>
				<pitch>
					<step>C</step>
					<octave>4</octave>
				</pitch>
				<duration>1536</duration>
				<voice>1</voice>
				<type>half</type>
				<lyric number='1'>
					<syllabic>middle</syllabic>
					<text>rap</text>
				</lyric>
			</note>
			<note>
				<chord/>
				<pitch>
					<step>A</step>
					<octave>4</octave>
				</pitch>
				<duration>1536</duration>
				<voice>1</voice>
				<type>half</type>
			</note>
			<note>
				<pitch>
					<step>C</step>
					<alter>1</alter>
					<octave>4</octave>
				</pitch>
				<duration>768</duration>
				<voice>1</voice>
				<type>quarter</type>
				<lyric number='1'>
					<syllabic>end</syllabic>
					<text>tured</text>
				</lyric>
			</note>
			<note>
				<chord/>
				<pitch>
					<step>G</step>
					<octave>4</octave>
				</pitch>
				<duration>768</duration>
				<voice>1</voice>
				<type>quarter</type>
			</note>
		</measure>
		<measure number='14'>
			<note>
				<pitch>
					<step>D</step>
					<octave>4</octave>
				</pitch>
				<duration>1536</duration>
				<voice>1</voice>
				<type>half</type>
				<lyric number='1'>
					<syllabic>end</syllabic>
					<text>soul</text>
				</lyric>
			</note>
			<note>
				<chord/>
				<pitch>
					<step>F</step>
					<octave>4</octave>
				</pitch>
				<duration>1536</duration>
				<voice>1</voice>
				<type>half</type>
			</note>
			<backup>
				<duration>1536</duration>
			</backup>
			<note>
				<rest/>
				<duration>1536</duration>
				<voice>2</voice>
				<type>half</type>
			</note>
			<note>
				<pitch>
					<step>D</step>
					<octave>4</octave>
				</pitch>
				<duration>768</duration>
				<voice>1</voice>
				<type>quarter</type>
				<lyric number='1'>
					<syllabic>end</syllabic>
					<text>shall</text>
				</lyric>
			</note>
			<backup>
				<duration>768</duration>
			</backup>
			<note>
				<pitch>
					<step>D</step>
					<octave>4</octave>
				</pitch>
				<duration>768</duration>
				<voice>2</voice>
				<type>quarter</type>
			</note>
			<note>
				<pitch>
					<step>B</step>
					<alter>-1</alter>
					<octave>3</octave>
				</pitch>
				<duration>2304</duration>
				<voice>1</voice>
				<type>half</type>
				<dot/>
				<lyric number='1'>
					<syllabic>end</syllabic>
					<text>find</text>
				</lyric>
			</note>
			<note>
				<chord/>
				<pitch>
					<step>D</step>
					<octave>4</octave>
				</pitch>
				<duration>2304</duration>
				<voice>1</voice>
				<type>half</type>
				<dot/>
			</note>
			<backup>
				<duration>2304</duration>
			</backup>
			<note>
				<rest/>
				<duration>2304</duration>
				<voice>2</voice>
				<type>half</type>
				<dot/>
			</note>
		</measure>
		<measure number='15'>
			<note>
				<pitch>
					<step>A</step>
					<octave>3</octave>
				</pitch>
				<duration>1536</duration>
				<voice>1</voice>
				<type>half</type>
				<lyric number='1'>
					<syllabic>end</syllabic>
					<text>Rest</text>
				</lyric>
			</note>
			<note>
				<chord/>
				<pitch>
					<step>C</step>
					<octave>4</octave>
				</pitch>
				<duration>1536</duration>
				<voice>1</voice>
				<type>half</type>
			</note>
			<note>
				<pitch>
					<step>C</step>
					<octave>4</octave>
				</pitch>
				<duration>768</duration>
				<voice>1</voice>
				<type>quarter</type>
				<lyric number='1'>
					<syllabic>middle</syllabic>
					<text>be</text>
				</lyric>
			</note>
			<note>
				<chord/>
				<pitch>
					<step>F</step>
					<octave>4</octave>
				</pitch>
				<duration>768</duration>
				<voice>1</voice>
				<type>quarter</type>
			</note>
			<note>
				<pitch>
					<step>C</step>
					<octave>4</octave>
				</pitch>
				<duration>1536</duration>
				<voice>1</voice>
				<type>half</type>
				<lyric number='1'>
					<syllabic>end</syllabic>
					<text>yond</text>
				</lyric>
			</note>
			<note>
				<chord/>
				<pitch>
					<step>F</step>
					<octave>4</octave>
				</pitch>
				<duration>1536</duration>
				<voice>1</voice>
				<type>half</type>
			</note>
			<note>
				<pitch>
					<step>C</step>
					<octave>4</octave>
				</pitch>
				<duration>768</duration>
				<voice>1</voice>
				<type>quarter</type>
				<lyric number='1'>
					<syllabic>end</syllabic>
					<text>the</text>
				</lyric>
			</note>
			<note>
				<chord/>
				<pitch>
					<step>E</step>
					<octave>4</octave>
				</pitch>
				<duration>768</duration>
				<voice>1</voice>
				<type>quarter</type>
			</note>
		</measure>
		<measure number='16'>
			<note>
				<pitch>
					<step>E</step>
					<octave>4</octave>
				</pitch>
				<duration>2304</duration>
				<voice>1</voice>
				<type>half</type>
				<dot/>
				<lyric number='1'>
					<syllabic>middle</syllabic>
					<text>riv</text>
				</lyric>
			</note>
			<note>
				<chord/>
				<pitch>
					<step>G</step>
					<octave>4</octave>
				</pitch>
				<duration>2304</duration>
				<voice>1</voice>
				<type>half</type>
				<dot/>
			</note>
			<backup>
				<duration>2304</duration>
			</backup>
			<note>
				<rest/>
				<duration>2304</duration>
				<voice>2</voice>
				<type>half</type>
				<dot/>
			</note>
			<note>
				<pitch>
					<step>F</step>
					<octave>4</octave>
				</pitch>
				<duration>2304</duration>
				<voice>1</voice>
				<type>half</type>
				<dot/>
				<lyric number='1'>
					<syllabic>end</syllabic>
					<text>er.</text>
				</lyric>
			</note>
			<backup>
				<duration>2304</duration>
			</backup>
			<note>
				<pitch>
					<step>F</step>
					<octave>4</octave>
				</pitch>
				<duration>2304</duration>
				<voice>2</voice>
				<type>half</type>
				<dot/>
			</note>
			<barline location='right'>
				<bar-style>light-heavy</bar-style>
			</barline>
		</measure>
	</part>
	<part id='P2'>
		<measure number='1'>
			<attributes>
				<divisions>768</divisions>
				<key>
					<fifths>-1</fifths>
					<mode>major</mode>
				</key>
				<time>
					<beats>6</beats>
					<beat-type>4</beat-type>
				</time>
				<clef>
					<sign>F</sign>
					<line>4</line>
				</clef>
			</attributes>
			<direction placement='above'>
				<direction-type>
					<metronome>
						<beat-unit>quarter</beat-unit>
						<per-minute>110</per-minute>
					</metronome>
				</direction-type>
				<sound tempo='110'/>
			</direction>
			<note>
				<pitch>
					<step>F</step>
					<octave>3</octave>
				</pitch>
				<duration>1536</duration>
				<voice>1</voice>
				<type>half</type>
			</note>
			<note>
				<chord/>
				<pitch>
					<step>C</step>
					<octave>4</octave>
				</pitch>
				<duration>1536</duration>
				<voice>1</voice>
				<type>half</type>
			</note>
			<note>
				<pitch>
					<step>F</step>
					<octave>3</octave>
				</pitch>
				<duration>768</duration>
				<voice>1</voice>
				<type>quarter</type>
			</note>
			<note>
				<chord/>
				<pitch>
					<step>D</step>
					<octave>4</octave>
				</pitch>
				<duration>768</duration>
				<voice>1</voice>
				<type>quarter</type>
			</note>
			<note>
				<pitch>
					<step>F</step>
					<octave>3</octave>
				</pitch>
				<duration>1536</duration>
				<voice>1</voice>
				<type>half</type>
			</note>
			<note>
				<chord/>
				<pitch>
					<step>C</step>
					<octave>4</octave>
				</pitch>
				<duration>1536</duration>
				<voice>1</voice>
				<type>half</type>
			</note>
			<note>
				<pitch>
					<step>C</step>
					<octave>3</octave>
				</pitch>
				<duration>768</duration>
				<voice>1</voice>
				<type>quarter</type>
			</note>
			<note>
				<chord/>
				<pitch>
					<step>B</step>
					<alter>-1</alter>
					<octave>3</octave>
				</pitch>
				<duration>768</duration>
				<voice>1</voice>
				<type>quarter</type>
			</note>
		</measure>
		<measure number='2'>
			<note>
				<pitch>
					<step>D</step>
					<octave>3</octave>
				</pitch>
				<duration>1536</duration>
				<voice>1</voice>
				<type>half</type>
			</note>
			<note>
				<chord/>
				<pitch>
					<step>A</step>
					<octave>3</octave>
				</pitch>
				<duration>1536</duration>
				<voice>1</voice>
				<type>half</type>
			</note>
			<note>
				<pitch>
					<step>B</step>
					<alter>-1</alter>
					<octave>2</octave>
				</pitch>
				<duration>768</duration>
				<voice>1</voice>
				<type>quarter</type>
			</note>
			<note>
				<chord/>
				<pitch>
					<step>B</step>
					<alter>-1</alter>
					<octave>3</octave>
				</pitch>
				<duration>768</duration>
				<voice>1</voice>
				<type>quarter</type>
			</note>
			<note>
				<pitch>
					<step>B</step>
					<alter>-1</alter>
					<octave>2</octave>
				</pitch>
				<duration>2304</duration>
				<voice>1</voice>
				<type>half</type>
				<dot/>
			</note>
			<note>
				<chord/>
				<pitch>
					<step>B</step>
					<alter>-1</alter>
					<octave>3</octave>
				</pitch>
				<duration>2304</duration>
				<voice>1</voice>
				<type>half</type>
				<dot/>
			</note>
		</measure>
		<measure number='3'>
			<note>
				<pitch>
					<step>F</step>
					<octave>3</octave>
				</pitch>
				<duration>1536</duration>
				<voice>1</voice>
				<type>half</type>
			</note>
			<note>
				<chord/>
				<pitch>
					<step>A</step>
					<octave>3</octave>
				</pitch>
				<duration>1536</duration>
				<voice>1</voice>
				<type>half</type>
			</note>
			<note>
				<pitch>
					<step>F</step>
					<octave>3</octave>
				</pitch>
				<duration>768</duration>
				<voice>1</voice>
				<type>quarter</type>
			</note>
			<note>
				<chord/>
				<pitch>
					<step>A</step>
					<octave>3</octave>
				</pitch>
				<duration>768</duration>
				<voice>1</voice>
				<type>quarter</type>
			</note>
			<note>
				<pitch>
					<step>F</step>
					<octave>3</octave>
				</pitch>
				<duration>1536</duration>
				<voice>1</voice>
				<type>half</type>
			</note>
			<note>
				<chord/>
				<pitch>
					<step>A</step>
					<octave>3</octave>
				</pitch>
				<duration>1536</duration>
				<voice>1</voice>
				<type>half</type>
			</note>
			<note>
				<pitch>
					<step>F</step>
					<octave>3</octave>
				</pitch>
				<duration>768</duration>
				<voice>1</voice>
				<type>quarter</type>
			</note>
			<note>
				<chord/>
				<pitch>
					<step>C</step>
					<octave>4</octave>
				</pitch>
				<duration>768</duration>
				<voice>1</voice>
				<type>quarter</type>
			</note>
		</measure>
		<measure number='4'>
			<note>
				<pitch>
					<step>C</step>
					<octave>3</octave>
				</pitch>
				<duration>2304</duration>
				<voice>1</voice>
				<type>half</type>
				<dot/>
			</note>
			<note>
				<chord/>
				<pitch>
					<step>C</step>
					<octave>4</octave>
				</pitch>
				<duration>2304</duration>
				<voice>1</voice>
				<type>half</type>
				<dot/>
			</note>
			<note>
				<pitch>
					<step>C</step>
					<octave>3</octave>
				</pitch>
				<duration>2304</duration>
				<voice>1</voice>
				<type>half</type>
				<dot/>
			</note>
			<note>
				<chord/>
				<pitch>
					<step>C</step>
					<octave>4</octave>
				</pitch>
				<duration>2304</duration>
				<voice>1</voice>
				<type>half</type>
				<dot/>
			</note>
		</measure>
		<measure number='5'>
			<note>
				<pitch>
					<step>F</step>
					<octave>3</octave>
				</pitch>
				<duration>1536</duration>
				<voice>1</voice>
				<type>half</type>
			</note>
			<note>
				<chord/>
				<pitch>
					<step>C</step>
					<octave>4</octave>
				</pitch>
				<duration>1536</duration>
				<voice>1</voice>
				<type>half</type>
			</note>
			<note>
				<pitch>
					<step>F</step>
					<octave>3</octave>
				</pitch>
				<duration>768</duration>
				<voice>1</voice>
				<type>quarter</type>
			</note>
			<note>
				<chord/>
				<pitch>
					<step>D</step>
					<octave>4</octave>
				</pitch>
				<duration>768</duration>
				<voice>1</voice>
				<type>quarter</type>
			</note>
			<note>
				<pitch>
					<step>F</step>
					<octave>3</octave>
				</pitch>
				<duration>1536</duration>
				<voice>1</voice>
				<type>half</type>
			</note>
			<note>
				<chord/>
				<pitch>
					<step>C</step>
					<octave>4</octave>
				</pitch>
				<duration>1536</duration>
				<voice>1</voice>
				<type>half</type>
			</note>
			<note>
				<pitch>
					<step>C</step>
					<octave>3</octave>
				</pitch>
				<duration>768</duration>
				<voice>1</voice>
				<type>quarter</type>
			</note>
			<note>
				<chord/>
				<pitch>
					<step>B</step>
					<alter>-1</alter>
					<octave>3</octave>
				</pitch>
				<duration>768</duration>
				<voice>1</voice>
				<type>quarter</type>
			</note>
		</measure>
		<measure number='6'>
			<note>
				<pitch>
					<step>D</step>
					<octave>3</octave>
				</pitch>
				<duration>1536</duration>
				<voice>1</voice>
				<type>half</type>
			</note>
			<note>
				<chord/>
				<pitch>
					<step>A</step>
					<octave>3</octave>
				</pitch>
				<duration>1536</duration>
				<voice>1</voice>
				<type>half</type>
			</note>
			<note>
				<pitch>
					<step>B</step>
					<alter>-1</alter>
					<octave>2</octave>
				</pitch>
				<duration>768</duration>
				<voice>1</voice>
				<type>quarter</type>
			</note>
			<note>
				<chord/>
				<pitch>
					<step>B</step>
					<alter>-1</alter>
					<octave>3</octave>
				</pitch>
				<duration>768</duration>
				<voice>1</voice>
				<type>quarter</type>
			</note>
			<note>
				<pitch>
					<step>B</step>
					<alter>-1</alter>
					<octave>2</octave>
				</pitch>
				<duration>2304</duration>
				<voice>1</voice>
				<type>half</type>
				<dot/>
			</note>
			<note>
				<chord/>
				<pitch>
					<step>F</step>
					<octave>3</octave>
				</pitch>
				<duration>2304</duration>
				<voice>1</voice>
				<type>half</type>
				<dot/>
			</note>
		</measure>
		<measure number='7'>
			<note>
				<pitch>
					<step>C</step>
					<octave>3</octave>
				</pitch>
				<duration>1536</duration>
				<voice>1</voice>
				<type>half</type>
			</note>
			<note>
				<chord/>
				<pitch>
					<step>F</step>
					<octave>3</octave>
				</pitch>
				<duration>1536</duration>
				<voice>1</voice>
				<type>half</type>
			</note>
			<note>
				<pitch>
					<step>C</step>
					<octave>3</octave>
				</pitch>
				<duration>768</duration>
				<voice>1</voice>
				<type>quarter</type>
			</note>
			<note>
				<chord/>
				<pitch>
					<step>A</step>
					<octave>3</octave>
				</pitch>
				<duration>768</duration>
				<voice>1</voice>
				<type>quarter</type>
			</note>
			<note>
				<pitch>
					<step>C</step>
					<octave>3</octave>
				</pitch>
				<duration>1536</duration>
				<voice>1</voice>
				<type>half</type>
			</note>
			<note>
				<chord/>
				<pitch>
					<step>A</step>
					<octave>3</octave>
				</pitch>
				<duration>1536</duration>
				<voice>1</voice>
				<type>half</type>
			</note>
			<note>
				<pitch>
					<step>C</step>
					<octave>3</octave>
				</pitch>
				<duration>768</duration>
				<voice>1</voice>
				<type>quarter</type>
			</note>
			<note>
				<chord/>
				<pitch>
					<step>G</step>
					<octave>3</octave>
				</pitch>
				<duration>768</duration>
				<voice>1</voice>
				<type>quarter</type>
			</note>
		</measure>
		<measure number='8'>
			<note>
				<pitch>
					<step>C</step>
					<octave>3</octave>
				</pitch>
				<duration>2304</duration>
				<voice>1</voice>
				<type>half</type>
				<dot/>
			</note>
			<note>
				<chord/>
				<pitch>
					<step>B</step>
					<alter>-1</alter>
					<octave>3</octave>
				</pitch>
				<duration>2304</duration>
				<voice>1</voice>
				<type>half</type>
				<dot/>
			</note>
			<note>
				<pitch>
					<step>F</step>
					<octave>3</octave>
				</pitch>
				<duration>2304</duration>
				<voice>1</voice>
				<type>half</type>
				<dot/>
			</note>
			<note>
				<chord/>
				<pitch>
					<step>A</step>
					<octave>3</octave>
				</pitch>
				<duration>2304</duration>
				<voice>1</voice>
				<type>half</type>
				<dot/>
			</note>
			<barline location='right'>
				<bar-style>light-light</bar-style>
			</barline>
		</measure>
		<measure number='9'>
			<note>
				<pitch>
					<step>F</step>
					<octave>3</octave>
				</pitch>
				<duration>1536</duration>
				<voice>1</voice>
				<type>half</type>
			</note>
			<note>
				<chord/>
				<pitch>
					<step>C</step>
					<octave>4</octave>
				</pitch>
				<duration>1536</duration>
				<voice>1</voice>
				<type>half</type>
			</note>
			<note>
				<pitch>
					<step>F</step>
					<octave>3</octave>
				</pitch>
				<duration>768</duration>
				<voice>1</voice>
				<type>quarter</type>
			</note>
			<note>
				<chord/>
				<pitch>
					<step>A</step>
					<octave>3</octave>
				</pitch>
				<duration>768</duration>
				<voice>1</voice>
				<type>quarter</type>
			</note>
			<note>
				<pitch>
					<step>F</step>
					<octave>3</octave>
				</pitch>
				<duration>2304</duration>
				<voice>1</voice>
				<type>half</type>
				<dot/>
			</note>
			<note>
				<chord/>
				<pitch>
					<step>A</step>
					<octave>3</octave>
				</pitch>
				<duration>2304</duration>
				<voice>1</voice>
				<type>half</type>
				<dot/>
			</note>
		</measure>
		<measure number='10'>
			<note>
				<pitch>
					<step>B</step>
					<alter>-1</alter>
					<octave>3</octave>
				</pitch>
				<duration>1536</duration>
				<voice>1</voice>
				<type>half</type>
			</note>
			<note>
				<chord/>
				<pitch>
					<step>D</step>
					<octave>4</octave>
				</pitch>
				<duration>1536</duration>
				<voice>1</voice>
				<type>half</type>
			</note>
			<note>
				<pitch>
					<step>B</step>
					<alter>-1</alter>
					<octave>3</octave>
				</pitch>
				<duration>768</duration>
				<voice>1</voice>
				<type>quarter</type>
			</note>
			<note>
				<chord/>
				<pitch>
					<step>F</step>
					<octave>4</octave>
				</pitch>
				<duration>768</duration>
				<voice>1</voice>
				<type>quarter</type>
			</note>
			<note>
				<pitch>
					<step>B</step>
					<alter>-1</alter>
					<octave>3</octave>
				</pitch>
				<duration>2304</duration>
				<voice>1</voice>
				<type>half</type>
				<dot/>
			</note>
			<note>
				<chord/>
				<pitch>
					<step>F</step>
					<octave>4</octave>
				</pitch>
				<duration>2304</duration>
				<voice>1</voice>
				<type>half</type>
				<dot/>
			</note>
		</measure>
		<measure number='11'>
			<note>
				<pitch>
					<step>F</step>
					<octave>3</octave>
				</pitch>
				<duration>1536</duration>
				<voice>1</voice>
				<type>half</type>
			</note>
			<note>
				<chord/>
				<pitch>
					<step>A</step>
					<octave>3</octave>
				</pitch>
				<duration>1536</duration>
				<voice>1</voice>
				<type>half</type>
			</note>
			<note>
				<pitch>
					<step>F</step>
					<octave>3</octave>
				</pitch>
				<duration>768</duration>
				<voice>1</voice>
				<type>quarter</type>
			</note>
			<note>
				<chord/>
				<pitch>
					<step>B</step>
					<alter>-1</alter>
					<octave>3</octave>
				</pitch>
				<duration>768</duration>
				<voice>1</voice>
				<type>quarter</type>
			</note>
			<note>
				<pitch>
					<step>F</step>
					<octave>3</octave>
				</pitch>
				<duration>1536</duration>
				<voice>1</voice>
				<type>half</type>
			</note>
			<note>
				<chord/>
				<pitch>
					<step>A</step>
					<octave>3</octave>
				</pitch>
				<duration>1536</duration>
				<voice>1</voice>
				<type>half</type>
			</note>
			<note>
				<pitch>
					<step>F</step>
					<octave>3</octave>
				</pitch>
				<duration>768</duration>
				<voice>1</voice>
				<type>quarter</type>
			</note>
			<note>
				<chord/>
				<pitch>
					<step>C</step>
					<octave>4</octave>
				</pitch>
				<duration>768</duration>
				<voice>1</voice>
				<type>quarter</type>
			</note>
		</measure>
		<measure number='12'>
			<note>
				<pitch>
					<step>C</step>
					<octave>3</octave>
				</pitch>
				<duration>2304</duration>
				<voice>1</voice>
				<type>half</type>
				<dot/>
			</note>
			<note>
				<chord/>
				<pitch>
					<step>C</step>
					<octave>4</octave>
				</pitch>
				<duration>2304</duration>
				<voice>1</voice>
				<type>half</type>
				<dot/>
			</note>
			<note>
				<pitch>
					<step>C</step>
					<octave>3</octave>
				</pitch>
				<duration>2304</duration>
				<voice>1</voice>
				<type>half</type>
				<dot/>
			</note>
			<note>
				<chord/>
				<pitch>
					<step>C</step>
					<octave>4</octave>
				</pitch>
				<duration>2304</duration>
				<voice>1</voice>
				<type>half</type>
				<dot/>
			</note>
		</measure>
		<measure number='13'>
			<note>
				<pitch>
					<step>F</step>
					<octave>3</octave>
				</pitch>
				<duration>1536</duration>
				<voice>1</voice>
				<type>half</type>
			</note>
			<note>
				<chord/>
				<pitch>
					<step>A</step>
					<octave>3</octave>
				</pitch>
				<duration>1536</duration>
				<voice>1</voice>
				<type>half</type>
			</note>
			<note>
				<pitch>
					<step>F</step>
					<octave>3</octave>
				</pitch>
				<duration>768</duration>
				<voice>1</voice>
				<type>quarter</type>
			</note>
			<note>
				<chord/>
				<pitch>
					<step>G</step>
					<octave>3</octave>
				</pitch>
				<duration>768</duration>
				<voice>1</voice>
				<type>quarter</type>
			</note>
			<note>
				<pitch>
					<step>F</step>
					<octave>3</octave>
				</pitch>
				<duration>1536</duration>
				<voice>1</voice>
				<type>half</type>
			</note>
			<note>
				<chord/>
				<pitch>
					<step>A</step>
					<octave>3</octave>
				</pitch>
				<duration>1536</duration>
				<voice>1</voice>
				<type>half</type>
			</note>
			<note>
				<pitch>
					<step>E</step>
					<octave>3</octave>
				</pitch>
				<duration>768</duration>
				<voice>1</voice>
				<type>quarter</type>
			</note>
			<note>
				<chord/>
				<pitch>
					<step>A</step>
					<octave>3</octave>
				</pitch>
				<duration>768</duration>
				<voice>1</voice>
				<type>quarter</type>
			</note>
		</measure>
		<measure number='14'>
			<note>
				<pitch>
					<step>D</step>
					<octave>3</octave>
				</pitch>
				<duration>1536</duration>
				<voice>1</voice>
				<type>half</type>
			</note>
			<note>
				<chord/>
				<pitch>
					<step>A</step>
					<octave>3</octave>
				</pitch>
				<duration>1536</duration>
				<voice>1</voice>
				<type>half</type>
			</note>
			<note>
				<pitch>
					<step>B</step>
					<alter>-1</alter>
					<octave>2</octave>
				</pitch>
				<duration>768</duration>
				<voice>1</voice>
				<type>quarter</type>
			</note>
			<note>
				<chord/>
				<pitch>
					<step>B</step>
					<alter>-1</alter>
					<octave>3</octave>
				</pitch>
				<duration>768</duration>
				<voice>1</voice>
				<type>quarter</type>
			</note>
			<note>
				<pitch>
					<step>B</step>
					<alter>-1</alter>
					<octave>2</octave>
				</pitch>
				<duration>2304</duration>
				<voice>1</voice>
				<type>half</type>
				<dot/>
			</note>
			<note>
				<chord/>
				<pitch>
					<step>F</step>
					<octave>3</octave>
				</pitch>
				<duration>2304</duration>
				<voice>1</voice>
				<type>half</type>
				<dot/>
			</note>
		</measure>
		<measure number='15'>
			<note>
				<pitch>
					<step>C</step>
					<octave>3</octave>
				</pitch>
				<duration>1536</duration>
				<voice>1</voice>
				<type>half</type>
			</note>
			<note>
				<chord/>
				<pitch>
					<step>F</step>
					<octave>3</octave>
				</pitch>
				<duration>1536</duration>
				<voice>1</voice>
				<type>half</type>
			</note>
			<note>
				<pitch>
					<step>C</step>
					<octave>3</octave>
				</pitch>
				<duration>768</duration>
				<voice>1</voice>
				<type>quarter</type>
			</note>
			<note>
				<chord/>
				<pitch>
					<step>A</step>
					<octave>3</octave>
				</pitch>
				<duration>768</duration>
				<voice>1</voice>
				<type>quarter</type>
			</note>
			<note>
				<pitch>
					<step>C</step>
					<octave>3</octave>
				</pitch>
				<duration>1536</duration>
				<voice>1</voice>
				<type>half</type>
			</note>
			<note>
				<chord/>
				<pitch>
					<step>A</step>
					<octave>3</octave>
				</pitch>
				<duration>1536</duration>
				<voice>1</voice>
				<type>half</type>
			</note>
			<note>
				<pitch>
					<step>C</step>
					<octave>3</octave>
				</pitch>
				<duration>768</duration>
				<voice>1</voice>
				<type>quarter</type>
			</note>
			<note>
				<chord/>
				<pitch>
					<step>G</step>
					<octave>3</octave>
				</pitch>
				<duration>768</duration>
				<voice>1</voice>
				<type>quarter</type>
			</note>
		</measure>
		<measure number='16'>
			<note>
				<pitch>
					<step>C</step>
					<octave>3</octave>
				</pitch>
				<duration>2304</duration>
				<voice>1</voice>
				<type>half</type>
				<dot/>
			</note>
			<note>
				<chord/>
				<pitch>
					<step>B</step>
					<alter>-1</alter>
					<octave>3</octave>
				</pitch>
				<duration>2304</duration>
				<voice>1</voice>
				<type>half</type>
				<dot/>
			</note>
			<note>
				<pitch>
					<step>F</step>
					<octave>3</octave>
				</pitch>
				<duration>2304</duration>
				<voice>1</voice>
				<type>half</type>
				<dot/>
			</note>
			<note>
				<chord/>
				<pitch>
					<step>A</step>
					<octave>3</octave>
				</pitch>
				<duration>2304</duration>
				<voice>1</voice>
				<type>half</type>
				<dot/>
			</note>
			<barline location='right'>
				<bar-style>light-heavy</bar-style>
			</barline>
		</measure>
	</part>
</score-partwise>
