<?xml version='1.0' encoding='US-ASCII' standalone='no'?>
<!DOCTYPE score-partwise PUBLIC '-//Recordare//DTD MusicXML 1.0 Partwise//EN' 'http://www.musicxml.org/dtds/partwise.dtd'>
<score-partwise>
	<movement-title>I&#8217;ll Be a Sunbeam</movement-title>
	<identification>
		<creator type='composer'>Edwin O. Excell, 1900</creator>
		<creator type='lyricist'>Nellie Talbot</creator>
		<rights>PUBLIC DOMAIN</rights>
		<encoding>
			<software>Sibelius</software>
			<software>Dolet for Sibelius 1.1</software>
		</encoding>
	</identification>
	<part-list>
		<score-part id='P1'>
			<part-name>Soprano</part-name>
		</score-part>
		<score-part id='P2'>
			<part-name>Bass</part-name>
		</score-part>
	</part-list>
	<part id='P1'>
		<measure number='1'>
			<attributes>
				<divisions>768</divisions>
				<key>
					<fifths>1</fifths>
					<mode>major</mode>
				</key>
				<time>
					<beats>6</beats>
					<beat-type>8</beat-type>
				</time>
				<clef>
					<sign>G</sign>
					<line>2</line>
				</clef>
			</attributes>
			<direction placement='above'>
				<direction-type>
					<metronome>
						<beat-unit>quarter</beat-unit>
						<beat-unit-dot/>
						<per-minute>50</per-minute>
					</metronome>
				</direction-type>
				<sound tempo='75'/>
			</direction>
			<note>
				<pitch>
					<step>D</step>
					<octave>4</octave>
				</pitch>
				<duration>384</duration>
				<voice>1</voice>
				<type>eighth</type>
				<beam number='1'>begin</beam>
				<lyric number='1'>
					<syllabic>middle</syllabic>
					<text>1. Je</text>
				</lyric>
				<lyric number='2'>
					<syllabic>middle</syllabic>
					<text>2. Je</text>
				</lyric>
				<lyric number='3'>
					<syllabic>end</syllabic>
					<text>3. I</text>
				</lyric>
				<lyric number='4'>
					<syllabic>end</syllabic>
					<text>4. I&#8217;ll</text>
				</lyric>
			</note>
			<backup>
				<duration>384</duration>
			</backup>
			<note>
				<pitch>
					<step>B</step>
					<octave>3</octave>
				</pitch>
				<duration>384</duration>
				<voice>2</voice>
				<type>eighth</type>
				<beam number='1'>begin</beam>
			</note>
			<note>
				<pitch>
					<step>E</step>
					<octave>4</octave>
				</pitch>
				<duration>384</duration>
				<voice>1</voice>
				<type>eighth</type>
				<beam number='1'>continue</beam>
				<lyric number='1'>
					<syllabic>end</syllabic>
					<text>sus</text>
				</lyric>
				<lyric number='2'>
					<syllabic>end</syllabic>
					<text>sus</text>
				</lyric>
				<lyric number='3'>
					<syllabic>end</syllabic>
					<text>will</text>
				</lyric>
				<lyric number='4'>
					<syllabic>end</syllabic>
					<text>be</text>
				</lyric>
			</note>
			<backup>
				<duration>384</duration>
			</backup>
			<note>
				<pitch>
					<step>B</step>
					<octave>3</octave>
				</pitch>
				<duration>384</duration>
				<voice>2</voice>
				<type>eighth</type>
				<beam number='1'>continue</beam>
			</note>
			<note>
				<pitch>
					<step>F</step>
					<alter>1</alter>
					<octave>4</octave>
				</pitch>
				<duration>384</duration>
				<voice>1</voice>
				<type>eighth</type>
				<beam number='1'>continue</beam>
				<lyric number='1'>
					<syllabic>end</syllabic>
					<text>wants</text>
				</lyric>
				<lyric number='2'>
					<syllabic>end</syllabic>
					<text>wants</text>
				</lyric>
				<lyric number='3'>
					<syllabic>end</syllabic>
					<text>ask</text>
				</lyric>
				<lyric number='4'>
					<syllabic>end</syllabic>
					<text>a</text>
				</lyric>
			</note>
			<backup>
				<duration>384</duration>
			</backup>
			<note>
				<pitch>
					<step>B</step>
					<octave>3</octave>
				</pitch>
				<duration>384</duration>
				<voice>2</voice>
				<type>eighth</type>
				<beam number='1'>continue</beam>
			</note>
			<note>
				<pitch>
					<step>G</step>
					<octave>4</octave>
				</pitch>
				<duration>384</duration>
				<voice>1</voice>
				<type>eighth</type>
				<beam number='1'>begin</beam>
				<lyric number='1'>
					<syllabic>end</syllabic>
					<text>me</text>
				</lyric>
				<lyric number='2'>
					<syllabic>end</syllabic>
					<text>me</text>
				</lyric>
				<lyric number='3'>
					<syllabic>middle</syllabic>
					<text>Je</text>
				</lyric>
				<lyric number='4'>
					<syllabic>middle</syllabic>
					<text>sun</text>
				</lyric>
			</note>
			<backup>
				<duration>384</duration>
			</backup>
			<note>
				<pitch>
					<step>B</step>
					<octave>3</octave>
				</pitch>
				<duration>384</duration>
				<voice>2</voice>
				<type>eighth</type>
				<beam number='1'>begin</beam>
			</note>
			<note>
				<pitch>
					<step>E</step>
					<octave>4</octave>
				</pitch>
				<duration>384</duration>
				<voice>1</voice>
				<type>eighth</type>
				<beam number='1'>continue</beam>
				<lyric number='1'>
					<syllabic>end</syllabic>
					<text>for</text>
				</lyric>
				<lyric number='2'>
					<syllabic>end</syllabic>
					<text>to</text>
				</lyric>
				<lyric number='3'>
					<syllabic>end</syllabic>
					<text>sus</text>
				</lyric>
				<lyric number='4'>
					<syllabic>end</syllabic>
					<text>beam</text>
				</lyric>
			</note>
			<backup>
				<duration>384</duration>
			</backup>
			<note>
				<pitch>
					<step>B</step>
					<octave>3</octave>
				</pitch>
				<duration>384</duration>
				<voice>2</voice>
				<type>eighth</type>
				<beam number='1'>continue</beam>
			</note>
			<note>
				<pitch>
					<step>G</step>
					<octave>4</octave>
				</pitch>
				<duration>384</duration>
				<voice>1</voice>
				<type>eighth</type>
				<beam number='1'>continue</beam>
				<lyric number='1'>
					<syllabic>end</syllabic>
					<text>a</text>
				</lyric>
				<lyric number='2'>
					<syllabic>end</syllabic>
					<text>be</text>
				</lyric>
				<lyric number='3'>
					<syllabic>end</syllabic>
					<text>to</text>
				</lyric>
				<lyric number='4'>
					<syllabic>end</syllabic>
					<text>for</text>
				</lyric>
			</note>
			<backup>
				<duration>384</duration>
			</backup>
			<note>
				<pitch>
					<step>B</step>
					<octave>3</octave>
				</pitch>
				<duration>384</duration>
				<voice>2</voice>
				<type>eighth</type>
				<beam number='1'>continue</beam>
			</note>
		</measure>
		<measure number='2'>
			<note>
				<pitch>
					<step>F</step>
					<alter>1</alter>
					<octave>4</octave>
				</pitch>
				<duration>1152</duration>
				<voice>1</voice>
				<type>quarter</type>
				<dot/>
				<lyric number='1'>
					<syllabic>middle</syllabic>
					<text>sun</text>
				</lyric>
				<lyric number='2'>
					<syllabic>middle</syllabic>
					<text>lov</text>
				</lyric>
				<lyric number='3'>
					<syllabic>end</syllabic>
					<text>help</text>
				</lyric>
				<lyric number='4'>
					<syllabic>middle</syllabic>
					<text>Je</text>
				</lyric>
			</note>
			<backup>
				<duration>1152</duration>
			</backup>
			<note>
				<pitch>
					<step>C</step>
					<octave>4</octave>
				</pitch>
				<duration>1152</duration>
				<voice>2</voice>
				<type>quarter</type>
				<dot/>
			</note>
			<note>
				<pitch>
					<step>D</step>
					<octave>5</octave>
				</pitch>
				<duration>768</duration>
				<voice>1</voice>
				<type>quarter</type>
				<lyric number='1'>
					<syllabic>end</syllabic>
					<text>beam,</text>
				</lyric>
				<lyric number='2'>
					<syllabic>end</syllabic>
					<text>ing,</text>
				</lyric>
				<lyric number='3'>
					<syllabic>end</syllabic>
					<text>me</text>
				</lyric>
				<lyric number='4'>
					<syllabic>end</syllabic>
					<text>sus,</text>
				</lyric>
			</note>
			<backup>
				<duration>768</duration>
			</backup>
			<note>
				<pitch>
					<step>F</step>
					<alter>1</alter>
					<octave>4</octave>
				</pitch>
				<duration>768</duration>
				<voice>2</voice>
				<type>quarter</type>
			</note>
			<note>
				<pitch>
					<step>E</step>
					<octave>4</octave>
				</pitch>
				<duration>384</duration>
				<voice>1</voice>
				<type>eighth</type>
				<beam number='1'>continue</beam>
				<lyric number='1'>
					<syllabic>end</syllabic>
					<text>To</text>
				</lyric>
				<lyric number='2'>
					<syllabic>end</syllabic>
					<text>And</text>
				</lyric>
				<lyric number='3'>
					<syllabic>end</syllabic>
					<text>To</text>
				</lyric>
				<lyric number='4'>
					<syllabic>end</syllabic>
					<text>I</text>
				</lyric>
			</note>
			<backup>
				<duration>384</duration>
			</backup>
			<note>
				<pitch>
					<step>C</step>
					<octave>4</octave>
				</pitch>
				<duration>384</duration>
				<voice>2</voice>
				<type>eighth</type>
				<beam number='1'>continue</beam>
			</note>
		</measure>
		<measure number='3'>
			<note>
				<pitch>
					<step>D</step>
					<octave>4</octave>
				</pitch>
				<duration>768</duration>
				<voice>1</voice>
				<type>quarter</type>
				<lyric number='1'>
					<syllabic>end</syllabic>
					<text>shine</text>
				</lyric>
				<lyric number='2'>
					<syllabic>end</syllabic>
					<text>kind</text>
				</lyric>
				<lyric number='3'>
					<syllabic>end</syllabic>
					<text>keep</text>
				</lyric>
				<lyric number='4'>
					<syllabic>end</syllabic>
					<text>can</text>
				</lyric>
			</note>
			<backup>
				<duration>768</duration>
			</backup>
			<note>
				<pitch>
					<step>B</step>
					<octave>3</octave>
				</pitch>
				<duration>768</duration>
				<voice>2</voice>
				<type>quarter</type>
			</note>
			<note>
				<pitch>
					<step>C</step>
					<octave>5</octave>
				</pitch>
				<duration>384</duration>
				<voice>1</voice>
				<type>eighth</type>
				<beam number='1'>continue</beam>
				<lyric number='1'>
					<syllabic>end</syllabic>
					<text>for</text>
				</lyric>
				<lyric number='2'>
					<syllabic>end</syllabic>
					<text>to</text>
				</lyric>
				<lyric number='3'>
					<syllabic>end</syllabic>
					<text>my</text>
				</lyric>
				<lyric number='4'>
					<syllabic>end</syllabic>
					<text>if</text>
				</lyric>
			</note>
			<backup>
				<duration>384</duration>
			</backup>
			<note>
				<pitch>
					<step>E</step>
					<octave>4</octave>
				</pitch>
				<duration>384</duration>
				<voice>2</voice>
				<type>eighth</type>
				<beam number='1'>continue</beam>
			</note>
			<note>
				<pitch>
					<step>B</step>
					<octave>4</octave>
				</pitch>
				<duration>768</duration>
				<voice>1</voice>
				<type>quarter</type>
				<lyric number='1'>
					<syllabic>end</syllabic>
					<text>Him</text>
				</lyric>
				<lyric number='2'>
					<syllabic>end</syllabic>
					<text>all</text>
				</lyric>
				<lyric number='3'>
					<syllabic>end</syllabic>
					<text>heart</text>
				</lyric>
				<lyric number='4'>
					<syllabic>end</syllabic>
					<text>I</text>
				</lyric>
			</note>
			<backup>
				<duration>768</duration>
			</backup>
			<note>
				<pitch>
					<step>D</step>
					<octave>4</octave>
				</pitch>
				<duration>768</duration>
				<voice>2</voice>
				<type>quarter</type>
			</note>
			<note>
				<pitch>
					<step>A</step>
					<octave>4</octave>
				</pitch>
				<duration>384</duration>
				<voice>1</voice>
				<type>eighth</type>
				<beam number='1'>continue</beam>
				<lyric number='1'>
					<syllabic>end</syllabic>
					<text>each</text>
				</lyric>
				<lyric number='2'>
					<syllabic>end</syllabic>
					<text>I</text>
				</lyric>
				<lyric number='3'>
					<syllabic>end</syllabic>
					<text>from</text>
				</lyric>
				<lyric number='4'>
					<syllabic>end</syllabic>
					<text>but</text>
				</lyric>
			</note>
			<backup>
				<duration>384</duration>
			</backup>
			<note>
				<pitch>
					<step>C</step>
					<octave>4</octave>
				</pitch>
				<duration>384</duration>
				<voice>2</voice>
				<type>eighth</type>
				<beam number='1'>continue</beam>
			</note>
		</measure>
		<measure number='4'>
			<note>
				<pitch>
					<step>B</step>
					<octave>4</octave>
				</pitch>
				<duration>1152</duration>
				<tie type='start'/>
				<voice>1</voice>
				<type>quarter</type>
				<dot/>
				<lyric number='1'>
					<syllabic>end</syllabic>
					<text>day;</text>
				</lyric>
				<lyric number='2'>
					<syllabic>end</syllabic>
					<text>see;</text>
				</lyric>
				<lyric number='3'>
					<syllabic>end</syllabic>
					<text>sin;</text>
				</lyric>
				<lyric number='4'>
					<syllabic>end</syllabic>
					<text>try;</text>
				</lyric>
			</note>
			<backup>
				<duration>1152</duration>
			</backup>
			<note>
				<pitch>
					<step>D</step>
					<octave>4</octave>
				</pitch>
				<duration>1152</duration>
				<tie type='start'/>
				<voice>2</voice>
				<type>quarter</type>
				<dot/>
			</note>
			<note>
				<pitch>
					<step>B</step>
					<octave>4</octave>
				</pitch>
				<duration>1152</duration>
				<voice>1</voice>
				<type>quarter</type>
				<dot/>
			</note>
			<backup>
				<duration>1152</duration>
			</backup>
			<note>
				<pitch>
					<step>D</step>
					<octave>4</octave>
				</pitch>
				<duration>1152</duration>
				<voice>2</voice>
				<type>quarter</type>
				<dot/>
			</note>
		</measure>
		<measure number='5'>
			<note>
				<pitch>
					<step>D</step>
					<octave>4</octave>
				</pitch>
				<duration>384</duration>
				<voice>1</voice>
				<type>eighth</type>
				<beam number='1'>begin</beam>
				<lyric number='1'>
					<syllabic>end</syllabic>
					<text>In</text>
				</lyric>
				<lyric number='2'>
					<syllabic>middle</syllabic>
					<text>Show</text>
				</lyric>
				<lyric number='3'>
					<syllabic>middle</syllabic>
					<text>Ev</text>
				</lyric>
				<lyric number='4'>
					<syllabic>middle</syllabic>
					<text>Serv</text>
				</lyric>
			</note>
			<backup>
				<duration>384</duration>
			</backup>
			<note>
				<pitch>
					<step>B</step>
					<octave>3</octave>
				</pitch>
				<duration>384</duration>
				<voice>2</voice>
				<type>eighth</type>
				<beam number='1'>begin</beam>
			</note>
			<note>
				<pitch>
					<step>E</step>
					<octave>4</octave>
				</pitch>
				<duration>384</duration>
				<voice>1</voice>
				<type>eighth</type>
				<beam number='1'>continue</beam>
				<lyric number='1'>
					<syllabic>middle</syllabic>
					<text>eve</text>
				</lyric>
				<lyric number='2'>
					<syllabic>end</syllabic>
					<text>ing</text>
				</lyric>
				<lyric number='3'>
					<syllabic>end</syllabic>
					<text>er</text>
				</lyric>
				<lyric number='4'>
					<syllabic>end</syllabic>
					<text>ing</text>
				</lyric>
			</note>
			<backup>
				<duration>384</duration>
			</backup>
			<note>
				<pitch>
					<step>B</step>
					<octave>3</octave>
				</pitch>
				<duration>384</duration>
				<voice>2</voice>
				<type>eighth</type>
				<beam number='1'>continue</beam>
			</note>
			<note>
				<pitch>
					<step>F</step>
					<alter>1</alter>
					<octave>4</octave>
				</pitch>
				<duration>384</duration>
				<voice>1</voice>
				<type>eighth</type>
				<beam number='1'>continue</beam>
				<lyric number='1'>
					<syllabic>end</syllabic>
					<text>ry</text>
				</lyric>
				<lyric number='2'>
					<syllabic>end</syllabic>
					<text>how</text>
				</lyric>
				<lyric number='3'>
					<syllabic>middle</syllabic>
					<text>re</text>
				</lyric>
				<lyric number='4'>
					<syllabic>end</syllabic>
					<text>Him</text>
				</lyric>
			</note>
			<backup>
				<duration>384</duration>
			</backup>
			<note>
				<pitch>
					<step>B</step>
					<octave>3</octave>
				</pitch>
				<duration>384</duration>
				<voice>2</voice>
				<type>eighth</type>
				<beam number='1'>continue</beam>
			</note>
			<note>
				<pitch>
					<step>G</step>
					<octave>4</octave>
				</pitch>
				<duration>384</duration>
				<voice>1</voice>
				<type>eighth</type>
				<beam number='1'>begin</beam>
				<lyric number='1'>
					<syllabic>end</syllabic>
					<text>way</text>
				</lyric>
				<lyric number='2'>
					<syllabic>middle</syllabic>
					<text>pleas</text>
				</lyric>
				<lyric number='3'>
					<syllabic>middle</syllabic>
					<text>flect</text>
				</lyric>
				<lyric number='4'>
					<syllabic>middle</syllabic>
					<text>mo</text>
				</lyric>
			</note>
			<backup>
				<duration>384</duration>
			</backup>
			<note>
				<pitch>
					<step>B</step>
					<octave>3</octave>
				</pitch>
				<duration>384</duration>
				<voice>2</voice>
				<type>eighth</type>
				<beam number='1'>begin</beam>
			</note>
			<note>
				<pitch>
					<step>E</step>
					<octave>4</octave>
				</pitch>
				<duration>384</duration>
				<voice>1</voice>
				<type>eighth</type>
				<beam number='1'>continue</beam>
				<lyric number='1'>
					<syllabic>end</syllabic>
					<text>try</text>
				</lyric>
				<lyric number='2'>
					<syllabic>end</syllabic>
					<text>ant</text>
				</lyric>
				<lyric number='3'>
					<syllabic>end</syllabic>
					<text>ing</text>
				</lyric>
				<lyric number='4'>
					<syllabic>end</syllabic>
					<text>ment</text>
				</lyric>
			</note>
			<backup>
				<duration>384</duration>
			</backup>
			<note>
				<pitch>
					<step>B</step>
					<octave>3</octave>
				</pitch>
				<duration>384</duration>
				<voice>2</voice>
				<type>eighth</type>
				<beam number='1'>continue</beam>
			</note>
			<note>
				<pitch>
					<step>G</step>
					<octave>4</octave>
				</pitch>
				<duration>384</duration>
				<voice>1</voice>
				<type>eighth</type>
				<beam number='1'>continue</beam>
				<lyric number='1'>
					<syllabic>end</syllabic>
					<text>to</text>
				</lyric>
				<lyric number='2'>
					<syllabic>end</syllabic>
					<text>and</text>
				</lyric>
				<lyric number='3'>
					<syllabic>end</syllabic>
					<text>His</text>
				</lyric>
				<lyric number='4'>
					<syllabic>end</syllabic>
					<text>by</text>
				</lyric>
			</note>
			<backup>
				<duration>384</duration>
			</backup>
			<note>
				<pitch>
					<step>B</step>
					<octave>3</octave>
				</pitch>
				<duration>384</duration>
				<voice>2</voice>
				<type>eighth</type>
				<beam number='1'>continue</beam>
			</note>
		</measure>
		<measure number='6'>
			<note>
				<pitch>
					<step>F</step>
					<alter>1</alter>
					<octave>4</octave>
				</pitch>
				<duration>1152</duration>
				<voice>1</voice>
				<type>quarter</type>
				<dot/>
				<lyric number='1'>
					<syllabic>end</syllabic>
					<text>please</text>
				</lyric>
				<lyric number='2'>
					<syllabic>middle</syllabic>
					<text>hap</text>
				</lyric>
				<lyric number='3'>
					<syllabic>middle</syllabic>
					<text>good</text>
				</lyric>
				<lyric number='4'>
					<syllabic>middle</syllabic>
					<text>mo</text>
				</lyric>
			</note>
			<backup>
				<duration>1152</duration>
			</backup>
			<note>
				<pitch>
					<step>C</step>
					<octave>4</octave>
				</pitch>
				<duration>1152</duration>
				<voice>2</voice>
				<type>quarter</type>
				<dot/>
			</note>
			<note>
				<pitch>
					<step>D</step>
					<octave>5</octave>
				</pitch>
				<duration>768</duration>
				<voice>1</voice>
				<type>quarter</type>
				<lyric number='1'>
					<syllabic>end</syllabic>
					<text>Him,</text>
				</lyric>
				<lyric number='2'>
					<syllabic>end</syllabic>
					<text>py,</text>
				</lyric>
				<lyric number='3'>
					<syllabic>end</syllabic>
					<text>ness,</text>
				</lyric>
				<lyric number='4'>
					<syllabic>end</syllabic>
					<text>ment,</text>
				</lyric>
			</note>
			<backup>
				<duration>768</duration>
			</backup>
			<note>
				<pitch>
					<step>F</step>
					<alter>1</alter>
					<octave>4</octave>
				</pitch>
				<duration>768</duration>
				<voice>2</voice>
				<type>quarter</type>
			</note>
			<note>
				<pitch>
					<step>E</step>
					<octave>4</octave>
				</pitch>
				<duration>384</duration>
				<voice>1</voice>
				<type>eighth</type>
				<beam number='1'>continue</beam>
				<lyric number='1'>
					<syllabic>end</syllabic>
					<text>At</text>
				</lyric>
				<lyric number='2'>
					<syllabic>end</syllabic>
					<text>His</text>
				</lyric>
				<lyric number='3'>
					<syllabic>end</syllabic>
					<text>And</text>
				</lyric>
				<lyric number='4'>
					<syllabic>end</syllabic>
					<text>Then</text>
				</lyric>
			</note>
			<backup>
				<duration>384</duration>
			</backup>
			<note>
				<pitch>
					<step>C</step>
					<octave>4</octave>
				</pitch>
				<duration>384</duration>
				<voice>2</voice>
				<type>eighth</type>
				<beam number='1'>continue</beam>
			</note>
		</measure>
		<measure number='7'>
			<note>
				<pitch>
					<step>D</step>
					<octave>4</octave>
				</pitch>
				<duration>768</duration>
				<voice>1</voice>
				<type>quarter</type>
				<lyric number='1'>
					<syllabic>end</syllabic>
					<text>home,</text>
				</lyric>
				<lyric number='2'>
					<syllabic>middle</syllabic>
					<text>lit</text>
				</lyric>
				<lyric number='3'>
					<syllabic>middle</syllabic>
					<text>al</text>
				</lyric>
				<lyric number='4'>
					<syllabic>end</syllabic>
					<text>live</text>
				</lyric>
			</note>
			<backup>
				<duration>768</duration>
			</backup>
			<note>
				<pitch>
					<step>B</step>
					<octave>3</octave>
				</pitch>
				<duration>768</duration>
				<voice>2</voice>
				<type>quarter</type>
			</note>
			<note>
				<pitch>
					<step>C</step>
					<octave>5</octave>
				</pitch>
				<duration>384</duration>
				<voice>1</voice>
				<type>eighth</type>
				<beam number='1'>continue</beam>
				<lyric number='1'>
					<syllabic>end</syllabic>
					<text>at</text>
				</lyric>
				<lyric number='2'>
					<syllabic>end</syllabic>
					<text>tle</text>
				</lyric>
				<lyric number='3'>
					<syllabic>end</syllabic>
					<text>ways</text>
				</lyric>
				<lyric number='4'>
					<syllabic>end</syllabic>
					<text>for</text>
				</lyric>
			</note>
			<backup>
				<duration>384</duration>
			</backup>
			<note>
				<pitch>
					<step>E</step>
					<octave>4</octave>
				</pitch>
				<duration>384</duration>
				<voice>2</voice>
				<type>eighth</type>
				<beam number='1'>continue</beam>
			</note>
			<note>
				<pitch>
					<step>B</step>
					<octave>4</octave>
				</pitch>
				<duration>768</duration>
				<voice>1</voice>
				<type>quarter</type>
				<lyric number='1'>
					<syllabic>end</syllabic>
					<text>school,</text>
				</lyric>
				<lyric number='2'>
					<syllabic>end</syllabic>
					<text>one</text>
				</lyric>
				<lyric number='3'>
					<syllabic>end</syllabic>
					<text>shine</text>
				</lyric>
				<lyric number='4'>
					<syllabic>end</syllabic>
					<text>Him</text>
				</lyric>
			</note>
			<backup>
				<duration>768</duration>
			</backup>
			<note>
				<pitch>
					<step>D</step>
					<octave>4</octave>
				</pitch>
				<duration>768</duration>
				<voice>2</voice>
				<type>quarter</type>
			</note>
			<note>
				<pitch>
					<step>A</step>
					<octave>4</octave>
				</pitch>
				<duration>384</duration>
				<voice>1</voice>
				<type>eighth</type>
				<beam number='1'>continue</beam>
				<lyric number='1'>
					<syllabic>end</syllabic>
					<text>at</text>
				</lyric>
				<lyric number='2'>
					<syllabic>end</syllabic>
					<text>can</text>
				</lyric>
				<lyric number='3'>
					<syllabic>end</syllabic>
					<text>for</text>
				</lyric>
				<lyric number='4'>
					<syllabic>end</syllabic>
					<text>on</text>
				</lyric>
			</note>
			<backup>
				<duration>384</duration>
			</backup>
			<note>
				<pitch>
					<step>C</step>
					<octave>4</octave>
				</pitch>
				<duration>384</duration>
				<voice>2</voice>
				<type>eighth</type>
				<beam number='1'>continue</beam>
			</note>
		</measure>
		<measure number='8'>
			<note>
				<pitch>
					<step>G</step>
					<octave>4</octave>
				</pitch>
				<duration>1152</duration>
				<tie type='start'/>
				<voice>1</voice>
				<type>quarter</type>
				<dot/>
				<lyric number='1'>
					<syllabic>end</syllabic>
					<text>play.</text>
				</lyric>
				<lyric number='2'>
					<syllabic>end</syllabic>
					<text>be.</text>
				</lyric>
				<lyric number='3'>
					<syllabic>end</syllabic>
					<text>Him.</text>
				</lyric>
				<lyric number='4'>
					<syllabic>end</syllabic>
					<text>high.</text>
				</lyric>
			</note>
			<backup>
				<duration>1152</duration>
			</backup>
			<note>
				<pitch>
					<step>B</step>
					<octave>3</octave>
				</pitch>
				<duration>1152</duration>
				<tie type='start'/>
				<voice>2</voice>
				<type>quarter</type>
				<dot/>
			</note>
			<note>
				<pitch>
					<step>G</step>
					<octave>4</octave>
				</pitch>
				<duration>768</duration>
				<voice>1</voice>
				<type>quarter</type>
			</note>
			<backup>
				<duration>768</duration>
			</backup>
			<note>
				<pitch>
					<step>B</step>
					<octave>3</octave>
				</pitch>
				<duration>768</duration>
				<voice>2</voice>
				<type>quarter</type>
			</note>
			<barline location='right'>
				<bar-style>light-light</bar-style>
			</barline>
		</measure>
		<measure number='9'>
			<direction>
				<direction-type>
					<words default-y='25' relative-x='-53'>Refrain</words>
				</direction-type>
			</direction>
			<note>
				<pitch>
					<step>D</step>
					<octave>4</octave>
				</pitch>
				<duration>384</duration>
				<voice>1</voice>
				<type>eighth</type>
				<beam number='1'>begin</beam>
				<lyric number='1'>
					<syllabic>end</syllabic>
					<text>A</text>
				</lyric>
			</note>
			<backup>
				<duration>384</duration>
			</backup>
			<note>
				<pitch>
					<step>B</step>
					<octave>3</octave>
				</pitch>
				<duration>384</duration>
				<voice>2</voice>
				<type>eighth</type>
				<beam number='1'>begin</beam>
			</note>
		</measure>
		<measure number='10'>
			<note>
				<pitch>
					<step>G</step>
					<octave>4</octave>
				</pitch>
				<duration>1152</duration>
				<voice>1</voice>
				<type>quarter</type>
				<dot/>
				<lyric number='1'>
					<syllabic>middle</syllabic>
					<text>sun</text>
				</lyric>
			</note>
			<backup>
				<duration>1152</duration>
			</backup>
			<note>
				<pitch>
					<step>B</step>
					<octave>3</octave>
				</pitch>
				<duration>1152</duration>
				<voice>2</voice>
				<type>quarter</type>
				<dot/>
			</note>
			<note>
				<pitch>
					<step>B</step>
					<octave>4</octave>
				</pitch>
				<duration>768</duration>
				<voice>1</voice>
				<type>quarter</type>
				<lyric number='1'>
					<syllabic>end</syllabic>
					<text>beam,</text>
				</lyric>
			</note>
			<backup>
				<duration>768</duration>
			</backup>
			<note>
				<pitch>
					<step>D</step>
					<octave>4</octave>
				</pitch>
				<duration>768</duration>
				<voice>2</voice>
				<type>quarter</type>
			</note>
			<note>
				<pitch>
					<step>D</step>
					<octave>5</octave>
				</pitch>
				<duration>384</duration>
				<voice>1</voice>
				<type>eighth</type>
				<beam number='1'>continue</beam>
				<lyric number='1'>
					<syllabic>end</syllabic>
					<text>a</text>
				</lyric>
			</note>
			<backup>
				<duration>384</duration>
			</backup>
			<note>
				<pitch>
					<step>G</step>
					<octave>4</octave>
				</pitch>
				<duration>384</duration>
				<voice>2</voice>
				<type>eighth</type>
				<beam number='1'>continue</beam>
			</note>
		</measure>
		<measure number='11'>
			<note>
				<pitch>
					<step>D</step>
					<octave>5</octave>
				</pitch>
				<duration>1152</duration>
				<voice>1</voice>
				<type>quarter</type>
				<dot/>
				<lyric number='1'>
					<syllabic>middle</syllabic>
					<text>sun</text>
				</lyric>
			</note>
			<backup>
				<duration>1152</duration>
			</backup>
			<note>
				<pitch>
					<step>F</step>
					<alter>1</alter>
					<octave>4</octave>
				</pitch>
				<duration>1152</duration>
				<voice>2</voice>
				<type>quarter</type>
				<dot/>
			</note>
			<note>
				<pitch>
					<step>F</step>
					<alter>1</alter>
					<octave>4</octave>
				</pitch>
				<duration>1152</duration>
				<voice>1</voice>
				<type>quarter</type>
				<dot/>
				<lyric number='1'>
					<syllabic>end</syllabic>
					<text>beam,</text>
				</lyric>
			</note>
			<backup>
				<duration>1152</duration>
			</backup>
			<note>
				<pitch>
					<step>D</step>
					<octave>4</octave>
				</pitch>
				<duration>1152</duration>
				<voice>2</voice>
				<type>quarter</type>
				<dot/>
			</note>
		</measure>
		<measure number='12'>
			<note>
				<pitch>
					<step>D</step>
					<octave>5</octave>
				</pitch>
				<duration>384</duration>
				<voice>1</voice>
				<type>eighth</type>
				<beam number='1'>begin</beam>
				<lyric number='1'>
					<syllabic>middle</syllabic>
					<text>Je</text>
				</lyric>
			</note>
			<backup>
				<duration>384</duration>
			</backup>
			<note>
				<pitch>
					<step>F</step>
					<alter>1</alter>
					<octave>4</octave>
				</pitch>
				<duration>384</duration>
				<voice>2</voice>
				<type>eighth</type>
				<beam number='1'>begin</beam>
			</note>
			<note>
				<pitch>
					<step>C</step>
					<octave>5</octave>
				</pitch>
				<duration>384</duration>
				<voice>1</voice>
				<type>eighth</type>
				<beam number='1'>continue</beam>
				<lyric number='1'>
					<syllabic>end</syllabic>
					<text>sus</text>
				</lyric>
			</note>
			<backup>
				<duration>384</duration>
			</backup>
			<note>
				<pitch>
					<step>E</step>
					<octave>4</octave>
				</pitch>
				<duration>384</duration>
				<voice>2</voice>
				<type>eighth</type>
				<beam number='1'>continue</beam>
			</note>
			<note>
				<pitch>
					<step>A</step>
					<octave>4</octave>
				</pitch>
				<duration>384</duration>
				<voice>1</voice>
				<type>eighth</type>
				<beam number='1'>continue</beam>
				<lyric number='1'>
					<syllabic>end</syllabic>
					<text>wants</text>
				</lyric>
			</note>
			<backup>
				<duration>384</duration>
			</backup>
			<note>
				<pitch>
					<step>D</step>
					<octave>4</octave>
				</pitch>
				<duration>384</duration>
				<voice>2</voice>
				<type>eighth</type>
				<beam number='1'>continue</beam>
			</note>
			<note>
				<pitch>
					<step>F</step>
					<alter>1</alter>
					<octave>4</octave>
				</pitch>
				<duration>384</duration>
				<voice>1</voice>
				<type>eighth</type>
				<beam number='1'>begin</beam>
				<lyric number='1'>
					<syllabic>end</syllabic>
					<text>me</text>
				</lyric>
			</note>
			<backup>
				<duration>384</duration>
			</backup>
			<note>
				<pitch>
					<step>D</step>
					<octave>4</octave>
				</pitch>
				<duration>384</duration>
				<voice>2</voice>
				<type>eighth</type>
				<beam number='1'>begin</beam>
			</note>
			<note>
				<pitch>
					<step>A</step>
					<octave>4</octave>
				</pitch>
				<duration>384</duration>
				<voice>1</voice>
				<type>eighth</type>
				<beam number='1'>continue</beam>
				<lyric number='1'>
					<syllabic>end</syllabic>
					<text>for</text>
				</lyric>
			</note>
			<backup>
				<duration>384</duration>
			</backup>
			<note>
				<pitch>
					<step>F</step>
					<alter>1</alter>
					<octave>4</octave>
				</pitch>
				<duration>384</duration>
				<voice>2</voice>
				<type>eighth</type>
				<beam number='1'>continue</beam>
			</note>
			<note>
				<pitch>
					<step>C</step>
					<octave>5</octave>
				</pitch>
				<duration>384</duration>
				<voice>1</voice>
				<type>eighth</type>
				<beam number='1'>continue</beam>
				<lyric number='1'>
					<syllabic>end</syllabic>
					<text>a</text>
				</lyric>
			</note>
			<backup>
				<duration>384</duration>
			</backup>
			<note>
				<pitch>
					<step>F</step>
					<alter>1</alter>
					<octave>4</octave>
				</pitch>
				<duration>384</duration>
				<voice>2</voice>
				<type>eighth</type>
				<beam number='1'>continue</beam>
			</note>
		</measure>
		<measure number='13'>
			<note>
				<pitch>
					<step>E</step>
					<octave>5</octave>
				</pitch>
				<duration>1152</duration>
				<voice>1</voice>
				<type>quarter</type>
				<dot/>
				<lyric number='1'>
					<syllabic>middle</syllabic>
					<text>sun</text>
				</lyric>
			</note>
			<backup>
				<duration>1152</duration>
			</backup>
			<note>
				<pitch>
					<step>C</step>
					<octave>5</octave>
				</pitch>
				<duration>1152</duration>
				<voice>2</voice>
				<type>quarter</type>
				<dot/>
			</note>
			<note>
				<pitch>
					<step>D</step>
					<octave>5</octave>
				</pitch>
				<duration>768</duration>
				<voice>1</voice>
				<type>quarter</type>
				<lyric number='1'>
					<syllabic>end</syllabic>
					<text>beam;</text>
				</lyric>
			</note>
			<backup>
				<duration>768</duration>
			</backup>
			<note>
				<pitch>
					<step>B</step>
					<octave>4</octave>
				</pitch>
				<duration>768</duration>
				<voice>2</voice>
				<type>quarter</type>
			</note>
		</measure>
		<measure number='14'>
			<note>
				<pitch>
					<step>D</step>
					<octave>4</octave>
				</pitch>
				<duration>384</duration>
				<voice>1</voice>
				<type>eighth</type>
				<beam number='1'>begin</beam>
				<lyric number='1'>
					<syllabic>end</syllabic>
					<text>A</text>
				</lyric>
			</note>
			<backup>
				<duration>384</duration>
			</backup>
			<note>
				<pitch>
					<step>B</step>
					<octave>3</octave>
				</pitch>
				<duration>384</duration>
				<voice>2</voice>
				<type>eighth</type>
				<beam number='1'>begin</beam>
			</note>
		</measure>
		<measure number='15'>
			<note>
				<pitch>
					<step>G</step>
					<octave>4</octave>
				</pitch>
				<duration>1152</duration>
				<voice>1</voice>
				<type>quarter</type>
				<dot/>
				<lyric number='1'>
					<syllabic>middle</syllabic>
					<text>sun</text>
				</lyric>
			</note>
			<backup>
				<duration>1152</duration>
			</backup>
			<note>
				<pitch>
					<step>B</step>
					<octave>3</octave>
				</pitch>
				<duration>1152</duration>
				<voice>2</voice>
				<type>quarter</type>
				<dot/>
			</note>
			<note>
				<pitch>
					<step>B</step>
					<octave>4</octave>
				</pitch>
				<duration>768</duration>
				<voice>1</voice>
				<type>quarter</type>
				<lyric number='1'>
					<syllabic>end</syllabic>
					<text>beam,</text>
				</lyric>
			</note>
			<backup>
				<duration>768</duration>
			</backup>
			<note>
				<pitch>
					<step>D</step>
					<octave>4</octave>
				</pitch>
				<duration>768</duration>
				<voice>2</voice>
				<type>quarter</type>
			</note>
			<note>
				<pitch>
					<step>D</step>
					<octave>5</octave>
				</pitch>
				<duration>384</duration>
				<voice>1</voice>
				<type>eighth</type>
				<beam number='1'>continue</beam>
				<lyric number='1'>
					<syllabic>end</syllabic>
					<text>a</text>
				</lyric>
			</note>
			<backup>
				<duration>384</duration>
			</backup>
			<note>
				<pitch>
					<step>G</step>
					<octave>4</octave>
				</pitch>
				<duration>384</duration>
				<voice>2</voice>
				<type>eighth</type>
				<beam number='1'>continue</beam>
			</note>
		</measure>
		<measure number='16'>
			<note>
				<pitch>
					<step>D</step>
					<octave>5</octave>
				</pitch>
				<duration>1152</duration>
				<voice>1</voice>
				<type>quarter</type>
				<dot/>
				<lyric number='1'>
					<syllabic>middle</syllabic>
					<text>sun</text>
				</lyric>
			</note>
			<backup>
				<duration>1152</duration>
			</backup>
			<note>
				<pitch>
					<step>F</step>
					<alter>1</alter>
					<octave>4</octave>
				</pitch>
				<duration>1152</duration>
				<voice>2</voice>
				<type>quarter</type>
				<dot/>
			</note>
			<note>
				<pitch>
					<step>F</step>
					<alter>1</alter>
					<octave>4</octave>
				</pitch>
				<duration>1152</duration>
				<voice>1</voice>
				<type>quarter</type>
				<dot/>
				<lyric number='1'>
					<syllabic>end</syllabic>
					<text>beam,</text>
				</lyric>
			</note>
			<backup>
				<duration>1152</duration>
			</backup>
			<note>
				<pitch>
					<step>D</step>
					<octave>4</octave>
				</pitch>
				<duration>1152</duration>
				<voice>2</voice>
				<type>quarter</type>
				<dot/>
			</note>
		</measure>
		<measure number='17'>
			<note>
				<pitch>
					<step>D</step>
					<octave>5</octave>
				</pitch>
				<duration>384</duration>
				<voice>1</voice>
				<type>eighth</type>
				<beam number='1'>begin</beam>
				<lyric number='1'>
					<syllabic>end</syllabic>
					<text>I&#8217;ll</text>
				</lyric>
			</note>
			<backup>
				<duration>384</duration>
			</backup>
			<note>
				<pitch>
					<step>F</step>
					<alter>1</alter>
					<octave>4</octave>
				</pitch>
				<duration>384</duration>
				<voice>2</voice>
				<type>eighth</type>
				<beam number='1'>begin</beam>
			</note>
			<note>
				<pitch>
					<step>F</step>
					<alter>1</alter>
					<octave>4</octave>
				</pitch>
				<duration>384</duration>
				<voice>1</voice>
				<type>eighth</type>
				<beam number='1'>continue</beam>
				<lyric number='1'>
					<syllabic>end</syllabic>
					<text>be</text>
				</lyric>
			</note>
			<backup>
				<duration>384</duration>
			</backup>
			<note>
				<pitch>
					<step>D</step>
					<octave>4</octave>
				</pitch>
				<duration>384</duration>
				<voice>2</voice>
				<type>eighth</type>
				<beam number='1'>continue</beam>
			</note>
			<note>
				<pitch>
					<step>A</step>
					<octave>4</octave>
				</pitch>
				<duration>384</duration>
				<voice>1</voice>
				<type>eighth</type>
				<beam number='1'>continue</beam>
				<lyric number='1'>
					<syllabic>end</syllabic>
					<text>a</text>
				</lyric>
			</note>
			<backup>
				<duration>384</duration>
			</backup>
			<note>
				<pitch>
					<step>F</step>
					<alter>1</alter>
					<octave>4</octave>
				</pitch>
				<duration>384</duration>
				<voice>2</voice>
				<type>eighth</type>
				<beam number='1'>continue</beam>
			</note>
			<note>
				<pitch>
					<step>C</step>
					<octave>5</octave>
				</pitch>
				<duration>384</duration>
				<voice>1</voice>
				<type>eighth</type>
				<beam number='1'>begin</beam>
				<lyric number='1'>
					<syllabic>middle</syllabic>
					<text>sun</text>
				</lyric>
			</note>
			<backup>
				<duration>384</duration>
			</backup>
			<note>
				<pitch>
					<step>E</step>
					<octave>4</octave>
				</pitch>
				<duration>384</duration>
				<voice>2</voice>
				<type>eighth</type>
				<beam number='1'>begin</beam>
			</note>
			<note>
				<pitch>
					<step>B</step>
					<octave>4</octave>
				</pitch>
				<duration>384</duration>
				<voice>1</voice>
				<type>eighth</type>
				<beam number='1'>continue</beam>
				<lyric number='1'>
					<syllabic>end</syllabic>
					<text>beam</text>
				</lyric>
			</note>
			<backup>
				<duration>384</duration>
			</backup>
			<note>
				<pitch>
					<step>D</step>
					<octave>4</octave>
				</pitch>
				<duration>384</duration>
				<voice>2</voice>
				<type>eighth</type>
				<beam number='1'>continue</beam>
			</note>
			<note>
				<pitch>
					<step>A</step>
					<octave>4</octave>
				</pitch>
				<duration>384</duration>
				<voice>1</voice>
				<type>eighth</type>
				<beam number='1'>continue</beam>
				<lyric number='1'>
					<syllabic>end</syllabic>
					<text>for</text>
				</lyric>
			</note>
			<backup>
				<duration>384</duration>
			</backup>
			<note>
				<pitch>
					<step>C</step>
					<octave>4</octave>
				</pitch>
				<duration>384</duration>
				<voice>2</voice>
				<type>eighth</type>
				<beam number='1'>continue</beam>
			</note>
		</measure>
		<measure number='18'>
			<note>
				<pitch>
					<step>G</step>
					<octave>4</octave>
				</pitch>
				<duration>1152</duration>
				<tie type='start'/>
				<voice>1</voice>
				<type>quarter</type>
				<dot/>
				<lyric number='1'>
					<syllabic>end</syllabic>
					<text>Him.</text>
				</lyric>
			</note>
			<backup>
				<duration>1152</duration>
			</backup>
			<note>
				<pitch>
					<step>B</step>
					<octave>3</octave>
				</pitch>
				<duration>1152</duration>
				<tie type='start'/>
				<voice>2</voice>
				<type>quarter</type>
				<dot/>
			</note>
			<note>
				<pitch>
					<step>G</step>
					<octave>4</octave>
				</pitch>
				<duration>1152</duration>
				<voice>1</voice>
				<type>quarter</type>
				<dot/>
			</note>
			<backup>
				<duration>1152</duration>
			</backup>
			<note>
				<pitch>
					<step>B</step>
					<octave>3</octave>
				</pitch>
				<duration>1152</duration>
				<voice>2</voice>
				<type>quarter</type>
				<dot/>
			</note>
			<barline location='right'>
				<bar-style>light-heavy</bar-style>
			</barline>
		</measure>
	</part>
	<part id='P2'>
		<measure number='1'>
			<attributes>
				<divisions>768</divisions>
				<key>
					<fifths>1</fifths>
					<mode>major</mode>
				</key>
				<time>
					<beats>6</beats>
					<beat-type>8</beat-type>
				</time>
				<clef>
					<sign>F</sign>
					<line>4</line>
				</clef>
			</attributes>
			<direction placement='above'>
				<direction-type>
					<metronome>
						<beat-unit>quarter</beat-unit>
						<beat-unit-dot/>
						<per-minute>50</per-minute>
					</metronome>
				</direction-type>
				<sound tempo='75'/>
			</direction>
			<note>
				<pitch>
					<step>G</step>
					<octave>2</octave>
				</pitch>
				<duration>384</duration>
				<voice>1</voice>
				<type>eighth</type>
				<beam number='1'>begin</beam>
			</note>
			<note>
				<pitch>
					<step>D</step>
					<octave>3</octave>
				</pitch>
				<duration>384</duration>
				<voice>1</voice>
				<type>eighth</type>
				<beam number='1'>continue</beam>
			</note>
			<note>
				<chord/>
				<pitch>
					<step>G</step>
					<octave>3</octave>
				</pitch>
				<duration>384</duration>
				<voice>1</voice>
				<type>eighth</type>
			</note>
			<note>
				<pitch>
					<step>D</step>
					<octave>3</octave>
				</pitch>
				<duration>384</duration>
				<voice>1</voice>
				<type>eighth</type>
				<beam number='1'>continue</beam>
			</note>
			<note>
				<chord/>
				<pitch>
					<step>G</step>
					<octave>3</octave>
				</pitch>
				<duration>384</duration>
				<voice>1</voice>
				<type>eighth</type>
			</note>
			<note>
				<pitch>
					<step>G</step>
					<octave>2</octave>
				</pitch>
				<duration>384</duration>
				<voice>1</voice>
				<type>eighth</type>
				<beam number='1'>begin</beam>
			</note>
			<note>
				<pitch>
					<step>D</step>
					<octave>3</octave>
				</pitch>
				<duration>384</duration>
				<voice>1</voice>
				<type>eighth</type>
				<beam number='1'>continue</beam>
			</note>
			<note>
				<chord/>
				<pitch>
					<step>G</step>
					<octave>3</octave>
				</pitch>
				<duration>384</duration>
				<voice>1</voice>
				<type>eighth</type>
			</note>
			<note>
				<pitch>
					<step>D</step>
					<octave>3</octave>
				</pitch>
				<duration>384</duration>
				<voice>1</voice>
				<type>eighth</type>
				<beam number='1'>continue</beam>
			</note>
			<note>
				<chord/>
				<pitch>
					<step>G</step>
					<octave>3</octave>
				</pitch>
				<duration>384</duration>
				<voice>1</voice>
				<type>eighth</type>
			</note>
		</measure>
		<measure number='2'>
			<note>
				<pitch>
					<step>A</step>
					<octave>2</octave>
				</pitch>
				<duration>384</duration>
				<voice>1</voice>
				<type>eighth</type>
				<beam number='1'>begin</beam>
			</note>
			<note>
				<pitch>
					<step>D</step>
					<octave>3</octave>
				</pitch>
				<duration>384</duration>
				<voice>1</voice>
				<type>eighth</type>
				<beam number='1'>continue</beam>
			</note>
			<note>
				<chord/>
				<pitch>
					<step>A</step>
					<octave>3</octave>
				</pitch>
				<duration>384</duration>
				<voice>1</voice>
				<type>eighth</type>
			</note>
			<note>
				<pitch>
					<step>D</step>
					<octave>3</octave>
				</pitch>
				<duration>384</duration>
				<voice>1</voice>
				<type>eighth</type>
				<beam number='1'>continue</beam>
			</note>
			<note>
				<chord/>
				<pitch>
					<step>A</step>
					<octave>3</octave>
				</pitch>
				<duration>384</duration>
				<voice>1</voice>
				<type>eighth</type>
			</note>
			<note>
				<pitch>
					<step>D</step>
					<octave>3</octave>
				</pitch>
				<duration>384</duration>
				<voice>1</voice>
				<type>eighth</type>
				<beam number='1'>begin</beam>
			</note>
			<note>
				<pitch>
					<step>F</step>
					<alter>1</alter>
					<octave>3</octave>
				</pitch>
				<duration>384</duration>
				<voice>1</voice>
				<type>eighth</type>
				<beam number='1'>continue</beam>
			</note>
			<note>
				<chord/>
				<pitch>
					<step>A</step>
					<octave>3</octave>
				</pitch>
				<duration>384</duration>
				<voice>1</voice>
				<type>eighth</type>
			</note>
			<note>
				<pitch>
					<step>F</step>
					<alter>1</alter>
					<octave>3</octave>
				</pitch>
				<duration>384</duration>
				<voice>1</voice>
				<type>eighth</type>
				<beam number='1'>continue</beam>
			</note>
			<note>
				<chord/>
				<pitch>
					<step>A</step>
					<octave>3</octave>
				</pitch>
				<duration>384</duration>
				<voice>1</voice>
				<type>eighth</type>
			</note>
		</measure>
		<measure number='3'>
			<note>
				<pitch>
					<step>D</step>
					<octave>3</octave>
				</pitch>
				<duration>384</duration>
				<voice>1</voice>
				<type>eighth</type>
				<beam number='1'>begin</beam>
			</note>
			<note>
				<pitch>
					<step>F</step>
					<alter>1</alter>
					<octave>3</octave>
				</pitch>
				<duration>384</duration>
				<voice>1</voice>
				<type>eighth</type>
				<beam number='1'>continue</beam>
			</note>
			<note>
				<chord/>
				<pitch>
					<step>A</step>
					<octave>3</octave>
				</pitch>
				<duration>384</duration>
				<voice>1</voice>
				<type>eighth</type>
			</note>
			<note>
				<pitch>
					<step>F</step>
					<alter>1</alter>
					<octave>3</octave>
				</pitch>
				<duration>384</duration>
				<voice>1</voice>
				<type>eighth</type>
				<beam number='1'>continue</beam>
			</note>
			<note>
				<chord/>
				<pitch>
					<step>A</step>
					<octave>3</octave>
				</pitch>
				<duration>384</duration>
				<voice>1</voice>
				<type>eighth</type>
			</note>
			<note>
				<pitch>
					<step>D</step>
					<octave>3</octave>
				</pitch>
				<duration>384</duration>
				<voice>1</voice>
				<type>eighth</type>
				<beam number='1'>begin</beam>
			</note>
			<note>
				<pitch>
					<step>F</step>
					<alter>1</alter>
					<octave>3</octave>
				</pitch>
				<duration>384</duration>
				<voice>1</voice>
				<type>eighth</type>
				<beam number='1'>continue</beam>
			</note>
			<note>
				<chord/>
				<pitch>
					<step>A</step>
					<octave>3</octave>
				</pitch>
				<duration>384</duration>
				<voice>1</voice>
				<type>eighth</type>
			</note>
			<note>
				<pitch>
					<step>F</step>
					<alter>1</alter>
					<octave>3</octave>
				</pitch>
				<duration>384</duration>
				<voice>1</voice>
				<type>eighth</type>
				<beam number='1'>continue</beam>
			</note>
			<note>
				<chord/>
				<pitch>
					<step>A</step>
					<octave>3</octave>
				</pitch>
				<duration>384</duration>
				<voice>1</voice>
				<type>eighth</type>
			</note>
		</measure>
		<measure number='4'>
			<note>
				<pitch>
					<step>G</step>
					<octave>2</octave>
				</pitch>
				<duration>384</duration>
				<voice>1</voice>
				<type>eighth</type>
				<beam number='1'>begin</beam>
			</note>
			<note>
				<pitch>
					<step>D</step>
					<octave>3</octave>
				</pitch>
				<duration>384</duration>
				<voice>1</voice>
				<type>eighth</type>
				<beam number='1'>continue</beam>
			</note>
			<note>
				<pitch>
					<step>G</step>
					<octave>3</octave>
				</pitch>
				<duration>384</duration>
				<voice>1</voice>
				<type>eighth</type>
				<beam number='1'>continue</beam>
			</note>
			<note>
				<pitch>
					<step>B</step>
					<octave>3</octave>
				</pitch>
				<duration>384</duration>
				<voice>1</voice>
				<type>eighth</type>
				<beam number='1'>begin</beam>
			</note>
			<note>
				<pitch>
					<step>G</step>
					<octave>3</octave>
				</pitch>
				<duration>384</duration>
				<voice>1</voice>
				<type>eighth</type>
				<beam number='1'>continue</beam>
			</note>
			<note>
				<pitch>
					<step>E</step>
					<octave>3</octave>
				</pitch>
				<duration>384</duration>
				<voice>1</voice>
				<type>eighth</type>
				<beam number='1'>continue</beam>
			</note>
		</measure>
		<measure number='5'>
			<note>
				<pitch>
					<step>G</step>
					<octave>2</octave>
				</pitch>
				<duration>384</duration>
				<voice>1</voice>
				<type>eighth</type>
				<beam number='1'>begin</beam>
			</note>
			<note>
				<pitch>
					<step>D</step>
					<octave>3</octave>
				</pitch>
				<duration>384</duration>
				<voice>1</voice>
				<type>eighth</type>
				<beam number='1'>continue</beam>
			</note>
			<note>
				<chord/>
				<pitch>
					<step>G</step>
					<octave>3</octave>
				</pitch>
				<duration>384</duration>
				<voice>1</voice>
				<type>eighth</type>
			</note>
			<note>
				<pitch>
					<step>D</step>
					<octave>3</octave>
				</pitch>
				<duration>384</duration>
				<voice>1</voice>
				<type>eighth</type>
				<beam number='1'>continue</beam>
			</note>
			<note>
				<chord/>
				<pitch>
					<step>G</step>
					<octave>3</octave>
				</pitch>
				<duration>384</duration>
				<voice>1</voice>
				<type>eighth</type>
			</note>
			<note>
				<pitch>
					<step>G</step>
					<octave>2</octave>
				</pitch>
				<duration>384</duration>
				<voice>1</voice>
				<type>eighth</type>
				<beam number='1'>begin</beam>
			</note>
			<note>
				<pitch>
					<step>D</step>
					<octave>3</octave>
				</pitch>
				<duration>384</duration>
				<voice>1</voice>
				<type>eighth</type>
				<beam number='1'>continue</beam>
			</note>
			<note>
				<chord/>
				<pitch>
					<step>G</step>
					<octave>3</octave>
				</pitch>
				<duration>384</duration>
				<voice>1</voice>
				<type>eighth</type>
			</note>
			<note>
				<pitch>
					<step>D</step>
					<octave>3</octave>
				</pitch>
				<duration>384</duration>
				<voice>1</voice>
				<type>eighth</type>
				<beam number='1'>continue</beam>
			</note>
			<note>
				<chord/>
				<pitch>
					<step>G</step>
					<octave>3</octave>
				</pitch>
				<duration>384</duration>
				<voice>1</voice>
				<type>eighth</type>
			</note>
		</measure>
		<measure number='6'>
			<note>
				<pitch>
					<step>A</step>
					<octave>2</octave>
				</pitch>
				<duration>384</duration>
				<voice>1</voice>
				<type>eighth</type>
				<beam number='1'>begin</beam>
			</note>
			<note>
				<pitch>
					<step>D</step>
					<octave>3</octave>
				</pitch>
				<duration>384</duration>
				<voice>1</voice>
				<type>eighth</type>
				<beam number='1'>continue</beam>
			</note>
			<note>
				<chord/>
				<pitch>
					<step>A</step>
					<octave>3</octave>
				</pitch>
				<duration>384</duration>
				<voice>1</voice>
				<type>eighth</type>
			</note>
			<note>
				<pitch>
					<step>D</step>
					<octave>3</octave>
				</pitch>
				<duration>384</duration>
				<voice>1</voice>
				<type>eighth</type>
				<beam number='1'>continue</beam>
			</note>
			<note>
				<chord/>
				<pitch>
					<step>A</step>
					<octave>3</octave>
				</pitch>
				<duration>384</duration>
				<voice>1</voice>
				<type>eighth</type>
			</note>
			<note>
				<pitch>
					<step>D</step>
					<octave>3</octave>
				</pitch>
				<duration>384</duration>
				<voice>1</voice>
				<type>eighth</type>
				<beam number='1'>begin</beam>
			</note>
			<note>
				<pitch>
					<step>F</step>
					<alter>1</alter>
					<octave>3</octave>
				</pitch>
				<duration>384</duration>
				<voice>1</voice>
				<type>eighth</type>
				<beam number='1'>continue</beam>
			</note>
			<note>
				<chord/>
				<pitch>
					<step>A</step>
					<octave>3</octave>
				</pitch>
				<duration>384</duration>
				<voice>1</voice>
				<type>eighth</type>
			</note>
			<note>
				<pitch>
					<step>F</step>
					<alter>1</alter>
					<octave>3</octave>
				</pitch>
				<duration>384</duration>
				<voice>1</voice>
				<type>eighth</type>
				<beam number='1'>continue</beam>
			</note>
			<note>
				<chord/>
				<pitch>
					<step>A</step>
					<octave>3</octave>
				</pitch>
				<duration>384</duration>
				<voice>1</voice>
				<type>eighth</type>
			</note>
		</measure>
		<measure number='7'>
			<note>
				<pitch>
					<step>D</step>
					<octave>3</octave>
				</pitch>
				<duration>384</duration>
				<voice>1</voice>
				<type>eighth</type>
				<beam number='1'>begin</beam>
			</note>
			<note>
				<pitch>
					<step>F</step>
					<alter>1</alter>
					<octave>3</octave>
				</pitch>
				<duration>384</duration>
				<voice>1</voice>
				<type>eighth</type>
				<beam number='1'>continue</beam>
			</note>
			<note>
				<chord/>
				<pitch>
					<step>A</step>
					<octave>3</octave>
				</pitch>
				<duration>384</duration>
				<voice>1</voice>
				<type>eighth</type>
			</note>
			<note>
				<pitch>
					<step>F</step>
					<alter>1</alter>
					<octave>3</octave>
				</pitch>
				<duration>384</duration>
				<voice>1</voice>
				<type>eighth</type>
				<beam number='1'>continue</beam>
			</note>
			<note>
				<chord/>
				<pitch>
					<step>A</step>
					<octave>3</octave>
				</pitch>
				<duration>384</duration>
				<voice>1</voice>
				<type>eighth</type>
			</note>
			<note>
				<pitch>
					<step>D</step>
					<octave>3</octave>
				</pitch>
				<duration>384</duration>
				<voice>1</voice>
				<type>eighth</type>
				<beam number='1'>begin</beam>
			</note>
			<note>
				<pitch>
					<step>F</step>
					<alter>1</alter>
					<octave>3</octave>
				</pitch>
				<duration>384</duration>
				<voice>1</voice>
				<type>eighth</type>
				<beam number='1'>continue</beam>
			</note>
			<note>
				<chord/>
				<pitch>
					<step>A</step>
					<octave>3</octave>
				</pitch>
				<duration>384</duration>
				<voice>1</voice>
				<type>eighth</type>
			</note>
			<note>
				<pitch>
					<step>F</step>
					<alter>1</alter>
					<octave>3</octave>
				</pitch>
				<duration>384</duration>
				<voice>1</voice>
				<type>eighth</type>
				<beam number='1'>continue</beam>
			</note>
			<note>
				<chord/>
				<pitch>
					<step>A</step>
					<octave>3</octave>
				</pitch>
				<duration>384</duration>
				<voice>1</voice>
				<type>eighth</type>
			</note>
		</measure>
		<measure number='8'>
			<note>
				<pitch>
					<step>G</step>
					<octave>2</octave>
				</pitch>
				<duration>384</duration>
				<voice>1</voice>
				<type>eighth</type>
				<beam number='1'>begin</beam>
			</note>
			<note>
				<pitch>
					<step>B</step>
					<octave>2</octave>
				</pitch>
				<duration>384</duration>
				<voice>1</voice>
				<type>eighth</type>
				<beam number='1'>continue</beam>
			</note>
			<note>
				<pitch>
					<step>D</step>
					<octave>3</octave>
				</pitch>
				<duration>384</duration>
				<voice>1</voice>
				<type>eighth</type>
				<beam number='1'>continue</beam>
			</note>
			<note>
				<pitch>
					<step>G</step>
					<octave>2</octave>
				</pitch>
				<duration>768</duration>
				<voice>1</voice>
				<type>quarter</type>
			</note>
			<note>
				<chord/>
				<pitch>
					<step>G</step>
					<octave>3</octave>
				</pitch>
				<duration>768</duration>
				<voice>1</voice>
				<type>quarter</type>
			</note>
			<barline location='right'>
				<bar-style>light-light</bar-style>
			</barline>
		</measure>
		<measure number='9'>
			<note>
				<rest/>
				<duration>384</duration>
				<voice>1</voice>
				<type>eighth</type>
			</note>
		</measure>
		<measure number='10'>
			<note>
				<pitch>
					<step>G</step>
					<octave>2</octave>
				</pitch>
				<duration>384</duration>
				<voice>1</voice>
				<type>eighth</type>
				<beam number='1'>begin</beam>
			</note>
			<note>
				<pitch>
					<step>D</step>
					<octave>3</octave>
				</pitch>
				<duration>384</duration>
				<voice>1</voice>
				<type>eighth</type>
				<beam number='1'>continue</beam>
			</note>
			<note>
				<chord/>
				<pitch>
					<step>G</step>
					<octave>3</octave>
				</pitch>
				<duration>384</duration>
				<voice>1</voice>
				<type>eighth</type>
			</note>
			<note>
				<pitch>
					<step>D</step>
					<octave>3</octave>
				</pitch>
				<duration>384</duration>
				<voice>1</voice>
				<type>eighth</type>
				<beam number='1'>continue</beam>
			</note>
			<note>
				<chord/>
				<pitch>
					<step>G</step>
					<octave>3</octave>
				</pitch>
				<duration>384</duration>
				<voice>1</voice>
				<type>eighth</type>
			</note>
			<note>
				<pitch>
					<step>G</step>
					<octave>2</octave>
				</pitch>
				<duration>384</duration>
				<voice>1</voice>
				<type>eighth</type>
				<beam number='1'>begin</beam>
			</note>
			<note>
				<pitch>
					<step>D</step>
					<octave>3</octave>
				</pitch>
				<duration>384</duration>
				<voice>1</voice>
				<type>eighth</type>
				<beam number='1'>continue</beam>
			</note>
			<note>
				<chord/>
				<pitch>
					<step>G</step>
					<octave>3</octave>
				</pitch>
				<duration>384</duration>
				<voice>1</voice>
				<type>eighth</type>
			</note>
			<note>
				<chord/>
				<pitch>
					<step>B</step>
					<octave>3</octave>
				</pitch>
				<duration>384</duration>
				<voice>1</voice>
				<type>eighth</type>
			</note>
			<note>
				<pitch>
					<step>D</step>
					<octave>3</octave>
				</pitch>
				<duration>384</duration>
				<voice>1</voice>
				<type>eighth</type>
				<beam number='1'>continue</beam>
			</note>
			<note>
				<chord/>
				<pitch>
					<step>G</step>
					<octave>3</octave>
				</pitch>
				<duration>384</duration>
				<voice>1</voice>
				<type>eighth</type>
			</note>
			<note>
				<chord/>
				<pitch>
					<step>B</step>
					<octave>3</octave>
				</pitch>
				<duration>384</duration>
				<voice>1</voice>
				<type>eighth</type>
			</note>
		</measure>
		<measure number='11'>
			<note>
				<pitch>
					<step>A</step>
					<octave>2</octave>
				</pitch>
				<duration>384</duration>
				<voice>1</voice>
				<type>eighth</type>
				<beam number='1'>begin</beam>
			</note>
			<note>
				<pitch>
					<step>F</step>
					<alter>1</alter>
					<octave>3</octave>
				</pitch>
				<duration>384</duration>
				<voice>1</voice>
				<type>eighth</type>
				<beam number='1'>continue</beam>
			</note>
			<note>
				<chord/>
				<pitch>
					<step>C</step>
					<octave>4</octave>
				</pitch>
				<duration>384</duration>
				<voice>1</voice>
				<type>eighth</type>
			</note>
			<note>
				<chord/>
				<pitch>
					<step>D</step>
					<octave>4</octave>
				</pitch>
				<duration>384</duration>
				<voice>1</voice>
				<type>eighth</type>
			</note>
			<note>
				<pitch>
					<step>F</step>
					<alter>1</alter>
					<octave>3</octave>
				</pitch>
				<duration>384</duration>
				<voice>1</voice>
				<type>eighth</type>
				<beam number='1'>continue</beam>
			</note>
			<note>
				<chord/>
				<pitch>
					<step>C</step>
					<octave>4</octave>
				</pitch>
				<duration>384</duration>
				<voice>1</voice>
				<type>eighth</type>
			</note>
			<note>
				<chord/>
				<pitch>
					<step>D</step>
					<octave>4</octave>
				</pitch>
				<duration>384</duration>
				<voice>1</voice>
				<type>eighth</type>
			</note>
			<note>
				<pitch>
					<step>D</step>
					<octave>3</octave>
				</pitch>
				<duration>384</duration>
				<voice>1</voice>
				<type>eighth</type>
				<beam number='1'>begin</beam>
			</note>
			<note>
				<pitch>
					<step>F</step>
					<alter>1</alter>
					<octave>3</octave>
				</pitch>
				<duration>384</duration>
				<voice>1</voice>
				<type>eighth</type>
				<beam number='1'>continue</beam>
			</note>
			<note>
				<chord/>
				<pitch>
					<step>A</step>
					<octave>3</octave>
				</pitch>
				<duration>384</duration>
				<voice>1</voice>
				<type>eighth</type>
			</note>
			<note>
				<pitch>
					<step>F</step>
					<alter>1</alter>
					<octave>3</octave>
				</pitch>
				<duration>384</duration>
				<voice>1</voice>
				<type>eighth</type>
				<beam number='1'>continue</beam>
			</note>
			<note>
				<chord/>
				<pitch>
					<step>A</step>
					<octave>3</octave>
				</pitch>
				<duration>384</duration>
				<voice>1</voice>
				<type>eighth</type>
			</note>
		</measure>
		<measure number='12'>
			<note>
				<pitch>
					<step>D</step>
					<octave>3</octave>
				</pitch>
				<duration>384</duration>
				<voice>1</voice>
				<type>eighth</type>
				<beam number='1'>begin</beam>
			</note>
			<note>
				<pitch>
					<step>F</step>
					<alter>1</alter>
					<octave>3</octave>
				</pitch>
				<duration>384</duration>
				<voice>1</voice>
				<type>eighth</type>
				<beam number='1'>continue</beam>
			</note>
			<note>
				<chord/>
				<pitch>
					<step>A</step>
					<octave>3</octave>
				</pitch>
				<duration>384</duration>
				<voice>1</voice>
				<type>eighth</type>
			</note>
			<note>
				<pitch>
					<step>F</step>
					<alter>1</alter>
					<octave>3</octave>
				</pitch>
				<duration>384</duration>
				<voice>1</voice>
				<type>eighth</type>
				<beam number='1'>continue</beam>
			</note>
			<note>
				<chord/>
				<pitch>
					<step>A</step>
					<octave>3</octave>
				</pitch>
				<duration>384</duration>
				<voice>1</voice>
				<type>eighth</type>
			</note>
			<note>
				<pitch>
					<step>D</step>
					<octave>3</octave>
				</pitch>
				<duration>384</duration>
				<voice>1</voice>
				<type>eighth</type>
				<beam number='1'>begin</beam>
			</note>
			<note>
				<pitch>
					<step>F</step>
					<alter>1</alter>
					<octave>3</octave>
				</pitch>
				<duration>384</duration>
				<voice>1</voice>
				<type>eighth</type>
				<beam number='1'>continue</beam>
			</note>
			<note>
				<chord/>
				<pitch>
					<step>A</step>
					<octave>3</octave>
				</pitch>
				<duration>384</duration>
				<voice>1</voice>
				<type>eighth</type>
			</note>
			<note>
				<pitch>
					<step>F</step>
					<alter>1</alter>
					<octave>3</octave>
				</pitch>
				<duration>384</duration>
				<voice>1</voice>
				<type>eighth</type>
				<beam number='1'>continue</beam>
			</note>
			<note>
				<chord/>
				<pitch>
					<step>A</step>
					<octave>3</octave>
				</pitch>
				<duration>384</duration>
				<voice>1</voice>
				<type>eighth</type>
			</note>
		</measure>
		<measure number='13'>
			<note>
				<pitch>
					<step>G</step>
					<octave>2</octave>
				</pitch>
				<duration>384</duration>
				<voice>1</voice>
				<type>eighth</type>
				<beam number='1'>begin</beam>
			</note>
			<note>
				<pitch>
					<step>G</step>
					<octave>3</octave>
				</pitch>
				<duration>384</duration>
				<voice>1</voice>
				<type>eighth</type>
				<beam number='1'>continue</beam>
			</note>
			<note>
				<chord/>
				<pitch>
					<step>B</step>
					<octave>3</octave>
				</pitch>
				<duration>384</duration>
				<voice>1</voice>
				<type>eighth</type>
			</note>
			<note>
				<chord/>
				<pitch>
					<step>D</step>
					<octave>4</octave>
				</pitch>
				<duration>384</duration>
				<voice>1</voice>
				<type>eighth</type>
			</note>
			<note>
				<pitch>
					<step>G</step>
					<octave>3</octave>
				</pitch>
				<duration>384</duration>
				<voice>1</voice>
				<type>eighth</type>
				<beam number='1'>continue</beam>
			</note>
			<note>
				<chord/>
				<pitch>
					<step>B</step>
					<octave>3</octave>
				</pitch>
				<duration>384</duration>
				<voice>1</voice>
				<type>eighth</type>
			</note>
			<note>
				<chord/>
				<pitch>
					<step>D</step>
					<octave>4</octave>
				</pitch>
				<duration>384</duration>
				<voice>1</voice>
				<type>eighth</type>
			</note>
			<note>
				<pitch>
					<step>G</step>
					<octave>2</octave>
				</pitch>
				<duration>384</duration>
				<voice>1</voice>
				<type>eighth</type>
				<beam number='1'>begin</beam>
			</note>
			<note>
				<pitch>
					<step>G</step>
					<octave>3</octave>
				</pitch>
				<duration>384</duration>
				<voice>1</voice>
				<type>eighth</type>
				<beam number='1'>continue</beam>
			</note>
			<note>
				<chord/>
				<pitch>
					<step>B</step>
					<octave>3</octave>
				</pitch>
				<duration>384</duration>
				<voice>1</voice>
				<type>eighth</type>
			</note>
			<note>
				<chord/>
				<pitch>
					<step>D</step>
					<octave>4</octave>
				</pitch>
				<duration>384</duration>
				<voice>1</voice>
				<type>eighth</type>
			</note>
		</measure>
		<measure number='14'>
			<note>
				<rest/>
				<duration>384</duration>
				<voice>1</voice>
				<type>eighth</type>
			</note>
		</measure>
		<measure number='15'>
			<note>
				<pitch>
					<step>G</step>
					<octave>2</octave>
				</pitch>
				<duration>384</duration>
				<voice>1</voice>
				<type>eighth</type>
				<beam number='1'>begin</beam>
			</note>
			<note>
				<pitch>
					<step>D</step>
					<octave>3</octave>
				</pitch>
				<duration>384</duration>
				<voice>1</voice>
				<type>eighth</type>
				<beam number='1'>continue</beam>
			</note>
			<note>
				<chord/>
				<pitch>
					<step>G</step>
					<octave>3</octave>
				</pitch>
				<duration>384</duration>
				<voice>1</voice>
				<type>eighth</type>
			</note>
			<note>
				<pitch>
					<step>D</step>
					<octave>3</octave>
				</pitch>
				<duration>384</duration>
				<voice>1</voice>
				<type>eighth</type>
				<beam number='1'>continue</beam>
			</note>
			<note>
				<chord/>
				<pitch>
					<step>G</step>
					<octave>3</octave>
				</pitch>
				<duration>384</duration>
				<voice>1</voice>
				<type>eighth</type>
			</note>
			<note>
				<pitch>
					<step>G</step>
					<octave>2</octave>
				</pitch>
				<duration>384</duration>
				<voice>1</voice>
				<type>eighth</type>
				<beam number='1'>begin</beam>
			</note>
			<note>
				<pitch>
					<step>D</step>
					<octave>3</octave>
				</pitch>
				<duration>384</duration>
				<voice>1</voice>
				<type>eighth</type>
				<beam number='1'>continue</beam>
			</note>
			<note>
				<chord/>
				<pitch>
					<step>G</step>
					<octave>3</octave>
				</pitch>
				<duration>384</duration>
				<voice>1</voice>
				<type>eighth</type>
			</note>
			<note>
				<chord/>
				<pitch>
					<step>B</step>
					<octave>3</octave>
				</pitch>
				<duration>384</duration>
				<voice>1</voice>
				<type>eighth</type>
			</note>
			<note>
				<pitch>
					<step>D</step>
					<octave>3</octave>
				</pitch>
				<duration>384</duration>
				<voice>1</voice>
				<type>eighth</type>
				<beam number='1'>continue</beam>
			</note>
			<note>
				<chord/>
				<pitch>
					<step>G</step>
					<octave>3</octave>
				</pitch>
				<duration>384</duration>
				<voice>1</voice>
				<type>eighth</type>
			</note>
			<note>
				<chord/>
				<pitch>
					<step>B</step>
					<octave>3</octave>
				</pitch>
				<duration>384</duration>
				<voice>1</voice>
				<type>eighth</type>
			</note>
		</measure>
		<measure number='16'>
			<note>
				<pitch>
					<step>A</step>
					<octave>2</octave>
				</pitch>
				<duration>384</duration>
				<voice>1</voice>
				<type>eighth</type>
				<beam number='1'>begin</beam>
			</note>
			<note>
				<pitch>
					<step>F</step>
					<alter>1</alter>
					<octave>3</octave>
				</pitch>
				<duration>384</duration>
				<voice>1</voice>
				<type>eighth</type>
				<beam number='1'>continue</beam>
			</note>
			<note>
				<chord/>
				<pitch>
					<step>C</step>
					<octave>4</octave>
				</pitch>
				<duration>384</duration>
				<voice>1</voice>
				<type>eighth</type>
			</note>
			<note>
				<chord/>
				<pitch>
					<step>D</step>
					<octave>4</octave>
				</pitch>
				<duration>384</duration>
				<voice>1</voice>
				<type>eighth</type>
			</note>
			<note>
				<pitch>
					<step>F</step>
					<alter>1</alter>
					<octave>3</octave>
				</pitch>
				<duration>384</duration>
				<voice>1</voice>
				<type>eighth</type>
				<beam number='1'>continue</beam>
			</note>
			<note>
				<chord/>
				<pitch>
					<step>C</step>
					<octave>4</octave>
				</pitch>
				<duration>384</duration>
				<voice>1</voice>
				<type>eighth</type>
			</note>
			<note>
				<chord/>
				<pitch>
					<step>D</step>
					<octave>4</octave>
				</pitch>
				<duration>384</duration>
				<voice>1</voice>
				<type>eighth</type>
			</note>
			<note>
				<pitch>
					<step>D</step>
					<octave>3</octave>
				</pitch>
				<duration>384</duration>
				<voice>1</voice>
				<type>eighth</type>
				<beam number='1'>begin</beam>
			</note>
			<note>
				<pitch>
					<step>F</step>
					<alter>1</alter>
					<octave>3</octave>
				</pitch>
				<duration>384</duration>
				<voice>1</voice>
				<type>eighth</type>
				<beam number='1'>continue</beam>
			</note>
			<note>
				<chord/>
				<pitch>
					<step>A</step>
					<octave>3</octave>
				</pitch>
				<duration>384</duration>
				<voice>1</voice>
				<type>eighth</type>
			</note>
			<note>
				<chord/>
				<pitch>
					<step>C</step>
					<octave>4</octave>
				</pitch>
				<duration>384</duration>
				<voice>1</voice>
				<type>eighth</type>
			</note>
			<note>
				<pitch>
					<step>F</step>
					<alter>1</alter>
					<octave>3</octave>
				</pitch>
				<duration>384</duration>
				<voice>1</voice>
				<type>eighth</type>
				<beam number='1'>continue</beam>
			</note>
			<note>
				<chord/>
				<pitch>
					<step>A</step>
					<octave>3</octave>
				</pitch>
				<duration>384</duration>
				<voice>1</voice>
				<type>eighth</type>
			</note>
			<note>
				<chord/>
				<pitch>
					<step>C</step>
					<octave>4</octave>
				</pitch>
				<duration>384</duration>
				<voice>1</voice>
				<type>eighth</type>
			</note>
		</measure>
		<measure number='17'>
			<note>
				<pitch>
					<step>D</step>
					<octave>3</octave>
				</pitch>
				<duration>384</duration>
				<voice>1</voice>
				<type>eighth</type>
				<beam number='1'>begin</beam>
			</note>
			<note>
				<pitch>
					<step>F</step>
					<alter>1</alter>
					<octave>3</octave>
				</pitch>
				<duration>384</duration>
				<voice>1</voice>
				<type>eighth</type>
				<beam number='1'>continue</beam>
			</note>
			<note>
				<chord/>
				<pitch>
					<step>A</step>
					<octave>3</octave>
				</pitch>
				<duration>384</duration>
				<voice>1</voice>
				<type>eighth</type>
			</note>
			<note>
				<chord/>
				<pitch>
					<step>C</step>
					<octave>4</octave>
				</pitch>
				<duration>384</duration>
				<voice>1</voice>
				<type>eighth</type>
			</note>
			<note>
				<pitch>
					<step>F</step>
					<alter>1</alter>
					<octave>3</octave>
				</pitch>
				<duration>384</duration>
				<voice>1</voice>
				<type>eighth</type>
				<beam number='1'>continue</beam>
			</note>
			<note>
				<chord/>
				<pitch>
					<step>A</step>
					<octave>3</octave>
				</pitch>
				<duration>384</duration>
				<voice>1</voice>
				<type>eighth</type>
			</note>
			<note>
				<chord/>
				<pitch>
					<step>C</step>
					<octave>4</octave>
				</pitch>
				<duration>384</duration>
				<voice>1</voice>
				<type>eighth</type>
			</note>
			<note>
				<pitch>
					<step>D</step>
					<octave>3</octave>
				</pitch>
				<duration>384</duration>
				<voice>1</voice>
				<type>eighth</type>
				<beam number='1'>begin</beam>
			</note>
			<note>
				<pitch>
					<step>F</step>
					<alter>1</alter>
					<octave>3</octave>
				</pitch>
				<duration>384</duration>
				<voice>1</voice>
				<type>eighth</type>
				<beam number='1'>continue</beam>
			</note>
			<note>
				<pitch>
					<step>F</step>
					<alter>1</alter>
					<octave>3</octave>
				</pitch>
				<duration>384</duration>
				<voice>1</voice>
				<type>eighth</type>
				<beam number='1'>continue</beam>
			</note>
		</measure>
		<measure number='18'>
			<note>
				<pitch>
					<step>G</step>
					<octave>3</octave>
				</pitch>
				<duration>1152</duration>
				<tie type='start'/>
				<voice>1</voice>
				<type>quarter</type>
				<dot/>
			</note>
			<backup>
				<duration>1152</duration>
			</backup>
			<note>
				<pitch>
					<step>G</step>
					<octave>2</octave>
				</pitch>
				<duration>384</duration>
				<voice>2</voice>
				<type>eighth</type>
				<beam number='1'>continue</beam>
			</note>
			<note>
				<pitch>
					<step>D</step>
					<octave>3</octave>
				</pitch>
				<duration>384</duration>
				<voice>2</voice>
				<type>eighth</type>
				<beam number='1'>continue</beam>
			</note>
			<note>
				<pitch>
					<step>B</step>
					<octave>2</octave>
				</pitch>
				<duration>384</duration>
				<voice>2</voice>
				<type>eighth</type>
				<beam number='1'>continue</beam>
			</note>
			<note>
				<pitch>
					<step>G</step>
					<octave>3</octave>
				</pitch>
				<duration>1152</duration>
				<voice>1</voice>
				<type>quarter</type>
				<dot/>
			</note>
			<backup>
				<duration>1152</duration>
			</backup>
			<note>
				<pitch>
					<step>G</step>
					<octave>2</octave>
				</pitch>
				<duration>1152</duration>
				<voice>2</voice>
				<type>quarter</type>
				<dot/>
			</note>
			<barline location='right'>
				<bar-style>light-heavy</bar-style>
			</barline>
		</measure>
	</part>
</score-partwise>
