<?xml version='1.0' encoding='US-ASCII' standalone='no'?>
<!DOCTYPE score-partwise PUBLIC '-//Recordare//DTD MusicXML 1.0 Partwise//EN' 'http://www.musicxml.org/dtds/partwise.dtd'>
<score-partwise>
	<movement-title>Count Your Blessings (Chorus)</movement-title>
	<identification>
		<creator type='composer'>Edwin O. Excell</creator>
		<creator type='lyricist'>Johnson Oatman, Jr., pub.1897; arr.</creator>
		<rights>PUBLIC DOMAIN</rights>
		<encoding>
			<software>Sibelius</software>
			<software>Dolet for Sibelius 1.1</software>
		</encoding>
	</identification>
	<part-list>
		<score-part id='P1'>
			<part-name>SOPRANO ALTO</part-name>
		</score-part>
	</part-list>
	<part id='P1'>
		<measure number='1'>
			<attributes>
				<divisions>768</divisions>
				<key>
					<fifths>-3</fifths>
					<mode>major</mode>
				</key>
				<time>
					<beats>2</beats>
					<beat-type>4</beat-type>
				</time>
				<clef>
					<sign>G</sign>
					<line>2</line>
				</clef>
			</attributes>
			<direction placement='above'>
				<direction-type>
					<metronome>
						<beat-unit>quarter</beat-unit>
						<per-minute>100</per-minute>
					</metronome>
				</direction-type>
				<sound tempo='100'/>
			</direction>
			<note>
				<pitch>
					<step>G</step>
					<octave>4</octave>
				</pitch>
				<duration>1152</duration>
				<voice>1</voice>
				<type>quarter</type>
				<dot/>
				<lyric number='1'>
					<syllabic>end</syllabic>
					<text>7. Count</text>
				</lyric>
				<lyric number='2'>
					<syllabic>end</syllabic>
					<text>2. Count</text>
				</lyric>
				<lyric number='3'>
					<syllabic>end</syllabic>
					<text>3. Count</text>
				</lyric>
				<lyric number='4'>
					<syllabic>end</syllabic>
					<text>4. Count</text>
				</lyric>
				<lyric number='5'>
					<syllabic>end</syllabic>
					<text>5. Count</text>
				</lyric>
			</note>
			<note>
				<chord/>
				<pitch>
					<step>B</step>
					<alter>-1</alter>
					<octave>4</octave>
				</pitch>
				<duration>1152</duration>
				<voice>1</voice>
				<type>quarter</type>
				<dot/>
			</note>
			<note>
				<pitch>
					<step>G</step>
					<octave>4</octave>
				</pitch>
				<duration>384</duration>
				<voice>1</voice>
				<type>eighth</type>
				<beam number='1'>continue</beam>
				<lyric number='1'>
					<syllabic>end</syllabic>
					<text>your</text>
				</lyric>
				<lyric number='2'>
					<syllabic>end</syllabic>
					<text>your</text>
				</lyric>
				<lyric number='3'>
					<syllabic>end</syllabic>
					<text>your</text>
				</lyric>
				<lyric number='4'>
					<syllabic>end</syllabic>
					<text>your</text>
				</lyric>
				<lyric number='5'>
					<syllabic>end</syllabic>
					<text>your</text>
				</lyric>
			</note>
			<note>
				<chord/>
				<pitch>
					<step>B</step>
					<alter>-1</alter>
					<octave>4</octave>
				</pitch>
				<duration>384</duration>
				<voice>1</voice>
				<type>eighth</type>
			</note>
		</measure>
		<measure number='2'>
			<note>
				<pitch>
					<step>G</step>
					<octave>4</octave>
				</pitch>
				<duration>384</duration>
				<voice>1</voice>
				<type>eighth</type>
				<beam number='1'>begin</beam>
				<lyric number='1'>
					<syllabic>middle</syllabic>
					<text>bless</text>
				</lyric>
				<lyric number='2'>
					<syllabic>middle</syllabic>
					<text>bless</text>
				</lyric>
				<lyric number='3'>
					<syllabic>middle</syllabic>
					<text>bless</text>
				</lyric>
				<lyric number='4'>
					<syllabic>middle</syllabic>
					<text>bless</text>
				</lyric>
				<lyric number='5'>
					<syllabic>middle</syllabic>
					<text>bless</text>
				</lyric>
			</note>
			<note>
				<chord/>
				<pitch>
					<step>E</step>
					<alter>-1</alter>
					<octave>5</octave>
				</pitch>
				<duration>384</duration>
				<voice>1</voice>
				<type>eighth</type>
			</note>
			<note>
				<pitch>
					<step>G</step>
					<octave>4</octave>
				</pitch>
				<duration>384</duration>
				<voice>1</voice>
				<type>eighth</type>
				<beam number='1'>continue</beam>
				<lyric number='1'>
					<syllabic>end</syllabic>
					<text>ings,</text>
				</lyric>
				<lyric number='2'>
					<syllabic>end</syllabic>
					<text>ings,</text>
				</lyric>
				<lyric number='3'>
					<syllabic>end</syllabic>
					<text>ings,</text>
				</lyric>
				<lyric number='4'>
					<syllabic>end</syllabic>
					<text>ings,</text>
				</lyric>
				<lyric number='5'>
					<syllabic>end</syllabic>
					<text>ings,</text>
				</lyric>
			</note>
			<note>
				<chord/>
				<pitch>
					<step>B</step>
					<alter>-1</alter>
					<octave>4</octave>
				</pitch>
				<duration>384</duration>
				<voice>1</voice>
				<type>eighth</type>
			</note>
			<note>
				<pitch>
					<step>G</step>
					<octave>4</octave>
				</pitch>
				<duration>384</duration>
				<voice>1</voice>
				<type>eighth</type>
				<beam number='1'>begin</beam>
				<lyric number='1'>
					<syllabic>end</syllabic>
					<text>name</text>
				</lyric>
				<lyric number='2'>
					<syllabic>end</syllabic>
					<text>name</text>
				</lyric>
				<lyric number='3'>
					<syllabic>end</syllabic>
					<text>name</text>
				</lyric>
				<lyric number='4'>
					<syllabic>end</syllabic>
					<text>name</text>
				</lyric>
				<lyric number='5'>
					<syllabic>end</syllabic>
					<text>name</text>
				</lyric>
			</note>
			<note>
				<chord/>
				<pitch>
					<step>B</step>
					<alter>-1</alter>
					<octave>4</octave>
				</pitch>
				<duration>384</duration>
				<voice>1</voice>
				<type>eighth</type>
			</note>
			<note>
				<pitch>
					<step>E</step>
					<alter>-1</alter>
					<octave>4</octave>
				</pitch>
				<duration>384</duration>
				<voice>1</voice>
				<type>eighth</type>
				<beam number='1'>continue</beam>
				<lyric number='1'>
					<syllabic>end</syllabic>
					<text>them</text>
				</lyric>
				<lyric number='2'>
					<syllabic>end</syllabic>
					<text>them</text>
				</lyric>
				<lyric number='3'>
					<syllabic>end</syllabic>
					<text>them</text>
				</lyric>
				<lyric number='4'>
					<syllabic>end</syllabic>
					<text>them</text>
				</lyric>
				<lyric number='5'>
					<syllabic>end</syllabic>
					<text>them</text>
				</lyric>
			</note>
			<note>
				<chord/>
				<pitch>
					<step>G</step>
					<octave>4</octave>
				</pitch>
				<duration>384</duration>
				<voice>1</voice>
				<type>eighth</type>
			</note>
		</measure>
		<measure number='3'>
			<note>
				<pitch>
					<step>A</step>
					<alter>-1</alter>
					<octave>4</octave>
				</pitch>
				<duration>768</duration>
				<voice>1</voice>
				<type>quarter</type>
				<lyric number='1'>
					<syllabic>end</syllabic>
					<text>seven</text>
				</lyric>
				<lyric number='2'>
					<syllabic>end</syllabic>
					<text>two</text>
				</lyric>
				<lyric number='3'>
					<syllabic>end</syllabic>
					<text>three</text>
				</lyric>
				<lyric number='4'>
					<syllabic>end</syllabic>
					<text>four</text>
				</lyric>
				<lyric number='5'>
					<syllabic>end</syllabic>
					<text>five</text>
				</lyric>
			</note>
			<backup>
				<duration>768</duration>
			</backup>
			<note>
				<pitch>
					<step>F</step>
					<octave>4</octave>
				</pitch>
				<duration>384</duration>
				<voice>2</voice>
				<type>eighth</type>
				<beam number='1'>begin</beam>
				<notations>
					<slur type='start' number='1'/>
				</notations>
			</note>
			<note>
				<pitch>
					<step>E</step>
					<alter>-1</alter>
					<octave>4</octave>
				</pitch>
				<duration>384</duration>
				<voice>2</voice>
				<type>eighth</type>
				<beam number='1'>continue</beam>
				<notations>
					<slur type='stop' number='1'/>
				</notations>
			</note>
			<note>
				<pitch>
					<step>A</step>
					<alter>-1</alter>
					<octave>4</octave>
				</pitch>
				<duration>768</duration>
				<voice>1</voice>
				<type>quarter</type>
				<lyric number='1'>
					<syllabic>end</syllabic>
					<text>by</text>
				</lyric>
				<lyric number='2'>
					<syllabic>end</syllabic>
					<text>by</text>
				</lyric>
				<lyric number='3'>
					<syllabic>end</syllabic>
					<text>by</text>
				</lyric>
				<lyric number='4'>
					<syllabic>end</syllabic>
					<text>by</text>
				</lyric>
				<lyric number='5'>
					<syllabic>end</syllabic>
					<text>by</text>
				</lyric>
			</note>
			<backup>
				<duration>768</duration>
			</backup>
			<note>
				<pitch>
					<step>D</step>
					<octave>4</octave>
				</pitch>
				<duration>384</duration>
				<voice>2</voice>
				<type>eighth</type>
				<beam number='1'>begin</beam>
				<notations>
					<slur type='start' number='1'/>
				</notations>
			</note>
			<note>
				<pitch>
					<step>C</step>
					<octave>4</octave>
				</pitch>
				<duration>384</duration>
				<voice>2</voice>
				<type>eighth</type>
				<beam number='1'>continue</beam>
				<notations>
					<slur type='stop' number='1'/>
				</notations>
			</note>
		</measure>
		<measure number='4'>
			<note>
				<pitch>
					<step>B</step>
					<alter>-1</alter>
					<octave>3</octave>
				</pitch>
				<duration>1536</duration>
				<voice>1</voice>
				<type>half</type>
				<lyric number='1'>
					<syllabic>end</syllabic>
					<text>seven,</text>
				</lyric>
				<lyric number='2'>
					<syllabic>end</syllabic>
					<text>two,</text>
				</lyric>
				<lyric number='3'>
					<syllabic>end</syllabic>
					<text>three,</text>
				</lyric>
				<lyric number='4'>
					<syllabic>end</syllabic>
					<text>four,</text>
				</lyric>
				<lyric number='5'>
					<syllabic>end</syllabic>
					<text>five,</text>
				</lyric>
			</note>
			<note>
				<chord/>
				<pitch>
					<step>A</step>
					<alter>-1</alter>
					<octave>4</octave>
				</pitch>
				<duration>1536</duration>
				<voice>1</voice>
				<type>half</type>
			</note>
		</measure>
		<measure number='5'>
			<note>
				<pitch>
					<step>F</step>
					<octave>4</octave>
				</pitch>
				<duration>1152</duration>
				<voice>1</voice>
				<type>quarter</type>
				<dot/>
				<lyric number='1'>
					<syllabic>end</syllabic>
					<text>Count</text>
				</lyric>
				<lyric number='2'>
					<syllabic>end</syllabic>
					<text>Count</text>
				</lyric>
				<lyric number='3'>
					<syllabic>end</syllabic>
					<text>Count</text>
				</lyric>
				<lyric number='4'>
					<syllabic>end</syllabic>
					<text>Count</text>
				</lyric>
				<lyric number='5'>
					<syllabic>end</syllabic>
					<text>Count</text>
				</lyric>
			</note>
			<note>
				<chord/>
				<pitch>
					<step>A</step>
					<alter>-1</alter>
					<octave>4</octave>
				</pitch>
				<duration>1152</duration>
				<voice>1</voice>
				<type>quarter</type>
				<dot/>
			</note>
			<note>
				<pitch>
					<step>F</step>
					<octave>4</octave>
				</pitch>
				<duration>384</duration>
				<voice>1</voice>
				<type>eighth</type>
				<beam number='1'>continue</beam>
				<lyric number='1'>
					<syllabic>end</syllabic>
					<text>your</text>
				</lyric>
				<lyric number='2'>
					<syllabic>end</syllabic>
					<text>your</text>
				</lyric>
				<lyric number='3'>
					<syllabic>end</syllabic>
					<text>your</text>
				</lyric>
				<lyric number='4'>
					<syllabic>end</syllabic>
					<text>your</text>
				</lyric>
				<lyric number='5'>
					<syllabic>end</syllabic>
					<text>your</text>
				</lyric>
			</note>
			<note>
				<chord/>
				<pitch>
					<step>A</step>
					<alter>-1</alter>
					<octave>4</octave>
				</pitch>
				<duration>384</duration>
				<voice>1</voice>
				<type>eighth</type>
			</note>
		</measure>
		<measure number='6'>
			<note>
				<pitch>
					<step>B</step>
					<alter>-1</alter>
					<octave>4</octave>
				</pitch>
				<duration>384</duration>
				<voice>1</voice>
				<type>eighth</type>
				<beam number='1'>begin</beam>
				<lyric number='1'>
					<syllabic>middle</syllabic>
					<text>bless</text>
				</lyric>
				<lyric number='2'>
					<syllabic>middle</syllabic>
					<text>bless</text>
				</lyric>
				<lyric number='3'>
					<syllabic>middle</syllabic>
					<text>bless</text>
				</lyric>
				<lyric number='4'>
					<syllabic>middle</syllabic>
					<text>bless</text>
				</lyric>
				<lyric number='5'>
					<syllabic>middle</syllabic>
					<text>bless</text>
				</lyric>
			</note>
			<note>
				<chord/>
				<pitch>
					<step>D</step>
					<octave>5</octave>
				</pitch>
				<duration>384</duration>
				<voice>1</voice>
				<type>eighth</type>
			</note>
			<note>
				<pitch>
					<step>A</step>
					<alter>-1</alter>
					<octave>4</octave>
				</pitch>
				<duration>384</duration>
				<voice>1</voice>
				<type>eighth</type>
				<beam number='1'>continue</beam>
				<lyric number='1'>
					<syllabic>end</syllabic>
					<text>ings,</text>
				</lyric>
				<lyric number='2'>
					<syllabic>end</syllabic>
					<text>ings,</text>
				</lyric>
				<lyric number='3'>
					<syllabic>end</syllabic>
					<text>ings,</text>
				</lyric>
				<lyric number='4'>
					<syllabic>end</syllabic>
					<text>ings,</text>
				</lyric>
				<lyric number='5'>
					<syllabic>end</syllabic>
					<text>ings,</text>
				</lyric>
			</note>
			<note>
				<chord/>
				<pitch>
					<step>C</step>
					<octave>5</octave>
				</pitch>
				<duration>384</duration>
				<voice>1</voice>
				<type>eighth</type>
			</note>
		</measure>
		<measure number='7'>
			<note>
				<pitch>
					<step>G</step>
					<octave>4</octave>
				</pitch>
				<duration>384</duration>
				<voice>1</voice>
				<type>eighth</type>
				<beam number='1'>begin</beam>
				<lyric number='1'>
					<syllabic>end</syllabic>
					<text>count</text>
				</lyric>
				<lyric number='2'>
					<syllabic>end</syllabic>
					<text>see</text>
				</lyric>
				<lyric number='3'>
					<syllabic>end</syllabic>
					<text>see</text>
				</lyric>
				<lyric number='4'>
					<syllabic>end</syllabic>
					<text>count</text>
				</lyric>
				<lyric number='5'>
					<syllabic>end</syllabic>
					<text>see</text>
				</lyric>
			</note>
			<note>
				<chord/>
				<pitch>
					<step>B</step>
					<alter>-1</alter>
					<octave>4</octave>
				</pitch>
				<duration>384</duration>
				<voice>1</voice>
				<type>eighth</type>
			</note>
			<note>
				<pitch>
					<step>F</step>
					<octave>4</octave>
				</pitch>
				<duration>384</duration>
				<voice>1</voice>
				<type>eighth</type>
				<beam number='1'>continue</beam>
				<lyric number='1'>
					<syllabic>end</syllabic>
					<text>them</text>
				</lyric>
				<lyric number='2'>
					<syllabic>end</syllabic>
					<text>what</text>
				</lyric>
				<lyric number='3'>
					<syllabic>end</syllabic>
					<text>what</text>
				</lyric>
				<lyric number='4'>
					<syllabic>end</syllabic>
					<text>them</text>
				</lyric>
				<lyric number='5'>
					<syllabic>end</syllabic>
					<text>that</text>
				</lyric>
			</note>
			<note>
				<chord/>
				<pitch>
					<step>A</step>
					<alter>-1</alter>
					<octave>4</octave>
				</pitch>
				<duration>384</duration>
				<voice>1</voice>
				<type>eighth</type>
			</note>
		</measure>
		<measure number='8'>
			<note>
				<pitch>
					<step>E</step>
					<alter>-1</alter>
					<octave>4</octave>
				</pitch>
				<duration>384</duration>
				<tie type='start'/>
				<voice>1</voice>
				<type>eighth</type>
				<beam number='1'>begin</beam>
				<lyric number='1'>
					<syllabic>end</syllabic>
					<text>God</text>
				</lyric>
				<lyric number='2'>
					<syllabic>end</syllabic>
					<text>God</text>
				</lyric>
				<lyric number='3'>
					<syllabic>end</syllabic>
					<text>God</text>
				</lyric>
				<lyric number='4'>
					<syllabic>end</syllabic>
					<text>more</text>
				</lyric>
				<lyric number='5'>
					<syllabic>end</syllabic>
					<text>God</text>
				</lyric>
			</note>
			<note>
				<chord/>
				<pitch>
					<step>G</step>
					<octave>4</octave>
				</pitch>
				<duration>384</duration>
				<tie type='start'/>
				<voice>1</voice>
				<type>eighth</type>
			</note>
			<note>
				<pitch>
					<step>E</step>
					<alter>-1</alter>
					<octave>4</octave>
				</pitch>
				<duration>384</duration>
				<voice>1</voice>
				<type>eighth</type>
				<beam number='1'>continue</beam>
				<lyric number='1'>
					<syllabic>end</syllabic>
					<text>the</text>
				</lyric>
				<lyric number='3'>
					<syllabic>end</syllabic>
					<text>has</text>
				</lyric>
			</note>
			<note>
				<chord/>
				<pitch>
					<step>G</step>
					<octave>4</octave>
				</pitch>
				<duration>384</duration>
				<voice>1</voice>
				<type>eighth</type>
			</note>
			<note>
				<pitch>
					<step>F</step>
					<octave>4</octave>
				</pitch>
				<duration>384</duration>
				<tie type='start'/>
				<voice>1</voice>
				<type>eighth</type>
				<beam number='1'>begin</beam>
				<lyric number='1'>
					<syllabic>end</syllabic>
					<text>has</text>
				</lyric>
				<lyric number='2'>
					<syllabic>end</syllabic>
					<text>can</text>
				</lyric>
				<lyric number='3'>
					<syllabic>end</syllabic>
					<text>done</text>
				</lyric>
				<lyric number='4'>
					<syllabic>end</syllabic>
					<text>and</text>
				</lyric>
				<lyric number='5'>
					<syllabic>end</syllabic>
					<text>is</text>
				</lyric>
			</note>
			<note>
				<chord/>
				<pitch>
					<step>A</step>
					<alter>-1</alter>
					<octave>4</octave>
				</pitch>
				<duration>384</duration>
				<tie type='start'/>
				<voice>1</voice>
				<type>eighth</type>
			</note>
			<note>
				<pitch>
					<step>F</step>
					<octave>4</octave>
				</pitch>
				<duration>384</duration>
				<voice>1</voice>
				<type>eighth</type>
				<beam number='1'>continue</beam>
				<lyric number='1'>
					<syllabic>end</syllabic>
					<text>to</text>
				</lyric>
				<lyric number='3'>
					<syllabic>end</syllabic>
					<text>for</text>
				</lyric>
				<lyric number='5'>
					<syllabic>middle</syllabic>
					<text>a</text>
				</lyric>
			</note>
			<note>
				<chord/>
				<pitch>
					<step>A</step>
					<alter>-1</alter>
					<octave>4</octave>
				</pitch>
				<duration>384</duration>
				<voice>1</voice>
				<type>eighth</type>
			</note>
		</measure>
		<measure number='9'>
			<note>
				<pitch>
					<step>G</step>
					<octave>4</octave>
				</pitch>
				<duration>1536</duration>
				<voice>1</voice>
				<type>half</type>
				<lyric number='1'>
					<syllabic>end</syllabic>
					<text>heaven!</text>
				</lyric>
				<lyric number='2'>
					<syllabic>end</syllabic>
					<text>do!</text>
				</lyric>
				<lyric number='3'>
					<syllabic>end</syllabic>
					<text>me!</text>
				</lyric>
				<lyric number='4'>
					<syllabic>end</syllabic>
					<text>more!</text>
				</lyric>
				<lyric number='5'>
					<syllabic>end</syllabic>
					<text>live!</text>
				</lyric>
			</note>
			<note>
				<chord/>
				<pitch>
					<step>B</step>
					<alter>-1</alter>
					<octave>4</octave>
				</pitch>
				<duration>1536</duration>
				<voice>1</voice>
				<type>half</type>
			</note>
		</measure>
		<measure number='10'>
			<note>
				<pitch>
					<step>G</step>
					<octave>4</octave>
				</pitch>
				<duration>1152</duration>
				<voice>1</voice>
				<type>quarter</type>
				<dot/>
				<lyric number='1'>
					<syllabic>end</syllabic>
					<text>Count</text>
				</lyric>
				<lyric number='2'>
					<syllabic>end</syllabic>
					<text>Count</text>
				</lyric>
				<lyric number='3'>
					<syllabic>end</syllabic>
					<text>Count</text>
				</lyric>
				<lyric number='4'>
					<syllabic>end</syllabic>
					<text>Count</text>
				</lyric>
				<lyric number='5'>
					<syllabic>end</syllabic>
					<text>Count</text>
				</lyric>
			</note>
			<note>
				<chord/>
				<pitch>
					<step>E</step>
					<alter>-1</alter>
					<octave>5</octave>
				</pitch>
				<duration>1152</duration>
				<voice>1</voice>
				<type>quarter</type>
				<dot/>
			</note>
			<note>
				<pitch>
					<step>G</step>
					<octave>4</octave>
				</pitch>
				<duration>384</duration>
				<voice>1</voice>
				<type>eighth</type>
				<beam number='1'>continue</beam>
				<lyric number='1'>
					<syllabic>end</syllabic>
					<text>your</text>
				</lyric>
				<lyric number='2'>
					<syllabic>end</syllabic>
					<text>your</text>
				</lyric>
				<lyric number='3'>
					<syllabic>end</syllabic>
					<text>your</text>
				</lyric>
				<lyric number='4'>
					<syllabic>end</syllabic>
					<text>your</text>
				</lyric>
				<lyric number='5'>
					<syllabic>end</syllabic>
					<text>your</text>
				</lyric>
			</note>
			<note>
				<chord/>
				<pitch>
					<step>E</step>
					<alter>-1</alter>
					<octave>5</octave>
				</pitch>
				<duration>384</duration>
				<voice>1</voice>
				<type>eighth</type>
			</note>
		</measure>
		<measure number='11'>
			<note>
				<pitch>
					<step>B</step>
					<alter>-1</alter>
					<octave>4</octave>
				</pitch>
				<duration>384</duration>
				<voice>1</voice>
				<type>eighth</type>
				<beam number='1'>begin</beam>
				<lyric number='1'>
					<syllabic>middle</syllabic>
					<text>bless</text>
				</lyric>
				<lyric number='2'>
					<syllabic>middle</syllabic>
					<text>bless</text>
				</lyric>
				<lyric number='3'>
					<syllabic>middle</syllabic>
					<text>bless</text>
				</lyric>
				<lyric number='4'>
					<syllabic>middle</syllabic>
					<text>bless</text>
				</lyric>
				<lyric number='5'>
					<syllabic>middle</syllabic>
					<text>bless</text>
				</lyric>
			</note>
			<note>
				<chord/>
				<pitch>
					<step>D</step>
					<octave>5</octave>
				</pitch>
				<duration>384</duration>
				<voice>1</voice>
				<type>eighth</type>
			</note>
			<note>
				<pitch>
					<step>A</step>
					<alter>-1</alter>
					<octave>4</octave>
				</pitch>
				<duration>1152</duration>
				<voice>1</voice>
				<type>quarter</type>
				<dot/>
				<lyric number='1'>
					<syllabic>end</syllabic>
					<text>ings,</text>
				</lyric>
				<lyric number='2'>
					<syllabic>end</syllabic>
					<text>ings,</text>
				</lyric>
				<lyric number='3'>
					<syllabic>end</syllabic>
					<text>ings,</text>
				</lyric>
				<lyric number='4'>
					<syllabic>end</syllabic>
					<text>ings,</text>
				</lyric>
				<lyric number='5'>
					<syllabic>end</syllabic>
					<text>ings,</text>
				</lyric>
			</note>
			<note>
				<chord/>
				<pitch>
					<step>C</step>
					<octave>5</octave>
				</pitch>
				<duration>1152</duration>
				<voice>1</voice>
				<type>quarter</type>
				<dot/>
			</note>
		</measure>
		<measure number='12'>
			<direction>
				<direction-type>
					<words default-y='-20' font-style='italic'>accel.</words>
				</direction-type>
			</direction>
			<note>
				<pitch>
					<step>A</step>
					<alter>-1</alter>
					<octave>4</octave>
				</pitch>
				<duration>384</duration>
				<voice>1</voice>
				<type>eighth</type>
				<beam number='1'>begin</beam>
				<lyric number='1'>
					<syllabic>end</syllabic>
					<text>name</text>
				</lyric>
				<lyric number='2'>
					<syllabic>end</syllabic>
					<text>name</text>
				</lyric>
				<lyric number='3'>
					<syllabic>end</syllabic>
					<text>name</text>
				</lyric>
				<lyric number='4'>
					<syllabic>end</syllabic>
					<text>name</text>
				</lyric>
				<lyric number='5'>
					<syllabic>end</syllabic>
					<text>name</text>
				</lyric>
			</note>
			<note>
				<chord/>
				<pitch>
					<step>D</step>
					<octave>5</octave>
				</pitch>
				<duration>384</duration>
				<voice>1</voice>
				<type>eighth</type>
			</note>
			<note>
				<pitch>
					<step>A</step>
					<alter>-1</alter>
					<octave>4</octave>
				</pitch>
				<duration>384</duration>
				<voice>1</voice>
				<type>eighth</type>
				<beam number='1'>continue</beam>
				<lyric number='1'>
					<syllabic>end</syllabic>
					<text>them</text>
				</lyric>
				<lyric number='2'>
					<syllabic>end</syllabic>
					<text>them</text>
				</lyric>
				<lyric number='3'>
					<syllabic>end</syllabic>
					<text>them</text>
				</lyric>
				<lyric number='4'>
					<syllabic>end</syllabic>
					<text>them</text>
				</lyric>
				<lyric number='5'>
					<syllabic>end</syllabic>
					<text>them</text>
				</lyric>
			</note>
			<note>
				<chord/>
				<pitch>
					<step>D</step>
					<octave>5</octave>
				</pitch>
				<duration>384</duration>
				<voice>1</voice>
				<type>eighth</type>
			</note>
		</measure>
		<measure number='13'>
			<note>
				<pitch>
					<step>A</step>
					<alter>-1</alter>
					<octave>4</octave>
				</pitch>
				<duration>384</duration>
				<voice>1</voice>
				<type>eighth</type>
				<beam number='1'>begin</beam>
				<lyric number='1'>
					<syllabic>end</syllabic>
					<text>seven</text>
				</lyric>
				<lyric number='2'>
					<syllabic>end</syllabic>
					<text>two</text>
				</lyric>
				<lyric number='3'>
					<syllabic>end</syllabic>
					<text>three</text>
				</lyric>
				<lyric number='4'>
					<syllabic>end</syllabic>
					<text>four</text>
				</lyric>
				<lyric number='5'>
					<syllabic>end</syllabic>
					<text>five</text>
				</lyric>
			</note>
			<note>
				<chord/>
				<pitch>
					<step>C</step>
					<octave>5</octave>
				</pitch>
				<duration>384</duration>
				<voice>1</voice>
				<type>eighth</type>
			</note>
			<note>
				<pitch>
					<step>A</step>
					<alter>-1</alter>
					<octave>4</octave>
				</pitch>
				<duration>384</duration>
				<voice>1</voice>
				<type>eighth</type>
				<beam number='1'>continue</beam>
				<lyric number='1'>
					<syllabic>end</syllabic>
					<text>by</text>
				</lyric>
				<lyric number='2'>
					<syllabic>end</syllabic>
					<text>by</text>
				</lyric>
				<lyric number='3'>
					<syllabic>end</syllabic>
					<text>by</text>
				</lyric>
				<lyric number='4'>
					<syllabic>end</syllabic>
					<text>by</text>
				</lyric>
				<lyric number='5'>
					<syllabic>end</syllabic>
					<text>by</text>
				</lyric>
			</note>
			<note>
				<chord/>
				<pitch>
					<step>C</step>
					<octave>5</octave>
				</pitch>
				<duration>384</duration>
				<voice>1</voice>
				<type>eighth</type>
			</note>
		</measure>
		<measure number='14'>
			<note>
				<pitch>
					<step>A</step>
					<alter>-1</alter>
					<octave>4</octave>
				</pitch>
				<duration>1536</duration>
				<voice>1</voice>
				<type>half</type>
				<lyric number='1'>
					<syllabic>end</syllabic>
					<text>seven,</text>
				</lyric>
				<lyric number='2'>
					<syllabic>end</syllabic>
					<text>two,</text>
				</lyric>
				<lyric number='3'>
					<syllabic>end</syllabic>
					<text>three,</text>
				</lyric>
				<lyric number='4'>
					<syllabic>end</syllabic>
					<text>four,</text>
				</lyric>
				<lyric number='5'>
					<syllabic>end</syllabic>
					<text>five,</text>
				</lyric>
			</note>
			<note>
				<chord/>
				<pitch>
					<step>B</step>
					<alter>-1</alter>
					<octave>4</octave>
				</pitch>
				<duration>1536</duration>
				<voice>1</voice>
				<type>half</type>
			</note>
		</measure>
		<measure number='15'>
			<direction placement='above'>
				<direction-type>
					<metronome>
						<beat-unit>quarter</beat-unit>
						<per-minute>90</per-minute>
					</metronome>
				</direction-type>
				<sound tempo='90'/>
			</direction>
			<direction>
				<direction-type>
					<words default-y='25' relative-x='-1'>a tempo</words>
				</direction-type>
			</direction>
			<note>
				<pitch>
					<step>G</step>
					<octave>4</octave>
				</pitch>
				<duration>384</duration>
				<voice>1</voice>
				<type>eighth</type>
				<beam number='1'>begin</beam>
				<lyric number='1'>
					<syllabic>end</syllabic>
					<text>Count</text>
				</lyric>
				<lyric number='2'>
					<syllabic>end</syllabic>
					<text>Count</text>
				</lyric>
				<lyric number='3'>
					<syllabic>end</syllabic>
					<text>Count</text>
				</lyric>
				<lyric number='4'>
					<syllabic>end</syllabic>
					<text>Count</text>
				</lyric>
				<lyric number='5'>
					<syllabic>end</syllabic>
					<text>Count</text>
				</lyric>
			</note>
			<note>
				<chord/>
				<pitch>
					<step>E</step>
					<alter>-1</alter>
					<octave>5</octave>
				</pitch>
				<duration>384</duration>
				<voice>1</voice>
				<type>eighth</type>
			</note>
			<note>
				<pitch>
					<step>G</step>
					<octave>4</octave>
				</pitch>
				<duration>384</duration>
				<voice>1</voice>
				<type>eighth</type>
				<beam number='1'>continue</beam>
				<lyric number='1'>
					<syllabic>end</syllabic>
					<text>your</text>
				</lyric>
				<lyric number='2'>
					<syllabic>end</syllabic>
					<text>your</text>
				</lyric>
				<lyric number='3'>
					<syllabic>end</syllabic>
					<text>your</text>
				</lyric>
				<lyric number='4'>
					<syllabic>end</syllabic>
					<text>your</text>
				</lyric>
				<lyric number='5'>
					<syllabic>end</syllabic>
					<text>your</text>
				</lyric>
			</note>
			<note>
				<chord/>
				<pitch>
					<step>E</step>
					<alter>-1</alter>
					<octave>5</octave>
				</pitch>
				<duration>384</duration>
				<voice>1</voice>
				<type>eighth</type>
			</note>
			<note>
				<pitch>
					<step>G</step>
					<octave>4</octave>
				</pitch>
				<duration>384</duration>
				<voice>1</voice>
				<type>eighth</type>
				<beam number='1'>begin</beam>
				<lyric number='1'>
					<syllabic>middle</syllabic>
					<text>man</text>
				</lyric>
				<lyric number='2'>
					<syllabic>middle</syllabic>
					<text>man</text>
				</lyric>
				<lyric number='3'>
					<syllabic>middle</syllabic>
					<text>man</text>
				</lyric>
				<lyric number='4'>
					<syllabic>middle</syllabic>
					<text>man</text>
				</lyric>
				<lyric number='5'>
					<syllabic>middle</syllabic>
					<text>man</text>
				</lyric>
			</note>
			<note>
				<chord/>
				<pitch>
					<step>D</step>
					<octave>5</octave>
				</pitch>
				<duration>384</duration>
				<voice>1</voice>
				<type>eighth</type>
			</note>
			<note>
				<pitch>
					<step>G</step>
					<octave>4</octave>
				</pitch>
				<duration>384</duration>
				<voice>1</voice>
				<type>eighth</type>
				<beam number='1'>continue</beam>
				<lyric number='1'>
					<syllabic>end</syllabic>
					<text>y</text>
				</lyric>
				<lyric number='2'>
					<syllabic>end</syllabic>
					<text>y</text>
				</lyric>
				<lyric number='3'>
					<syllabic>end</syllabic>
					<text>y</text>
				</lyric>
				<lyric number='4'>
					<syllabic>end</syllabic>
					<text>y</text>
				</lyric>
				<lyric number='5'>
					<syllabic>end</syllabic>
					<text>y</text>
				</lyric>
			</note>
			<note>
				<chord/>
				<pitch>
					<step>E</step>
					<alter>-1</alter>
					<octave>5</octave>
				</pitch>
				<duration>384</duration>
				<voice>1</voice>
				<type>eighth</type>
			</note>
		</measure>
		<measure number='16'>
			<note>
				<pitch>
					<step>B</step>
					<alter>-1</alter>
					<octave>4</octave>
				</pitch>
				<duration>384</duration>
				<voice>1</voice>
				<type>eighth</type>
				<beam number='1'>begin</beam>
				<lyric number='1'>
					<syllabic>middle</syllabic>
					<text>bless</text>
				</lyric>
				<lyric number='2'>
					<syllabic>middle</syllabic>
					<text>bless</text>
				</lyric>
				<lyric number='3'>
					<syllabic>middle</syllabic>
					<text>bless</text>
				</lyric>
				<lyric number='4'>
					<syllabic>middle</syllabic>
					<text>bless</text>
				</lyric>
				<lyric number='5'>
					<syllabic>middle</syllabic>
					<text>bless</text>
				</lyric>
			</note>
			<note>
				<chord/>
				<pitch>
					<step>D</step>
					<octave>5</octave>
				</pitch>
				<duration>384</duration>
				<voice>1</voice>
				<type>eighth</type>
			</note>
			<note>
				<pitch>
					<step>A</step>
					<alter>-1</alter>
					<octave>4</octave>
				</pitch>
				<duration>384</duration>
				<voice>1</voice>
				<type>eighth</type>
				<beam number='1'>continue</beam>
				<lyric number='1'>
					<syllabic>end</syllabic>
					<text>ings,</text>
				</lyric>
				<lyric number='2'>
					<syllabic>end</syllabic>
					<text>ings,</text>
				</lyric>
				<lyric number='3'>
					<syllabic>end</syllabic>
					<text>ings,</text>
				</lyric>
				<lyric number='4'>
					<syllabic>end</syllabic>
					<text>ings,</text>
				</lyric>
				<lyric number='5'>
					<syllabic>end</syllabic>
					<text>ings,</text>
				</lyric>
			</note>
			<note>
				<chord/>
				<pitch>
					<step>C</step>
					<octave>5</octave>
				</pitch>
				<duration>384</duration>
				<voice>1</voice>
				<type>eighth</type>
			</note>
			<note>
				<pitch>
					<step>F</step>
					<octave>4</octave>
				</pitch>
				<duration>384</duration>
				<voice>1</voice>
				<type>eighth</type>
				<beam number='1'>begin</beam>
				<lyric number='1'>
					<syllabic>end</syllabic>
					<text>count</text>
				</lyric>
				<lyric number='2'>
					<syllabic>end</syllabic>
					<text>see</text>
				</lyric>
				<lyric number='3'>
					<syllabic>end</syllabic>
					<text>see</text>
				</lyric>
				<lyric number='4'>
					<syllabic>end</syllabic>
					<text>count</text>
				</lyric>
				<lyric number='5'>
					<syllabic>end</syllabic>
					<text>see</text>
				</lyric>
			</note>
			<note>
				<chord/>
				<pitch>
					<step>B</step>
					<alter>-1</alter>
					<octave>4</octave>
				</pitch>
				<duration>384</duration>
				<voice>1</voice>
				<type>eighth</type>
			</note>
			<note>
				<pitch>
					<step>F</step>
					<octave>4</octave>
				</pitch>
				<duration>384</duration>
				<voice>1</voice>
				<type>eighth</type>
				<beam number='1'>continue</beam>
				<lyric number='1'>
					<syllabic>end</syllabic>
					<text>them</text>
				</lyric>
				<lyric number='2'>
					<syllabic>end</syllabic>
					<text>what</text>
				</lyric>
				<lyric number='3'>
					<syllabic>end</syllabic>
					<text>what</text>
				</lyric>
				<lyric number='4'>
					<syllabic>end</syllabic>
					<text>them</text>
				</lyric>
				<lyric number='5'>
					<syllabic>end</syllabic>
					<text>that</text>
				</lyric>
			</note>
			<note>
				<chord/>
				<pitch>
					<step>A</step>
					<alter>-1</alter>
					<octave>4</octave>
				</pitch>
				<duration>384</duration>
				<voice>1</voice>
				<type>eighth</type>
			</note>
		</measure>
		<measure number='17'>
			<note>
				<pitch>
					<step>E</step>
					<alter>-1</alter>
					<octave>4</octave>
				</pitch>
				<duration>384</duration>
				<tie type='start'/>
				<voice>1</voice>
				<type>eighth</type>
				<beam number='1'>begin</beam>
				<lyric number='1'>
					<syllabic>end</syllabic>
					<text>God</text>
				</lyric>
				<lyric number='2'>
					<syllabic>end</syllabic>
					<text>God</text>
				</lyric>
				<lyric number='3'>
					<syllabic>end</syllabic>
					<text>God</text>
				</lyric>
				<lyric number='4'>
					<syllabic>end</syllabic>
					<text>more</text>
				</lyric>
				<lyric number='5'>
					<syllabic>end</syllabic>
					<text>God</text>
				</lyric>
			</note>
			<note>
				<chord/>
				<pitch>
					<step>G</step>
					<octave>4</octave>
				</pitch>
				<duration>384</duration>
				<tie type='start'/>
				<voice>1</voice>
				<type>eighth</type>
			</note>
			<note>
				<pitch>
					<step>E</step>
					<alter>-1</alter>
					<octave>4</octave>
				</pitch>
				<duration>384</duration>
				<voice>1</voice>
				<type>eighth</type>
				<beam number='1'>continue</beam>
				<lyric number='1'>
					<syllabic>end</syllabic>
					<text>the</text>
				</lyric>
				<lyric number='3'>
					<syllabic>end</syllabic>
					<text>has</text>
				</lyric>
			</note>
			<note>
				<chord/>
				<pitch>
					<step>G</step>
					<octave>4</octave>
				</pitch>
				<duration>384</duration>
				<voice>1</voice>
				<type>eighth</type>
			</note>
			<note>
				<pitch>
					<step>D</step>
					<octave>4</octave>
				</pitch>
				<duration>384</duration>
				<tie type='start'/>
				<voice>1</voice>
				<type>eighth</type>
				<beam number='1'>begin</beam>
				<lyric number='1'>
					<syllabic>end</syllabic>
					<text>has</text>
				</lyric>
				<lyric number='2'>
					<syllabic>end</syllabic>
					<text>can</text>
				</lyric>
				<lyric number='3'>
					<syllabic>end</syllabic>
					<text>done</text>
				</lyric>
				<lyric number='4'>
					<syllabic>end</syllabic>
					<text>and</text>
				</lyric>
				<lyric number='5'>
					<syllabic>end</syllabic>
					<text>is</text>
				</lyric>
			</note>
			<note>
				<chord/>
				<pitch>
					<step>F</step>
					<octave>4</octave>
				</pitch>
				<duration>384</duration>
				<tie type='start'/>
				<voice>1</voice>
				<type>eighth</type>
			</note>
			<note>
				<pitch>
					<step>D</step>
					<octave>4</octave>
				</pitch>
				<duration>384</duration>
				<voice>1</voice>
				<type>eighth</type>
				<beam number='1'>continue</beam>
				<lyric number='1'>
					<syllabic>end</syllabic>
					<text>to</text>
				</lyric>
				<lyric number='3'>
					<syllabic>end</syllabic>
					<text>for</text>
				</lyric>
				<lyric number='5'>
					<syllabic>middle</syllabic>
					<text>a</text>
				</lyric>
			</note>
			<note>
				<chord/>
				<pitch>
					<step>F</step>
					<octave>4</octave>
				</pitch>
				<duration>384</duration>
				<voice>1</voice>
				<type>eighth</type>
			</note>
		</measure>
		<measure number='18'>
			<note>
				<pitch>
					<step>E</step>
					<alter>-1</alter>
					<octave>4</octave>
				</pitch>
				<duration>1536</duration>
				<voice>1</voice>
				<type>half</type>
				<lyric number='1'>
					<syllabic>end</syllabic>
					<text>heaven!</text>
				</lyric>
				<lyric number='2'>
					<syllabic>end</syllabic>
					<text>do!</text>
				</lyric>
				<lyric number='3'>
					<syllabic>end</syllabic>
					<text>me!</text>
				</lyric>
				<lyric number='4'>
					<syllabic>end</syllabic>
					<text>more!</text>
				</lyric>
				<lyric number='5'>
					<syllabic>end</syllabic>
					<text>live!</text>
				</lyric>
			</note>
			<backup>
				<duration>1536</duration>
			</backup>
			<note>
				<pitch>
					<step>E</step>
					<alter>-1</alter>
					<octave>4</octave>
				</pitch>
				<duration>1536</duration>
				<voice>2</voice>
				<type>half</type>
			</note>
			<barline location='right'>
				<bar-style>light-heavy</bar-style>
			</barline>
		</measure>
	</part>
</score-partwise>
