<?xml version="1.0" encoding="UTF-8" standalone="no"?>
<!DOCTYPE score-partwise PUBLIC "-//Recordare//DTD MusicXML 2.0 Partwise//EN" "http://www.musicxml.org/dtds/partwise.dtd">
<score-partwise version="2.0">
  <movement-number/>
  <movement-title>One More Day&#8217;s Work for Jesus</movement-title>
  <identification>
    <creator type="composer">Robert Lowry</creator>
    <creator type="poet">Anna Bartlett Warner, 1869</creator>
    <rights>Public Domain</rights>
    <encoding>
      <software>NWC2MusicXML</software>
      <encoding-date>2011-07-29</encoding-date>
    </encoding>
  </identification>
  <defaults>
    <scaling>
      <millimeters>8</millimeters>
      <tenths>36</tenths>
    </scaling>
    <page-layout>
      <page-height>1594</page-height>
      <page-width>1232</page-width>
      <page-margins type="odd">
        <left-margin>100</left-margin>
        <right-margin>100</right-margin>
        <top-margin>100</top-margin>
        <bottom-margin>100</bottom-margin>
      </page-margins>
      <page-margins type="even">
        <left-margin>100</left-margin>
        <right-margin>100</right-margin>
        <top-margin>100</top-margin>
        <bottom-margin>100</bottom-margin>
      </page-margins>
    </page-layout>
  </defaults>
  <credit page="1">
    <credit-words default-x="616" default-y="1485" font-size="24" justify="center" valign="top">One More Day&amp;#8217;s Work for Jesus</credit-words>
  </credit>
  <credit page="1">
    <credit-words default-x="1123" default-y="1418" font-size="12" justify="right" valign="top">Robert Lowry</credit-words>
  </credit>
  <credit page="1">
    <credit-words default-x="616" default-y="100" font-size="8" justify="center" valign="bottom">From Hymnary.org (based on a score from the Cyber Hymnal)
Public Domain</credit-words>
  </credit> 
  <part-list>
    <score-part id="P1">
      <midi-instrument id="P1">
        <midi-channel>1</midi-channel>
        <midi-program>1</midi-program>
      </midi-instrument>
    </score-part>
    <score-part id="P2">
      <midi-instrument id="P2">
        <midi-channel>2</midi-channel>
        <midi-program>92</midi-program>
      </midi-instrument>
    </score-part>
  </part-list>
  <part id="P1">
    <measure number="1">
      <attributes>
        <divisions>480</divisions>
        <key>
          <fifths>-2</fifths>
          <mode>major</mode>
        </key>
        <time>
          <beats>3</beats>
          <beat-type>2</beat-type>
        </time>
        <clef>
          <sign>G</sign>
          <line>2</line>
        </clef>
      </attributes>
      <note>
        <pitch>
          <step>D</step>
          <octave>4</octave>
        </pitch>
        <duration>960</duration>
        <voice>1</voice>
        <type>half</type>
        <staff>1</staff>
        <lyric number="1">
          <syllabic>single</syllabic>
          <text>1. One</text>
        </lyric>
        <lyric number="2">
          <syllabic>single</syllabic>
          <text>2. One</text>
        </lyric>
        <lyric number="3">
          <syllabic>single</syllabic>
          <text>3. One</text>
        </lyric>
        <lyric number="4">
          <syllabic>single</syllabic>
          <text>4. O</text>
        </lyric>
      </note>
      <note>
        <chord/>
        <pitch>
          <step>F</step>
          <octave>4</octave>
        </pitch>
        <duration>960</duration>
        <voice>1</voice>
        <type>half</type>
        <staff>1</staff>
      </note>
    </measure>
    <measure number="2">
      <note>
        <pitch>
          <step>D</step>
          <octave>4</octave>
        </pitch>
        <duration>1440</duration>
        <voice>1</voice>
        <type>half</type>
        <dot/>
        <staff>1</staff>
        <lyric number="1">
          <syllabic>single</syllabic>
          <text>more</text>
        </lyric>
        <lyric number="2">
          <syllabic>single</syllabic>
          <text>more</text>
        </lyric>
        <lyric number="3">
          <syllabic>single</syllabic>
          <text>more</text>
        </lyric>
        <lyric number="4">
          <syllabic>begin</syllabic>
          <text>bless</text>
        </lyric>
      </note>
      <note>
        <chord/>
        <pitch>
          <step>F</step>
          <octave>4</octave>
        </pitch>
        <duration>1440</duration>
        <voice>1</voice>
        <type>half</type>
        <dot/>
        <staff>1</staff>
      </note>
      <note>
        <pitch>
          <step>D</step>
          <octave>4</octave>
        </pitch>
        <duration>480</duration>
        <voice>1</voice>
        <type>quarter</type>
        <staff>1</staff>
        <lyric number="1">
          <syllabic>single</syllabic>
          <text>day&#8217;s</text>
        </lyric>
        <lyric number="2">
          <syllabic>single</syllabic>
          <text>day&#8217;s</text>
        </lyric>
        <lyric number="3">
          <syllabic>single</syllabic>
          <text>day&#8217;s</text>
        </lyric>
        <lyric number="4">
          <syllabic>end</syllabic>
          <text>&#232;d</text>
        </lyric>
      </note>
      <note>
        <chord/>
        <pitch>
          <step>F</step>
          <octave>4</octave>
        </pitch>
        <duration>480</duration>
        <voice>1</voice>
        <type>quarter</type>
        <staff>1</staff>
      </note>
      <note>
        <pitch>
          <step>E</step>
          <alter>-1</alter>
          <octave>4</octave>
        </pitch>
        <duration>480</duration>
        <voice>1</voice>
        <type>quarter</type>
        <staff>1</staff>
        <lyric number="1">
          <syllabic>single</syllabic>
          <text>work</text>
        </lyric>
        <lyric number="2">
          <syllabic>single</syllabic>
          <text>work</text>
        </lyric>
        <lyric number="3">
          <syllabic>single</syllabic>
          <text>work</text>
        </lyric>
        <lyric number="4">
          <syllabic>single</syllabic>
          <text>work</text>
        </lyric>
      </note>
      <note>
        <chord/>
        <pitch>
          <step>G</step>
          <octave>4</octave>
        </pitch>
        <duration>480</duration>
        <voice>1</voice>
        <type>quarter</type>
        <staff>1</staff>
      </note>
      <note>
        <pitch>
          <step>D</step>
          <octave>4</octave>
        </pitch>
        <duration>480</duration>
        <voice>1</voice>
        <type>quarter</type>
        <staff>1</staff>
        <lyric number="1">
          <syllabic>single</syllabic>
          <text>for</text>
        </lyric>
        <lyric number="2">
          <syllabic>single</syllabic>
          <text>for</text>
        </lyric>
        <lyric number="3">
          <syllabic>single</syllabic>
          <text>for</text>
        </lyric>
        <lyric number="4">
          <syllabic>single</syllabic>
          <text>for</text>
        </lyric>
      </note>
      <note>
        <chord/>
        <pitch>
          <step>F</step>
          <octave>4</octave>
        </pitch>
        <duration>480</duration>
        <voice>1</voice>
        <type>quarter</type>
        <staff>1</staff>
      </note>
    </measure>
    <measure number="3">
      <note>
        <pitch>
          <step>D</step>
          <octave>4</octave>
        </pitch>
        <duration>960</duration>
        <voice>1</voice>
        <type>half</type>
        <staff>1</staff>
        <lyric number="1">
          <syllabic>begin</syllabic>
          <text>Je</text>
        </lyric>
        <lyric number="2">
          <syllabic>begin</syllabic>
          <text>Je</text>
        </lyric>
        <lyric number="3">
          <syllabic>begin</syllabic>
          <text>Je</text>
        </lyric>
        <lyric number="4">
          <syllabic>begin</syllabic>
          <text>Je</text>
        </lyric>
      </note>
      <note>
        <chord/>
        <pitch>
          <step>B</step>
          <alter>-1</alter>
          <octave>4</octave>
        </pitch>
        <duration>960</duration>
        <voice>1</voice>
        <type>half</type>
        <staff>1</staff>
      </note>
      <note>
        <pitch>
          <step>D</step>
          <octave>4</octave>
        </pitch>
        <duration>960</duration>
        <voice>1</voice>
        <type>half</type>
        <staff>1</staff>
        <lyric number="1">
          <syllabic>end</syllabic>
          <text>sus,</text>
          <end-line/>
        </lyric>
        <lyric number="2">
          <syllabic>end</syllabic>
          <text>sus!</text>
          <end-line/>
        </lyric>
        <lyric number="3">
          <syllabic>end</syllabic>
          <text>sus!</text>
          <end-line/>
        </lyric>
        <lyric number="4">
          <syllabic>end</syllabic>
          <text>sus!</text>
          <end-line/>
        </lyric>
      </note>
      <note>
        <chord/>
        <pitch>
          <step>F</step>
          <octave>4</octave>
        </pitch>
        <duration>960</duration>
        <voice>1</voice>
        <type>half</type>
        <staff>1</staff>
      </note>
      <note>
        <pitch>
          <step>F</step>
          <octave>4</octave>
        </pitch>
        <duration>960</duration>
        <voice>1</voice>
        <type>half</type>
        <staff>1</staff>
        <lyric number="1">
          <syllabic>single</syllabic>
          <text>One</text>
        </lyric>
        <lyric number="2">
          <syllabic>single</syllabic>
          <text>How</text>
        </lyric>
        <lyric number="3">
          <syllabic>single</syllabic>
          <text>O</text>
        </lyric>
        <lyric number="4">
          <syllabic>single</syllabic>
          <text>O</text>
        </lyric>
      </note>
      <note>
        <chord/>
        <pitch>
          <step>B</step>
          <alter>-1</alter>
          <octave>4</octave>
        </pitch>
        <duration>960</duration>
        <voice>1</voice>
        <type>half</type>
        <staff>1</staff>
      </note>
    </measure>
    <measure number="4">
      <note>
        <pitch>
          <step>F</step>
          <octave>4</octave>
        </pitch>
        <duration>1440</duration>
        <voice>1</voice>
        <type>half</type>
        <dot/>
        <staff>1</staff>
        <lyric number="1">
          <syllabic>single</syllabic>
          <text>less</text>
        </lyric>
        <lyric number="2">
          <syllabic>single</syllabic>
          <text>sweet</text>
        </lyric>
        <lyric number="3">
          <syllabic>single</syllabic>
          <text>yes,</text>
        </lyric>
        <lyric number="4">
          <syllabic>single</syllabic>
          <text>rest</text>
        </lyric>
      </note>
      <note>
        <chord/>
        <pitch>
          <step>C</step>
          <octave>5</octave>
        </pitch>
        <duration>1440</duration>
        <voice>1</voice>
        <type>half</type>
        <dot/>
        <staff>1</staff>
      </note>
      <note>
        <pitch>
          <step>F</step>
          <octave>4</octave>
        </pitch>
        <duration>480</duration>
        <voice>1</voice>
        <type>quarter</type>
        <staff>1</staff>
        <lyric number="1">
          <syllabic>single</syllabic>
          <text>of</text>
        </lyric>
        <lyric number="2">
          <syllabic>single</syllabic>
          <text>the</text>
        </lyric>
        <lyric number="3">
          <syllabic>single</syllabic>
          <text>a</text>
        </lyric>
        <lyric number="4">
          <syllabic>single</syllabic>
          <text>at</text>
        </lyric>
      </note>
      <note>
        <chord/>
        <pitch>
          <step>D</step>
          <octave>5</octave>
        </pitch>
        <duration>480</duration>
        <voice>1</voice>
        <type>quarter</type>
        <staff>1</staff>
      </note>
      <note>
        <pitch>
          <step>G</step>
          <octave>4</octave>
        </pitch>
        <duration>720</duration>
        <voice>1</voice>
        <type>quarter</type>
        <dot/>
        <staff>1</staff>
        <lyric number="1">
          <syllabic>single</syllabic>
          <text>life</text>
        </lyric>
        <lyric number="2">
          <syllabic>single</syllabic>
          <text>work</text>
        </lyric>
        <lyric number="3">
          <syllabic>begin</syllabic>
          <text>wear</text>
        </lyric>
        <lyric number="4">
          <syllabic>begin</syllabic>
          <text>Je</text>
        </lyric>
      </note>
      <note>
        <chord/>
        <pitch>
          <step>B</step>
          <alter>-1</alter>
          <octave>4</octave>
        </pitch>
        <duration>720</duration>
        <voice>1</voice>
        <type>quarter</type>
        <dot/>
        <staff>1</staff>
      </note>
      <note>
        <pitch>
          <step>E</step>
          <alter>-1</alter>
          <octave>4</octave>
        </pitch>
        <duration>240</duration>
        <voice>1</voice>
        <type>eighth</type>
        <staff>1</staff>
        <lyric number="1">
          <syllabic>single</syllabic>
          <text>for</text>
        </lyric>
        <lyric number="2">
          <syllabic>single</syllabic>
          <text>has</text>
        </lyric>
        <lyric number="3">
          <syllabic>end</syllabic>
          <text>y</text>
        </lyric>
        <lyric number="4">
          <syllabic>end</syllabic>
          <text>sus&#8217;</text>
        </lyric>
      </note>
      <note>
        <chord/>
        <pitch>
          <step>G</step>
          <octave>4</octave>
        </pitch>
        <duration>240</duration>
        <voice>1</voice>
        <type>eighth</type>
        <staff>1</staff>
      </note>
    </measure>
    <measure number="5">
      <note>
        <pitch>
          <step>D</step>
          <octave>4</octave>
        </pitch>
        <duration>1440</duration>
        <voice>1</voice>
        <type>half</type>
        <dot/>
        <staff>1</staff>
        <lyric number="1">
          <syllabic>single</syllabic>
          <text>me!</text>
          <end-line/>
        </lyric>
        <lyric number="2">
          <syllabic>single</syllabic>
          <text>been,</text>
          <end-line/>
        </lyric>
        <lyric number="3">
          <syllabic>single</syllabic>
          <text>day;</text>
          <end-line/>
        </lyric>
        <lyric number="4">
          <syllabic>single</syllabic>
          <text>feet!</text>
          <end-line/>
        </lyric>
      </note>
      <note>
        <chord/>
        <pitch>
          <step>F</step>
          <octave>4</octave>
        </pitch>
        <duration>1440</duration>
        <voice>1</voice>
        <type>half</type>
        <dot/>
        <staff>1</staff>
      </note>
      <note>
        <pitch>
          <step>D</step>
          <octave>4</octave>
        </pitch>
        <duration>480</duration>
        <voice>1</voice>
        <type>quarter</type>
        <staff>1</staff>
        <lyric number="1">
          <syllabic>single</syllabic>
          <text>But</text>
        </lyric>
        <lyric number="2">
          <syllabic>single</syllabic>
          <text>To</text>
        </lyric>
        <lyric number="3">
          <syllabic>single</syllabic>
          <text>But</text>
        </lyric>
        <lyric number="4">
          <syllabic>single</syllabic>
          <text>There</text>
        </lyric>
      </note>
      <note>
        <chord/>
        <pitch>
          <step>F</step>
          <octave>4</octave>
        </pitch>
        <duration>480</duration>
        <voice>1</voice>
        <type>quarter</type>
        <staff>1</staff>
      </note>
      <note>
        <pitch>
          <step>E</step>
          <alter>-1</alter>
          <octave>4</octave>
        </pitch>
        <duration>480</duration>
        <voice>1</voice>
        <type>quarter</type>
        <staff>1</staff>
        <lyric number="1">
          <syllabic>single</syllabic>
          <text>Heav&#8217;n</text>
        </lyric>
        <lyric number="2">
          <syllabic>single</syllabic>
          <text>tell</text>
        </lyric>
        <lyric number="3">
          <syllabic>single</syllabic>
          <text>Heav&#8217;n</text>
        </lyric>
        <lyric number="4">
          <syllabic>single</syllabic>
          <text>toil</text>
        </lyric>
      </note>
      <note>
        <chord/>
        <pitch>
          <step>G</step>
          <octave>4</octave>
        </pitch>
        <duration>480</duration>
        <voice>1</voice>
        <type>quarter</type>
        <staff>1</staff>
      </note>
      <note>
        <pitch>
          <step>D</step>
          <octave>4</octave>
        </pitch>
        <duration>480</duration>
        <voice>1</voice>
        <type>quarter</type>
        <staff>1</staff>
        <lyric number="1">
          <syllabic>single</syllabic>
          <text>is</text>
        </lyric>
        <lyric number="2">
          <syllabic>single</syllabic>
          <text>the</text>
        </lyric>
        <lyric number="3">
          <syllabic>single</syllabic>
          <text>shines</text>
        </lyric>
        <lyric number="4">
          <syllabic>single</syllabic>
          <text>seems</text>
        </lyric>
      </note>
      <note>
        <chord/>
        <pitch>
          <step>F</step>
          <octave>4</octave>
        </pitch>
        <duration>480</duration>
        <voice>1</voice>
        <type>quarter</type>
        <staff>1</staff>
      </note>
    </measure>
    <measure number="6">
      <note>
        <pitch>
          <step>D</step>
          <octave>4</octave>
        </pitch>
        <duration>480</duration>
        <voice>1</voice>
        <type>quarter</type>
        <staff>1</staff>
        <lyric number="1">
          <syllabic>begin</syllabic>
          <text>near</text>
        </lyric>
        <lyric number="2">
          <syllabic>begin</syllabic>
          <text>stor</text>
        </lyric>
        <lyric number="3">
          <syllabic>begin</syllabic>
          <text>clea</text>
        </lyric>
        <lyric number="4">
          <syllabic>begin</syllabic>
          <text>plea</text>
        </lyric>
      </note>
      <note>
        <chord/>
        <pitch>
          <step>F</step>
          <octave>4</octave>
        </pitch>
        <duration>480</duration>
        <voice>1</voice>
        <type>quarter</type>
        <staff>1</staff>
      </note>
      <note>
        <pitch>
          <step>D</step>
          <octave>4</octave>
        </pitch>
        <duration>960</duration>
        <voice>1</voice>
        <type>half</type>
        <staff>1</staff>
        <lyric number="1">
          <syllabic>end</syllabic>
          <text>er,</text>
        </lyric>
        <lyric number="2">
          <syllabic>end</syllabic>
          <text>y,</text>
        </lyric>
        <lyric number="3">
          <syllabic>end</syllabic>
          <text>rer,</text>
        </lyric>
        <lyric number="4">
          <syllabic>end</syllabic>
          <text>sure,</text>
        </lyric>
      </note>
      <note>
        <chord/>
        <pitch>
          <step>B</step>
          <alter>-1</alter>
          <octave>4</octave>
        </pitch>
        <duration>960</duration>
        <voice>1</voice>
        <type>half</type>
        <staff>1</staff>
      </note>
      <note>
        <pitch>
          <step>D</step>
          <octave>4</octave>
        </pitch>
        <duration>480</duration>
        <voice>1</voice>
        <type>quarter</type>
        <staff>1</staff>
        <lyric number="1">
          <syllabic>single</syllabic>
          <text>and</text>
        </lyric>
        <lyric number="2">
          <syllabic>single</syllabic>
          <text>to</text>
        </lyric>
        <lyric number="3">
          <syllabic>single</syllabic>
          <text>and</text>
        </lyric>
        <lyric number="4">
          <syllabic>single</syllabic>
          <text>my</text>
        </lyric>
      </note>
      <note>
        <chord/>
        <pitch>
          <step>F</step>
          <octave>4</octave>
        </pitch>
        <duration>480</duration>
        <voice>1</voice>
        <type>quarter</type>
        <staff>1</staff>
      </note>
      <note>
        <pitch>
          <step>E</step>
          <alter>-1</alter>
          <octave>4</octave>
        </pitch>
        <duration>480</duration>
        <voice>1</voice>
        <type>quarter</type>
        <staff>1</staff>
        <lyric number="1">
          <syllabic>single</syllabic>
          <text>Christ</text>
        </lyric>
        <lyric number="2">
          <syllabic>single</syllabic>
          <text>show</text>
        </lyric>
        <lyric number="3">
          <syllabic>single</syllabic>
          <text>rest</text>
        </lyric>
        <lyric number="4">
          <syllabic>single</syllabic>
          <text>wants</text>
        </lyric>
      </note>
      <note>
        <chord/>
        <pitch>
          <step>G</step>
          <octave>4</octave>
        </pitch>
        <duration>480</duration>
        <voice>1</voice>
        <type>quarter</type>
        <staff>1</staff>
      </note>
      <note>
        <pitch>
          <step>D</step>
          <octave>4</octave>
        </pitch>
        <duration>480</duration>
        <voice>1</voice>
        <type>quarter</type>
        <staff>1</staff>
        <lyric number="1">
          <syllabic>single</syllabic>
          <text>is</text>
        </lyric>
        <lyric number="2">
          <syllabic>single</syllabic>
          <text>the</text>
        </lyric>
        <lyric number="3">
          <syllabic>single</syllabic>
          <text>comes</text>
        </lyric>
        <lyric number="4">
          <syllabic>single</syllabic>
          <text>are</text>
        </lyric>
      </note>
      <note>
        <chord/>
        <pitch>
          <step>F</step>
          <octave>4</octave>
        </pitch>
        <duration>480</duration>
        <voice>1</voice>
        <type>quarter</type>
        <staff>1</staff>
      </note>
    </measure>
    <measure number="7">
      <note>
        <pitch>
          <step>F</step>
          <octave>4</octave>
        </pitch>
        <duration>480</duration>
        <voice>1</voice>
        <type>quarter</type>
        <stem>up</stem>
        <staff>1</staff>
        <lyric number="1">
          <syllabic>begin</syllabic>
          <text>clear</text>
        </lyric>
        <lyric number="2">
          <syllabic>begin</syllabic>
          <text>glor</text>
        </lyric>
        <lyric number="3">
          <syllabic>begin</syllabic>
          <text>near</text>
        </lyric>
        <lyric number="4">
          <syllabic>begin</syllabic>
          <text>trea</text>
        </lyric>
      </note>
      <note>
        <pitch>
          <step>F</step>
          <octave>4</octave>
        </pitch>
        <duration>1440</duration>
        <voice>1</voice>
        <type>half</type>
        <dot/>
        <staff>1</staff>
        <lyric number="1">
          <syllabic>end</syllabic>
          <text>er</text>
          <end-line/>
        </lyric>
        <lyric number="2">
          <syllabic>end</syllabic>
          <text>y,</text>
          <end-line/>
        </lyric>
        <lyric number="3">
          <syllabic>end</syllabic>
          <text>er,</text>
          <end-line/>
        </lyric>
        <lyric number="4">
          <syllabic>end</syllabic>
          <text>sure,</text>
          <end-line/>
        </lyric>
      </note>
      <note>
        <chord/>
        <pitch>
          <step>C</step>
          <octave>5</octave>
        </pitch>
        <duration>1440</duration>
        <voice>1</voice>
        <type>half</type>
        <dot/>
        <staff>1</staff>
      </note>
      <note>
        <pitch>
          <step>F</step>
          <octave>4</octave>
        </pitch>
        <duration>960</duration>
        <voice>1</voice>
        <type>half</type>
        <staff>1</staff>
        <lyric number="1">
          <syllabic>single</syllabic>
          <text>Than</text>
        </lyric>
        <lyric number="2">
          <syllabic>single</syllabic>
          <text>Where</text>
        </lyric>
        <lyric number="3">
          <syllabic>single</syllabic>
          <text>At</text>
        </lyric>
        <lyric number="4">
          <syllabic>single</syllabic>
          <text>And</text>
        </lyric>
      </note>
      <note>
        <chord/>
        <pitch>
          <step>D</step>
          <octave>5</octave>
        </pitch>
        <duration>960</duration>
        <voice>1</voice>
        <type>half</type>
        <staff>1</staff>
      </note>
      <backup>
        <duration>2880</duration>
      </backup>
      <note>
        <pitch>
          <step>F</step>
          <octave>4</octave>
        </pitch>
        <duration>480</duration>
        <voice>2</voice>
        <type>quarter</type>
        <staff>1</staff>
        <lyric number="1">
          <syllabic>begin</syllabic>
          <text>yes</text>
        </lyric>
        <lyric number="2">
          <syllabic>single</syllabic>
          <text>Christ&#8217;s</text>
        </lyric>
        <lyric number="3">
          <syllabic>single</syllabic>
          <text>each</text>
        </lyric>
        <lyric number="4">
          <syllabic>single</syllabic>
          <text>pain</text>
        </lyric>
      </note>
    </measure>
    <measure number="8">
      <note>
        <pitch>
          <step>F</step>
          <octave>4</octave>
        </pitch>
        <duration>1440</duration>
        <voice>1</voice>
        <type>half</type>
        <dot/>
        <staff>1</staff>
        <lyric number="1">
          <syllabic>middle</syllabic>
          <text>ter</text>
        </lyric>
        <lyric number="2">
          <syllabic>single</syllabic>
          <text>flock</text>
        </lyric>
        <lyric number="3">
          <syllabic>single</syllabic>
          <text>step</text>
        </lyric>
        <lyric number="4">
          <syllabic>single</syllabic>
          <text>for</text>
        </lyric>
      </note>
      <note>
        <chord/>
        <pitch>
          <step>C</step>
          <octave>5</octave>
        </pitch>
        <duration>1440</duration>
        <voice>1</voice>
        <type>half</type>
        <dot/>
        <staff>1</staff>
      </note>
      <note>
        <pitch>
          <step>F</step>
          <octave>4</octave>
        </pitch>
        <duration>480</duration>
        <voice>1</voice>
        <type>quarter</type>
        <staff>1</staff>
        <lyric number="1">
          <syllabic>end</syllabic>
          <text>day,</text>
        </lyric>
        <lyric number="2">
          <syllabic>begin</syllabic>
          <text>en</text>
        </lyric>
        <lyric number="3">
          <syllabic>single</syllabic>
          <text>of</text>
        </lyric>
        <lyric number="4">
          <syllabic>single</syllabic>
          <text>Him</text>
        </lyric>
      </note>
      <note>
        <chord/>
        <pitch>
          <step>A</step>
          <octave>4</octave>
        </pitch>
        <duration>480</duration>
        <voice>1</voice>
        <type>quarter</type>
        <staff>1</staff>
      </note>
      <note>
        <pitch>
          <step>E</step>
          <alter>0</alter>
          <octave>4</octave>
        </pitch>
        <duration>480</duration>
        <voice>1</voice>
        <type>quarter</type>
        <accidental>natural</accidental>
        <staff>1</staff>
        <lyric number="1">
          <syllabic>single</syllabic>
          <text>to</text>
        </lyric>
        <lyric number="2">
          <syllabic>end</syllabic>
          <text>ters</text>
        </lyric>
        <lyric number="3">
          <syllabic>single</syllabic>
          <text>the</text>
        </lyric>
        <lyric number="4">
          <syllabic>single</syllabic>
          <text>is</text>
        </lyric>
      </note>
      <note>
        <chord/>
        <pitch>
          <step>A</step>
          <octave>4</octave>
        </pitch>
        <duration>480</duration>
        <voice>1</voice>
        <type>quarter</type>
        <staff>1</staff>
      </note>
      <note>
        <pitch>
          <step>E</step>
          <octave>4</octave>
        </pitch>
        <duration>480</duration>
        <voice>1</voice>
        <type>quarter</type>
        <staff>1</staff>
        <lyric number="1">
          <syllabic>single</syllabic>
          <text>me.</text>
          <end-line/>
        </lyric>
        <lyric number="2">
          <syllabic>single</syllabic>
          <text>in!</text>
          <end-line/>
        </lyric>
        <lyric number="3">
          <syllabic>single</syllabic>
          <text>way;</text>
          <end-line/>
        </lyric>
        <lyric number="4">
          <syllabic>single</syllabic>
          <text>sweet.</text>
          <end-line/>
        </lyric>
      </note>
      <note>
        <chord/>
        <pitch>
          <step>G</step>
          <octave>4</octave>
        </pitch>
        <duration>480</duration>
        <voice>1</voice>
        <type>quarter</type>
        <staff>1</staff>
      </note>
    </measure>
    <measure number="9">
      <note>
        <pitch>
          <step>F</step>
          <octave>4</octave>
        </pitch>
        <duration>1440</duration>
        <voice>1</voice>
        <type>half</type>
        <dot/>
        <stem>up</stem>
        <staff>1</staff>
        <lyric number="1">
          <syllabic>single</syllabic>
          <text>His</text>
        </lyric>
        <lyric number="2">
          <syllabic>single</syllabic>
          <text>How</text>
        </lyric>
        <lyric number="3">
          <syllabic>single</syllabic>
          <text>And</text>
        </lyric>
        <lyric number="4">
          <syllabic>single</syllabic>
          <text>Lord,</text>
        </lyric>
      </note>
      <note>
        <pitch>
          <step>F</step>
          <octave>4</octave>
        </pitch>
        <duration>480</duration>
        <voice>1</voice>
        <type>quarter</type>
        <stem>up</stem>
        <staff>1</staff>
        <lyric number="1">
          <syllabic>single</syllabic>
          <text>love</text>
        </lyric>
        <lyric number="2">
          <syllabic>single</syllabic>
          <text>it</text>
        </lyric>
        <lyric number="3">
          <syllabic>single</syllabic>
          <text>Christ</text>
        </lyric>
        <lyric number="4">
          <syllabic>single</syllabic>
          <text>if</text>
        </lyric>
      </note>
      <note>
        <pitch>
          <step>F</step>
          <octave>4</octave>
        </pitch>
        <duration>480</duration>
        <voice>1</voice>
        <type>quarter</type>
        <staff>1</staff>
        <lyric number="1">
          <syllabic>single</syllabic>
          <text>and</text>
        </lyric>
        <lyric number="2">
          <syllabic>single</syllabic>
          <text>did</text>
        </lyric>
        <lyric number="3">
          <syllabic>single</syllabic>
          <text>in</text>
        </lyric>
        <lyric number="4">
          <syllabic>single</syllabic>
          <text>I</text>
        </lyric>
      </note>
      <note>
        <chord/>
        <pitch>
          <step>A</step>
          <octave>4</octave>
        </pitch>
        <duration>480</duration>
        <voice>1</voice>
        <type>quarter</type>
        <staff>1</staff>
      </note>
      <note>
        <pitch>
          <step>F</step>
          <octave>4</octave>
        </pitch>
        <duration>480</duration>
        <voice>1</voice>
        <type>quarter</type>
        <staff>1</staff>
        <lyric number="1">
          <syllabic>single</syllabic>
          <text>light</text>
        </lyric>
        <lyric number="2">
          <syllabic>single</syllabic>
          <text>shine</text>
        </lyric>
        <lyric number="3">
          <syllabic>single</syllabic>
          <text>all,</text>
        </lyric>
        <lyric number="4">
          <syllabic>single</syllabic>
          <text>may,</text>
        </lyric>
      </note>
      <note>
        <chord/>
        <pitch>
          <step>B</step>
          <alter>-1</alter>
          <octave>4</octave>
        </pitch>
        <duration>480</duration>
        <voice>1</voice>
        <type>quarter</type>
        <staff>1</staff>
      </note>
      <backup>
        <duration>2880</duration>
      </backup>
      <note>
        <pitch>
          <step>F</step>
          <octave>4</octave>
        </pitch>
        <duration>1440</duration>
        <voice>2</voice>
        <type>half</type>
        <dot/>
        <staff>1</staff>
        <lyric number="1">
          <syllabic>single</syllabic>
          <text>fill</text>
        </lyric>
        <lyric number="2">
          <syllabic>single</syllabic>
          <text>in</text>
        </lyric>
        <lyric number="3">
          <syllabic>begin</syllabic>
          <text>bef</text>
        </lyric>
        <lyric number="4">
          <syllabic>single</syllabic>
          <text>I&#8217;ll</text>
        </lyric>
      </note>
      <note>
        <pitch>
          <step>F</step>
          <octave>4</octave>
        </pitch>
        <duration>480</duration>
        <voice>2</voice>
        <type>quarter</type>
        <staff>1</staff>
        <lyric number="1">
          <syllabic>single</syllabic>
          <text>all</text>
        </lyric>
        <lyric number="2">
          <syllabic>single</syllabic>
          <text>this</text>
        </lyric>
        <lyric number="3">
          <syllabic>end</syllabic>
          <text>ore</text>
        </lyric>
        <lyric number="4">
          <syllabic>single</syllabic>
          <text>serve</text>
        </lyric>
      </note>
    </measure>
    <measure number="10">
      <note>
        <pitch>
          <step>F</step>
          <octave>4</octave>
        </pitch>
        <duration>1440</duration>
        <voice>1</voice>
        <type>half</type>
        <dot/>
        <staff>1</staff>
        <lyric number="1">
          <syllabic>single</syllabic>
          <text>my</text>
        </lyric>
        <lyric number="2">
          <syllabic>single</syllabic>
          <text>poor</text>
        </lyric>
        <lyric number="3">
          <syllabic>single</syllabic>
          <text>His</text>
        </lyric>
        <lyric number="4">
          <syllabic>begin</syllabic>
          <text>a</text>
        </lyric>
      </note>
      <note>
        <chord/>
        <pitch>
          <step>C</step>
          <octave>5</octave>
        </pitch>
        <duration>1440</duration>
        <voice>1</voice>
        <type>half</type>
        <dot/>
        <staff>1</staff>
      </note>
      <note>
        <pitch>
          <step>F</step>
          <octave>4</octave>
        </pitch>
        <duration>480</duration>
        <voice>1</voice>
        <type>quarter</type>
        <staff>1</staff>
        <lyric number="1">
          <syllabic>single</syllabic>
          <text>soul</text>
        </lyric>
        <lyric number="2">
          <syllabic>single</syllabic>
          <text>heart</text>
        </lyric>
        <lyric number="3">
          <syllabic>single</syllabic>
          <text>face</text>
        </lyric>
        <lyric number="4">
          <syllabic>middle</syllabic>
          <text>no</text>
        </lyric>
      </note>
      <note>
        <chord/>
        <pitch>
          <step>D</step>
          <octave>5</octave>
        </pitch>
        <duration>480</duration>
        <voice>1</voice>
        <type>quarter</type>
        <staff>1</staff>
      </note>
      <note>
        <pitch>
          <step>E</step>
          <alter>0</alter>
          <octave>4</octave>
        </pitch>
        <duration>480</duration>
        <voice>1</voice>
        <type>quarter</type>
        <accidental>natural</accidental>
        <staff>1</staff>
        <lyric number="1">
          <syllabic>begin</syllabic>
          <text>to</text>
        </lyric>
        <lyric number="2">
          <syllabic>single</syllabic>
          <text>of</text>
        </lyric>
        <lyric number="3">
          <syllabic>single</syllabic>
          <text>I</text>
        </lyric>
        <lyric number="4">
          <syllabic>end</syllabic>
          <text>ther</text>
        </lyric>
      </note>
      <note>
        <chord/>
        <pitch>
          <step>C</step>
          <octave>5</octave>
        </pitch>
        <duration>480</duration>
        <voice>1</voice>
        <type>quarter</type>
        <staff>1</staff>
      </note>
      <note>
        <pitch>
          <step>E</step>
          <octave>4</octave>
        </pitch>
        <duration>480</duration>
        <voice>1</voice>
        <type>quarter</type>
        <staff>1</staff>
        <lyric number="1">
          <syllabic>end</syllabic>
          <text>night.</text>
        </lyric>
        <lyric number="2">
          <syllabic>single</syllabic>
          <text>mine.</text>
        </lyric>
        <lyric number="3">
          <syllabic>single</syllabic>
          <text>fall.</text>
        </lyric>
        <lyric number="4">
          <syllabic>single</syllabic>
          <text>day!</text>
        </lyric>
      </note>
      <note>
        <chord/>
        <pitch>
          <step>G</step>
          <octave>4</octave>
        </pitch>
        <duration>480</duration>
        <voice>1</voice>
        <type>quarter</type>
        <staff>1</staff>
      </note>
    </measure>
    <measure number="11">
      <note>
        <pitch>
          <step>F</step>
          <octave>4</octave>
        </pitch>
        <duration>720</duration>
        <voice>1</voice>
        <type>quarter</type>
        <dot/>
        <staff>1</staff>
      </note>
      <note>
        <chord/>
        <pitch>
          <step>A</step>
          <octave>4</octave>
        </pitch>
        <duration>720</duration>
        <voice>1</voice>
        <type>quarter</type>
        <dot/>
        <staff>1</staff>
      </note>
      <note>
        <pitch>
          <step>E</step>
          <alter>0</alter>
          <octave>4</octave>
        </pitch>
        <duration>240</duration>
        <voice>1</voice>
        <type>eighth</type>
        <accidental>natural</accidental>
        <staff>1</staff>
      </note>
      <note>
        <chord/>
        <pitch>
          <step>G</step>
          <octave>4</octave>
        </pitch>
        <duration>240</duration>
        <voice>1</voice>
        <type>eighth</type>
        <staff>1</staff>
      </note>
      <note>
        <pitch>
          <step>F</step>
          <octave>4</octave>
        </pitch>
        <duration>1440</duration>
        <voice>1</voice>
        <type>half</type>
        <dot/>
        <stem>up</stem>
        <staff>1</staff>
      </note>
      <backup>
        <duration>2400</duration>
      </backup>
      <forward>
        <duration>960</duration>
      </forward>
      <note>
        <pitch>
          <step>F</step>
          <octave>4</octave>
        </pitch>
        <duration>1440</duration>
        <voice>2</voice>
        <type>half</type>
        <dot/>
        <staff>1</staff>
      </note>
      <barline location="right">
        <bar-style>light-light</bar-style>
      </barline>
    </measure>
    <measure number="12">
      <direction>
        <direction-type>
          <words>Refrain</words>
        </direction-type>
      </direction>
      <note>
        <pitch>
          <step>E</step>
          <alter>-1</alter>
          <octave>4</octave>
        </pitch>
        <duration>480</duration>
        <voice>1</voice>
        <type>quarter</type>
        <staff>1</staff>
      </note>
      <note>
        <chord/>
        <pitch>
          <step>F</step>
          <octave>4</octave>
        </pitch>
        <duration>480</duration>
        <voice>1</voice>
        <type>quarter</type>
        <staff>1</staff>
      </note>
    </measure>
    <measure number="13">
      <note>
        <pitch>
          <step>D</step>
          <octave>4</octave>
        </pitch>
        <duration>1440</duration>
        <voice>1</voice>
        <type>half</type>
        <dot/>
        <staff>1</staff>
      </note>
      <note>
        <chord/>
        <pitch>
          <step>F</step>
          <octave>4</octave>
        </pitch>
        <duration>1440</duration>
        <voice>1</voice>
        <type>half</type>
        <dot/>
        <staff>1</staff>
      </note>
      <note>
        <pitch>
          <step>D</step>
          <octave>4</octave>
        </pitch>
        <duration>480</duration>
        <voice>1</voice>
        <type>quarter</type>
        <staff>1</staff>
      </note>
      <note>
        <chord/>
        <pitch>
          <step>F</step>
          <octave>4</octave>
        </pitch>
        <duration>480</duration>
        <voice>1</voice>
        <type>quarter</type>
        <staff>1</staff>
      </note>
      <note>
        <pitch>
          <step>E</step>
          <alter>-1</alter>
          <octave>4</octave>
        </pitch>
        <duration>480</duration>
        <voice>1</voice>
        <type>quarter</type>
        <staff>1</staff>
      </note>
      <note>
        <chord/>
        <pitch>
          <step>G</step>
          <octave>4</octave>
        </pitch>
        <duration>480</duration>
        <voice>1</voice>
        <type>quarter</type>
        <staff>1</staff>
      </note>
      <note>
        <pitch>
          <step>D</step>
          <octave>4</octave>
        </pitch>
        <duration>480</duration>
        <voice>1</voice>
        <type>quarter</type>
        <staff>1</staff>
      </note>
      <note>
        <chord/>
        <pitch>
          <step>F</step>
          <octave>4</octave>
        </pitch>
        <duration>480</duration>
        <voice>1</voice>
        <type>quarter</type>
        <staff>1</staff>
      </note>
    </measure>
    <measure number="14">
      <note>
        <pitch>
          <step>D</step>
          <octave>4</octave>
        </pitch>
        <duration>480</duration>
        <voice>1</voice>
        <type>quarter</type>
        <staff>1</staff>
      </note>
      <note>
        <chord/>
        <pitch>
          <step>F</step>
          <octave>4</octave>
        </pitch>
        <duration>480</duration>
        <voice>1</voice>
        <type>quarter</type>
        <staff>1</staff>
      </note>
      <note>
        <pitch>
          <step>D</step>
          <octave>4</octave>
        </pitch>
        <duration>1440</duration>
        <voice>1</voice>
        <type>half</type>
        <dot/>
        <staff>1</staff>
      </note>
      <note>
        <chord/>
        <pitch>
          <step>B</step>
          <alter>-1</alter>
          <octave>4</octave>
        </pitch>
        <duration>1440</duration>
        <voice>1</voice>
        <type>half</type>
        <dot/>
        <staff>1</staff>
      </note>
      <note>
        <rest/>
        <duration>480</duration>
        <voice>1</voice>
        <type>quarter</type>
        <staff>1</staff>
      </note>
      <note>
        <pitch>
          <step>D</step>
          <octave>4</octave>
        </pitch>
        <duration>480</duration>
        <voice>1</voice>
        <type>quarter</type>
        <staff>1</staff>
      </note>
      <note>
        <chord/>
        <pitch>
          <step>F</step>
          <octave>4</octave>
        </pitch>
        <duration>480</duration>
        <voice>1</voice>
        <type>quarter</type>
        <staff>1</staff>
      </note>
    </measure>
    <measure number="15">
      <note>
        <pitch>
          <step>E</step>
          <alter>-1</alter>
          <octave>4</octave>
        </pitch>
        <duration>1440</duration>
        <voice>1</voice>
        <type>half</type>
        <dot/>
        <staff>1</staff>
      </note>
      <note>
        <chord/>
        <pitch>
          <step>F</step>
          <octave>4</octave>
        </pitch>
        <duration>1440</duration>
        <voice>1</voice>
        <type>half</type>
        <dot/>
        <staff>1</staff>
      </note>
      <note>
        <pitch>
          <step>E</step>
          <alter>-1</alter>
          <octave>4</octave>
        </pitch>
        <duration>480</duration>
        <voice>1</voice>
        <type>quarter</type>
        <staff>1</staff>
      </note>
      <note>
        <chord/>
        <pitch>
          <step>F</step>
          <octave>4</octave>
        </pitch>
        <duration>480</duration>
        <voice>1</voice>
        <type>quarter</type>
        <staff>1</staff>
      </note>
      <note>
        <pitch>
          <step>E</step>
          <alter>-1</alter>
          <octave>4</octave>
        </pitch>
        <duration>480</duration>
        <voice>1</voice>
        <type>quarter</type>
        <staff>1</staff>
      </note>
      <note>
        <chord/>
        <pitch>
          <step>G</step>
          <octave>4</octave>
        </pitch>
        <duration>480</duration>
        <voice>1</voice>
        <type>quarter</type>
        <staff>1</staff>
      </note>
      <note>
        <pitch>
          <step>E</step>
          <alter>-1</alter>
          <octave>4</octave>
        </pitch>
        <duration>480</duration>
        <voice>1</voice>
        <type>quarter</type>
        <staff>1</staff>
      </note>
      <note>
        <chord/>
        <pitch>
          <step>F</step>
          <octave>4</octave>
        </pitch>
        <duration>480</duration>
        <voice>1</voice>
        <type>quarter</type>
        <staff>1</staff>
      </note>
    </measure>
    <measure number="16">
      <note>
        <pitch>
          <step>E</step>
          <alter>-1</alter>
          <octave>4</octave>
        </pitch>
        <duration>480</duration>
        <voice>1</voice>
        <type>quarter</type>
        <staff>1</staff>
      </note>
      <note>
        <chord/>
        <pitch>
          <step>F</step>
          <octave>4</octave>
        </pitch>
        <duration>480</duration>
        <voice>1</voice>
        <type>quarter</type>
        <staff>1</staff>
      </note>
      <note>
        <pitch>
          <step>E</step>
          <alter>-1</alter>
          <octave>4</octave>
        </pitch>
        <duration>1440</duration>
        <voice>1</voice>
        <type>half</type>
        <dot/>
        <staff>1</staff>
      </note>
      <note>
        <chord/>
        <pitch>
          <step>C</step>
          <octave>5</octave>
        </pitch>
        <duration>1440</duration>
        <voice>1</voice>
        <type>half</type>
        <dot/>
        <staff>1</staff>
      </note>
      <note>
        <rest/>
        <duration>480</duration>
        <voice>1</voice>
        <type>quarter</type>
        <staff>1</staff>
      </note>
      <note>
        <pitch>
          <step>F</step>
          <octave>4</octave>
        </pitch>
        <duration>480</duration>
        <voice>1</voice>
        <type>quarter</type>
        <stem>up</stem>
        <staff>1</staff>
      </note>
      <backup>
        <duration>2880</duration>
      </backup>
      <forward>
        <duration>2400</duration>
      </forward>
      <note>
        <pitch>
          <step>F</step>
          <octave>4</octave>
        </pitch>
        <duration>480</duration>
        <voice>2</voice>
        <type>quarter</type>
        <staff>1</staff>
      </note>
    </measure>
    <measure number="17">
      <note>
        <pitch>
          <step>F</step>
          <octave>4</octave>
        </pitch>
        <duration>1440</duration>
        <voice>1</voice>
        <type>half</type>
        <dot/>
        <staff>1</staff>
      </note>
      <note>
        <chord/>
        <pitch>
          <step>D</step>
          <octave>5</octave>
        </pitch>
        <duration>1440</duration>
        <voice>1</voice>
        <type>half</type>
        <dot/>
        <staff>1</staff>
      </note>
      <note>
        <pitch>
          <step>F</step>
          <octave>4</octave>
        </pitch>
        <duration>480</duration>
        <voice>1</voice>
        <type>quarter</type>
        <staff>1</staff>
      </note>
      <note>
        <chord/>
        <pitch>
          <step>D</step>
          <octave>5</octave>
        </pitch>
        <duration>480</duration>
        <voice>1</voice>
        <type>quarter</type>
        <staff>1</staff>
      </note>
      <note>
        <pitch>
          <step>F</step>
          <octave>4</octave>
        </pitch>
        <duration>480</duration>
        <voice>1</voice>
        <type>quarter</type>
        <staff>1</staff>
      </note>
      <note>
        <chord/>
        <pitch>
          <step>C</step>
          <octave>5</octave>
        </pitch>
        <duration>480</duration>
        <voice>1</voice>
        <type>quarter</type>
        <staff>1</staff>
      </note>
      <note>
        <pitch>
          <step>F</step>
          <octave>4</octave>
        </pitch>
        <duration>480</duration>
        <voice>1</voice>
        <type>quarter</type>
        <staff>1</staff>
      </note>
      <note>
        <chord/>
        <pitch>
          <step>B</step>
          <alter>-1</alter>
          <octave>4</octave>
        </pitch>
        <duration>480</duration>
        <voice>1</voice>
        <type>quarter</type>
        <staff>1</staff>
      </note>
    </measure>
    <measure number="18">
      <note>
        <pitch>
          <step>E</step>
          <alter>-1</alter>
          <octave>4</octave>
        </pitch>
        <duration>480</duration>
        <voice>1</voice>
        <type>quarter</type>
        <staff>1</staff>
      </note>
      <note>
        <chord/>
        <pitch>
          <step>G</step>
          <octave>4</octave>
        </pitch>
        <duration>480</duration>
        <voice>1</voice>
        <type>quarter</type>
        <staff>1</staff>
      </note>
      <note>
        <pitch>
          <step>G</step>
          <octave>4</octave>
        </pitch>
        <duration>1440</duration>
        <voice>1</voice>
        <type>half</type>
        <dot/>
        <staff>1</staff>
      </note>
      <note>
        <chord/>
        <pitch>
          <step>B</step>
          <alter>-1</alter>
          <octave>4</octave>
        </pitch>
        <duration>1440</duration>
        <voice>1</voice>
        <type>half</type>
        <dot/>
        <staff>1</staff>
      </note>
      <note>
        <rest/>
        <duration>480</duration>
        <voice>1</voice>
        <type>quarter</type>
        <staff>1</staff>
      </note>
      <note>
        <pitch>
          <step>E</step>
          <alter>-1</alter>
          <octave>4</octave>
        </pitch>
        <duration>480</duration>
        <voice>1</voice>
        <type>quarter</type>
        <staff>1</staff>
      </note>
      <note>
        <chord/>
        <pitch>
          <step>G</step>
          <octave>4</octave>
        </pitch>
        <duration>480</duration>
        <voice>1</voice>
        <type>quarter</type>
        <staff>1</staff>
      </note>
    </measure>
    <measure number="19">
      <note>
        <pitch>
          <step>C</step>
          <octave>4</octave>
        </pitch>
        <duration>1440</duration>
        <voice>1</voice>
        <type>half</type>
        <dot/>
        <staff>1</staff>
      </note>
      <note>
        <chord/>
        <pitch>
          <step>F</step>
          <octave>4</octave>
        </pitch>
        <duration>1440</duration>
        <voice>1</voice>
        <type>half</type>
        <dot/>
        <staff>1</staff>
      </note>
      <note>
        <pitch>
          <step>F</step>
          <octave>4</octave>
        </pitch>
        <duration>480</duration>
        <voice>1</voice>
        <type>quarter</type>
        <stem>up</stem>
        <staff>1</staff>
      </note>
      <note>
        <pitch>
          <step>E</step>
          <alter>-1</alter>
          <octave>4</octave>
        </pitch>
        <duration>480</duration>
        <voice>1</voice>
        <type>quarter</type>
        <staff>1</staff>
      </note>
      <note>
        <chord/>
        <pitch>
          <step>G</step>
          <octave>4</octave>
        </pitch>
        <duration>480</duration>
        <voice>1</voice>
        <type>quarter</type>
        <staff>1</staff>
      </note>
      <note>
        <pitch>
          <step>E</step>
          <alter>-1</alter>
          <octave>4</octave>
        </pitch>
        <duration>480</duration>
        <voice>1</voice>
        <type>quarter</type>
        <staff>1</staff>
      </note>
      <note>
        <chord/>
        <pitch>
          <step>F</step>
          <octave>4</octave>
        </pitch>
        <duration>480</duration>
        <voice>1</voice>
        <type>quarter</type>
        <staff>1</staff>
      </note>
      <backup>
        <duration>2880</duration>
      </backup>
      <forward>
        <duration>1440</duration>
      </forward>
      <note>
        <pitch>
          <step>F</step>
          <octave>4</octave>
        </pitch>
        <duration>480</duration>
        <voice>2</voice>
        <type>quarter</type>
        <staff>1</staff>
      </note>
    </measure>
    <measure number="20">
      <note>
        <pitch>
          <step>D</step>
          <octave>4</octave>
        </pitch>
        <duration>1920</duration>
        <voice>1</voice>
        <type>whole</type>
        <staff>1</staff>
      </note>
      <note>
        <chord/>
        <pitch>
          <step>B</step>
          <alter>-1</alter>
          <octave>4</octave>
        </pitch>
        <duration>1920</duration>
        <voice>1</voice>
        <type>whole</type>
        <staff>1</staff>
      </note>
      <barline location="right">
        <bar-style>light-heavy</bar-style>
      </barline>
    </measure>
  </part>
  <part id="P2">
    <measure number="1">
      <attributes>
        <divisions>480</divisions>
        <key>
          <fifths>-2</fifths>
          <mode>major</mode>
        </key>
        <time>
          <beats>3</beats>
          <beat-type>2</beat-type>
        </time>
        <clef>
          <sign>F</sign>
          <line>4</line>
        </clef>
      </attributes>
      <note>
        <pitch>
          <step>B</step>
          <alter>-1</alter>
          <octave>2</octave>
        </pitch>
        <duration>960</duration>
        <voice>1</voice>
        <type>half</type>
        <staff>1</staff>
        <lyric>
          <syllabic>single</syllabic>
          <text> </text>
        </lyric>
      </note>
      <note>
        <chord/>
        <pitch>
          <step>B</step>
          <alter>-1</alter>
          <octave>3</octave>
        </pitch>
        <duration>960</duration>
        <voice>1</voice>
        <type>half</type>
        <staff>1</staff>
      </note>
    </measure>
    <measure number="2">
      <note>
        <pitch>
          <step>B</step>
          <alter>-1</alter>
          <octave>2</octave>
        </pitch>
        <duration>1440</duration>
        <voice>1</voice>
        <type>half</type>
        <dot/>
        <staff>1</staff>
        <lyric>
          <syllabic>single</syllabic>
          <text> </text>
        </lyric>
      </note>
      <note>
        <chord/>
        <pitch>
          <step>B</step>
          <alter>-1</alter>
          <octave>3</octave>
        </pitch>
        <duration>1440</duration>
        <voice>1</voice>
        <type>half</type>
        <dot/>
        <staff>1</staff>
      </note>
      <note>
        <pitch>
          <step>B</step>
          <alter>-1</alter>
          <octave>2</octave>
        </pitch>
        <duration>480</duration>
        <voice>1</voice>
        <type>quarter</type>
        <staff>1</staff>
        <lyric>
          <syllabic>single</syllabic>
          <text> </text>
        </lyric>
      </note>
      <note>
        <chord/>
        <pitch>
          <step>B</step>
          <alter>-1</alter>
          <octave>3</octave>
        </pitch>
        <duration>480</duration>
        <voice>1</voice>
        <type>quarter</type>
        <staff>1</staff>
      </note>
      <note>
        <pitch>
          <step>B</step>
          <alter>-1</alter>
          <octave>2</octave>
        </pitch>
        <duration>480</duration>
        <voice>1</voice>
        <type>quarter</type>
        <staff>1</staff>
        <lyric>
          <syllabic>single</syllabic>
          <text> </text>
        </lyric>
      </note>
      <note>
        <chord/>
        <pitch>
          <step>B</step>
          <alter>-1</alter>
          <octave>3</octave>
        </pitch>
        <duration>480</duration>
        <voice>1</voice>
        <type>quarter</type>
        <staff>1</staff>
      </note>
      <note>
        <pitch>
          <step>B</step>
          <alter>-1</alter>
          <octave>2</octave>
        </pitch>
        <duration>480</duration>
        <voice>1</voice>
        <type>quarter</type>
        <staff>1</staff>
        <lyric>
          <syllabic>single</syllabic>
          <text> </text>
        </lyric>
      </note>
      <note>
        <chord/>
        <pitch>
          <step>B</step>
          <alter>-1</alter>
          <octave>3</octave>
        </pitch>
        <duration>480</duration>
        <voice>1</voice>
        <type>quarter</type>
        <staff>1</staff>
      </note>
    </measure>
    <measure number="3">
      <note>
        <pitch>
          <step>B</step>
          <alter>-1</alter>
          <octave>2</octave>
        </pitch>
        <duration>960</duration>
        <voice>1</voice>
        <type>half</type>
        <staff>1</staff>
        <lyric>
          <syllabic>single</syllabic>
          <text> </text>
        </lyric>
      </note>
      <note>
        <chord/>
        <pitch>
          <step>F</step>
          <octave>3</octave>
        </pitch>
        <duration>960</duration>
        <voice>1</voice>
        <type>half</type>
        <staff>1</staff>
      </note>
      <note>
        <pitch>
          <step>B</step>
          <alter>-1</alter>
          <octave>2</octave>
        </pitch>
        <duration>960</duration>
        <voice>1</voice>
        <type>half</type>
        <staff>1</staff>
        <lyric>
          <syllabic>single</syllabic>
          <text> </text>
        </lyric>
      </note>
      <note>
        <chord/>
        <pitch>
          <step>B</step>
          <alter>-1</alter>
          <octave>3</octave>
        </pitch>
        <duration>960</duration>
        <voice>1</voice>
        <type>half</type>
        <staff>1</staff>
      </note>
      <note>
        <pitch>
          <step>D</step>
          <octave>3</octave>
        </pitch>
        <duration>960</duration>
        <voice>1</voice>
        <type>half</type>
        <staff>1</staff>
        <lyric>
          <syllabic>single</syllabic>
          <text> </text>
        </lyric>
      </note>
      <note>
        <chord/>
        <pitch>
          <step>B</step>
          <alter>-1</alter>
          <octave>3</octave>
        </pitch>
        <duration>960</duration>
        <voice>1</voice>
        <type>half</type>
        <staff>1</staff>
      </note>
    </measure>
    <measure number="4">
      <note>
        <pitch>
          <step>F</step>
          <octave>3</octave>
        </pitch>
        <duration>1440</duration>
        <voice>1</voice>
        <type>half</type>
        <dot/>
        <staff>1</staff>
        <lyric>
          <syllabic>single</syllabic>
          <text> </text>
        </lyric>
      </note>
      <note>
        <chord/>
        <pitch>
          <step>A</step>
          <octave>3</octave>
        </pitch>
        <duration>1440</duration>
        <voice>1</voice>
        <type>half</type>
        <dot/>
        <staff>1</staff>
      </note>
      <note>
        <pitch>
          <step>B</step>
          <alter>-1</alter>
          <octave>3</octave>
        </pitch>
        <duration>480</duration>
        <voice>1</voice>
        <type>quarter</type>
        <stem>down</stem>
        <staff>1</staff>
        <lyric>
          <syllabic>single</syllabic>
          <text> </text>
        </lyric>
      </note>
      <note>
        <pitch>
          <step>E</step>
          <alter>-1</alter>
          <octave>3</octave>
        </pitch>
        <duration>720</duration>
        <voice>1</voice>
        <type>quarter</type>
        <dot/>
        <staff>1</staff>
        <lyric>
          <syllabic>single</syllabic>
          <text> </text>
        </lyric>
      </note>
      <note>
        <chord/>
        <pitch>
          <step>B</step>
          <alter>-1</alter>
          <octave>3</octave>
        </pitch>
        <duration>720</duration>
        <voice>1</voice>
        <type>quarter</type>
        <dot/>
        <staff>1</staff>
      </note>
      <note>
        <pitch>
          <step>E</step>
          <alter>-1</alter>
          <octave>3</octave>
        </pitch>
        <duration>240</duration>
        <voice>1</voice>
        <type>eighth</type>
        <staff>1</staff>
        <lyric>
          <syllabic>single</syllabic>
          <text> </text>
        </lyric>
      </note>
      <note>
        <chord/>
        <pitch>
          <step>B</step>
          <alter>-1</alter>
          <octave>3</octave>
        </pitch>
        <duration>240</duration>
        <voice>1</voice>
        <type>eighth</type>
        <staff>1</staff>
      </note>
      <backup>
        <duration>2880</duration>
      </backup>
      <forward>
        <duration>1440</duration>
      </forward>
      <note>
        <pitch>
          <step>B</step>
          <alter>-1</alter>
          <octave>3</octave>
        </pitch>
        <duration>480</duration>
        <voice>2</voice>
        <type>quarter</type>
        <staff>1</staff>
        <lyric>
          <syllabic>single</syllabic>
          <text> </text>
        </lyric>
      </note>
    </measure>
    <measure number="5">
      <note>
        <pitch>
          <step>B</step>
          <alter>-1</alter>
          <octave>2</octave>
        </pitch>
        <duration>1440</duration>
        <voice>1</voice>
        <type>half</type>
        <dot/>
        <staff>1</staff>
        <lyric>
          <syllabic>single</syllabic>
          <text> </text>
        </lyric>
      </note>
      <note>
        <chord/>
        <pitch>
          <step>B</step>
          <alter>-1</alter>
          <octave>3</octave>
        </pitch>
        <duration>1440</duration>
        <voice>1</voice>
        <type>half</type>
        <dot/>
        <staff>1</staff>
      </note>
      <note>
        <pitch>
          <step>B</step>
          <alter>-1</alter>
          <octave>2</octave>
        </pitch>
        <duration>480</duration>
        <voice>1</voice>
        <type>quarter</type>
        <staff>1</staff>
        <lyric>
          <syllabic>single</syllabic>
          <text> </text>
        </lyric>
      </note>
      <note>
        <chord/>
        <pitch>
          <step>B</step>
          <alter>-1</alter>
          <octave>3</octave>
        </pitch>
        <duration>480</duration>
        <voice>1</voice>
        <type>quarter</type>
        <staff>1</staff>
      </note>
      <note>
        <pitch>
          <step>B</step>
          <alter>-1</alter>
          <octave>2</octave>
        </pitch>
        <duration>480</duration>
        <voice>1</voice>
        <type>quarter</type>
        <staff>1</staff>
        <lyric>
          <syllabic>single</syllabic>
          <text> </text>
        </lyric>
      </note>
      <note>
        <chord/>
        <pitch>
          <step>B</step>
          <alter>-1</alter>
          <octave>3</octave>
        </pitch>
        <duration>480</duration>
        <voice>1</voice>
        <type>quarter</type>
        <staff>1</staff>
      </note>
      <note>
        <pitch>
          <step>B</step>
          <alter>-1</alter>
          <octave>2</octave>
        </pitch>
        <duration>480</duration>
        <voice>1</voice>
        <type>quarter</type>
        <staff>1</staff>
        <lyric>
          <syllabic>single</syllabic>
          <text> </text>
        </lyric>
      </note>
      <note>
        <chord/>
        <pitch>
          <step>B</step>
          <alter>-1</alter>
          <octave>3</octave>
        </pitch>
        <duration>480</duration>
        <voice>1</voice>
        <type>quarter</type>
        <staff>1</staff>
      </note>
    </measure>
    <measure number="6">
      <note>
        <pitch>
          <step>B</step>
          <alter>-1</alter>
          <octave>2</octave>
        </pitch>
        <duration>480</duration>
        <voice>1</voice>
        <type>quarter</type>
        <staff>1</staff>
        <lyric>
          <syllabic>single</syllabic>
          <text> </text>
        </lyric>
      </note>
      <note>
        <chord/>
        <pitch>
          <step>B</step>
          <alter>-1</alter>
          <octave>3</octave>
        </pitch>
        <duration>480</duration>
        <voice>1</voice>
        <type>quarter</type>
        <staff>1</staff>
      </note>
      <note>
        <pitch>
          <step>B</step>
          <alter>-1</alter>
          <octave>2</octave>
        </pitch>
        <duration>960</duration>
        <voice>1</voice>
        <type>half</type>
        <staff>1</staff>
        <lyric>
          <syllabic>single</syllabic>
          <text> </text>
        </lyric>
      </note>
      <note>
        <chord/>
        <pitch>
          <step>F</step>
          <octave>3</octave>
        </pitch>
        <duration>960</duration>
        <voice>1</voice>
        <type>half</type>
        <staff>1</staff>
      </note>
      <note>
        <pitch>
          <step>B</step>
          <alter>-1</alter>
          <octave>2</octave>
        </pitch>
        <duration>480</duration>
        <voice>1</voice>
        <type>quarter</type>
        <staff>1</staff>
        <lyric>
          <syllabic>single</syllabic>
          <text> </text>
          <end-line/>
        </lyric>
      </note>
      <note>
        <chord/>
        <pitch>
          <step>B</step>
          <alter>-1</alter>
          <octave>3</octave>
        </pitch>
        <duration>480</duration>
        <voice>1</voice>
        <type>quarter</type>
        <staff>1</staff>
      </note>
      <note>
        <pitch>
          <step>B</step>
          <alter>-1</alter>
          <octave>2</octave>
        </pitch>
        <duration>480</duration>
        <voice>1</voice>
        <type>quarter</type>
        <staff>1</staff>
        <lyric>
          <syllabic>single</syllabic>
          <text> </text>
        </lyric>
      </note>
      <note>
        <chord/>
        <pitch>
          <step>B</step>
          <alter>-1</alter>
          <octave>3</octave>
        </pitch>
        <duration>480</duration>
        <voice>1</voice>
        <type>quarter</type>
        <staff>1</staff>
      </note>
      <note>
        <pitch>
          <step>B</step>
          <alter>-1</alter>
          <octave>2</octave>
        </pitch>
        <duration>480</duration>
        <voice>1</voice>
        <type>quarter</type>
        <staff>1</staff>
        <lyric>
          <syllabic>single</syllabic>
          <text> </text>
        </lyric>
      </note>
      <note>
        <chord/>
        <pitch>
          <step>B</step>
          <alter>-1</alter>
          <octave>3</octave>
        </pitch>
        <duration>480</duration>
        <voice>1</voice>
        <type>quarter</type>
        <staff>1</staff>
      </note>
    </measure>
    <measure number="7">
      <note>
        <pitch>
          <step>F</step>
          <octave>3</octave>
        </pitch>
        <duration>480</duration>
        <voice>1</voice>
        <type>quarter</type>
        <staff>1</staff>
        <lyric>
          <syllabic>single</syllabic>
          <text> </text>
        </lyric>
      </note>
      <note>
        <chord/>
        <pitch>
          <step>A</step>
          <octave>3</octave>
        </pitch>
        <duration>480</duration>
        <voice>1</voice>
        <type>quarter</type>
        <staff>1</staff>
      </note>
      <note>
        <pitch>
          <step>F</step>
          <octave>3</octave>
        </pitch>
        <duration>1440</duration>
        <voice>1</voice>
        <type>half</type>
        <dot/>
        <staff>1</staff>
        <lyric>
          <syllabic>single</syllabic>
          <text> </text>
        </lyric>
      </note>
      <note>
        <chord/>
        <pitch>
          <step>A</step>
          <octave>3</octave>
        </pitch>
        <duration>1440</duration>
        <voice>1</voice>
        <type>half</type>
        <dot/>
        <staff>1</staff>
      </note>
      <note>
        <pitch>
          <step>B</step>
          <alter>-1</alter>
          <octave>2</octave>
        </pitch>
        <duration>960</duration>
        <voice>1</voice>
        <type>half</type>
        <staff>1</staff>
        <lyric>
          <syllabic>single</syllabic>
          <text> </text>
        </lyric>
      </note>
      <note>
        <chord/>
        <pitch>
          <step>B</step>
          <alter>-1</alter>
          <octave>3</octave>
        </pitch>
        <duration>960</duration>
        <voice>1</voice>
        <type>half</type>
        <staff>1</staff>
      </note>
    </measure>
    <measure number="8">
      <note>
        <pitch>
          <step>C</step>
          <octave>3</octave>
        </pitch>
        <duration>1440</duration>
        <voice>1</voice>
        <type>half</type>
        <dot/>
        <staff>1</staff>
        <lyric>
          <syllabic>single</syllabic>
          <text> </text>
        </lyric>
      </note>
      <note>
        <chord/>
        <pitch>
          <step>A</step>
          <octave>3</octave>
        </pitch>
        <duration>1440</duration>
        <voice>1</voice>
        <type>half</type>
        <dot/>
        <staff>1</staff>
      </note>
      <note>
        <pitch>
          <step>C</step>
          <octave>3</octave>
        </pitch>
        <duration>480</duration>
        <voice>1</voice>
        <type>quarter</type>
        <staff>1</staff>
        <lyric>
          <syllabic>single</syllabic>
          <text> </text>
        </lyric>
      </note>
      <note>
        <chord/>
        <pitch>
          <step>C</step>
          <octave>4</octave>
        </pitch>
        <duration>480</duration>
        <voice>1</voice>
        <type>quarter</type>
        <staff>1</staff>
      </note>
      <note>
        <pitch>
          <step>C</step>
          <octave>3</octave>
        </pitch>
        <duration>480</duration>
        <voice>1</voice>
        <type>quarter</type>
        <staff>1</staff>
        <lyric>
          <syllabic>single</syllabic>
          <text> </text>
        </lyric>
      </note>
      <note>
        <chord/>
        <pitch>
          <step>C</step>
          <octave>4</octave>
        </pitch>
        <duration>480</duration>
        <voice>1</voice>
        <type>quarter</type>
        <staff>1</staff>
      </note>
      <note>
        <pitch>
          <step>C</step>
          <octave>3</octave>
        </pitch>
        <duration>480</duration>
        <voice>1</voice>
        <type>quarter</type>
        <staff>1</staff>
        <lyric>
          <syllabic>single</syllabic>
          <text> </text>
        </lyric>
      </note>
      <note>
        <chord/>
        <pitch>
          <step>B</step>
          <alter>-1</alter>
          <octave>3</octave>
        </pitch>
        <duration>480</duration>
        <voice>1</voice>
        <type>quarter</type>
        <staff>1</staff>
      </note>
    </measure>
    <measure number="9">
      <note>
        <pitch>
          <step>F</step>
          <octave>3</octave>
        </pitch>
        <duration>1440</duration>
        <voice>1</voice>
        <type>half</type>
        <dot/>
        <staff>1</staff>
        <lyric>
          <syllabic>single</syllabic>
          <text> </text>
        </lyric>
      </note>
      <note>
        <chord/>
        <pitch>
          <step>A</step>
          <octave>3</octave>
        </pitch>
        <duration>1440</duration>
        <voice>1</voice>
        <type>half</type>
        <dot/>
        <staff>1</staff>
      </note>
      <note>
        <pitch>
          <step>F</step>
          <octave>3</octave>
        </pitch>
        <duration>480</duration>
        <voice>1</voice>
        <type>quarter</type>
        <staff>1</staff>
        <lyric>
          <syllabic>single</syllabic>
          <text> </text>
        </lyric>
      </note>
      <note>
        <chord/>
        <pitch>
          <step>A</step>
          <octave>3</octave>
        </pitch>
        <duration>480</duration>
        <voice>1</voice>
        <type>quarter</type>
        <staff>1</staff>
      </note>
      <note>
        <pitch>
          <step>F</step>
          <octave>3</octave>
        </pitch>
        <duration>480</duration>
        <voice>1</voice>
        <type>quarter</type>
        <staff>1</staff>
        <lyric>
          <syllabic>single</syllabic>
          <text> </text>
        </lyric>
      </note>
      <note>
        <chord/>
        <pitch>
          <step>C</step>
          <octave>4</octave>
        </pitch>
        <duration>480</duration>
        <voice>1</voice>
        <type>quarter</type>
        <staff>1</staff>
      </note>
      <note>
        <pitch>
          <step>F</step>
          <octave>3</octave>
        </pitch>
        <duration>480</duration>
        <voice>1</voice>
        <type>quarter</type>
        <staff>1</staff>
        <lyric>
          <syllabic>single</syllabic>
          <text> </text>
        </lyric>
      </note>
      <note>
        <chord/>
        <pitch>
          <step>D</step>
          <octave>4</octave>
        </pitch>
        <duration>480</duration>
        <voice>1</voice>
        <type>quarter</type>
        <staff>1</staff>
      </note>
    </measure>
    <measure number="10">
      <note>
        <pitch>
          <step>F</step>
          <octave>3</octave>
        </pitch>
        <duration>1440</duration>
        <voice>1</voice>
        <type>half</type>
        <dot/>
        <staff>1</staff>
        <lyric>
          <syllabic>single</syllabic>
          <text> </text>
        </lyric>
      </note>
      <note>
        <chord/>
        <pitch>
          <step>A</step>
          <octave>3</octave>
        </pitch>
        <duration>1440</duration>
        <voice>1</voice>
        <type>half</type>
        <dot/>
        <staff>1</staff>
      </note>
      <note>
        <pitch>
          <step>B</step>
          <alter>-1</alter>
          <octave>2</octave>
        </pitch>
        <duration>480</duration>
        <voice>1</voice>
        <type>quarter</type>
        <staff>1</staff>
        <lyric>
          <syllabic>single</syllabic>
          <text> </text>
        </lyric>
      </note>
      <note>
        <chord/>
        <pitch>
          <step>B</step>
          <alter>-1</alter>
          <octave>3</octave>
        </pitch>
        <duration>480</duration>
        <voice>1</voice>
        <type>quarter</type>
        <staff>1</staff>
      </note>
      <note>
        <pitch>
          <step>C</step>
          <octave>3</octave>
        </pitch>
        <duration>480</duration>
        <voice>1</voice>
        <type>quarter</type>
        <staff>1</staff>
        <lyric>
          <syllabic>single</syllabic>
          <text> </text>
        </lyric>
      </note>
      <note>
        <chord/>
        <pitch>
          <step>G</step>
          <octave>3</octave>
        </pitch>
        <duration>480</duration>
        <voice>1</voice>
        <type>quarter</type>
        <staff>1</staff>
      </note>
      <note>
        <pitch>
          <step>C</step>
          <octave>3</octave>
        </pitch>
        <duration>480</duration>
        <voice>1</voice>
        <type>quarter</type>
        <staff>1</staff>
        <lyric>
          <syllabic>single</syllabic>
          <text> </text>
        </lyric>
      </note>
      <note>
        <chord/>
        <pitch>
          <step>C</step>
          <octave>4</octave>
        </pitch>
        <duration>480</duration>
        <voice>1</voice>
        <type>quarter</type>
        <staff>1</staff>
      </note>
    </measure>
    <measure number="11">
      <note>
        <pitch>
          <step>F</step>
          <octave>3</octave>
        </pitch>
        <duration>720</duration>
        <voice>1</voice>
        <type>quarter</type>
        <dot/>
        <staff>1</staff>
        <lyric>
          <syllabic>single</syllabic>
          <text> </text>
        </lyric>
      </note>
      <note>
        <chord/>
        <pitch>
          <step>C</step>
          <octave>4</octave>
        </pitch>
        <duration>720</duration>
        <voice>1</voice>
        <type>quarter</type>
        <dot/>
        <staff>1</staff>
      </note>
      <note>
        <pitch>
          <step>F</step>
          <octave>3</octave>
        </pitch>
        <duration>240</duration>
        <voice>1</voice>
        <type>eighth</type>
        <staff>1</staff>
        <lyric>
          <syllabic>single</syllabic>
          <text> </text>
          <end-line/>
        </lyric>
      </note>
      <note>
        <chord/>
        <pitch>
          <step>B</step>
          <alter>-1</alter>
          <octave>3</octave>
        </pitch>
        <duration>240</duration>
        <voice>1</voice>
        <type>eighth</type>
        <staff>1</staff>
      </note>
      <note>
        <pitch>
          <step>F</step>
          <octave>3</octave>
        </pitch>
        <duration>1440</duration>
        <voice>1</voice>
        <type>half</type>
        <dot/>
        <staff>1</staff>
        <lyric>
          <syllabic>single</syllabic>
          <text>One</text>
        </lyric>
      </note>
      <note>
        <chord/>
        <pitch>
          <step>A</step>
          <octave>3</octave>
        </pitch>
        <duration>1440</duration>
        <voice>1</voice>
        <type>half</type>
        <dot/>
        <staff>1</staff>
      </note>
      <barline location="right">
        <bar-style>light-light</bar-style>
      </barline>
    </measure>
    <measure number="12">
      <note>
        <pitch>
          <step>F</step>
          <octave>3</octave>
        </pitch>
        <duration>480</duration>
        <voice>1</voice>
        <type>quarter</type>
        <staff>1</staff>
        <lyric>
          <syllabic>single</syllabic>
          <text>more</text>
        </lyric>
      </note>
      <note>
        <chord/>
        <pitch>
          <step>A</step>
          <octave>3</octave>
        </pitch>
        <duration>480</duration>
        <voice>1</voice>
        <type>quarter</type>
        <staff>1</staff>
      </note>
    </measure>
    <measure number="13">
      <note>
        <pitch>
          <step>B</step>
          <alter>-1</alter>
          <octave>2</octave>
        </pitch>
        <duration>1440</duration>
        <voice>1</voice>
        <type>half</type>
        <dot/>
        <staff>1</staff>
        <lyric>
          <syllabic>single</syllabic>
          <text>day&#8217;s</text>
        </lyric>
      </note>
      <note>
        <chord/>
        <pitch>
          <step>B</step>
          <alter>-1</alter>
          <octave>3</octave>
        </pitch>
        <duration>1440</duration>
        <voice>1</voice>
        <type>half</type>
        <dot/>
        <staff>1</staff>
      </note>
      <note>
        <pitch>
          <step>B</step>
          <alter>-1</alter>
          <octave>2</octave>
        </pitch>
        <duration>480</duration>
        <voice>1</voice>
        <type>quarter</type>
        <staff>1</staff>
        <lyric>
          <syllabic>single</syllabic>
          <text>work</text>
        </lyric>
      </note>
      <note>
        <chord/>
        <pitch>
          <step>B</step>
          <alter>-1</alter>
          <octave>3</octave>
        </pitch>
        <duration>480</duration>
        <voice>1</voice>
        <type>quarter</type>
        <staff>1</staff>
      </note>
      <note>
        <pitch>
          <step>B</step>
          <alter>-1</alter>
          <octave>2</octave>
        </pitch>
        <duration>480</duration>
        <voice>1</voice>
        <type>quarter</type>
        <staff>1</staff>
        <lyric>
          <syllabic>single</syllabic>
          <text>for</text>
        </lyric>
      </note>
      <note>
        <chord/>
        <pitch>
          <step>B</step>
          <alter>-1</alter>
          <octave>3</octave>
        </pitch>
        <duration>480</duration>
        <voice>1</voice>
        <type>quarter</type>
        <staff>1</staff>
      </note>
      <note>
        <pitch>
          <step>B</step>
          <alter>-1</alter>
          <octave>2</octave>
        </pitch>
        <duration>480</duration>
        <voice>1</voice>
        <type>quarter</type>
        <staff>1</staff>
        <lyric>
          <syllabic>begin</syllabic>
          <text>Je</text>
        </lyric>
      </note>
      <note>
        <chord/>
        <pitch>
          <step>B</step>
          <alter>-1</alter>
          <octave>3</octave>
        </pitch>
        <duration>480</duration>
        <voice>1</voice>
        <type>quarter</type>
        <staff>1</staff>
      </note>
    </measure>
    <measure number="14">
      <note>
        <pitch>
          <step>B</step>
          <alter>-1</alter>
          <octave>2</octave>
        </pitch>
        <duration>480</duration>
        <voice>1</voice>
        <type>quarter</type>
        <staff>1</staff>
        <lyric>
          <syllabic>end</syllabic>
          <text>sus,</text>
          <end-line/>
        </lyric>
      </note>
      <note>
        <chord/>
        <pitch>
          <step>B</step>
          <alter>-1</alter>
          <octave>3</octave>
        </pitch>
        <duration>480</duration>
        <voice>1</voice>
        <type>quarter</type>
        <staff>1</staff>
      </note>
      <note>
        <pitch>
          <step>B</step>
          <alter>-1</alter>
          <octave>2</octave>
        </pitch>
        <duration>1440</duration>
        <voice>1</voice>
        <type>half</type>
        <dot/>
        <staff>1</staff>
        <lyric>
          <syllabic>single</syllabic>
          <text>One</text>
        </lyric>
      </note>
      <note>
        <chord/>
        <pitch>
          <step>F</step>
          <octave>3</octave>
        </pitch>
        <duration>1440</duration>
        <voice>1</voice>
        <type>half</type>
        <dot/>
        <staff>1</staff>
      </note>
      <note>
        <rest/>
        <duration>480</duration>
        <voice>1</voice>
        <type>quarter</type>
        <staff>1</staff>
      </note>
      <note>
        <pitch>
          <step>B</step>
          <alter>-1</alter>
          <octave>2</octave>
        </pitch>
        <duration>480</duration>
        <voice>1</voice>
        <type>quarter</type>
        <staff>1</staff>
        <lyric>
          <syllabic>single</syllabic>
          <text>more</text>
        </lyric>
      </note>
      <note>
        <chord/>
        <pitch>
          <step>B</step>
          <alter>-1</alter>
          <octave>3</octave>
        </pitch>
        <duration>480</duration>
        <voice>1</voice>
        <type>quarter</type>
        <staff>1</staff>
      </note>
    </measure>
    <measure number="15">
      <note>
        <pitch>
          <step>F</step>
          <octave>3</octave>
        </pitch>
        <duration>1440</duration>
        <voice>1</voice>
        <type>half</type>
        <dot/>
        <staff>1</staff>
        <lyric>
          <syllabic>single</syllabic>
          <text>day&#8217;s</text>
        </lyric>
      </note>
      <note>
        <chord/>
        <pitch>
          <step>A</step>
          <octave>3</octave>
        </pitch>
        <duration>1440</duration>
        <voice>1</voice>
        <type>half</type>
        <dot/>
        <staff>1</staff>
      </note>
      <note>
        <pitch>
          <step>F</step>
          <octave>3</octave>
        </pitch>
        <duration>480</duration>
        <voice>1</voice>
        <type>quarter</type>
        <staff>1</staff>
        <lyric>
          <syllabic>single</syllabic>
          <text>work</text>
        </lyric>
      </note>
      <note>
        <chord/>
        <pitch>
          <step>A</step>
          <octave>3</octave>
        </pitch>
        <duration>480</duration>
        <voice>1</voice>
        <type>quarter</type>
        <staff>1</staff>
      </note>
      <note>
        <pitch>
          <step>F</step>
          <octave>3</octave>
        </pitch>
        <duration>480</duration>
        <voice>1</voice>
        <type>quarter</type>
        <staff>1</staff>
        <lyric>
          <syllabic>single</syllabic>
          <text>for</text>
        </lyric>
      </note>
      <note>
        <chord/>
        <pitch>
          <step>B</step>
          <alter>-1</alter>
          <octave>3</octave>
        </pitch>
        <duration>480</duration>
        <voice>1</voice>
        <type>quarter</type>
        <staff>1</staff>
      </note>
      <note>
        <pitch>
          <step>F</step>
          <octave>3</octave>
        </pitch>
        <duration>480</duration>
        <voice>1</voice>
        <type>quarter</type>
        <staff>1</staff>
        <lyric>
          <syllabic>begin</syllabic>
          <text>Je</text>
        </lyric>
      </note>
      <note>
        <chord/>
        <pitch>
          <step>A</step>
          <octave>3</octave>
        </pitch>
        <duration>480</duration>
        <voice>1</voice>
        <type>quarter</type>
        <staff>1</staff>
      </note>
    </measure>
    <measure number="16">
      <note>
        <pitch>
          <step>F</step>
          <octave>3</octave>
        </pitch>
        <duration>480</duration>
        <voice>1</voice>
        <type>quarter</type>
        <staff>1</staff>
        <lyric>
          <syllabic>end</syllabic>
          <text>sus,</text>
          <end-line/>
        </lyric>
      </note>
      <note>
        <chord/>
        <pitch>
          <step>A</step>
          <octave>3</octave>
        </pitch>
        <duration>480</duration>
        <voice>1</voice>
        <type>quarter</type>
        <staff>1</staff>
      </note>
      <note>
        <pitch>
          <step>F</step>
          <octave>3</octave>
        </pitch>
        <duration>1440</duration>
        <voice>1</voice>
        <type>half</type>
        <dot/>
        <staff>1</staff>
        <lyric>
          <syllabic>single</syllabic>
          <text>One</text>
        </lyric>
      </note>
      <note>
        <chord/>
        <pitch>
          <step>A</step>
          <octave>3</octave>
        </pitch>
        <duration>1440</duration>
        <voice>1</voice>
        <type>half</type>
        <dot/>
        <staff>1</staff>
      </note>
      <note>
        <rest/>
        <duration>480</duration>
        <voice>1</voice>
        <type>quarter</type>
        <staff>1</staff>
      </note>
      <note>
        <pitch>
          <step>F</step>
          <octave>3</octave>
        </pitch>
        <duration>480</duration>
        <voice>1</voice>
        <type>quarter</type>
        <staff>1</staff>
        <lyric>
          <syllabic>single</syllabic>
          <text>more</text>
        </lyric>
      </note>
      <note>
        <chord/>
        <pitch>
          <step>A</step>
          <octave>3</octave>
        </pitch>
        <duration>480</duration>
        <voice>1</voice>
        <type>quarter</type>
        <staff>1</staff>
      </note>
    </measure>
    <measure number="17">
      <note>
        <pitch>
          <step>B</step>
          <alter>-1</alter>
          <octave>2</octave>
        </pitch>
        <duration>1440</duration>
        <voice>1</voice>
        <type>half</type>
        <dot/>
        <staff>1</staff>
        <lyric>
          <syllabic>single</syllabic>
          <text>day&#8217;s</text>
        </lyric>
      </note>
      <note>
        <chord/>
        <pitch>
          <step>B</step>
          <alter>-1</alter>
          <octave>3</octave>
        </pitch>
        <duration>1440</duration>
        <voice>1</voice>
        <type>half</type>
        <dot/>
        <staff>1</staff>
      </note>
      <note>
        <pitch>
          <step>B</step>
          <alter>-1</alter>
          <octave>2</octave>
        </pitch>
        <duration>480</duration>
        <voice>1</voice>
        <type>quarter</type>
        <staff>1</staff>
        <lyric>
          <syllabic>single</syllabic>
          <text>work</text>
        </lyric>
      </note>
      <note>
        <chord/>
        <pitch>
          <step>B</step>
          <alter>-1</alter>
          <octave>3</octave>
        </pitch>
        <duration>480</duration>
        <voice>1</voice>
        <type>quarter</type>
        <staff>1</staff>
      </note>
      <note>
        <pitch>
          <step>C</step>
          <octave>3</octave>
        </pitch>
        <duration>480</duration>
        <voice>1</voice>
        <type>quarter</type>
        <staff>1</staff>
        <lyric>
          <syllabic>single</syllabic>
          <text>for</text>
        </lyric>
      </note>
      <note>
        <chord/>
        <pitch>
          <step>A</step>
          <octave>3</octave>
        </pitch>
        <duration>480</duration>
        <voice>1</voice>
        <type>quarter</type>
        <staff>1</staff>
      </note>
      <note>
        <pitch>
          <step>D</step>
          <octave>3</octave>
        </pitch>
        <duration>480</duration>
        <voice>1</voice>
        <type>quarter</type>
        <staff>1</staff>
        <lyric>
          <syllabic>begin</syllabic>
          <text>Je</text>
        </lyric>
      </note>
      <note>
        <chord/>
        <pitch>
          <step>B</step>
          <alter>-1</alter>
          <octave>3</octave>
        </pitch>
        <duration>480</duration>
        <voice>1</voice>
        <type>quarter</type>
        <staff>1</staff>
      </note>
    </measure>
    <measure number="18">
      <note>
        <pitch>
          <step>E</step>
          <alter>-1</alter>
          <octave>3</octave>
        </pitch>
        <duration>480</duration>
        <voice>1</voice>
        <type>quarter</type>
        <staff>1</staff>
        <lyric>
          <syllabic>end</syllabic>
          <text>sus,</text>
          <end-line/>
        </lyric>
      </note>
      <note>
        <chord/>
        <pitch>
          <step>B</step>
          <alter>-1</alter>
          <octave>3</octave>
        </pitch>
        <duration>480</duration>
        <voice>1</voice>
        <type>quarter</type>
        <staff>1</staff>
      </note>
      <note>
        <pitch>
          <step>E</step>
          <alter>-1</alter>
          <octave>3</octave>
        </pitch>
        <duration>1440</duration>
        <voice>1</voice>
        <type>half</type>
        <dot/>
        <staff>1</staff>
        <lyric>
          <syllabic>single</syllabic>
          <text>One</text>
        </lyric>
      </note>
      <note>
        <chord/>
        <pitch>
          <step>B</step>
          <alter>-1</alter>
          <octave>3</octave>
        </pitch>
        <duration>1440</duration>
        <voice>1</voice>
        <type>half</type>
        <dot/>
        <staff>1</staff>
      </note>
      <note>
        <rest/>
        <duration>480</duration>
        <voice>1</voice>
        <type>quarter</type>
        <staff>1</staff>
      </note>
      <note>
        <pitch>
          <step>E</step>
          <alter>-1</alter>
          <octave>3</octave>
        </pitch>
        <duration>480</duration>
        <voice>1</voice>
        <type>quarter</type>
        <staff>1</staff>
        <lyric>
          <syllabic>single</syllabic>
          <text>less</text>
        </lyric>
      </note>
      <note>
        <chord/>
        <pitch>
          <step>B</step>
          <alter>-1</alter>
          <octave>3</octave>
        </pitch>
        <duration>480</duration>
        <voice>1</voice>
        <type>quarter</type>
        <staff>1</staff>
      </note>
    </measure>
    <measure number="19">
      <note>
        <pitch>
          <step>F</step>
          <octave>3</octave>
        </pitch>
        <duration>1440</duration>
        <voice>1</voice>
        <type>half</type>
        <dot/>
        <staff>1</staff>
        <lyric>
          <syllabic>single</syllabic>
          <text>of</text>
        </lyric>
      </note>
      <note>
        <chord/>
        <pitch>
          <step>A</step>
          <octave>3</octave>
        </pitch>
        <duration>1440</duration>
        <voice>1</voice>
        <type>half</type>
        <dot/>
        <staff>1</staff>
      </note>
      <note>
        <pitch>
          <step>D</step>
          <octave>3</octave>
        </pitch>
        <duration>480</duration>
        <voice>1</voice>
        <type>quarter</type>
        <staff>1</staff>
        <lyric>
          <syllabic>single</syllabic>
          <text>life</text>
        </lyric>
      </note>
      <note>
        <chord/>
        <pitch>
          <step>B</step>
          <alter>-1</alter>
          <octave>3</octave>
        </pitch>
        <duration>480</duration>
        <voice>1</voice>
        <type>quarter</type>
        <staff>1</staff>
      </note>
      <note>
        <pitch>
          <step>E</step>
          <alter>-1</alter>
          <octave>3</octave>
        </pitch>
        <duration>480</duration>
        <voice>1</voice>
        <type>quarter</type>
        <staff>1</staff>
        <lyric>
          <syllabic>single</syllabic>
          <text>for</text>
        </lyric>
      </note>
      <note>
        <chord/>
        <pitch>
          <step>B</step>
          <alter>-1</alter>
          <octave>3</octave>
        </pitch>
        <duration>480</duration>
        <voice>1</voice>
        <type>quarter</type>
        <staff>1</staff>
      </note>
      <note>
        <pitch>
          <step>F</step>
          <octave>3</octave>
        </pitch>
        <duration>480</duration>
        <voice>1</voice>
        <type>quarter</type>
        <staff>1</staff>
        <lyric>
          <syllabic>single</syllabic>
          <text>me!</text>
        </lyric>
      </note>
      <note>
        <chord/>
        <pitch>
          <step>A</step>
          <octave>3</octave>
        </pitch>
        <duration>480</duration>
        <voice>1</voice>
        <type>quarter</type>
        <staff>1</staff>
      </note>
    </measure>
    <measure number="20">
      <note>
        <pitch>
          <step>B</step>
          <alter>-1</alter>
          <octave>2</octave>
        </pitch>
        <duration>1920</duration>
        <voice>1</voice>
        <type>whole</type>
        <staff>1</staff>
      </note>
      <note>
        <chord/>
        <pitch>
          <step>B</step>
          <alter>-1</alter>
          <octave>3</octave>
        </pitch>
        <duration>1920</duration>
        <voice>1</voice>
        <type>whole</type>
        <staff>1</staff>
      </note>
      <barline location="right">
        <bar-style>light-heavy</bar-style>
      </barline>
    </measure>
  </part>
</score-partwise>
