<?xml version="1.0" encoding='UTF-8' standalone='no' ?>
<!DOCTYPE score-partwise PUBLIC "-//Recordare//DTD MusicXML 2.0 Partwise//EN" "http://www.musicxml.org/dtds/partwise.dtd">
<score-partwise version="2.0">
 <work>
  <work-title>I Need Thee Every Hour</work-title>
 </work>
 <identification>
  <encoding>
   <encoding-date>2012-06-29</encoding-date>
   <encoder>jsk9</encoder>
   <software>Sibelius 7.0.0</software>
   <software>Direct export, not from Dolet</software>
   <encoding-description>Sibelius / MusicXML 2.0</encoding-description>
   <supports element="print" type="yes" value="yes" attribute="new-system" />
   <supports element="print" type="yes" value="yes" attribute="new-page" />
   <supports element="accidental" type="yes" />
   <supports element="beam" type="yes" />
   <supports element="stem" type="yes" />
  </encoding>
 </identification>
 <defaults>
  <scaling>
   <millimeters>149.098</millimeters>
   <tenths>955</tenths>
  </scaling>
  <page-layout>
   <page-height>1140</page-height>
   <page-width>955</page-width>
   <page-margins type="both">
    <left-margin>112</left-margin>
    <right-margin>112</right-margin>
    <top-margin>81</top-margin>
    <bottom-margin>81</bottom-margin>
   </page-margins>
  </page-layout>
  <system-layout>
   <system-distance>40</system-distance>
  </system-layout>
  <appearance>
   <line-width type="stem">0.9375</line-width>
   <line-width type="beam">5</line-width>
   <line-width type="staff">0.9375</line-width>
   <line-width type="light barline">1.5625</line-width>
   <line-width type="heavy barline">5</line-width>
   <line-width type="leger">1.5625</line-width>
   <line-width type="ending">1.5625</line-width>
   <line-width type="wedge">1.25</line-width>
   <line-width type="enclosure">0.9375</line-width>
   <line-width type="tuplet bracket">1.25</line-width>
   <line-width type="bracket">5</line-width>
   <line-width type="dashes">1.5625</line-width>
   <line-width type="extend">0.9375</line-width>
   <line-width type="octave shift">1.5625</line-width>
   <line-width type="pedal">1.5625</line-width>
   <line-width type="slur middle">1.5625</line-width>
   <line-width type="slur tip">0.625</line-width>
   <line-width type="tie middle">1.5625</line-width>
   <line-width type="tie tip">0.625</line-width>
   <note-size type="cue">75</note-size>
   <note-size type="grace">60</note-size>
  </appearance>
  <music-font font-family="Opus Std" font-size="17.6825" />
  <lyric-font font-family="Times New Roman" font-size="9.9464" />
  <lyric-language xml:lang="en" />
 </defaults>
 <credit page="1">
  <credit-words default-x="477" default-y="985" font-family="Times New Roman" font-size="20.031" justify="center" valign="middle">I Need Thee Every Hour</credit-words>
 </credit>
 <part-list>
  <score-part id="P1">
   <part-name>Piano</part-name>
   <part-name-display>
    <display-text>Piano</display-text>
   </part-name-display>
   <part-abbreviation>Pno.</part-abbreviation>
   <part-abbreviation-display>
    <display-text>Pno.</display-text>
   </part-abbreviation-display>
   <score-instrument id="P1-I1">
    <instrument-name>Piano (2)</instrument-name>
   </score-instrument>
  </score-part>
 </part-list>
 <part id="P1">
  <measure number="0" width="141">
   <print new-page="yes">
    <system-layout>
     <system-margins>
      <left-margin>0</left-margin>
      <right-margin>0</right-margin>
     </system-margins>
     <top-system-distance>163</top-system-distance>
    </system-layout>
   </print>
   <attributes>
    <divisions>256</divisions>
    <key color="#000000">
     <fifths>1</fifths>
     <mode>major</mode>
    </key>
    <time color="#000000">
     <beats>3</beats>
     <beat-type>4</beat-type>
    </time>
    <staves>1</staves>
    <clef number="1" color="#000000">
     <sign>G</sign>
     <line>2</line>
    </clef>
    <staff-details number="1" print-object="yes" />
   </attributes>
   <note color="#000000" default-x="88">
    <pitch>
     <step>G</step>
     <octave>4</octave>
    </pitch>
    <duration>256</duration>
    <instrument id="P1-I1" />
    <voice>1</voice>
    <type>quarter</type>
    <stem>up</stem>
    <staff>1</staff>
    <lyric default-y="-88" number="1" color="#000000">
     <syllabic>single</syllabic>
     <text>1 I</text>
    </lyric>
    <lyric default-y="-113" number="2" color="#000000">
     <syllabic>single</syllabic>
     <text>2 I</text>
    </lyric>
    <lyric default-y="-138" number="3" color="#000000">
     <syllabic>single</syllabic>
     <text>3 I</text>
    </lyric>
    <lyric default-y="-163" number="4" color="#000000">
     <syllabic>single</syllabic>
     <text>4 I</text>
    </lyric>
   </note>
  </measure>
  <measure number="1" width="204">
   <note color="#000000" default-x="15">
    <pitch>
     <step>B</step>
     <octave>4</octave>
    </pitch>
    <duration>384</duration>
    <instrument id="P1-I1" />
    <voice>1</voice>
    <type>quarter</type>
    <dot />
    <stem>up</stem>
    <staff>1</staff>
    <lyric default-y="-88" number="1" color="#000000">
     <syllabic>single</syllabic>
     <text>need</text>
    </lyric>
    <lyric default-y="-113" number="2" color="#000000">
     <syllabic>single</syllabic>
     <text>need</text>
    </lyric>
    <lyric default-y="-138" number="3" color="#000000">
     <syllabic>single</syllabic>
     <text>need</text>
    </lyric>
    <lyric default-y="-163" number="4" color="#000000">
     <syllabic>single</syllabic>
     <text>need</text>
    </lyric>
   </note>
   <note color="#000000" default-x="87">
    <pitch>
     <step>A</step>
     <octave>4</octave>
    </pitch>
    <duration>128</duration>
    <instrument id="P1-I1" />
    <voice>1</voice>
    <type>eighth</type>
    <stem>up</stem>
    <staff>1</staff>
    <lyric default-y="-88" number="1" color="#000000">
     <syllabic>single</syllabic>
     <text>thee</text>
    </lyric>
    <lyric default-y="-113" number="2" color="#000000">
     <syllabic>single</syllabic>
     <text>thee</text>
    </lyric>
    <lyric default-y="-138" number="3" color="#000000">
     <syllabic>single</syllabic>
     <text>thee</text>
    </lyric>
    <lyric default-y="-163" number="4" color="#000000">
     <syllabic>single</syllabic>
     <text>thee</text>
    </lyric>
   </note>
   <note color="#000000" default-x="126">
    <pitch>
     <step>G</step>
     <octave>4</octave>
    </pitch>
    <duration>128</duration>
    <instrument id="P1-I1" />
    <voice>1</voice>
    <type>eighth</type>
    <stem>up</stem>
    <staff>1</staff>
    <beam number="1">begin</beam>
    <lyric default-y="-88" number="1" color="#000000">
     <syllabic>begin</syllabic>
     <text>ev</text>
    </lyric>
    <lyric default-y="-113" number="2" color="#000000">
     <syllabic>begin</syllabic>
     <text>ev</text>
    </lyric>
    <lyric default-y="-138" number="3" color="#000000">
     <syllabic>begin</syllabic>
     <text>ev</text>
    </lyric>
    <lyric default-y="-163" number="4" color="#000000">
     <syllabic>middle</syllabic>
     <text>ev</text>
    </lyric>
   </note>
   <note color="#000000" default-x="165">
    <pitch>
     <step>F</step>
     <alter>1</alter>
     <octave>4</octave>
    </pitch>
    <duration>128</duration>
    <instrument id="P1-I1" />
    <voice>1</voice>
    <type>eighth</type>
    <stem>up</stem>
    <staff>1</staff>
    <beam number="1">end</beam>
    <lyric default-y="-88" number="1" color="#000000">
     <syllabic>end</syllabic>
     <text>ery</text>
    </lyric>
    <lyric default-y="-113" number="2" color="#000000">
     <syllabic>end</syllabic>
     <text>ery</text>
    </lyric>
    <lyric default-y="-138" number="3" color="#000000">
     <syllabic>end</syllabic>
     <text>ery</text>
    </lyric>
    <lyric default-y="-163" number="4" color="#000000">
     <syllabic>single</syllabic>
     <text>ery</text>
    </lyric>
   </note>
  </measure>
  <measure number="2" width="160">
   <note color="#000000" default-x="15">
    <pitch>
     <step>G</step>
     <octave>4</octave>
    </pitch>
    <duration>512</duration>
    <instrument id="P1-I1" />
    <voice>1</voice>
    <type>half</type>
    <stem>up</stem>
    <staff>1</staff>
    <lyric default-y="-88" number="1" color="#000000">
     <syllabic>single</syllabic>
     <text>hour,</text>
    </lyric>
    <lyric default-y="-113" number="2" color="#000000">
     <syllabic>single</syllabic>
     <text>hour;</text>
    </lyric>
    <lyric default-y="-138" number="3" color="#000000">
     <syllabic>single</syllabic>
     <text>hour;</text>
    </lyric>
    <lyric default-y="-163" number="4" color="#000000">
     <syllabic>single</syllabic>
     <text>hour,</text>
    </lyric>
   </note>
   <note color="#000000" default-x="106">
    <pitch>
     <step>G</step>
     <octave>4</octave>
    </pitch>
    <duration>256</duration>
    <instrument id="P1-I1" />
    <voice>1</voice>
    <type>quarter</type>
    <stem>up</stem>
    <staff>1</staff>
    <lyric default-y="-88" number="1" color="#000000">
     <syllabic>single</syllabic>
     <text>most</text>
    </lyric>
    <lyric default-y="-113" number="2" color="#000000">
     <syllabic>single</syllabic>
     <text>stay</text>
    </lyric>
    <lyric default-y="-138" number="3" color="#000000">
     <syllabic>single</syllabic>
     <text>in</text>
    </lyric>
    <lyric default-y="-163" number="4" color="#000000">
     <syllabic>single</syllabic>
     <text>teach</text>
    </lyric>
   </note>
  </measure>
  <measure number="3" width="158">
   <note color="#000000" default-x="15">
    <pitch>
     <step>G</step>
     <octave>4</octave>
    </pitch>
    <duration>384</duration>
    <instrument id="P1-I1" />
    <voice>1</voice>
    <type>quarter</type>
    <dot />
    <stem>up</stem>
    <staff>1</staff>
    <notations>
     <slur color="#000000" type="start" orientation="under" />
    </notations>
    <lyric default-y="-88" number="1" color="#000000">
     <syllabic>begin</syllabic>
     <text>gra</text>
    </lyric>
    <lyric default-y="-113" number="2" color="#000000">
     <syllabic>single</syllabic>
     <text>thou</text>
     <extend />
    </lyric>
    <lyric default-y="-138" number="3" color="#000000">
     <syllabic>single</syllabic>
     <text>joy</text>
     <extend />
    </lyric>
    <lyric default-y="-163" number="4" color="#000000">
     <syllabic>single</syllabic>
     <text>me</text>
     <extend />
    </lyric>
   </note>
   <note color="#000000" default-x="51">
    <pitch>
     <step>A</step>
     <octave>4</octave>
    </pitch>
    <duration>128</duration>
    <instrument id="P1-I1" />
    <voice>1</voice>
    <type>eighth</type>
    <stem>up</stem>
    <staff>1</staff>
    <notations>
     <slur color="#000000" type="stop" orientation="under" />
    </notations>
   </note>
   <note color="#000000" default-x="90">
    <pitch>
     <step>G</step>
     <octave>4</octave>
    </pitch>
    <duration>128</duration>
    <instrument id="P1-I1" />
    <voice>1</voice>
    <type>eighth</type>
    <stem>up</stem>
    <staff>1</staff>
    <beam number="1">begin</beam>
    <notations>
     <slur color="#000000" type="start" orientation="under" />
    </notations>
    <lyric default-y="-88" number="1" color="#000000">
     <syllabic>end</syllabic>
     <text>cious</text>
     <extend />
    </lyric>
    <lyric default-y="-113" number="2" color="#000000">
     <syllabic>single</syllabic>
     <text>near</text>
     <extend />
    </lyric>
    <lyric default-y="-138" number="3" color="#000000">
     <syllabic>single</syllabic>
     <text>or</text>
     <extend />
    </lyric>
    <lyric default-y="-163" number="4" color="#000000">
     <syllabic>single</syllabic>
     <text>thy</text>
     <extend />
    </lyric>
   </note>
   <note color="#000000" default-x="119">
    <pitch>
     <step>E</step>
     <octave>4</octave>
    </pitch>
    <duration>128</duration>
    <instrument id="P1-I1" />
    <voice>1</voice>
    <type>eighth</type>
    <stem>up</stem>
    <staff>1</staff>
    <beam number="1">end</beam>
    <notations>
     <slur color="#000000" type="stop" orientation="under" />
    </notations>
   </note>
  </measure>
  <measure number="4" width="66">
   <note color="#000000" default-x="15">
    <pitch>
     <step>D</step>
     <octave>4</octave>
    </pitch>
    <duration>512</duration>
    <instrument id="P1-I1" />
    <voice>1</voice>
    <type>half</type>
    <stem>up</stem>
    <staff>1</staff>
    <lyric default-y="-88" number="1" color="#000000">
     <syllabic>single</syllabic>
     <text>Lord;</text>
    </lyric>
    <lyric default-y="-113" number="2" color="#000000">
     <syllabic>single</syllabic>
     <text>by;</text>
    </lyric>
    <lyric default-y="-138" number="3" color="#000000">
     <syllabic>single</syllabic>
     <text>pain;</text>
    </lyric>
    <lyric default-y="-163" number="4" color="#000000">
     <syllabic>single</syllabic>
     <text>will,</text>
    </lyric>
   </note>
   <barline>
    <bar-style>none</bar-style>
   </barline>
  </measure>
  <measure number="5" width="121">
   <print new-system="yes">
    <system-layout>
     <system-margins>
      <left-margin>0</left-margin>
      <right-margin>0</right-margin>
     </system-margins>
     <system-distance>201</system-distance>
    </system-layout>
   </print>
   <attributes>
    <staff-details number="1" print-object="yes" />
   </attributes>
   <note color="#000000" default-x="70">
    <pitch>
     <step>D</step>
     <octave>4</octave>
    </pitch>
    <duration>256</duration>
    <instrument id="P1-I1" />
    <voice>1</voice>
    <type>quarter</type>
    <stem>up</stem>
    <staff>1</staff>
    <lyric default-y="-88" number="1" color="#000000">
     <syllabic>single</syllabic>
     <text>no</text>
    </lyric>
    <lyric default-y="-113" number="2" color="#000000">
     <syllabic>begin</syllabic>
     <text>temp</text>
    </lyric>
    <lyric default-y="-138" number="3" color="#000000">
     <syllabic>single</syllabic>
     <text>come</text>
    </lyric>
    <lyric default-y="-163" number="4" color="#000000">
     <syllabic>single</syllabic>
     <text>and</text>
    </lyric>
   </note>
  </measure>
  <measure number="6" width="218">
   <note color="#000000" default-x="15">
    <pitch>
     <step>A</step>
     <octave>4</octave>
    </pitch>
    <duration>384</duration>
    <instrument id="P1-I1" />
    <voice>1</voice>
    <type>quarter</type>
    <dot />
    <stem>up</stem>
    <staff>1</staff>
    <lyric default-y="-88" number="1" color="#000000">
     <syllabic>begin</syllabic>
     <text>ten</text>
    </lyric>
    <lyric default-y="-113" number="2" color="#000000">
     <syllabic>middle</syllabic>
     <text>ta</text>
    </lyric>
    <lyric default-y="-138" number="3" color="#000000">
     <syllabic>begin</syllabic>
     <text>quick</text>
    </lyric>
    <lyric default-y="-163" number="4" color="#000000">
     <syllabic>end</syllabic>
     <text>thy</text>
    </lyric>
   </note>
   <note color="#000000" default-x="84">
    <pitch>
     <step>B</step>
     <octave>4</octave>
    </pitch>
    <duration>128</duration>
    <instrument id="P1-I1" />
    <voice>1</voice>
    <type>eighth</type>
    <stem>up</stem>
    <staff>1</staff>
    <lyric default-y="-88" number="1" color="#000000">
     <syllabic>end</syllabic>
     <text>der</text>
    </lyric>
    <lyric default-y="-113" number="2" color="#000000">
     <syllabic>end</syllabic>
     <text>tions</text>
    </lyric>
    <lyric default-y="-138" number="3" color="#000000">
     <syllabic>single</syllabic>
     <text>ly,</text>
    </lyric>
    <lyric default-y="-163" number="4" color="#000000">
     <syllabic>single</syllabic>
     <text>rich</text>
    </lyric>
   </note>
   <note color="#000000" default-x="132">
    <pitch>
     <step>A</step>
     <octave>4</octave>
    </pitch>
    <duration>128</duration>
    <instrument id="P1-I1" />
    <voice>1</voice>
    <type>eighth</type>
    <stem>up</stem>
    <staff>1</staff>
    <beam number="1">begin</beam>
    <lyric default-y="-88" number="1" color="#000000">
     <syllabic>single</syllabic>
     <text>voice</text>
    </lyric>
    <lyric default-y="-113" number="2" color="#000000">
     <syllabic>single</syllabic>
     <text>lose</text>
    </lyric>
    <lyric default-y="-138" number="3" color="#000000">
     <syllabic>single</syllabic>
     <text>and</text>
    </lyric>
    <lyric default-y="-163" number="4" color="#000000">
     <syllabic>begin</syllabic>
     <text>pro</text>
    </lyric>
   </note>
   <note color="#000000" default-x="180">
    <pitch>
     <step>D</step>
     <octave>4</octave>
    </pitch>
    <duration>128</duration>
    <instrument id="P1-I1" />
    <voice>1</voice>
    <type>eighth</type>
    <stem>up</stem>
    <staff>1</staff>
    <beam number="1">end</beam>
    <lyric default-y="-88" number="1" color="#000000">
     <syllabic>single</syllabic>
     <text>like</text>
    </lyric>
    <lyric default-y="-113" number="2" color="#000000">
     <syllabic>single</syllabic>
     <text>their</text>
    </lyric>
    <lyric default-y="-138" number="3" color="#000000">
     <syllabic>middle</syllabic>
     <text>a</text>
    </lyric>
    <lyric default-y="-163" number="4" color="#000000">
     <syllabic>middle</syllabic>
     <text>mi</text>
    </lyric>
   </note>
  </measure>
  <measure number="7" width="151">
   <note color="#000000" default-x="15">
    <pitch>
     <step>B</step>
     <octave>4</octave>
    </pitch>
    <duration>512</duration>
    <instrument id="P1-I1" />
    <voice>1</voice>
    <type>half</type>
    <stem>up</stem>
    <staff>1</staff>
    <lyric default-y="-88" number="1" color="#000000">
     <syllabic>single</syllabic>
     <text>thine</text>
    </lyric>
    <lyric default-y="-113" number="2" color="#000000">
     <syllabic>single</syllabic>
     <text>power</text>
    </lyric>
    <lyric default-y="-138" number="3" color="#000000">
     <syllabic>end</syllabic>
     <text>bide,</text>
    </lyric>
    <lyric default-y="-163" number="4" color="#000000">
     <syllabic>single</syllabic>
     <text>ses</text>
    </lyric>
   </note>
   <note color="#000000" default-x="103">
    <pitch>
     <step>G</step>
     <octave>4</octave>
    </pitch>
    <duration>256</duration>
    <instrument id="P1-I1" />
    <voice>1</voice>
    <type>quarter</type>
    <stem>up</stem>
    <staff>1</staff>
    <lyric default-y="-88" number="1" color="#000000">
     <syllabic>single</syllabic>
     <text>can</text>
    </lyric>
    <lyric default-y="-113" number="2" color="#000000">
     <syllabic>single</syllabic>
     <text>when</text>
    </lyric>
    <lyric default-y="-138" number="3" color="#000000">
     <syllabic>single</syllabic>
     <text>or</text>
    </lyric>
    <lyric default-y="-163" number="4" color="#000000">
     <syllabic>single</syllabic>
     <text>in</text>
    </lyric>
   </note>
  </measure>
  <measure number="8" width="167">
   <note color="#000000" default-x="15">
    <pitch>
     <step>F</step>
     <alter>1</alter>
     <octave>4</octave>
    </pitch>
    <duration>384</duration>
    <instrument id="P1-I1" />
    <voice>1</voice>
    <type>quarter</type>
    <dot />
    <stem>up</stem>
    <staff>1</staff>
    <notations>
     <slur color="#000000" type="start" orientation="under" />
    </notations>
    <lyric default-y="-88" number="1" color="#000000">
     <syllabic>single</syllabic>
     <text>peace</text>
     <extend />
    </lyric>
    <lyric default-y="-113" number="2" color="#000000">
     <syllabic>single</syllabic>
     <text>thou</text>
     <extend />
    </lyric>
    <lyric default-y="-138" number="3" color="#000000">
     <syllabic>single</syllabic>
     <text>life</text>
     <extend />
    </lyric>
    <lyric default-y="-163" number="4" color="#000000">
     <syllabic>single</syllabic>
     <text>me</text>
     <extend />
    </lyric>
   </note>
   <note color="#000000" default-x="54">
    <pitch>
     <step>G</step>
     <octave>4</octave>
    </pitch>
    <duration>128</duration>
    <instrument id="P1-I1" />
    <voice>1</voice>
    <type>eighth</type>
    <stem>up</stem>
    <staff>1</staff>
    <notations>
     <slur color="#000000" type="stop" orientation="under" />
    </notations>
   </note>
   <note color="#000000" default-x="92">
    <pitch>
     <step>F</step>
     <alter>1</alter>
     <octave>4</octave>
    </pitch>
    <duration>128</duration>
    <instrument id="P1-I1" />
    <voice>1</voice>
    <type>eighth</type>
    <stem>up</stem>
    <staff>1</staff>
    <beam number="1">begin</beam>
    <notations>
     <slur color="#000000" type="start" orientation="under" />
    </notations>
    <lyric default-y="-88" number="1" color="#000000">
     <syllabic>begin</syllabic>
     <text>af</text>
    </lyric>
    <lyric default-y="-113" number="2" color="#000000">
     <syllabic>single</syllabic>
     <text>art</text>
     <extend />
    </lyric>
    <lyric default-y="-138" number="3" color="#000000">
     <syllabic>single</syllabic>
     <text>is</text>
     <extend />
    </lyric>
    <lyric default-y="-163" number="4" color="#000000">
     <syllabic>begin</syllabic>
     <text>ful</text>
    </lyric>
   </note>
   <note color="#000000" default-x="129">
    <pitch>
     <step>E</step>
     <octave>4</octave>
    </pitch>
    <duration>128</duration>
    <instrument id="P1-I1" />
    <voice>1</voice>
    <type>eighth</type>
    <stem>up</stem>
    <staff>1</staff>
    <beam number="1">end</beam>
    <notations>
     <slur color="#000000" type="stop" orientation="under" />
    </notations>
   </note>
  </measure>
  <measure number="9" width="72">
   <note color="#000000" default-x="15">
    <pitch>
     <step>D</step>
     <octave>4</octave>
    </pitch>
    <duration>512</duration>
    <instrument id="P1-I1" />
    <voice>1</voice>
    <type>half</type>
    <stem>up</stem>
    <staff>1</staff>
    <lyric default-y="-88" number="1" color="#000000">
     <syllabic>end</syllabic>
     <text>ford.</text>
    </lyric>
    <lyric default-y="-113" number="2" color="#000000">
     <syllabic>single</syllabic>
     <text>nigh.</text>
    </lyric>
    <lyric default-y="-138" number="3" color="#000000">
     <syllabic>end</syllabic>
     <text>vain.</text>
    </lyric>
    <lyric default-y="-163" number="4" color="#000000">
     <syllabic>single</syllabic>
     <text>fill.</text>
    </lyric>
   </note>
   <barline>
    <bar-style>light-light</bar-style>
   </barline>
  </measure>
  <measure number="10" width="120">
   <print new-system="yes">
    <system-layout>
     <system-margins>
      <left-margin>0</left-margin>
      <right-margin>0</right-margin>
     </system-margins>
     <system-distance>206</system-distance>
    </system-layout>
   </print>
   <attributes>
    <staff-details number="1" print-object="yes" />
   </attributes>
   <direction>
    <direction-type>
     <words default-x="237" default-y="25" justify="left" valign="middle" font-family="Times New Roman" font-style="italic" font-size="9.9464">Refrain</words>
    </direction-type>
    <voice>1</voice>
    <staff>1</staff>
   </direction>
   <note color="#000000" default-x="70">
    <pitch>
     <step>B</step>
     <octave>4</octave>
    </pitch>
    <duration>256</duration>
    <instrument id="P1-I1" />
    <voice>1</voice>
    <type>quarter</type>
    <stem>up</stem>
    <staff>1</staff>
    <lyric default-y="-98" number="1" color="#000000">
     <syllabic>single</syllabic>
     <text>I</text>
    </lyric>
   </note>
  </measure>
  <measure number="11" width="194">
   <note color="#000000" default-x="15">
    <pitch>
     <step>B</step>
     <octave>4</octave>
    </pitch>
    <duration>384</duration>
    <instrument id="P1-I1" />
    <voice>1</voice>
    <type>quarter</type>
    <dot />
    <stem>up</stem>
    <staff>1</staff>
    <lyric default-y="-98" number="1" color="#000000">
     <syllabic>single</syllabic>
     <text>need</text>
    </lyric>
   </note>
   <note color="#000000" default-x="83">
    <pitch>
     <step>G</step>
     <octave>4</octave>
    </pitch>
    <duration>128</duration>
    <instrument id="P1-I1" />
    <voice>1</voice>
    <type>eighth</type>
    <stem>up</stem>
    <staff>1</staff>
    <lyric default-y="-98" number="1" color="#000000">
     <syllabic>single</syllabic>
     <text>thee,</text>
    </lyric>
   </note>
   <note color="#000000" default-x="120">
    <pitch>
     <step>C</step>
     <octave>5</octave>
    </pitch>
    <duration>128</duration>
    <instrument id="P1-I1" />
    <voice>1</voice>
    <type>eighth</type>
    <stem>up</stem>
    <staff>1</staff>
    <beam number="1">begin</beam>
    <lyric default-y="-98" number="1" color="#000000">
     <syllabic>single</syllabic>
     <text>O</text>
    </lyric>
   </note>
   <note color="#000000" default-x="157">
    <pitch>
     <step>B</step>
     <octave>4</octave>
    </pitch>
    <duration>128</duration>
    <instrument id="P1-I1" />
    <voice>1</voice>
    <type>eighth</type>
    <stem>up</stem>
    <staff>1</staff>
    <beam number="1">end</beam>
    <lyric default-y="-98" number="1" color="#000000">
     <syllabic>single</syllabic>
     <text>I</text>
    </lyric>
   </note>
  </measure>
  <measure number="12" width="111">
   <note color="#000000" default-x="15">
    <pitch>
     <step>B</step>
     <octave>4</octave>
    </pitch>
    <duration>256</duration>
    <instrument id="P1-I1" />
    <voice>1</voice>
    <type>quarter</type>
    <stem>up</stem>
    <staff>1</staff>
    <lyric default-y="-98" number="1" color="#000000">
     <syllabic>single</syllabic>
     <text>need</text>
    </lyric>
   </note>
   <note color="#000000" default-x="65">
    <pitch>
     <step>A</step>
     <octave>4</octave>
    </pitch>
    <duration>512</duration>
    <instrument id="P1-I1" />
    <voice>1</voice>
    <type>half</type>
    <stem>up</stem>
    <staff>1</staff>
    <lyric default-y="-98" number="1" color="#000000">
     <syllabic>single</syllabic>
     <text>thee;</text>
    </lyric>
   </note>
  </measure>
  <measure number="13" width="199">
   <note color="#000000" default-x="15">
    <pitch>
     <step>A</step>
     <octave>4</octave>
    </pitch>
    <duration>384</duration>
    <instrument id="P1-I1" />
    <voice>1</voice>
    <type>quarter</type>
    <dot />
    <stem>up</stem>
    <staff>1</staff>
    <lyric default-y="-98" number="1" color="#000000">
     <syllabic>begin</syllabic>
     <text>ev</text>
    </lyric>
   </note>
   <note color="#000000" default-x="83">
    <pitch>
     <step>G</step>
     <octave>4</octave>
    </pitch>
    <duration>128</duration>
    <instrument id="P1-I1" />
    <voice>1</voice>
    <type>eighth</type>
    <stem>up</stem>
    <staff>1</staff>
    <lyric default-y="-98" number="1" color="#000000">
     <syllabic>end</syllabic>
     <text>ery</text>
    </lyric>
   </note>
   <note color="#000000" default-x="125">
    <pitch>
     <step>B</step>
     <octave>4</octave>
    </pitch>
    <duration>128</duration>
    <instrument id="P1-I1" />
    <voice>1</voice>
    <type>eighth</type>
    <stem>up</stem>
    <staff>1</staff>
    <beam number="1">begin</beam>
    <lyric default-y="-98" number="1" color="#000000">
     <syllabic>single</syllabic>
     <text>hour</text>
    </lyric>
   </note>
   <note color="#000000" default-x="162">
    <pitch>
     <step>A</step>
     <octave>4</octave>
    </pitch>
    <duration>128</duration>
    <instrument id="P1-I1" />
    <voice>1</voice>
    <type>eighth</type>
    <stem>up</stem>
    <staff>1</staff>
    <beam number="1">end</beam>
    <lyric default-y="-98" number="1" color="#000000">
     <syllabic>single</syllabic>
     <text>I</text>
    </lyric>
   </note>
  </measure>
  <measure number="14" width="105">
   <note color="#000000" default-x="15">
    <pitch>
     <step>A</step>
     <octave>4</octave>
    </pitch>
    <duration>256</duration>
    <instrument id="P1-I1" />
    <voice>1</voice>
    <type>quarter</type>
    <stem>up</stem>
    <staff>1</staff>
    <lyric default-y="-98" number="1" color="#000000">
     <syllabic>single</syllabic>
     <text>need</text>
    </lyric>
   </note>
   <note color="#000000" default-x="65">
    <pitch>
     <step>G</step>
     <octave>4</octave>
    </pitch>
    <duration>256</duration>
    <instrument id="P1-I1" />
    <voice>1</voice>
    <type>quarter</type>
    <stem>up</stem>
    <staff>1</staff>
    <lyric default-y="-98" number="1" color="#000000">
     <syllabic>single</syllabic>
     <text>thee!</text>
    </lyric>
   </note>
   <barline>
    <bar-style>none</bar-style>
   </barline>
  </measure>
  <measure number="15" width="123">
   <print new-system="yes">
    <system-layout>
     <system-margins>
      <left-margin>0</left-margin>
      <right-margin>0</right-margin>
     </system-margins>
     <system-distance>154</system-distance>
    </system-layout>
   </print>
   <attributes>
    <staff-details number="1" print-object="yes" />
   </attributes>
   <note color="#000000" default-x="70">
    <pitch>
     <step>G</step>
     <octave>4</octave>
    </pitch>
    <duration>256</duration>
    <instrument id="P1-I1" />
    <voice>1</voice>
    <type>quarter</type>
    <stem>up</stem>
    <staff>1</staff>
    <lyric default-y="-98" number="1" color="#000000">
     <syllabic>single</syllabic>
     <text>O</text>
    </lyric>
   </note>
  </measure>
  <measure number="16" width="212">
   <note color="#000000" default-x="15">
    <pitch>
     <step>G</step>
     <octave>4</octave>
    </pitch>
    <duration>384</duration>
    <instrument id="P1-I1" />
    <voice>1</voice>
    <type>quarter</type>
    <dot />
    <stem>up</stem>
    <staff>1</staff>
    <lyric default-y="-98" number="1" color="#000000">
     <syllabic>single</syllabic>
     <text>bless</text>
    </lyric>
   </note>
   <note color="#000000" default-x="86">
    <pitch>
     <step>A</step>
     <octave>4</octave>
    </pitch>
    <duration>128</duration>
    <instrument id="P1-I1" />
    <voice>1</voice>
    <type>eighth</type>
    <stem>up</stem>
    <staff>1</staff>
    <lyric default-y="-98" number="1" color="#000000">
     <syllabic>single</syllabic>
     <text>me</text>
    </lyric>
   </note>
   <note color="#000000" default-x="130">
    <pitch>
     <step>G</step>
     <octave>4</octave>
    </pitch>
    <duration>128</duration>
    <instrument id="P1-I1" />
    <voice>1</voice>
    <type>eighth</type>
    <stem>up</stem>
    <staff>1</staff>
    <beam number="1">begin</beam>
    <lyric default-y="-98" number="1" color="#000000">
     <syllabic>single</syllabic>
     <text>now,</text>
    </lyric>
   </note>
   <note color="#000000" default-x="174">
    <pitch>
     <step>E</step>
     <octave>4</octave>
    </pitch>
    <duration>128</duration>
    <instrument id="P1-I1" />
    <voice>1</voice>
    <type>eighth</type>
    <stem>up</stem>
    <staff>1</staff>
    <beam number="1">end</beam>
    <lyric default-y="-98" number="1" color="#000000">
     <syllabic>single</syllabic>
     <text>my</text>
    </lyric>
   </note>
  </measure>
  <measure number="17" width="174">
   <note color="#000000" default-x="15">
    <pitch>
     <step>D</step>
     <octave>4</octave>
    </pitch>
    <duration>256</duration>
    <instrument id="P1-I1" />
    <voice>1</voice>
    <type>quarter</type>
    <stem>up</stem>
    <staff>1</staff>
    <lyric default-y="-98" number="1" color="#000000">
     <syllabic>begin</syllabic>
     <text>Sa</text>
    </lyric>
   </note>
   <note color="#000000" default-x="68">
    <pitch>
     <step>G</step>
     <octave>4</octave>
    </pitch>
    <duration>256</duration>
    <instrument id="P1-I1" />
    <voice>1</voice>
    <type>quarter</type>
    <stem>up</stem>
    <staff>1</staff>
    <lyric default-y="-98" number="1" color="#000000">
     <syllabic>end</syllabic>
     <text>vior,</text>
    </lyric>
   </note>
   <note color="#000000" default-x="121">
    <pitch>
     <step>A</step>
     <octave>4</octave>
    </pitch>
    <duration>256</duration>
    <instrument id="P1-I1" />
    <voice>1</voice>
    <type>quarter</type>
    <stem>up</stem>
    <staff>1</staff>
    <lyric default-y="-98" number="1" color="#000000">
     <syllabic>single</syllabic>
     <text>I</text>
    </lyric>
   </note>
  </measure>
  <measure number="18" width="149">
   <note color="#000000" default-x="15">
    <pitch>
     <step>B</step>
     <octave>4</octave>
    </pitch>
    <duration>384</duration>
    <instrument id="P1-I1" />
    <voice>1</voice>
    <type>quarter</type>
    <dot />
    <stem>up</stem>
    <staff>1</staff>
    <notations>
     <slur color="#000000" type="start" orientation="under" />
    </notations>
    <lyric default-y="-98" number="1" color="#000000">
     <syllabic>single</syllabic>
     <text>come</text>
     <extend />
    </lyric>
   </note>
   <note color="#000000" default-x="57">
    <pitch>
     <step>G</step>
     <octave>4</octave>
    </pitch>
    <duration>128</duration>
    <instrument id="P1-I1" />
    <voice>1</voice>
    <type>eighth</type>
    <stem>up</stem>
    <staff>1</staff>
    <notations>
     <slur color="#000000" type="stop" orientation="under" />
    </notations>
   </note>
   <note color="#000000" default-x="95">
    <pitch>
     <step>A</step>
     <octave>4</octave>
    </pitch>
    <duration>256</duration>
    <instrument id="P1-I1" />
    <voice>1</voice>
    <type>quarter</type>
    <stem>up</stem>
    <staff>1</staff>
    <lyric default-y="-98" number="1" color="#000000">
     <syllabic>single</syllabic>
     <text>to</text>
    </lyric>
   </note>
  </measure>
  <measure number="19" width="71">
   <note color="#000000" default-x="15">
    <pitch>
     <step>G</step>
     <octave>4</octave>
    </pitch>
    <duration>512</duration>
    <instrument id="P1-I1" />
    <voice>1</voice>
    <type>half</type>
    <stem>up</stem>
    <staff>1</staff>
    <lyric default-y="-98" number="1" color="#000000">
     <syllabic>single</syllabic>
     <text>thee.</text>
    </lyric>
   </note>
   <barline>
    <bar-style>light-heavy</bar-style>
   </barline>
  </measure>
 </part>
</score-partwise>
