<?xml version='1.0' encoding='US-ASCII' standalone='no'?>
<!DOCTYPE score-partwise PUBLIC '-//Recordare//DTD MusicXML 1.0 Partwise//EN' 'http://www.musicxml.org/dtds/partwise.dtd'>
<score-partwise>
	<movement-title>Go Ye into All the World</movement-title>
	<identification>
		<creator type='composer'>James McGranahan, 1886</creator>
		<creator type='lyricist'>J. M., 1886</creator>
		<rights>PUBLIC DOMAIN</rights>
		<encoding>
			<software>Sibelius</software>
			<software>Dolet for Sibelius 1.1</software>
		</encoding>
	</identification>
	<part-list>
		<score-part id='P1'>
			<part-name>Treble</part-name>
		</score-part>
		<score-part id='P2'>
			<part-name>Bass</part-name>
		</score-part>
	</part-list>
	<part id='P1'>
		<measure number='1'>
			<attributes>
				<divisions>768</divisions>
				<key>
					<fifths>3</fifths>
					<mode>major</mode>
				</key>
				<time>
					<beats>4</beats>
					<beat-type>4</beat-type>
				</time>
				<clef>
					<sign>G</sign>
					<line>2</line>
				</clef>
			</attributes>
			<direction placement='above'>
				<direction-type>
					<metronome>
						<beat-unit>quarter</beat-unit>
						<per-minute>100</per-minute>
					</metronome>
				</direction-type>
				<sound tempo='100'/>
			</direction>
			<note>
				<pitch>
					<step>E</step>
					<octave>4</octave>
				</pitch>
				<duration>768</duration>
				<voice>1</voice>
				<type>quarter</type>
				<lyric number='1'>
					<syllabic>end</syllabic>
					<text>1. Far,</text>
				</lyric>
				<lyric number='2'>
					<syllabic>end</syllabic>
					<text>2. See</text>
				</lyric>
				<lyric number='3'>
					<syllabic>end</syllabic>
					<text>3. &#8220;Why</text>
				</lyric>
			</note>
			<note>
				<chord/>
				<pitch>
					<step>C</step>
					<alter>1</alter>
					<octave>5</octave>
				</pitch>
				<duration>768</duration>
				<voice>1</voice>
				<type>quarter</type>
			</note>
			<note>
				<pitch>
					<step>F</step>
					<alter>1</alter>
					<octave>4</octave>
				</pitch>
				<duration>576</duration>
				<voice>1</voice>
				<type>eighth</type>
				<dot/>
				<beam number='1'>begin</beam>
				<lyric number='1'>
					<syllabic>end</syllabic>
					<text>far</text>
				</lyric>
				<lyric number='2'>
					<syllabic>end</syllabic>
					<text>o&#8217;er</text>
				</lyric>
				<lyric number='3'>
					<syllabic>end</syllabic>
					<text>will</text>
				</lyric>
			</note>
			<note>
				<chord/>
				<pitch>
					<step>A</step>
					<octave>4</octave>
				</pitch>
				<duration>576</duration>
				<voice>1</voice>
				<type>eighth</type>
				<dot/>
			</note>
			<note>
				<pitch>
					<step>D</step>
					<octave>4</octave>
				</pitch>
				<duration>192</duration>
				<voice>1</voice>
				<type>16th</type>
				<beam number='1'>continue</beam>
				<beam number='2'>continue</beam>
				<lyric number='1'>
					<syllabic>middle</syllabic>
					<text>a</text>
				</lyric>
				<lyric number='2'>
					<syllabic>end</syllabic>
					<text>the</text>
				</lyric>
				<lyric number='3'>
					<syllabic>end</syllabic>
					<text>you</text>
				</lyric>
			</note>
			<note>
				<chord/>
				<pitch>
					<step>F</step>
					<alter>1</alter>
					<octave>4</octave>
				</pitch>
				<duration>192</duration>
				<voice>1</voice>
				<type>16th</type>
			</note>
			<note>
				<pitch>
					<step>C</step>
					<alter>1</alter>
					<octave>4</octave>
				</pitch>
				<duration>1152</duration>
				<voice>1</voice>
				<type>quarter</type>
				<dot/>
				<lyric number='1'>
					<syllabic>end</syllabic>
					<text>way,</text>
				</lyric>
				<lyric number='2'>
					<syllabic>end</syllabic>
					<text>world</text>
				</lyric>
				<lyric number='3'>
					<syllabic>end</syllabic>
					<text>die?&#8221;</text>
				</lyric>
			</note>
			<note>
				<chord/>
				<pitch>
					<step>E</step>
					<octave>4</octave>
				</pitch>
				<duration>1152</duration>
				<voice>1</voice>
				<type>quarter</type>
				<dot/>
			</note>
			<note>
				<pitch>
					<step>A</step>
					<octave>3</octave>
				</pitch>
				<duration>384</duration>
				<voice>1</voice>
				<type>eighth</type>
				<beam number='1'>continue</beam>
				<lyric number='1'>
					<syllabic>end</syllabic>
					<text>in</text>
				</lyric>
				<lyric number='2'>
					<syllabic>end</syllabic>
					<text>wide</text>
				</lyric>
				<lyric number='3'>
					<syllabic>end</syllabic>
					<text>the</text>
				</lyric>
			</note>
			<note>
				<chord/>
				<pitch>
					<step>C</step>
					<alter>1</alter>
					<octave>4</octave>
				</pitch>
				<duration>384</duration>
				<voice>1</voice>
				<type>eighth</type>
			</note>
		</measure>
		<measure number='2'>
			<note>
				<pitch>
					<step>E</step>
					<octave>4</octave>
				</pitch>
				<duration>384</duration>
				<voice>1</voice>
				<type>eighth</type>
				<beam number='1'>begin</beam>
				<lyric number='1'>
					<syllabic>middle</syllabic>
					<text>*hea</text>
				</lyric>
				<lyric number='2'>
					<syllabic>middle</syllabic>
					<text>o</text>
				</lyric>
				<lyric number='3'>
					<syllabic>end</syllabic>
					<text>voice</text>
				</lyric>
				<lyric number='4'>
					<syllabic>end</syllabic>
					<text>(*death</text>
				</lyric>
			</note>
			<backup>
				<duration>384</duration>
			</backup>
			<note>
				<pitch>
					<step>E</step>
					<octave>4</octave>
				</pitch>
				<duration>384</duration>
				<voice>2</voice>
				<type>eighth</type>
				<beam number='1'>begin</beam>
			</note>
			<note>
				<pitch>
					<step>F</step>
					<alter>1</alter>
					<octave>4</octave>
				</pitch>
				<duration>384</duration>
				<voice>1</voice>
				<type>eighth</type>
				<beam number='1'>continue</beam>
				<lyric number='1'>
					<syllabic>end</syllabic>
					<text>then</text>
				</lyric>
				<lyric number='2'>
					<syllabic>end</syllabic>
					<text>pen</text>
				</lyric>
				<lyric number='3'>
					<syllabic>end</syllabic>
					<text>of</text>
				</lyric>
				<lyric number='4'>
					<syllabic>end</syllabic>
					<text>and)</text>
				</lyric>
			</note>
			<backup>
				<duration>384</duration>
			</backup>
			<note>
				<pitch>
					<step>F</step>
					<alter>1</alter>
					<octave>4</octave>
				</pitch>
				<duration>384</duration>
				<voice>2</voice>
				<type>eighth</type>
				<beam number='1'>continue</beam>
			</note>
			<note>
				<pitch>
					<step>G</step>
					<alter>1</alter>
					<octave>4</octave>
				</pitch>
				<duration>384</duration>
				<voice>1</voice>
				<type>eighth</type>
				<beam number='1'>begin</beam>
				<lyric number='1'>
					<syllabic>middle</syllabic>
					<text>dark</text>
				</lyric>
				<lyric number='2'>
					<syllabic>end</syllabic>
					<text>doors</text>
				</lyric>
				<lyric number='3'>
					<syllabic>end</syllabic>
					<text>God</text>
				</lyric>
			</note>
			<backup>
				<duration>384</duration>
			</backup>
			<note>
				<pitch>
					<step>G</step>
					<alter>1</alter>
					<octave>4</octave>
				</pitch>
				<duration>384</duration>
				<voice>2</voice>
				<type>eighth</type>
				<beam number='1'>begin</beam>
			</note>
			<note>
				<pitch>
					<step>A</step>
					<octave>4</octave>
				</pitch>
				<duration>384</duration>
				<voice>1</voice>
				<type>eighth</type>
				<beam number='1'>continue</beam>
				<lyric number='1'>
					<syllabic>end</syllabic>
					<text>ness</text>
				</lyric>
				<lyric number='2'>
					<syllabic>middle</syllabic>
					<text>in</text>
				</lyric>
				<lyric number='3'>
					<syllabic>end</syllabic>
					<text>is</text>
				</lyric>
			</note>
			<backup>
				<duration>384</duration>
			</backup>
			<note>
				<pitch>
					<step>A</step>
					<octave>4</octave>
				</pitch>
				<duration>384</duration>
				<voice>2</voice>
				<type>eighth</type>
				<beam number='1'>continue</beam>
			</note>
			<note>
				<pitch>
					<step>E</step>
					<octave>4</octave>
				</pitch>
				<duration>768</duration>
				<voice>1</voice>
				<type>quarter</type>
				<lyric number='1'>
					<syllabic>middle</syllabic>
					<text>dwell</text>
				</lyric>
				<lyric number='2'>
					<syllabic>middle</syllabic>
					<text>vit</text>
				</lyric>
				<lyric number='3'>
					<syllabic>middle</syllabic>
					<text>call</text>
				</lyric>
			</note>
			<note>
				<chord/>
				<pitch>
					<step>C</step>
					<alter>1</alter>
					<octave>5</octave>
				</pitch>
				<duration>768</duration>
				<voice>1</voice>
				<type>quarter</type>
			</note>
			<backup>
				<duration>768</duration>
			</backup>
			<note>
				<rest/>
				<duration>1536</duration>
				<voice>2</voice>
				<type>half</type>
			</note>
			<backup>
				<duration>768</duration>
			</backup>
			<note>
				<pitch>
					<step>E</step>
					<octave>4</octave>
				</pitch>
				<duration>768</duration>
				<voice>1</voice>
				<type>quarter</type>
				<lyric number='1'>
					<syllabic>end</syllabic>
					<text>ing,</text>
				</lyric>
				<lyric number='2'>
					<syllabic>end</syllabic>
					<text>ing,</text>
				</lyric>
				<lyric number='3'>
					<syllabic>end</syllabic>
					<text>ing;</text>
				</lyric>
			</note>
			<note>
				<chord/>
				<pitch>
					<step>B</step>
					<octave>4</octave>
				</pitch>
				<duration>768</duration>
				<voice>1</voice>
				<type>quarter</type>
			</note>
		</measure>
		<measure number='3'>
			<note>
				<pitch>
					<step>E</step>
					<octave>4</octave>
				</pitch>
				<duration>768</duration>
				<voice>1</voice>
				<type>quarter</type>
				<lyric number='1'>
					<syllabic>middle</syllabic>
					<text>Mil</text>
				</lyric>
				<lyric number='2'>
					<syllabic>middle</syllabic>
					<text>Sol</text>
				</lyric>
				<lyric number='3'>
					<syllabic>end</syllabic>
					<text>&#8220;Why</text>
				</lyric>
			</note>
			<note>
				<chord/>
				<pitch>
					<step>B</step>
					<octave>4</octave>
				</pitch>
				<duration>768</duration>
				<voice>1</voice>
				<type>quarter</type>
			</note>
			<note>
				<pitch>
					<step>E</step>
					<octave>4</octave>
				</pitch>
				<duration>576</duration>
				<voice>1</voice>
				<type>eighth</type>
				<dot/>
				<beam number='1'>begin</beam>
				<lyric number='1'>
					<syllabic>end</syllabic>
					<text>lions</text>
				</lyric>
				<lyric number='2'>
					<syllabic>end</syllabic>
					<text>diers</text>
				</lyric>
				<lyric number='3'>
					<syllabic>end</syllabic>
					<text>will</text>
				</lyric>
			</note>
			<note>
				<chord/>
				<pitch>
					<step>B</step>
					<octave>4</octave>
				</pitch>
				<duration>576</duration>
				<voice>1</voice>
				<type>eighth</type>
				<dot/>
			</note>
			<note>
				<pitch>
					<step>E</step>
					<octave>4</octave>
				</pitch>
				<duration>192</duration>
				<voice>1</voice>
				<type>16th</type>
				<beam number='1'>continue</beam>
				<beam number='2'>continue</beam>
				<lyric number='1'>
					<syllabic>end</syllabic>
					<text>of</text>
				</lyric>
				<lyric number='2'>
					<syllabic>end</syllabic>
					<text>of</text>
				</lyric>
				<lyric number='3'>
					<syllabic>end</syllabic>
					<text>you</text>
				</lyric>
			</note>
			<note>
				<chord/>
				<pitch>
					<step>A</step>
					<alter>1</alter>
					<octave>4</octave>
				</pitch>
				<duration>192</duration>
				<voice>1</voice>
				<type>16th</type>
			</note>
			<note>
				<pitch>
					<step>E</step>
					<octave>4</octave>
				</pitch>
				<duration>1152</duration>
				<voice>1</voice>
				<type>quarter</type>
				<dot/>
				<lyric number='1'>
					<syllabic>end</syllabic>
					<text>souls</text>
				</lyric>
				<lyric number='2'>
					<syllabic>end</syllabic>
					<text>Christ,</text>
				</lyric>
				<lyric number='3'>
					<syllabic>end</syllabic>
					<text>die?&#8221;</text>
				</lyric>
			</note>
			<note>
				<chord/>
				<pitch>
					<step>B</step>
					<octave>4</octave>
				</pitch>
				<duration>1152</duration>
				<voice>1</voice>
				<type>quarter</type>
				<dot/>
			</note>
			<note>
				<pitch>
					<step>E</step>
					<octave>4</octave>
				</pitch>
				<duration>384</duration>
				<voice>1</voice>
				<type>eighth</type>
				<beam number='1'>continue</beam>
				<lyric number='1'>
					<syllabic>middle</syllabic>
					<text>for</text>
				</lyric>
				<lyric number='2'>
					<syllabic>middle</syllabic>
					<text>a</text>
				</lyric>
				<lyric number='3'>
					<syllabic>middle</syllabic>
					<text>re</text>
				</lyric>
			</note>
			<note>
				<chord/>
				<pitch>
					<step>B</step>
					<octave>4</octave>
				</pitch>
				<duration>384</duration>
				<voice>1</voice>
				<type>eighth</type>
			</note>
		</measure>
		<measure number='4'>
			<note>
				<pitch>
					<step>E</step>
					<octave>4</octave>
				</pitch>
				<duration>384</duration>
				<voice>1</voice>
				<type>eighth</type>
				<beam number='1'>begin</beam>
				<lyric number='1'>
					<syllabic>middle</syllabic>
					<text>ev</text>
				</lyric>
				<lyric number='2'>
					<syllabic>end</syllabic>
					<text>rise</text>
				</lyric>
				<lyric number='3'>
					<syllabic>middle</syllabic>
					<text>e</text>
				</lyric>
			</note>
			<note>
				<chord/>
				<pitch>
					<step>C</step>
					<alter>1</alter>
					<octave>5</octave>
				</pitch>
				<duration>384</duration>
				<voice>1</voice>
				<type>eighth</type>
			</note>
			<backup>
				<duration>384</duration>
			</backup>
			<note>
				<rest/>
				<duration>1536</duration>
				<voice>2</voice>
				<type>half</type>
			</note>
			<backup>
				<duration>1152</duration>
			</backup>
			<note>
				<pitch>
					<step>E</step>
					<octave>4</octave>
				</pitch>
				<duration>384</duration>
				<voice>1</voice>
				<type>eighth</type>
				<beam number='1'>continue</beam>
				<lyric number='1'>
					<syllabic>end</syllabic>
					<text>er</text>
				</lyric>
				<lyric number='2'>
					<syllabic>end</syllabic>
					<text>and</text>
				</lyric>
				<lyric number='3'>
					<syllabic>end</syllabic>
					<text>cho</text>
				</lyric>
			</note>
			<note>
				<chord/>
				<pitch>
					<step>A</step>
					<octave>4</octave>
				</pitch>
				<duration>384</duration>
				<voice>1</voice>
				<type>eighth</type>
			</note>
			<note>
				<pitch>
					<step>D</step>
					<alter>1</alter>
					<octave>4</octave>
				</pitch>
				<duration>576</duration>
				<voice>1</voice>
				<type>eighth</type>
				<dot/>
				<beam number='1'>begin</beam>
				<lyric number='1'>
					<syllabic>end</syllabic>
					<text>may</text>
				</lyric>
				<lyric number='2'>
					<syllabic>middle</syllabic>
					<text>en</text>
				</lyric>
				<lyric number='3'>
					<syllabic>end</syllabic>
					<text>in</text>
				</lyric>
			</note>
			<note>
				<chord/>
				<pitch>
					<step>A</step>
					<octave>4</octave>
				</pitch>
				<duration>576</duration>
				<voice>1</voice>
				<type>eighth</type>
				<dot/>
			</note>
			<note>
				<pitch>
					<step>D</step>
					<alter>1</alter>
					<octave>4</octave>
				</pitch>
				<duration>192</duration>
				<voice>1</voice>
				<type>16th</type>
				<beam number='1'>continue</beam>
				<beam number='2'>continue</beam>
				<lyric number='1'>
					<syllabic>end</syllabic>
					<text>be</text>
				</lyric>
				<lyric number='2'>
					<syllabic>end</syllabic>
					<text>ter</text>
				</lyric>
				<lyric number='3'>
					<syllabic>end</syllabic>
					<text>His</text>
				</lyric>
			</note>
			<note>
				<chord/>
				<pitch>
					<step>F</step>
					<alter>1</alter>
					<octave>4</octave>
				</pitch>
				<duration>192</duration>
				<voice>1</voice>
				<type>16th</type>
			</note>
			<note>
				<pitch>
					<step>E</step>
					<octave>4</octave>
				</pitch>
				<duration>1536</duration>
				<voice>1</voice>
				<type>half</type>
				<lyric number='1'>
					<syllabic>end</syllabic>
					<text>lost;</text>
				</lyric>
				<lyric number='2'>
					<syllabic>end</syllabic>
					<text>in!</text>
				</lyric>
				<lyric number='3'>
					<syllabic>end</syllabic>
					<text>Name;</text>
				</lyric>
			</note>
			<backup>
				<duration>1536</duration>
			</backup>
			<note>
				<pitch>
					<step>E</step>
					<octave>4</octave>
				</pitch>
				<duration>1536</duration>
				<voice>2</voice>
				<type>half</type>
			</note>
		</measure>
		<measure number='5'>
			<note>
				<pitch>
					<step>E</step>
					<octave>4</octave>
				</pitch>
				<duration>768</duration>
				<voice>1</voice>
				<type>quarter</type>
				<lyric number='1'>
					<syllabic>end</syllabic>
					<text>Who,</text>
				</lyric>
				<lyric number='2'>
					<syllabic>middle</syllabic>
					<text>Chris</text>
				</lyric>
				<lyric number='3'>
					<syllabic>middle</syllabic>
					<text>Je</text>
				</lyric>
			</note>
			<note>
				<chord/>
				<pitch>
					<step>C</step>
					<alter>1</alter>
					<octave>5</octave>
				</pitch>
				<duration>768</duration>
				<voice>1</voice>
				<type>quarter</type>
			</note>
			<note>
				<pitch>
					<step>F</step>
					<alter>1</alter>
					<octave>4</octave>
				</pitch>
				<duration>576</duration>
				<voice>1</voice>
				<type>eighth</type>
				<dot/>
				<beam number='1'>begin</beam>
				<lyric number='1'>
					<syllabic>end</syllabic>
					<text>who</text>
				</lyric>
				<lyric number='2'>
					<syllabic>end</syllabic>
					<text>tians,</text>
				</lyric>
				<lyric number='3'>
					<syllabic>end</syllabic>
					<text>sus</text>
				</lyric>
			</note>
			<note>
				<chord/>
				<pitch>
					<step>A</step>
					<octave>4</octave>
				</pitch>
				<duration>576</duration>
				<voice>1</voice>
				<type>eighth</type>
				<dot/>
			</note>
			<note>
				<pitch>
					<step>D</step>
					<octave>4</octave>
				</pitch>
				<duration>192</duration>
				<voice>1</voice>
				<type>16th</type>
				<beam number='1'>continue</beam>
				<beam number='2'>continue</beam>
				<lyric number='1'>
					<syllabic>end</syllabic>
					<text>will</text>
				</lyric>
				<lyric number='2'>
					<syllabic>middle</syllabic>
					<text>a</text>
				</lyric>
				<lyric number='3'>
					<syllabic>end</syllabic>
					<text>has</text>
				</lyric>
			</note>
			<note>
				<chord/>
				<pitch>
					<step>F</step>
					<alter>1</alter>
					<octave>4</octave>
				</pitch>
				<duration>192</duration>
				<voice>1</voice>
				<type>16th</type>
			</note>
			<note>
				<pitch>
					<step>C</step>
					<alter>1</alter>
					<octave>4</octave>
				</pitch>
				<duration>1152</duration>
				<voice>1</voice>
				<type>quarter</type>
				<dot/>
				<lyric number='1'>
					<syllabic>end</syllabic>
					<text>go,</text>
				</lyric>
				<lyric number='2'>
					<syllabic>end</syllabic>
					<text>wake!</text>
				</lyric>
				<lyric number='3'>
					<syllabic>end</syllabic>
					<text>died</text>
				</lyric>
			</note>
			<note>
				<chord/>
				<pitch>
					<step>E</step>
					<octave>4</octave>
				</pitch>
				<duration>1152</duration>
				<voice>1</voice>
				<type>quarter</type>
				<dot/>
			</note>
			<note>
				<pitch>
					<step>A</step>
					<octave>3</octave>
				</pitch>
				<duration>384</duration>
				<voice>1</voice>
				<type>eighth</type>
				<beam number='1'>continue</beam>
				<lyric number='1'>
					<syllabic>middle</syllabic>
					<text>sal</text>
				</lyric>
				<lyric number='2'>
					<syllabic>end</syllabic>
					<text>your</text>
				</lyric>
				<lyric number='3'>
					<syllabic>end</syllabic>
					<text>to</text>
				</lyric>
			</note>
			<note>
				<chord/>
				<pitch>
					<step>C</step>
					<alter>1</alter>
					<octave>4</octave>
				</pitch>
				<duration>384</duration>
				<voice>1</voice>
				<type>eighth</type>
			</note>
		</measure>
		<measure number='6'>
			<note>
				<pitch>
					<step>E</step>
					<octave>4</octave>
				</pitch>
				<duration>384</duration>
				<voice>1</voice>
				<type>eighth</type>
				<beam number='1'>begin</beam>
				<lyric number='1'>
					<syllabic>middle</syllabic>
					<text>va</text>
				</lyric>
				<lyric number='2'>
					<syllabic>middle</syllabic>
					<text>for</text>
				</lyric>
				<lyric number='3'>
					<syllabic>end</syllabic>
					<text>save</text>
				</lyric>
			</note>
			<backup>
				<duration>384</duration>
			</backup>
			<note>
				<pitch>
					<step>E</step>
					<octave>4</octave>
				</pitch>
				<duration>384</duration>
				<voice>2</voice>
				<type>eighth</type>
				<beam number='1'>begin</beam>
			</note>
			<note>
				<pitch>
					<step>F</step>
					<alter>1</alter>
					<octave>4</octave>
				</pitch>
				<duration>384</duration>
				<voice>1</voice>
				<type>eighth</type>
				<beam number='1'>continue</beam>
				<lyric number='1'>
					<syllabic>end</syllabic>
					<text>tion&#8217;s</text>
				</lyric>
				<lyric number='2'>
					<syllabic>end</syllabic>
					<text>ces</text>
				</lyric>
				<lyric number='3'>
					<syllabic>end</syllabic>
					<text>from</text>
				</lyric>
			</note>
			<backup>
				<duration>384</duration>
			</backup>
			<note>
				<pitch>
					<step>F</step>
					<alter>1</alter>
					<octave>4</octave>
				</pitch>
				<duration>384</duration>
				<voice>2</voice>
				<type>eighth</type>
				<beam number='1'>continue</beam>
			</note>
			<note>
				<pitch>
					<step>G</step>
					<alter>1</alter>
					<octave>4</octave>
				</pitch>
				<duration>384</duration>
				<voice>1</voice>
				<type>eighth</type>
				<beam number='1'>begin</beam>
				<lyric number='1'>
					<syllabic>middle</syllabic>
					<text>sto</text>
				</lyric>
				<lyric number='2'>
					<syllabic>end</syllabic>
					<text>all</text>
				</lyric>
				<lyric number='3'>
					<syllabic>end</syllabic>
					<text>death</text>
				</lyric>
			</note>
			<backup>
				<duration>384</duration>
			</backup>
			<note>
				<pitch>
					<step>G</step>
					<alter>1</alter>
					<octave>4</octave>
				</pitch>
				<duration>384</duration>
				<voice>2</voice>
				<type>eighth</type>
				<beam number='1'>begin</beam>
			</note>
			<note>
				<pitch>
					<step>A</step>
					<octave>4</octave>
				</pitch>
				<duration>384</duration>
				<voice>1</voice>
				<type>eighth</type>
				<beam number='1'>continue</beam>
				<lyric number='1'>
					<syllabic>end</syllabic>
					<text>ry</text>
				</lyric>
				<lyric number='2'>
					<syllabic>middle</syllabic>
					<text>u</text>
				</lyric>
				<lyric number='3'>
					<syllabic>middle</syllabic>
					<text>ap</text>
				</lyric>
			</note>
			<backup>
				<duration>384</duration>
			</backup>
			<note>
				<pitch>
					<step>A</step>
					<octave>4</octave>
				</pitch>
				<duration>384</duration>
				<voice>2</voice>
				<type>eighth</type>
				<beam number='1'>continue</beam>
			</note>
			<note>
				<pitch>
					<step>A</step>
					<octave>4</octave>
				</pitch>
				<duration>768</duration>
				<voice>1</voice>
				<type>quarter</type>
				<lyric number='1'>
					<syllabic>middle</syllabic>
					<text>tell</text>
				</lyric>
				<lyric number='2'>
					<syllabic>middle</syllabic>
					<text>nit</text>
				</lyric>
				<lyric number='3'>
					<syllabic>middle</syllabic>
					<text>pall</text>
				</lyric>
			</note>
			<note>
				<chord/>
				<pitch>
					<step>C</step>
					<alter>1</alter>
					<octave>5</octave>
				</pitch>
				<duration>768</duration>
				<voice>1</voice>
				<type>quarter</type>
			</note>
			<backup>
				<duration>768</duration>
			</backup>
			<note>
				<rest/>
				<duration>1536</duration>
				<voice>2</voice>
				<type>half</type>
			</note>
			<backup>
				<duration>768</duration>
			</backup>
			<note>
				<pitch>
					<step>G</step>
					<alter>1</alter>
					<octave>4</octave>
				</pitch>
				<duration>768</duration>
				<voice>1</voice>
				<type>quarter</type>
				<lyric number='1'>
					<syllabic>end</syllabic>
					<text>ing,</text>
				</lyric>
				<lyric number='2'>
					<syllabic>end</syllabic>
					<text>ing,</text>
				</lyric>
				<lyric number='3'>
					<syllabic>end</syllabic>
					<text>ing,</text>
				</lyric>
			</note>
			<note>
				<chord/>
				<pitch>
					<step>B</step>
					<octave>4</octave>
				</pitch>
				<duration>768</duration>
				<voice>1</voice>
				<type>quarter</type>
			</note>
		</measure>
		<measure number='7'>
			<note>
				<pitch>
					<step>G</step>
					<alter>1</alter>
					<octave>4</octave>
				</pitch>
				<duration>768</duration>
				<voice>1</voice>
				<type>quarter</type>
				<lyric number='1'>
					<syllabic>middle</syllabic>
					<text>Look</text>
				</lyric>
				<lyric number='2'>
					<syllabic>end</syllabic>
					<text>Send</text>
				</lyric>
				<lyric number='3'>
					<syllabic>end</syllabic>
					<text>Life</text>
				</lyric>
			</note>
			<note>
				<chord/>
				<pitch>
					<step>D</step>
					<octave>5</octave>
				</pitch>
				<duration>768</duration>
				<voice>1</voice>
				<type>quarter</type>
			</note>
			<note>
				<pitch>
					<step>G</step>
					<alter>1</alter>
					<octave>4</octave>
				</pitch>
				<duration>576</duration>
				<voice>1</voice>
				<type>eighth</type>
				<dot/>
				<beam number='1'>begin</beam>
				<lyric number='1'>
					<syllabic>end</syllabic>
					<text>ing</text>
				</lyric>
				<lyric number='2'>
					<syllabic>end</syllabic>
					<text>forth</text>
				</lyric>
				<lyric number='3'>
					<syllabic>end</syllabic>
					<text>and</text>
				</lyric>
			</note>
			<note>
				<chord/>
				<pitch>
					<step>C</step>
					<alter>1</alter>
					<octave>5</octave>
				</pitch>
				<duration>576</duration>
				<voice>1</voice>
				<type>eighth</type>
				<dot/>
			</note>
			<note>
				<pitch>
					<step>G</step>
					<alter>1</alter>
					<octave>4</octave>
				</pitch>
				<duration>192</duration>
				<voice>1</voice>
				<type>16th</type>
				<beam number='1'>continue</beam>
				<beam number='2'>continue</beam>
				<lyric number='1'>
					<syllabic>end</syllabic>
					<text>to</text>
				</lyric>
				<lyric number='2'>
					<syllabic>end</syllabic>
					<text>the</text>
				</lyric>
				<lyric number='3'>
					<syllabic>middle</syllabic>
					<text>sal</text>
				</lyric>
			</note>
			<note>
				<chord/>
				<pitch>
					<step>B</step>
					<octave>4</octave>
				</pitch>
				<duration>192</duration>
				<voice>1</voice>
				<type>16th</type>
			</note>
			<note>
				<pitch>
					<step>A</step>
					<octave>4</octave>
				</pitch>
				<duration>384</duration>
				<voice>1</voice>
				<type>eighth</type>
				<beam number='1'>begin</beam>
				<lyric number='1'>
					<syllabic>middle</syllabic>
					<text>Je</text>
				</lyric>
				<lyric number='2'>
					<syllabic>middle</syllabic>
					<text>Gos</text>
				</lyric>
				<lyric number='3'>
					<syllabic>middle</syllabic>
					<text>va</text>
				</lyric>
			</note>
			<note>
				<chord/>
				<pitch>
					<step>C</step>
					<alter>1</alter>
					<octave>5</octave>
				</pitch>
				<duration>384</duration>
				<voice>1</voice>
				<type>eighth</type>
			</note>
			<note>
				<pitch>
					<step>E</step>
					<octave>4</octave>
				</pitch>
				<duration>384</duration>
				<voice>1</voice>
				<type>eighth</type>
				<beam number='1'>continue</beam>
				<lyric number='1'>
					<syllabic>end</syllabic>
					<text>sus,</text>
				</lyric>
				<lyric number='2'>
					<syllabic>end</syllabic>
					<text>pel,</text>
				</lyric>
				<lyric number='3'>
					<syllabic>end</syllabic>
					<text>tion,</text>
				</lyric>
			</note>
			<note>
				<chord/>
				<pitch>
					<step>A</step>
					<octave>4</octave>
				</pitch>
				<duration>384</duration>
				<voice>1</voice>
				<type>eighth</type>
			</note>
			<note>
				<pitch>
					<step>F</step>
					<alter>1</alter>
					<octave>4</octave>
				</pitch>
				<duration>384</duration>
				<voice>1</voice>
				<type>eighth</type>
				<beam number='1'>begin</beam>
				<lyric number='1'>
					<syllabic>middle</syllabic>
					<text>heed</text>
				</lyric>
				<lyric number='2'>
					<syllabic>end</syllabic>
					<text>break</text>
				</lyric>
				<lyric number='3'>
					<syllabic>middle</syllabic>
					<text>there</text>
				</lyric>
			</note>
			<note>
				<chord/>
				<pitch>
					<step>A</step>
					<octave>4</octave>
				</pitch>
				<duration>384</duration>
				<voice>1</voice>
				<type>eighth</type>
			</note>
			<note>
				<pitch>
					<step>D</step>
					<octave>4</octave>
				</pitch>
				<duration>384</duration>
				<voice>1</voice>
				<type>eighth</type>
				<beam number='1'>continue</beam>
				<lyric number='1'>
					<syllabic>end</syllabic>
					<text>ing</text>
				</lyric>
				<lyric number='2'>
					<syllabic>end</syllabic>
					<text>the</text>
				</lyric>
				<lyric number='3'>
					<syllabic>end</syllabic>
					<text>fore,</text>
				</lyric>
			</note>
			<note>
				<chord/>
				<pitch>
					<step>F</step>
					<alter>1</alter>
					<octave>4</octave>
				</pitch>
				<duration>384</duration>
				<voice>1</voice>
				<type>eighth</type>
			</note>
		</measure>
		<measure number='8'>
			<note>
				<pitch>
					<step>C</step>
					<alter>1</alter>
					<octave>4</octave>
				</pitch>
				<duration>768</duration>
				<voice>1</voice>
				<type>quarter</type>
				<lyric number='1'>
					<syllabic>end</syllabic>
					<text>not</text>
				</lyric>
				<lyric number='2'>
					<syllabic>end</syllabic>
					<text>chains</text>
				</lyric>
				<lyric number='3'>
					<syllabic>end</syllabic>
					<text>go</text>
				</lyric>
			</note>
			<note>
				<chord/>
				<pitch>
					<step>E</step>
					<octave>4</octave>
				</pitch>
				<duration>768</duration>
				<voice>1</voice>
				<type>quarter</type>
			</note>
			<note>
				<pitch>
					<step>D</step>
					<octave>4</octave>
				</pitch>
				<duration>768</duration>
				<voice>1</voice>
				<type>quarter</type>
				<lyric number='1'>
					<syllabic>end</syllabic>
					<text>the</text>
				</lyric>
				<lyric number='2'>
					<syllabic>end</syllabic>
					<text>of</text>
				</lyric>
				<lyric number='3'>
					<syllabic>middle</syllabic>
					<text>pro</text>
				</lyric>
			</note>
			<note>
				<chord/>
				<pitch>
					<step>G</step>
					<alter>1</alter>
					<octave>4</octave>
				</pitch>
				<duration>768</duration>
				<voice>1</voice>
				<type>quarter</type>
			</note>
			<note>
				<pitch>
					<step>C</step>
					<alter>1</alter>
					<octave>4</octave>
				</pitch>
				<duration>1536</duration>
				<voice>1</voice>
				<type>half</type>
				<lyric number='1'>
					<syllabic>end</syllabic>
					<text>cost?</text>
				</lyric>
				<lyric number='2'>
					<syllabic>end</syllabic>
					<text>sin.</text>
				</lyric>
				<lyric number='3'>
					<syllabic>end</syllabic>
					<text>claim.</text>
				</lyric>
			</note>
			<note>
				<chord/>
				<pitch>
					<step>A</step>
					<octave>4</octave>
				</pitch>
				<duration>1536</duration>
				<voice>1</voice>
				<type>half</type>
			</note>
			<barline location='right'>
				<bar-style>light-light</bar-style>
			</barline>
		</measure>
		<measure number='9'>
			<direction>
				<direction-type>
					<words default-y='25' relative-x='-79'>Refrain</words>
				</direction-type>
			</direction>
			<note>
				<pitch>
					<step>C</step>
					<alter>1</alter>
					<octave>4</octave>
				</pitch>
				<duration>1536</duration>
				<voice>1</voice>
				<type>half</type>
				<lyric number='1'>
					<syllabic>end</syllabic>
					<text>&#8220;All</text>
				</lyric>
			</note>
			<note>
				<chord/>
				<pitch>
					<step>E</step>
					<octave>4</octave>
				</pitch>
				<duration>1536</duration>
				<voice>1</voice>
				<type>half</type>
			</note>
			<note>
				<pitch>
					<step>C</step>
					<alter>1</alter>
					<octave>4</octave>
				</pitch>
				<duration>768</duration>
				<voice>1</voice>
				<type>quarter</type>
				<lyric number='1'>
					<syllabic>end</syllabic>
					<text>pow&#8217;r</text>
				</lyric>
			</note>
			<note>
				<chord/>
				<pitch>
					<step>A</step>
					<octave>4</octave>
				</pitch>
				<duration>768</duration>
				<voice>1</voice>
				<type>quarter</type>
			</note>
			<note>
				<pitch>
					<step>E</step>
					<octave>4</octave>
				</pitch>
				<duration>768</duration>
				<voice>1</voice>
				<type>quarter</type>
				<lyric number='1'>
					<syllabic>end</syllabic>
					<text>is</text>
				</lyric>
			</note>
			<note>
				<chord/>
				<pitch>
					<step>G</step>
					<alter>1</alter>
					<octave>4</octave>
				</pitch>
				<duration>768</duration>
				<voice>1</voice>
				<type>quarter</type>
			</note>
		</measure>
		<measure number='10'>
			<note>
				<pitch>
					<step>E</step>
					<octave>4</octave>
				</pitch>
				<duration>576</duration>
				<voice>1</voice>
				<type>eighth</type>
				<dot/>
				<beam number='1'>begin</beam>
				<lyric number='1'>
					<syllabic>middle</syllabic>
					<text>giv</text>
				</lyric>
			</note>
			<note>
				<chord/>
				<pitch>
					<step>G</step>
					<alter>1</alter>
					<octave>4</octave>
				</pitch>
				<duration>576</duration>
				<voice>1</voice>
				<type>eighth</type>
				<dot/>
			</note>
			<note>
				<pitch>
					<step>D</step>
					<octave>4</octave>
				</pitch>
				<duration>192</duration>
				<voice>1</voice>
				<type>16th</type>
				<beam number='1'>continue</beam>
				<beam number='2'>continue</beam>
				<lyric number='1'>
					<syllabic>end</syllabic>
					<text>en</text>
				</lyric>
			</note>
			<note>
				<chord/>
				<pitch>
					<step>F</step>
					<alter>1</alter>
					<octave>4</octave>
				</pitch>
				<duration>192</duration>
				<voice>1</voice>
				<type>16th</type>
			</note>
			<note>
				<pitch>
					<step>D</step>
					<octave>4</octave>
				</pitch>
				<duration>576</duration>
				<voice>1</voice>
				<type>eighth</type>
				<dot/>
				<beam number='1'>begin</beam>
				<lyric number='1'>
					<syllabic>middle</syllabic>
					<text>un</text>
				</lyric>
			</note>
			<note>
				<chord/>
				<pitch>
					<step>F</step>
					<alter>1</alter>
					<octave>4</octave>
				</pitch>
				<duration>576</duration>
				<voice>1</voice>
				<type>eighth</type>
				<dot/>
			</note>
			<note>
				<pitch>
					<step>D</step>
					<octave>4</octave>
				</pitch>
				<duration>192</duration>
				<voice>1</voice>
				<type>16th</type>
				<beam number='1'>continue</beam>
				<beam number='2'>continue</beam>
				<lyric number='1'>
					<syllabic>end</syllabic>
					<text>to</text>
				</lyric>
			</note>
			<note>
				<chord/>
				<pitch>
					<step>F</step>
					<alter>1</alter>
					<octave>4</octave>
				</pitch>
				<duration>192</duration>
				<voice>1</voice>
				<type>16th</type>
			</note>
			<note>
				<pitch>
					<step>D</step>
					<octave>4</octave>
				</pitch>
				<duration>1536</duration>
				<voice>1</voice>
				<type>half</type>
				<lyric number='1'>
					<syllabic>end</syllabic>
					<text>Me,</text>
				</lyric>
			</note>
			<note>
				<chord/>
				<pitch>
					<step>F</step>
					<alter>1</alter>
					<octave>4</octave>
				</pitch>
				<duration>1536</duration>
				<voice>1</voice>
				<type>half</type>
			</note>
		</measure>
		<measure number='11'>
			<note>
				<pitch>
					<step>D</step>
					<alter>1</alter>
					<octave>4</octave>
				</pitch>
				<duration>1536</duration>
				<voice>1</voice>
				<type>half</type>
				<lyric number='1'>
					<syllabic>end</syllabic>
					<text>All</text>
				</lyric>
			</note>
			<note>
				<chord/>
				<pitch>
					<step>F</step>
					<alter>1</alter>
					<octave>4</octave>
				</pitch>
				<duration>1536</duration>
				<voice>1</voice>
				<type>half</type>
			</note>
			<note>
				<pitch>
					<step>D</step>
					<alter>1</alter>
					<octave>4</octave>
				</pitch>
				<duration>768</duration>
				<voice>1</voice>
				<type>quarter</type>
				<lyric number='1'>
					<syllabic>end</syllabic>
					<text>pow&#8217;r</text>
				</lyric>
			</note>
			<note>
				<chord/>
				<pitch>
					<step>B</step>
					<octave>4</octave>
				</pitch>
				<duration>768</duration>
				<voice>1</voice>
				<type>quarter</type>
			</note>
			<note>
				<pitch>
					<step>F</step>
					<alter>1</alter>
					<octave>4</octave>
				</pitch>
				<duration>768</duration>
				<voice>1</voice>
				<type>quarter</type>
				<lyric number='1'>
					<syllabic>end</syllabic>
					<text>is</text>
				</lyric>
			</note>
			<note>
				<chord/>
				<pitch>
					<step>A</step>
					<octave>4</octave>
				</pitch>
				<duration>768</duration>
				<voice>1</voice>
				<type>quarter</type>
			</note>
		</measure>
		<measure number='12'>
			<note>
				<pitch>
					<step>F</step>
					<alter>1</alter>
					<octave>4</octave>
				</pitch>
				<duration>576</duration>
				<voice>1</voice>
				<type>eighth</type>
				<dot/>
				<beam number='1'>begin</beam>
				<lyric number='1'>
					<syllabic>middle</syllabic>
					<text>giv</text>
				</lyric>
			</note>
			<note>
				<chord/>
				<pitch>
					<step>A</step>
					<octave>4</octave>
				</pitch>
				<duration>576</duration>
				<voice>1</voice>
				<type>eighth</type>
				<dot/>
			</note>
			<note>
				<pitch>
					<step>E</step>
					<octave>4</octave>
				</pitch>
				<duration>192</duration>
				<voice>1</voice>
				<type>16th</type>
				<beam number='1'>continue</beam>
				<beam number='2'>continue</beam>
				<lyric number='1'>
					<syllabic>end</syllabic>
					<text>en</text>
				</lyric>
			</note>
			<note>
				<chord/>
				<pitch>
					<step>G</step>
					<alter>1</alter>
					<octave>4</octave>
				</pitch>
				<duration>192</duration>
				<voice>1</voice>
				<type>16th</type>
			</note>
			<note>
				<pitch>
					<step>E</step>
					<octave>4</octave>
				</pitch>
				<duration>576</duration>
				<voice>1</voice>
				<type>eighth</type>
				<dot/>
				<beam number='1'>begin</beam>
				<lyric number='1'>
					<syllabic>middle</syllabic>
					<text>un</text>
				</lyric>
			</note>
			<note>
				<chord/>
				<pitch>
					<step>G</step>
					<alter>1</alter>
					<octave>4</octave>
				</pitch>
				<duration>576</duration>
				<voice>1</voice>
				<type>eighth</type>
				<dot/>
			</note>
			<note>
				<pitch>
					<step>E</step>
					<octave>4</octave>
				</pitch>
				<duration>192</duration>
				<voice>1</voice>
				<type>16th</type>
				<beam number='1'>continue</beam>
				<beam number='2'>continue</beam>
				<lyric number='1'>
					<syllabic>end</syllabic>
					<text>to</text>
				</lyric>
			</note>
			<note>
				<chord/>
				<pitch>
					<step>G</step>
					<alter>1</alter>
					<octave>4</octave>
				</pitch>
				<duration>192</duration>
				<voice>1</voice>
				<type>16th</type>
			</note>
			<note>
				<pitch>
					<step>E</step>
					<octave>4</octave>
				</pitch>
				<duration>1536</duration>
				<voice>1</voice>
				<type>half</type>
				<lyric number='1'>
					<syllabic>end</syllabic>
					<text>Me,</text>
				</lyric>
			</note>
			<note>
				<chord/>
				<pitch>
					<step>G</step>
					<alter>1</alter>
					<octave>4</octave>
				</pitch>
				<duration>1536</duration>
				<voice>1</voice>
				<type>half</type>
			</note>
		</measure>
		<measure number='13'>
			<note>
				<pitch>
					<step>E</step>
					<octave>4</octave>
				</pitch>
				<duration>384</duration>
				<voice>1</voice>
				<type>eighth</type>
				<beam number='1'>begin</beam>
				<lyric number='1'>
					<syllabic>end</syllabic>
					<text>Go</text>
				</lyric>
			</note>
			<backup>
				<duration>384</duration>
			</backup>
			<note>
				<pitch>
					<step>E</step>
					<octave>4</octave>
				</pitch>
				<duration>384</duration>
				<voice>2</voice>
				<type>eighth</type>
				<beam number='1'>begin</beam>
			</note>
			<note>
				<pitch>
					<step>E</step>
					<octave>4</octave>
				</pitch>
				<duration>384</duration>
				<voice>1</voice>
				<type>eighth</type>
				<beam number='1'>continue</beam>
				<lyric number='1'>
					<syllabic>end</syllabic>
					<text>ye</text>
				</lyric>
			</note>
			<backup>
				<duration>384</duration>
			</backup>
			<note>
				<pitch>
					<step>E</step>
					<octave>4</octave>
				</pitch>
				<duration>384</duration>
				<voice>2</voice>
				<type>eighth</type>
				<beam number='1'>continue</beam>
			</note>
			<note>
				<pitch>
					<step>F</step>
					<alter>1</alter>
					<octave>4</octave>
				</pitch>
				<duration>384</duration>
				<voice>1</voice>
				<type>eighth</type>
				<beam number='1'>begin</beam>
				<lyric number='1'>
					<syllabic>middle</syllabic>
					<text>in</text>
				</lyric>
			</note>
			<backup>
				<duration>384</duration>
			</backup>
			<note>
				<pitch>
					<step>F</step>
					<alter>1</alter>
					<octave>4</octave>
				</pitch>
				<duration>384</duration>
				<voice>2</voice>
				<type>eighth</type>
				<beam number='1'>begin</beam>
			</note>
			<note>
				<pitch>
					<step>G</step>
					<alter>1</alter>
					<octave>4</octave>
				</pitch>
				<duration>384</duration>
				<voice>1</voice>
				<type>eighth</type>
				<beam number='1'>continue</beam>
				<lyric number='1'>
					<syllabic>end</syllabic>
					<text>to</text>
				</lyric>
			</note>
			<backup>
				<duration>384</duration>
			</backup>
			<note>
				<pitch>
					<step>G</step>
					<alter>1</alter>
					<octave>4</octave>
				</pitch>
				<duration>384</duration>
				<voice>2</voice>
				<type>eighth</type>
				<beam number='1'>continue</beam>
			</note>
			<note>
				<pitch>
					<step>A</step>
					<octave>4</octave>
				</pitch>
				<duration>576</duration>
				<voice>1</voice>
				<type>eighth</type>
				<dot/>
				<beam number='1'>begin</beam>
				<lyric number='1'>
					<syllabic>end</syllabic>
					<text>all</text>
				</lyric>
			</note>
			<backup>
				<duration>576</duration>
			</backup>
			<note>
				<pitch>
					<step>A</step>
					<octave>4</octave>
				</pitch>
				<duration>576</duration>
				<voice>2</voice>
				<type>eighth</type>
				<dot/>
				<beam number='1'>begin</beam>
			</note>
			<note>
				<pitch>
					<step>A</step>
					<octave>4</octave>
				</pitch>
				<duration>192</duration>
				<voice>1</voice>
				<type>16th</type>
				<beam number='1'>continue</beam>
				<beam number='2'>continue</beam>
				<lyric number='1'>
					<syllabic>end</syllabic>
					<text>the</text>
				</lyric>
			</note>
			<backup>
				<duration>192</duration>
			</backup>
			<note>
				<pitch>
					<step>A</step>
					<octave>4</octave>
				</pitch>
				<duration>192</duration>
				<voice>2</voice>
				<type>16th</type>
				<beam number='1'>continue</beam>
				<beam number='2'>continue</beam>
			</note>
			<note>
				<pitch>
					<step>A</step>
					<octave>4</octave>
				</pitch>
				<duration>384</duration>
				<voice>1</voice>
				<type>eighth</type>
				<beam number='1'>begin</beam>
				<lyric number='1'>
					<syllabic>end</syllabic>
					<text>world</text>
				</lyric>
			</note>
			<backup>
				<duration>384</duration>
			</backup>
			<note>
				<pitch>
					<step>A</step>
					<octave>4</octave>
				</pitch>
				<duration>384</duration>
				<voice>2</voice>
				<type>eighth</type>
				<beam number='1'>begin</beam>
			</note>
			<note>
				<pitch>
					<step>A</step>
					<octave>4</octave>
				</pitch>
				<duration>384</duration>
				<voice>1</voice>
				<type>eighth</type>
				<beam number='1'>continue</beam>
				<lyric number='1'>
					<syllabic>end</syllabic>
					<text>and</text>
				</lyric>
			</note>
			<note>
				<chord/>
				<pitch>
					<step>C</step>
					<alter>1</alter>
					<octave>5</octave>
				</pitch>
				<duration>384</duration>
				<voice>1</voice>
				<type>eighth</type>
			</note>
			<backup>
				<duration>384</duration>
			</backup>
			<note>
				<rest/>
				<duration>384</duration>
				<voice>2</voice>
				<type>eighth</type>
			</note>
		</measure>
		<measure number='14'>
			<note>
				<pitch>
					<step>A</step>
					<octave>4</octave>
				</pitch>
				<duration>768</duration>
				<voice>1</voice>
				<type>quarter</type>
				<lyric number='1'>
					<syllabic>end</syllabic>
					<text>preach</text>
				</lyric>
			</note>
			<note>
				<chord/>
				<pitch>
					<step>C</step>
					<alter>1</alter>
					<octave>5</octave>
				</pitch>
				<duration>768</duration>
				<voice>1</voice>
				<type>quarter</type>
			</note>
			<note>
				<pitch>
					<step>G</step>
					<alter>1</alter>
					<octave>4</octave>
				</pitch>
				<duration>768</duration>
				<voice>1</voice>
				<type>quarter</type>
				<lyric number='1'>
					<syllabic>end</syllabic>
					<text>the</text>
				</lyric>
			</note>
			<note>
				<chord/>
				<pitch>
					<step>B</step>
					<octave>4</octave>
				</pitch>
				<duration>768</duration>
				<voice>1</voice>
				<type>quarter</type>
			</note>
			<note>
				<pitch>
					<step>F</step>
					<alter>1</alter>
					<octave>4</octave>
				</pitch>
				<duration>768</duration>
				<voice>1</voice>
				<type>quarter</type>
				<lyric number='1'>
					<syllabic>middle</syllabic>
					<text>Gos</text>
				</lyric>
			</note>
			<note>
				<chord/>
				<pitch>
					<step>D</step>
					<octave>5</octave>
				</pitch>
				<duration>768</duration>
				<voice>1</voice>
				<type>quarter</type>
			</note>
			<note>
				<pitch>
					<step>E</step>
					<octave>4</octave>
				</pitch>
				<duration>384</duration>
				<voice>1</voice>
				<type>eighth</type>
				<beam number='1'>begin</beam>
				<lyric number='1'>
					<syllabic>end</syllabic>
					<text>pel,</text>
				</lyric>
			</note>
			<note>
				<chord/>
				<pitch>
					<step>C</step>
					<alter>1</alter>
					<octave>5</octave>
				</pitch>
				<duration>384</duration>
				<voice>1</voice>
				<type>eighth</type>
			</note>
			<note>
				<pitch>
					<step>G</step>
					<octave>4</octave>
				</pitch>
				<duration>384</duration>
				<voice>1</voice>
				<type>eighth</type>
				<beam number='1'>continue</beam>
				<lyric number='1'>
					<syllabic>end</syllabic>
					<text>And</text>
				</lyric>
			</note>
			<note>
				<chord/>
				<pitch>
					<step>E</step>
					<octave>5</octave>
				</pitch>
				<duration>384</duration>
				<voice>1</voice>
				<type>eighth</type>
			</note>
		</measure>
		<measure number='15'>
			<note>
				<pitch>
					<step>G</step>
					<octave>4</octave>
				</pitch>
				<duration>768</duration>
				<voice>1</voice>
				<type>quarter</type>
				<lyric number='1'>
					<syllabic>end</syllabic>
					<text>lo,</text>
				</lyric>
			</note>
			<note>
				<chord/>
				<pitch>
					<step>E</step>
					<octave>5</octave>
				</pitch>
				<duration>768</duration>
				<voice>1</voice>
				<type>quarter</type>
			</note>
			<note>
				<pitch>
					<step>F</step>
					<alter>1</alter>
					<octave>4</octave>
				</pitch>
				<duration>384</duration>
				<voice>1</voice>
				<type>eighth</type>
				<beam number='1'>begin</beam>
				<lyric number='1'>
					<syllabic>end</syllabic>
					<text>I</text>
				</lyric>
			</note>
			<note>
				<chord/>
				<pitch>
					<step>D</step>
					<octave>5</octave>
				</pitch>
				<duration>384</duration>
				<voice>1</voice>
				<type>eighth</type>
			</note>
			<note>
				<pitch>
					<step>D</step>
					<octave>4</octave>
				</pitch>
				<duration>384</duration>
				<voice>1</voice>
				<type>eighth</type>
				<beam number='1'>continue</beam>
				<lyric number='1'>
					<syllabic>end</syllabic>
					<text>am</text>
				</lyric>
			</note>
			<note>
				<chord/>
				<pitch>
					<step>B</step>
					<octave>4</octave>
				</pitch>
				<duration>384</duration>
				<voice>1</voice>
				<type>eighth</type>
			</note>
			<note>
				<pitch>
					<step>C</step>
					<alter>1</alter>
					<octave>4</octave>
				</pitch>
				<duration>768</duration>
				<voice>1</voice>
				<type>quarter</type>
				<lyric number='1'>
					<syllabic>end</syllabic>
					<text>with</text>
				</lyric>
			</note>
			<note>
				<chord/>
				<pitch>
					<step>A</step>
					<octave>4</octave>
				</pitch>
				<duration>768</duration>
				<voice>1</voice>
				<type>quarter</type>
			</note>
			<note>
				<pitch>
					<step>E</step>
					<octave>4</octave>
				</pitch>
				<duration>384</duration>
				<voice>1</voice>
				<type>eighth</type>
				<beam number='1'>begin</beam>
				<lyric number='1'>
					<syllabic>end</syllabic>
					<text>you</text>
				</lyric>
			</note>
			<note>
				<chord/>
				<pitch>
					<step>G</step>
					<alter>1</alter>
					<octave>4</octave>
				</pitch>
				<duration>384</duration>
				<voice>1</voice>
				<type>eighth</type>
			</note>
			<note>
				<pitch>
					<step>D</step>
					<octave>4</octave>
				</pitch>
				<duration>384</duration>
				<voice>1</voice>
				<type>eighth</type>
				<beam number='1'>continue</beam>
				<lyric number='1'>
					<syllabic>middle</syllabic>
					<text>al</text>
				</lyric>
			</note>
			<note>
				<chord/>
				<pitch>
					<step>B</step>
					<octave>4</octave>
				</pitch>
				<duration>384</duration>
				<voice>1</voice>
				<type>eighth</type>
			</note>
		</measure>
		<measure number='16'>
			<note>
				<pitch>
					<step>C</step>
					<alter>1</alter>
					<octave>4</octave>
				</pitch>
				<duration>3072</duration>
				<voice>1</voice>
				<type>whole</type>
				<lyric number='1'>
					<syllabic>end</syllabic>
					<text>ways.&#8221;</text>
				</lyric>
			</note>
			<note>
				<chord/>
				<pitch>
					<step>A</step>
					<octave>4</octave>
				</pitch>
				<duration>3072</duration>
				<voice>1</voice>
				<type>whole</type>
			</note>
			<barline location='right'>
				<bar-style>light-heavy</bar-style>
			</barline>
		</measure>
	</part>
	<part id='P2'>
		<measure number='1'>
			<attributes>
				<divisions>768</divisions>
				<key>
					<fifths>3</fifths>
					<mode>major</mode>
				</key>
				<time>
					<beats>4</beats>
					<beat-type>4</beat-type>
				</time>
				<clef>
					<sign>F</sign>
					<line>4</line>
				</clef>
			</attributes>
			<direction placement='above'>
				<direction-type>
					<metronome>
						<beat-unit>quarter</beat-unit>
						<per-minute>100</per-minute>
					</metronome>
				</direction-type>
				<sound tempo='100'/>
			</direction>
			<note>
				<pitch>
					<step>A</step>
					<octave>2</octave>
				</pitch>
				<duration>768</duration>
				<voice>1</voice>
				<type>quarter</type>
			</note>
			<note>
				<chord/>
				<pitch>
					<step>A</step>
					<octave>3</octave>
				</pitch>
				<duration>768</duration>
				<voice>1</voice>
				<type>quarter</type>
			</note>
			<note>
				<pitch>
					<step>D</step>
					<octave>3</octave>
				</pitch>
				<duration>576</duration>
				<voice>1</voice>
				<type>eighth</type>
				<dot/>
				<beam number='1'>begin</beam>
			</note>
			<note>
				<chord/>
				<pitch>
					<step>A</step>
					<octave>3</octave>
				</pitch>
				<duration>576</duration>
				<voice>1</voice>
				<type>eighth</type>
				<dot/>
			</note>
			<note>
				<pitch>
					<step>D</step>
					<octave>3</octave>
				</pitch>
				<duration>192</duration>
				<voice>1</voice>
				<type>16th</type>
				<beam number='1'>continue</beam>
				<beam number='2'>continue</beam>
			</note>
			<note>
				<chord/>
				<pitch>
					<step>A</step>
					<octave>3</octave>
				</pitch>
				<duration>192</duration>
				<voice>1</voice>
				<type>16th</type>
			</note>
			<note>
				<pitch>
					<step>A</step>
					<octave>2</octave>
				</pitch>
				<duration>1152</duration>
				<voice>1</voice>
				<type>quarter</type>
				<dot/>
			</note>
			<note>
				<chord/>
				<pitch>
					<step>A</step>
					<octave>3</octave>
				</pitch>
				<duration>1152</duration>
				<voice>1</voice>
				<type>quarter</type>
				<dot/>
			</note>
			<note>
				<pitch>
					<step>A</step>
					<octave>2</octave>
				</pitch>
				<duration>384</duration>
				<voice>1</voice>
				<type>eighth</type>
				<beam number='1'>continue</beam>
			</note>
			<note>
				<chord/>
				<pitch>
					<step>E</step>
					<octave>3</octave>
				</pitch>
				<duration>384</duration>
				<voice>1</voice>
				<type>eighth</type>
			</note>
		</measure>
		<measure number='2'>
			<note>
				<pitch>
					<step>E</step>
					<octave>3</octave>
				</pitch>
				<duration>384</duration>
				<voice>1</voice>
				<type>eighth</type>
				<beam number='1'>begin</beam>
			</note>
			<backup>
				<duration>384</duration>
			</backup>
			<note>
				<pitch>
					<step>E</step>
					<octave>3</octave>
				</pitch>
				<duration>384</duration>
				<voice>2</voice>
				<type>eighth</type>
				<beam number='1'>begin</beam>
			</note>
			<note>
				<pitch>
					<step>F</step>
					<alter>1</alter>
					<octave>3</octave>
				</pitch>
				<duration>384</duration>
				<voice>1</voice>
				<type>eighth</type>
				<beam number='1'>continue</beam>
			</note>
			<backup>
				<duration>384</duration>
			</backup>
			<note>
				<pitch>
					<step>F</step>
					<alter>1</alter>
					<octave>3</octave>
				</pitch>
				<duration>384</duration>
				<voice>2</voice>
				<type>eighth</type>
				<beam number='1'>continue</beam>
			</note>
			<note>
				<pitch>
					<step>G</step>
					<alter>1</alter>
					<octave>3</octave>
				</pitch>
				<duration>384</duration>
				<voice>1</voice>
				<type>eighth</type>
				<beam number='1'>begin</beam>
			</note>
			<backup>
				<duration>384</duration>
			</backup>
			<note>
				<pitch>
					<step>G</step>
					<alter>1</alter>
					<octave>3</octave>
				</pitch>
				<duration>384</duration>
				<voice>2</voice>
				<type>eighth</type>
				<beam number='1'>begin</beam>
			</note>
			<note>
				<pitch>
					<step>A</step>
					<octave>3</octave>
				</pitch>
				<duration>384</duration>
				<voice>1</voice>
				<type>eighth</type>
				<beam number='1'>continue</beam>
			</note>
			<backup>
				<duration>384</duration>
			</backup>
			<note>
				<pitch>
					<step>A</step>
					<octave>3</octave>
				</pitch>
				<duration>384</duration>
				<voice>2</voice>
				<type>eighth</type>
				<beam number='1'>continue</beam>
			</note>
			<note>
				<pitch>
					<step>E</step>
					<octave>3</octave>
				</pitch>
				<duration>768</duration>
				<voice>1</voice>
				<type>quarter</type>
			</note>
			<note>
				<chord/>
				<pitch>
					<step>A</step>
					<octave>3</octave>
				</pitch>
				<duration>768</duration>
				<voice>1</voice>
				<type>quarter</type>
			</note>
			<backup>
				<duration>768</duration>
			</backup>
			<note>
				<rest/>
				<duration>1536</duration>
				<voice>2</voice>
				<type>half</type>
			</note>
			<backup>
				<duration>768</duration>
			</backup>
			<note>
				<pitch>
					<step>E</step>
					<octave>3</octave>
				</pitch>
				<duration>768</duration>
				<voice>1</voice>
				<type>quarter</type>
			</note>
			<note>
				<chord/>
				<pitch>
					<step>G</step>
					<alter>1</alter>
					<octave>3</octave>
				</pitch>
				<duration>768</duration>
				<voice>1</voice>
				<type>quarter</type>
			</note>
		</measure>
		<measure number='3'>
			<note>
				<pitch>
					<step>E</step>
					<octave>3</octave>
				</pitch>
				<duration>768</duration>
				<voice>1</voice>
				<type>quarter</type>
			</note>
			<note>
				<chord/>
				<pitch>
					<step>G</step>
					<alter>1</alter>
					<octave>3</octave>
				</pitch>
				<duration>768</duration>
				<voice>1</voice>
				<type>quarter</type>
			</note>
			<note>
				<pitch>
					<step>E</step>
					<octave>3</octave>
				</pitch>
				<duration>576</duration>
				<voice>1</voice>
				<type>eighth</type>
				<dot/>
				<beam number='1'>begin</beam>
			</note>
			<note>
				<chord/>
				<pitch>
					<step>G</step>
					<alter>1</alter>
					<octave>3</octave>
				</pitch>
				<duration>576</duration>
				<voice>1</voice>
				<type>eighth</type>
				<dot/>
			</note>
			<note>
				<pitch>
					<step>E</step>
					<octave>3</octave>
				</pitch>
				<duration>192</duration>
				<voice>1</voice>
				<type>16th</type>
				<beam number='1'>continue</beam>
				<beam number='2'>continue</beam>
			</note>
			<note>
				<chord/>
				<pitch>
					<step>F</step>
					<alter>1</alter>
					<octave>3</octave>
				</pitch>
				<duration>192</duration>
				<voice>1</voice>
				<type>16th</type>
			</note>
			<note>
				<pitch>
					<step>E</step>
					<octave>3</octave>
				</pitch>
				<duration>1152</duration>
				<voice>1</voice>
				<type>quarter</type>
				<dot/>
			</note>
			<note>
				<chord/>
				<pitch>
					<step>G</step>
					<alter>1</alter>
					<octave>3</octave>
				</pitch>
				<duration>1152</duration>
				<voice>1</voice>
				<type>quarter</type>
				<dot/>
			</note>
			<note>
				<pitch>
					<step>E</step>
					<octave>3</octave>
				</pitch>
				<duration>384</duration>
				<voice>1</voice>
				<type>eighth</type>
				<beam number='1'>continue</beam>
			</note>
			<note>
				<chord/>
				<pitch>
					<step>G</step>
					<alter>1</alter>
					<octave>3</octave>
				</pitch>
				<duration>384</duration>
				<voice>1</voice>
				<type>eighth</type>
			</note>
		</measure>
		<measure number='4'>
			<note>
				<pitch>
					<step>A</step>
					<octave>2</octave>
				</pitch>
				<duration>384</duration>
				<voice>1</voice>
				<type>eighth</type>
				<beam number='1'>begin</beam>
			</note>
			<note>
				<chord/>
				<pitch>
					<step>A</step>
					<octave>3</octave>
				</pitch>
				<duration>384</duration>
				<voice>1</voice>
				<type>eighth</type>
			</note>
			<note>
				<pitch>
					<step>A</step>
					<octave>2</octave>
				</pitch>
				<duration>384</duration>
				<voice>1</voice>
				<type>eighth</type>
				<beam number='1'>continue</beam>
			</note>
			<note>
				<chord/>
				<pitch>
					<step>C</step>
					<alter>1</alter>
					<octave>4</octave>
				</pitch>
				<duration>384</duration>
				<voice>1</voice>
				<type>eighth</type>
			</note>
			<note>
				<pitch>
					<step>B</step>
					<octave>2</octave>
				</pitch>
				<duration>576</duration>
				<voice>1</voice>
				<type>eighth</type>
				<dot/>
				<beam number='1'>begin</beam>
			</note>
			<note>
				<chord/>
				<pitch>
					<step>B</step>
					<octave>3</octave>
				</pitch>
				<duration>576</duration>
				<voice>1</voice>
				<type>eighth</type>
				<dot/>
			</note>
			<note>
				<pitch>
					<step>B</step>
					<octave>2</octave>
				</pitch>
				<duration>192</duration>
				<voice>1</voice>
				<type>16th</type>
				<beam number='1'>continue</beam>
				<beam number='2'>continue</beam>
			</note>
			<note>
				<chord/>
				<pitch>
					<step>A</step>
					<octave>3</octave>
				</pitch>
				<duration>192</duration>
				<voice>1</voice>
				<type>16th</type>
			</note>
			<note>
				<pitch>
					<step>E</step>
					<octave>3</octave>
				</pitch>
				<duration>1536</duration>
				<voice>1</voice>
				<type>half</type>
			</note>
			<note>
				<chord/>
				<pitch>
					<step>G</step>
					<alter>1</alter>
					<octave>3</octave>
				</pitch>
				<duration>1536</duration>
				<voice>1</voice>
				<type>half</type>
			</note>
		</measure>
		<measure number='5'>
			<note>
				<pitch>
					<step>A</step>
					<octave>2</octave>
				</pitch>
				<duration>768</duration>
				<voice>1</voice>
				<type>quarter</type>
			</note>
			<note>
				<chord/>
				<pitch>
					<step>A</step>
					<octave>3</octave>
				</pitch>
				<duration>768</duration>
				<voice>1</voice>
				<type>quarter</type>
			</note>
			<note>
				<pitch>
					<step>D</step>
					<octave>3</octave>
				</pitch>
				<duration>576</duration>
				<voice>1</voice>
				<type>eighth</type>
				<dot/>
				<beam number='1'>begin</beam>
			</note>
			<note>
				<chord/>
				<pitch>
					<step>A</step>
					<octave>3</octave>
				</pitch>
				<duration>576</duration>
				<voice>1</voice>
				<type>eighth</type>
				<dot/>
			</note>
			<note>
				<pitch>
					<step>D</step>
					<octave>3</octave>
				</pitch>
				<duration>192</duration>
				<voice>1</voice>
				<type>16th</type>
				<beam number='1'>continue</beam>
				<beam number='2'>continue</beam>
			</note>
			<note>
				<chord/>
				<pitch>
					<step>A</step>
					<octave>3</octave>
				</pitch>
				<duration>192</duration>
				<voice>1</voice>
				<type>16th</type>
			</note>
			<note>
				<pitch>
					<step>A</step>
					<octave>2</octave>
				</pitch>
				<duration>1152</duration>
				<voice>1</voice>
				<type>quarter</type>
				<dot/>
			</note>
			<note>
				<chord/>
				<pitch>
					<step>A</step>
					<octave>3</octave>
				</pitch>
				<duration>1152</duration>
				<voice>1</voice>
				<type>quarter</type>
				<dot/>
			</note>
			<note>
				<pitch>
					<step>A</step>
					<octave>2</octave>
				</pitch>
				<duration>384</duration>
				<voice>1</voice>
				<type>eighth</type>
				<beam number='1'>continue</beam>
			</note>
			<note>
				<chord/>
				<pitch>
					<step>E</step>
					<octave>3</octave>
				</pitch>
				<duration>384</duration>
				<voice>1</voice>
				<type>eighth</type>
			</note>
		</measure>
		<measure number='6'>
			<note>
				<pitch>
					<step>E</step>
					<octave>3</octave>
				</pitch>
				<duration>384</duration>
				<voice>1</voice>
				<type>eighth</type>
				<beam number='1'>begin</beam>
			</note>
			<backup>
				<duration>384</duration>
			</backup>
			<note>
				<pitch>
					<step>E</step>
					<octave>3</octave>
				</pitch>
				<duration>384</duration>
				<voice>2</voice>
				<type>eighth</type>
				<beam number='1'>begin</beam>
			</note>
			<note>
				<pitch>
					<step>F</step>
					<alter>1</alter>
					<octave>3</octave>
				</pitch>
				<duration>384</duration>
				<voice>1</voice>
				<type>eighth</type>
				<beam number='1'>continue</beam>
			</note>
			<backup>
				<duration>384</duration>
			</backup>
			<note>
				<pitch>
					<step>F</step>
					<alter>1</alter>
					<octave>3</octave>
				</pitch>
				<duration>384</duration>
				<voice>2</voice>
				<type>eighth</type>
				<beam number='1'>continue</beam>
			</note>
			<note>
				<pitch>
					<step>G</step>
					<alter>1</alter>
					<octave>3</octave>
				</pitch>
				<duration>384</duration>
				<voice>1</voice>
				<type>eighth</type>
				<beam number='1'>begin</beam>
			</note>
			<backup>
				<duration>384</duration>
			</backup>
			<note>
				<pitch>
					<step>G</step>
					<alter>1</alter>
					<octave>3</octave>
				</pitch>
				<duration>384</duration>
				<voice>2</voice>
				<type>eighth</type>
				<beam number='1'>begin</beam>
			</note>
			<note>
				<pitch>
					<step>A</step>
					<octave>3</octave>
				</pitch>
				<duration>384</duration>
				<voice>1</voice>
				<type>eighth</type>
				<beam number='1'>continue</beam>
			</note>
			<backup>
				<duration>384</duration>
			</backup>
			<note>
				<pitch>
					<step>A</step>
					<octave>3</octave>
				</pitch>
				<duration>384</duration>
				<voice>2</voice>
				<type>eighth</type>
				<beam number='1'>continue</beam>
			</note>
			<note>
				<pitch>
					<step>E</step>
					<octave>3</octave>
				</pitch>
				<duration>768</duration>
				<voice>1</voice>
				<type>quarter</type>
			</note>
			<note>
				<chord/>
				<pitch>
					<step>E</step>
					<octave>4</octave>
				</pitch>
				<duration>768</duration>
				<voice>1</voice>
				<type>quarter</type>
			</note>
			<backup>
				<duration>768</duration>
			</backup>
			<note>
				<rest/>
				<duration>1536</duration>
				<voice>2</voice>
				<type>half</type>
			</note>
			<backup>
				<duration>768</duration>
			</backup>
			<note>
				<pitch>
					<step>E</step>
					<octave>3</octave>
				</pitch>
				<duration>768</duration>
				<voice>1</voice>
				<type>quarter</type>
			</note>
			<note>
				<chord/>
				<pitch>
					<step>E</step>
					<octave>4</octave>
				</pitch>
				<duration>768</duration>
				<voice>1</voice>
				<type>quarter</type>
			</note>
		</measure>
		<measure number='7'>
			<note>
				<pitch>
					<step>E</step>
					<octave>3</octave>
				</pitch>
				<duration>768</duration>
				<voice>1</voice>
				<type>quarter</type>
			</note>
			<note>
				<chord/>
				<pitch>
					<step>E</step>
					<octave>4</octave>
				</pitch>
				<duration>768</duration>
				<voice>1</voice>
				<type>quarter</type>
			</note>
			<note>
				<pitch>
					<step>E</step>
					<octave>3</octave>
				</pitch>
				<duration>576</duration>
				<voice>1</voice>
				<type>eighth</type>
				<dot/>
				<beam number='1'>begin</beam>
			</note>
			<note>
				<chord/>
				<pitch>
					<step>E</step>
					<octave>4</octave>
				</pitch>
				<duration>576</duration>
				<voice>1</voice>
				<type>eighth</type>
				<dot/>
			</note>
			<note>
				<pitch>
					<step>E</step>
					<octave>3</octave>
				</pitch>
				<duration>192</duration>
				<voice>1</voice>
				<type>16th</type>
				<beam number='1'>continue</beam>
				<beam number='2'>continue</beam>
			</note>
			<note>
				<chord/>
				<pitch>
					<step>E</step>
					<octave>4</octave>
				</pitch>
				<duration>192</duration>
				<voice>1</voice>
				<type>16th</type>
			</note>
			<note>
				<pitch>
					<step>F</step>
					<alter>1</alter>
					<octave>3</octave>
				</pitch>
				<duration>384</duration>
				<voice>1</voice>
				<type>eighth</type>
				<beam number='1'>begin</beam>
			</note>
			<note>
				<chord/>
				<pitch>
					<step>E</step>
					<octave>4</octave>
				</pitch>
				<duration>384</duration>
				<voice>1</voice>
				<type>eighth</type>
			</note>
			<note>
				<pitch>
					<step>A</step>
					<octave>3</octave>
				</pitch>
				<duration>384</duration>
				<voice>1</voice>
				<type>eighth</type>
				<beam number='1'>continue</beam>
			</note>
			<note>
				<chord/>
				<pitch>
					<step>C</step>
					<alter>1</alter>
					<octave>4</octave>
				</pitch>
				<duration>384</duration>
				<voice>1</voice>
				<type>eighth</type>
			</note>
			<note>
				<pitch>
					<step>D</step>
					<octave>3</octave>
				</pitch>
				<duration>384</duration>
				<voice>1</voice>
				<type>eighth</type>
				<beam number='1'>begin</beam>
			</note>
			<note>
				<chord/>
				<pitch>
					<step>D</step>
					<octave>4</octave>
				</pitch>
				<duration>384</duration>
				<voice>1</voice>
				<type>eighth</type>
			</note>
			<note>
				<pitch>
					<step>D</step>
					<octave>3</octave>
				</pitch>
				<duration>384</duration>
				<voice>1</voice>
				<type>eighth</type>
				<beam number='1'>continue</beam>
			</note>
			<note>
				<chord/>
				<pitch>
					<step>B</step>
					<octave>3</octave>
				</pitch>
				<duration>384</duration>
				<voice>1</voice>
				<type>eighth</type>
			</note>
		</measure>
		<measure number='8'>
			<note>
				<pitch>
					<step>E</step>
					<octave>3</octave>
				</pitch>
				<duration>768</duration>
				<voice>1</voice>
				<type>quarter</type>
			</note>
			<note>
				<chord/>
				<pitch>
					<step>A</step>
					<octave>3</octave>
				</pitch>
				<duration>768</duration>
				<voice>1</voice>
				<type>quarter</type>
			</note>
			<backup>
				<duration>768</duration>
			</backup>
			<note>
				<rest/>
				<duration>768</duration>
				<voice>2</voice>
				<type>quarter</type>
			</note>
			<note>
				<pitch>
					<step>B</step>
					<octave>3</octave>
				</pitch>
				<duration>384</duration>
				<voice>1</voice>
				<type>eighth</type>
				<beam number='1'>begin</beam>
				<notations>
					<slur type='start' number='1'/>
				</notations>
			</note>
			<backup>
				<duration>384</duration>
			</backup>
			<note>
				<pitch>
					<step>E</step>
					<octave>3</octave>
				</pitch>
				<duration>768</duration>
				<voice>2</voice>
				<type>quarter</type>
			</note>
			<backup>
				<duration>384</duration>
			</backup>
			<note>
				<pitch>
					<step>E</step>
					<octave>3</octave>
				</pitch>
				<duration>384</duration>
				<voice>1</voice>
				<type>eighth</type>
				<beam number='1'>continue</beam>
				<notations>
					<slur type='stop' number='1'/>
				</notations>
			</note>
			<note>
				<pitch>
					<step>A</step>
					<octave>2</octave>
				</pitch>
				<duration>1536</duration>
				<voice>1</voice>
				<type>half</type>
			</note>
			<note>
				<chord/>
				<pitch>
					<step>E</step>
					<octave>3</octave>
				</pitch>
				<duration>1536</duration>
				<voice>1</voice>
				<type>half</type>
			</note>
			<backup>
				<duration>1536</duration>
			</backup>
			<note>
				<rest/>
				<duration>1536</duration>
				<voice>2</voice>
				<type>half</type>
			</note>
			<barline location='right'>
				<bar-style>light-light</bar-style>
			</barline>
		</measure>
		<measure number='9'>
			<note>
				<pitch>
					<step>A</step>
					<octave>2</octave>
				</pitch>
				<duration>1536</duration>
				<voice>1</voice>
				<type>half</type>
			</note>
			<note>
				<chord/>
				<pitch>
					<step>A</step>
					<octave>3</octave>
				</pitch>
				<duration>1536</duration>
				<voice>1</voice>
				<type>half</type>
			</note>
			<note>
				<pitch>
					<step>A</step>
					<octave>2</octave>
				</pitch>
				<duration>768</duration>
				<voice>1</voice>
				<type>quarter</type>
			</note>
			<note>
				<chord/>
				<pitch>
					<step>E</step>
					<octave>3</octave>
				</pitch>
				<duration>768</duration>
				<voice>1</voice>
				<type>quarter</type>
			</note>
			<note>
				<pitch>
					<step>C</step>
					<alter>1</alter>
					<octave>3</octave>
				</pitch>
				<duration>768</duration>
				<voice>1</voice>
				<type>quarter</type>
			</note>
			<note>
				<chord/>
				<pitch>
					<step>A</step>
					<octave>3</octave>
				</pitch>
				<duration>768</duration>
				<voice>1</voice>
				<type>quarter</type>
			</note>
		</measure>
		<measure number='10'>
			<note>
				<pitch>
					<step>D</step>
					<octave>3</octave>
				</pitch>
				<duration>576</duration>
				<voice>1</voice>
				<type>eighth</type>
				<dot/>
				<beam number='1'>begin</beam>
			</note>
			<note>
				<chord/>
				<pitch>
					<step>A</step>
					<octave>3</octave>
				</pitch>
				<duration>576</duration>
				<voice>1</voice>
				<type>eighth</type>
				<dot/>
			</note>
			<note>
				<pitch>
					<step>D</step>
					<octave>3</octave>
				</pitch>
				<duration>192</duration>
				<voice>1</voice>
				<type>16th</type>
				<beam number='1'>continue</beam>
				<beam number='2'>continue</beam>
			</note>
			<note>
				<chord/>
				<pitch>
					<step>A</step>
					<octave>3</octave>
				</pitch>
				<duration>192</duration>
				<voice>1</voice>
				<type>16th</type>
			</note>
			<note>
				<pitch>
					<step>D</step>
					<octave>3</octave>
				</pitch>
				<duration>576</duration>
				<voice>1</voice>
				<type>eighth</type>
				<dot/>
				<beam number='1'>begin</beam>
			</note>
			<note>
				<chord/>
				<pitch>
					<step>A</step>
					<octave>3</octave>
				</pitch>
				<duration>576</duration>
				<voice>1</voice>
				<type>eighth</type>
				<dot/>
			</note>
			<note>
				<pitch>
					<step>D</step>
					<octave>3</octave>
				</pitch>
				<duration>192</duration>
				<voice>1</voice>
				<type>16th</type>
				<beam number='1'>continue</beam>
				<beam number='2'>continue</beam>
			</note>
			<note>
				<chord/>
				<pitch>
					<step>A</step>
					<octave>3</octave>
				</pitch>
				<duration>192</duration>
				<voice>1</voice>
				<type>16th</type>
			</note>
			<note>
				<pitch>
					<step>D</step>
					<octave>3</octave>
				</pitch>
				<duration>1536</duration>
				<voice>1</voice>
				<type>half</type>
			</note>
			<note>
				<chord/>
				<pitch>
					<step>A</step>
					<octave>3</octave>
				</pitch>
				<duration>1536</duration>
				<voice>1</voice>
				<type>half</type>
			</note>
		</measure>
		<measure number='11'>
			<note>
				<pitch>
					<step>B</step>
					<octave>2</octave>
				</pitch>
				<duration>1536</duration>
				<voice>1</voice>
				<type>half</type>
			</note>
			<note>
				<chord/>
				<pitch>
					<step>B</step>
					<octave>3</octave>
				</pitch>
				<duration>1536</duration>
				<voice>1</voice>
				<type>half</type>
			</note>
			<note>
				<pitch>
					<step>B</step>
					<octave>2</octave>
				</pitch>
				<duration>768</duration>
				<voice>1</voice>
				<type>quarter</type>
			</note>
			<note>
				<chord/>
				<pitch>
					<step>F</step>
					<alter>1</alter>
					<octave>3</octave>
				</pitch>
				<duration>768</duration>
				<voice>1</voice>
				<type>quarter</type>
			</note>
			<note>
				<pitch>
					<step>D</step>
					<alter>1</alter>
					<octave>3</octave>
				</pitch>
				<duration>768</duration>
				<voice>1</voice>
				<type>quarter</type>
			</note>
			<note>
				<chord/>
				<pitch>
					<step>B</step>
					<octave>3</octave>
				</pitch>
				<duration>768</duration>
				<voice>1</voice>
				<type>quarter</type>
			</note>
		</measure>
		<measure number='12'>
			<note>
				<pitch>
					<step>E</step>
					<octave>3</octave>
				</pitch>
				<duration>576</duration>
				<voice>1</voice>
				<type>eighth</type>
				<dot/>
				<beam number='1'>begin</beam>
			</note>
			<note>
				<chord/>
				<pitch>
					<step>B</step>
					<octave>3</octave>
				</pitch>
				<duration>576</duration>
				<voice>1</voice>
				<type>eighth</type>
				<dot/>
			</note>
			<note>
				<pitch>
					<step>E</step>
					<octave>3</octave>
				</pitch>
				<duration>192</duration>
				<voice>1</voice>
				<type>16th</type>
				<beam number='1'>continue</beam>
				<beam number='2'>continue</beam>
			</note>
			<note>
				<chord/>
				<pitch>
					<step>B</step>
					<octave>3</octave>
				</pitch>
				<duration>192</duration>
				<voice>1</voice>
				<type>16th</type>
			</note>
			<note>
				<pitch>
					<step>E</step>
					<octave>3</octave>
				</pitch>
				<duration>576</duration>
				<voice>1</voice>
				<type>eighth</type>
				<dot/>
				<beam number='1'>begin</beam>
			</note>
			<note>
				<chord/>
				<pitch>
					<step>B</step>
					<octave>3</octave>
				</pitch>
				<duration>576</duration>
				<voice>1</voice>
				<type>eighth</type>
				<dot/>
			</note>
			<note>
				<pitch>
					<step>E</step>
					<octave>3</octave>
				</pitch>
				<duration>192</duration>
				<voice>1</voice>
				<type>16th</type>
				<beam number='1'>continue</beam>
				<beam number='2'>continue</beam>
			</note>
			<note>
				<chord/>
				<pitch>
					<step>B</step>
					<octave>3</octave>
				</pitch>
				<duration>192</duration>
				<voice>1</voice>
				<type>16th</type>
			</note>
			<note>
				<pitch>
					<step>E</step>
					<octave>3</octave>
				</pitch>
				<duration>1536</duration>
				<voice>1</voice>
				<type>half</type>
			</note>
			<note>
				<chord/>
				<pitch>
					<step>B</step>
					<octave>3</octave>
				</pitch>
				<duration>1536</duration>
				<voice>1</voice>
				<type>half</type>
			</note>
		</measure>
		<measure number='13'>
			<note>
				<pitch>
					<step>E</step>
					<octave>3</octave>
				</pitch>
				<duration>384</duration>
				<voice>1</voice>
				<type>eighth</type>
				<beam number='1'>begin</beam>
			</note>
			<backup>
				<duration>384</duration>
			</backup>
			<note>
				<pitch>
					<step>E</step>
					<octave>3</octave>
				</pitch>
				<duration>384</duration>
				<voice>2</voice>
				<type>eighth</type>
				<beam number='1'>begin</beam>
			</note>
			<note>
				<pitch>
					<step>E</step>
					<octave>3</octave>
				</pitch>
				<duration>384</duration>
				<voice>1</voice>
				<type>eighth</type>
				<beam number='1'>continue</beam>
			</note>
			<backup>
				<duration>384</duration>
			</backup>
			<note>
				<pitch>
					<step>E</step>
					<octave>3</octave>
				</pitch>
				<duration>384</duration>
				<voice>2</voice>
				<type>eighth</type>
				<beam number='1'>continue</beam>
			</note>
			<note>
				<pitch>
					<step>F</step>
					<alter>1</alter>
					<octave>3</octave>
				</pitch>
				<duration>384</duration>
				<voice>1</voice>
				<type>eighth</type>
				<beam number='1'>begin</beam>
			</note>
			<backup>
				<duration>384</duration>
			</backup>
			<note>
				<pitch>
					<step>F</step>
					<alter>1</alter>
					<octave>3</octave>
				</pitch>
				<duration>384</duration>
				<voice>2</voice>
				<type>eighth</type>
				<beam number='1'>begin</beam>
			</note>
			<note>
				<pitch>
					<step>G</step>
					<alter>1</alter>
					<octave>3</octave>
				</pitch>
				<duration>384</duration>
				<voice>1</voice>
				<type>eighth</type>
				<beam number='1'>continue</beam>
			</note>
			<backup>
				<duration>384</duration>
			</backup>
			<note>
				<pitch>
					<step>G</step>
					<alter>1</alter>
					<octave>3</octave>
				</pitch>
				<duration>384</duration>
				<voice>2</voice>
				<type>eighth</type>
				<beam number='1'>continue</beam>
			</note>
			<note>
				<pitch>
					<step>A</step>
					<octave>3</octave>
				</pitch>
				<duration>576</duration>
				<voice>1</voice>
				<type>eighth</type>
				<dot/>
				<beam number='1'>begin</beam>
			</note>
			<backup>
				<duration>576</duration>
			</backup>
			<note>
				<pitch>
					<step>A</step>
					<octave>3</octave>
				</pitch>
				<duration>576</duration>
				<voice>2</voice>
				<type>eighth</type>
				<dot/>
				<beam number='1'>begin</beam>
			</note>
			<note>
				<pitch>
					<step>A</step>
					<octave>3</octave>
				</pitch>
				<duration>192</duration>
				<voice>1</voice>
				<type>16th</type>
				<beam number='1'>continue</beam>
				<beam number='2'>continue</beam>
			</note>
			<backup>
				<duration>192</duration>
			</backup>
			<note>
				<pitch>
					<step>A</step>
					<octave>3</octave>
				</pitch>
				<duration>192</duration>
				<voice>2</voice>
				<type>16th</type>
				<beam number='1'>continue</beam>
				<beam number='2'>continue</beam>
			</note>
			<note>
				<pitch>
					<step>A</step>
					<octave>3</octave>
				</pitch>
				<duration>384</duration>
				<voice>1</voice>
				<type>eighth</type>
				<beam number='1'>begin</beam>
			</note>
			<backup>
				<duration>384</duration>
			</backup>
			<note>
				<pitch>
					<step>A</step>
					<octave>3</octave>
				</pitch>
				<duration>384</duration>
				<voice>2</voice>
				<type>eighth</type>
				<beam number='1'>begin</beam>
			</note>
			<note>
				<pitch>
					<step>A</step>
					<octave>3</octave>
				</pitch>
				<duration>384</duration>
				<voice>1</voice>
				<type>eighth</type>
				<beam number='1'>continue</beam>
			</note>
			<note>
				<chord/>
				<pitch>
					<step>E</step>
					<octave>4</octave>
				</pitch>
				<duration>384</duration>
				<voice>1</voice>
				<type>eighth</type>
			</note>
			<backup>
				<duration>384</duration>
			</backup>
			<note>
				<rest/>
				<duration>384</duration>
				<voice>2</voice>
				<type>eighth</type>
			</note>
		</measure>
		<measure number='14'>
			<note>
				<pitch>
					<step>E</step>
					<octave>3</octave>
				</pitch>
				<duration>768</duration>
				<voice>1</voice>
				<type>quarter</type>
			</note>
			<note>
				<chord/>
				<pitch>
					<step>E</step>
					<octave>4</octave>
				</pitch>
				<duration>768</duration>
				<voice>1</voice>
				<type>quarter</type>
			</note>
			<backup>
				<duration>768</duration>
			</backup>
			<note>
				<rest/>
				<duration>1536</duration>
				<voice>2</voice>
				<type>half</type>
			</note>
			<backup>
				<duration>768</duration>
			</backup>
			<note>
				<pitch>
					<step>E</step>
					<octave>3</octave>
				</pitch>
				<duration>768</duration>
				<voice>1</voice>
				<type>quarter</type>
			</note>
			<note>
				<chord/>
				<pitch>
					<step>E</step>
					<octave>4</octave>
				</pitch>
				<duration>768</duration>
				<voice>1</voice>
				<type>quarter</type>
			</note>
			<note>
				<pitch>
					<step>A</step>
					<octave>3</octave>
				</pitch>
				<duration>768</duration>
				<voice>1</voice>
				<type>quarter</type>
			</note>
			<backup>
				<duration>768</duration>
			</backup>
			<note>
				<pitch>
					<step>A</step>
					<octave>3</octave>
				</pitch>
				<duration>768</duration>
				<voice>2</voice>
				<type>quarter</type>
			</note>
			<note>
				<pitch>
					<step>A</step>
					<octave>3</octave>
				</pitch>
				<duration>384</duration>
				<voice>1</voice>
				<type>eighth</type>
				<beam number='1'>begin</beam>
			</note>
			<backup>
				<duration>384</duration>
			</backup>
			<note>
				<pitch>
					<step>A</step>
					<octave>3</octave>
				</pitch>
				<duration>384</duration>
				<voice>2</voice>
				<type>eighth</type>
				<beam number='1'>begin</beam>
			</note>
			<note>
				<pitch>
					<step>C</step>
					<alter>1</alter>
					<octave>3</octave>
				</pitch>
				<duration>384</duration>
				<voice>1</voice>
				<type>eighth</type>
				<beam number='1'>continue</beam>
			</note>
			<note>
				<chord/>
				<pitch>
					<step>A</step>
					<octave>3</octave>
				</pitch>
				<duration>384</duration>
				<voice>1</voice>
				<type>eighth</type>
			</note>
			<backup>
				<duration>384</duration>
			</backup>
			<note>
				<rest/>
				<duration>384</duration>
				<voice>2</voice>
				<type>eighth</type>
			</note>
		</measure>
		<measure number='15'>
			<note>
				<pitch>
					<step>D</step>
					<octave>3</octave>
				</pitch>
				<duration>768</duration>
				<voice>1</voice>
				<type>quarter</type>
			</note>
			<note>
				<chord/>
				<pitch>
					<step>A</step>
					<octave>3</octave>
				</pitch>
				<duration>768</duration>
				<voice>1</voice>
				<type>quarter</type>
			</note>
			<note>
				<pitch>
					<step>D</step>
					<octave>3</octave>
				</pitch>
				<duration>384</duration>
				<voice>1</voice>
				<type>eighth</type>
				<beam number='1'>begin</beam>
			</note>
			<note>
				<chord/>
				<pitch>
					<step>A</step>
					<octave>3</octave>
				</pitch>
				<duration>384</duration>
				<voice>1</voice>
				<type>eighth</type>
			</note>
			<note>
				<pitch>
					<step>D</step>
					<octave>3</octave>
				</pitch>
				<duration>384</duration>
				<voice>1</voice>
				<type>eighth</type>
				<beam number='1'>continue</beam>
			</note>
			<note>
				<chord/>
				<pitch>
					<step>A</step>
					<octave>3</octave>
				</pitch>
				<duration>384</duration>
				<voice>1</voice>
				<type>eighth</type>
			</note>
			<note>
				<pitch>
					<step>E</step>
					<octave>3</octave>
				</pitch>
				<duration>768</duration>
				<voice>1</voice>
				<type>quarter</type>
			</note>
			<note>
				<chord/>
				<pitch>
					<step>A</step>
					<octave>3</octave>
				</pitch>
				<duration>768</duration>
				<voice>1</voice>
				<type>quarter</type>
			</note>
			<note>
				<pitch>
					<step>E</step>
					<octave>3</octave>
				</pitch>
				<duration>384</duration>
				<voice>1</voice>
				<type>eighth</type>
				<beam number='1'>begin</beam>
			</note>
			<note>
				<chord/>
				<pitch>
					<step>B</step>
					<octave>3</octave>
				</pitch>
				<duration>384</duration>
				<voice>1</voice>
				<type>eighth</type>
			</note>
			<note>
				<pitch>
					<step>E</step>
					<octave>3</octave>
				</pitch>
				<duration>384</duration>
				<voice>1</voice>
				<type>eighth</type>
				<beam number='1'>continue</beam>
			</note>
			<note>
				<chord/>
				<pitch>
					<step>G</step>
					<alter>1</alter>
					<octave>3</octave>
				</pitch>
				<duration>384</duration>
				<voice>1</voice>
				<type>eighth</type>
			</note>
		</measure>
		<measure number='16'>
			<note>
				<pitch>
					<step>A</step>
					<octave>2</octave>
				</pitch>
				<duration>3072</duration>
				<voice>1</voice>
				<type>whole</type>
			</note>
			<note>
				<chord/>
				<pitch>
					<step>A</step>
					<octave>3</octave>
				</pitch>
				<duration>3072</duration>
				<voice>1</voice>
				<type>whole</type>
			</note>
			<barline location='right'>
				<bar-style>light-heavy</bar-style>
			</barline>
		</measure>
	</part>
</score-partwise>
