<?xml version='1.0' encoding='US-ASCII' standalone='no'?>
<!DOCTYPE score-partwise PUBLIC '-//Recordare//DTD MusicXML 1.0 Partwise//EN' 'http://www.musicxml.org/dtds/partwise.dtd'>
<score-partwise>
	<movement-title>Christ Liveth in Me</movement-title>
	<identification>
		<creator type='composer'>James McGranahan</creator>
		<creator type='lyricist'>Daniel W. Whittle, pub.1891</creator>
		<rights>PUBLIC DOMAIN</rights>
		<encoding>
			<software>Sibelius</software>
			<software>Dolet for Sibelius 1.1</software>
		</encoding>
	</identification>
	<part-list>
		<score-part id='P1'>
			<part-name>Treble</part-name>
		</score-part>
		<score-part id='P2'>
			<part-name>Bass</part-name>
		</score-part>
	</part-list>
	<part id='P1'>
		<measure number='1'>
			<attributes>
				<divisions>768</divisions>
				<key>
					<fifths>1</fifths>
					<mode>major</mode>
				</key>
				<time>
					<beats>6</beats>
					<beat-type>4</beat-type>
				</time>
				<clef>
					<sign>G</sign>
					<line>2</line>
				</clef>
			</attributes>
			<direction placement='above'>
				<direction-type>
					<metronome>
						<beat-unit>quarter</beat-unit>
						<per-minute>140</per-minute>
					</metronome>
				</direction-type>
				<sound tempo='140'/>
			</direction>
			<note>
				<pitch>
					<step>B</step>
					<octave>3</octave>
				</pitch>
				<duration>768</duration>
				<voice>1</voice>
				<type>quarter</type>
				<lyric number='1'>
					<syllabic>end</syllabic>
					<text>1. Once</text>
				</lyric>
				<lyric number='2'>
					<syllabic>end</syllabic>
					<text>2. As</text>
				</lyric>
				<lyric number='3'>
					<syllabic>end</syllabic>
					<text>3. As</text>
				</lyric>
				<lyric number='4'>
					<syllabic>end</syllabic>
					<text>4. With</text>
				</lyric>
			</note>
			<note>
				<chord/>
				<pitch>
					<step>D</step>
					<octave>4</octave>
				</pitch>
				<duration>768</duration>
				<voice>1</voice>
				<type>quarter</type>
			</note>
		</measure>
		<measure number='2'>
			<note>
				<pitch>
					<step>D</step>
					<octave>4</octave>
				</pitch>
				<duration>1536</duration>
				<voice>1</voice>
				<type>half</type>
				<lyric number='1'>
					<syllabic>end</syllabic>
					<text>far</text>
				</lyric>
				<lyric number='2'>
					<syllabic>end</syllabic>
					<text>rays</text>
				</lyric>
				<lyric number='3'>
					<syllabic>end</syllabic>
					<text>lives</text>
				</lyric>
				<lyric number='4'>
					<syllabic>middle</syllabic>
					<text>long</text>
				</lyric>
			</note>
			<note>
				<chord/>
				<pitch>
					<step>B</step>
					<octave>4</octave>
				</pitch>
				<duration>1536</duration>
				<voice>1</voice>
				<type>half</type>
			</note>
			<note>
				<pitch>
					<step>C</step>
					<octave>4</octave>
				</pitch>
				<duration>768</duration>
				<voice>1</voice>
				<type>quarter</type>
				<lyric number='1'>
					<syllabic>end</syllabic>
					<text>from</text>
				</lyric>
				<lyric number='2'>
					<syllabic>end</syllabic>
					<text>of</text>
				</lyric>
				<lyric number='3'>
					<syllabic>end</syllabic>
					<text>the</text>
				</lyric>
				<lyric number='4'>
					<syllabic>end</syllabic>
					<text>ing</text>
				</lyric>
			</note>
			<note>
				<chord/>
				<pitch>
					<step>A</step>
					<octave>4</octave>
				</pitch>
				<duration>768</duration>
				<voice>1</voice>
				<type>quarter</type>
			</note>
			<note>
				<pitch>
					<step>B</step>
					<octave>3</octave>
				</pitch>
				<duration>1536</duration>
				<voice>1</voice>
				<type>half</type>
				<lyric number='1'>
					<syllabic>end</syllabic>
					<text>God</text>
				</lyric>
				<lyric number='2'>
					<syllabic>end</syllabic>
					<text>light</text>
				</lyric>
				<lyric number='3'>
					<syllabic>end</syllabic>
					<text>flow&#8217;r</text>
				</lyric>
				<lyric number='4'>
					<syllabic>end</syllabic>
					<text>all</text>
				</lyric>
			</note>
			<note>
				<chord/>
				<pitch>
					<step>G</step>
					<octave>4</octave>
				</pitch>
				<duration>1536</duration>
				<voice>1</voice>
				<type>half</type>
			</note>
			<note>
				<pitch>
					<step>D</step>
					<octave>4</octave>
				</pitch>
				<duration>768</duration>
				<voice>1</voice>
				<type>quarter</type>
				<lyric number='1'>
					<syllabic>end</syllabic>
					<text>and</text>
				</lyric>
				<lyric number='2'>
					<syllabic>end</syllabic>
					<text>from</text>
				</lyric>
				<lyric number='3'>
					<syllabic>middle</syllabic>
					<text>with</text>
				</lyric>
				<lyric number='4'>
					<syllabic>end</syllabic>
					<text>my</text>
				</lyric>
			</note>
			<note>
				<chord/>
				<pitch>
					<step>G</step>
					<octave>4</octave>
				</pitch>
				<duration>768</duration>
				<voice>1</voice>
				<type>quarter</type>
			</note>
		</measure>
		<measure number='3'>
			<note>
				<pitch>
					<step>E</step>
					<octave>4</octave>
				</pitch>
				<duration>768</duration>
				<voice>1</voice>
				<type>quarter</type>
				<notations>
					<slur type='start' number='1'/>
					<slur type='start' number='2'/>
				</notations>
				<lyric number='1'>
					<syllabic>end</syllabic>
					<text>dead</text>
				</lyric>
				<lyric number='2'>
					<syllabic>middle</syllabic>
					<text>yon</text>
					<extend/>
				</lyric>
				<lyric number='3'>
					<syllabic>end</syllabic>
					<text>in</text>
				</lyric>
				<lyric number='4'>
					<syllabic>end</syllabic>
					<text>heart</text>
				</lyric>
			</note>
			<note>
				<chord/>
				<pitch>
					<step>G</step>
					<octave>4</octave>
				</pitch>
				<duration>768</duration>
				<voice>1</voice>
				<type>quarter</type>
			</note>
			<note>
				<pitch>
					<step>D</step>
					<octave>4</octave>
				</pitch>
				<duration>768</duration>
				<voice>1</voice>
				<type>quarter</type>
				<notations>
					<slur type='stop' number='1'/>
					<slur type='stop' number='2'/>
				</notations>
			</note>
			<note>
				<chord/>
				<pitch>
					<step>F</step>
					<alter>1</alter>
					<octave>4</octave>
				</pitch>
				<duration>768</duration>
				<voice>1</voice>
				<type>quarter</type>
			</note>
			<note>
				<pitch>
					<step>C</step>
					<octave>4</octave>
				</pitch>
				<duration>768</duration>
				<voice>1</voice>
				<type>quarter</type>
				<lyric number='1'>
					<syllabic>end</syllabic>
					<text>in</text>
				</lyric>
				<lyric number='2'>
					<syllabic>end</syllabic>
					<text>der</text>
				</lyric>
				<lyric number='3'>
					<syllabic>end</syllabic>
					<text>the</text>
				</lyric>
				<lyric number='4'>
					<syllabic>end</syllabic>
					<text>is</text>
				</lyric>
			</note>
			<note>
				<chord/>
				<pitch>
					<step>E</step>
					<octave>4</octave>
				</pitch>
				<duration>768</duration>
				<voice>1</voice>
				<type>quarter</type>
			</note>
			<note>
				<pitch>
					<step>B</step>
					<octave>3</octave>
				</pitch>
				<duration>1536</duration>
				<voice>1</voice>
				<type>half</type>
				<lyric number='1'>
					<syllabic>end</syllabic>
					<text>sin,</text>
				</lyric>
				<lyric number='2'>
					<syllabic>end</syllabic>
					<text>sun,</text>
				</lyric>
				<lyric number='3'>
					<syllabic>end</syllabic>
					<text>seed,</text>
				</lyric>
				<lyric number='4'>
					<syllabic>end</syllabic>
					<text>filled,</text>
				</lyric>
			</note>
			<note>
				<chord/>
				<pitch>
					<step>D</step>
					<octave>4</octave>
				</pitch>
				<duration>1536</duration>
				<voice>1</voice>
				<type>half</type>
			</note>
			<note>
				<pitch>
					<step>B</step>
					<octave>3</octave>
				</pitch>
				<duration>768</duration>
				<voice>1</voice>
				<type>quarter</type>
				<lyric number='1'>
					<syllabic>end</syllabic>
					<text>No</text>
				</lyric>
				<lyric number='2'>
					<syllabic>end</syllabic>
					<text>The</text>
				</lyric>
				<lyric number='3'>
					<syllabic>end</syllabic>
					<text>As</text>
				</lyric>
				<lyric number='4'>
					<syllabic>end</syllabic>
					<text>That</text>
				</lyric>
			</note>
			<note>
				<chord/>
				<pitch>
					<step>D</step>
					<octave>4</octave>
				</pitch>
				<duration>768</duration>
				<voice>1</voice>
				<type>quarter</type>
			</note>
		</measure>
		<measure number='4'>
			<note>
				<pitch>
					<step>C</step>
					<octave>4</octave>
				</pitch>
				<duration>1536</duration>
				<voice>1</voice>
				<type>half</type>
				<lyric number='1'>
					<syllabic>end</syllabic>
					<text>light</text>
				</lyric>
				<lyric number='2'>
					<syllabic>end</syllabic>
					<text>flow&#8217;rs</text>
				</lyric>
				<lyric number='3'>
					<syllabic>end</syllabic>
					<text>in</text>
				</lyric>
				<lyric number='4'>
					<syllabic>end</syllabic>
					<text>like</text>
				</lyric>
			</note>
			<note>
				<chord/>
				<pitch>
					<step>E</step>
					<octave>4</octave>
				</pitch>
				<duration>1536</duration>
				<voice>1</voice>
				<type>half</type>
			</note>
			<note>
				<pitch>
					<step>E</step>
					<octave>4</octave>
				</pitch>
				<duration>768</duration>
				<voice>1</voice>
				<type>quarter</type>
				<lyric number='1'>
					<syllabic>end</syllabic>
					<text>my</text>
				</lyric>
				<lyric number='2'>
					<syllabic>end</syllabic>
					<text>of</text>
				</lyric>
				<lyric number='3'>
					<syllabic>end</syllabic>
					<text>the</text>
				</lyric>
				<lyric number='4'>
					<syllabic>end</syllabic>
					<text>Him</text>
				</lyric>
			</note>
			<note>
				<chord/>
				<pitch>
					<step>G</step>
					<octave>4</octave>
				</pitch>
				<duration>768</duration>
				<voice>1</voice>
				<type>quarter</type>
			</note>
			<note>
				<pitch>
					<step>E</step>
					<octave>4</octave>
				</pitch>
				<duration>1536</duration>
				<voice>1</voice>
				<type>half</type>
				<lyric number='1'>
					<syllabic>end</syllabic>
					<text>heart</text>
				</lyric>
				<lyric number='2'>
					<syllabic>end</syllabic>
					<text>earth</text>
				</lyric>
				<lyric number='3'>
					<syllabic>end</syllabic>
					<text>cone</text>
				</lyric>
				<lyric number='4'>
					<syllabic>end</syllabic>
					<text>I</text>
				</lyric>
			</note>
			<note>
				<chord/>
				<pitch>
					<step>C</step>
					<octave>5</octave>
				</pitch>
				<duration>1536</duration>
				<voice>1</voice>
				<type>half</type>
			</note>
			<note>
				<pitch>
					<step>G</step>
					<octave>4</octave>
				</pitch>
				<duration>768</duration>
				<voice>1</voice>
				<type>quarter</type>
				<lyric number='1'>
					<syllabic>end</syllabic>
					<text>could</text>
				</lyric>
				<lyric number='2'>
					<syllabic>end</syllabic>
					<text>set</text>
				</lyric>
				<lyric number='3'>
					<syllabic>end</syllabic>
					<text>the</text>
				</lyric>
				<lyric number='4'>
					<syllabic>end</syllabic>
					<text>may</text>
				</lyric>
			</note>
			<note>
				<chord/>
				<pitch>
					<step>E</step>
					<octave>5</octave>
				</pitch>
				<duration>768</duration>
				<voice>1</voice>
				<type>quarter</type>
			</note>
		</measure>
		<measure number='5'>
			<note>
				<pitch>
					<step>G</step>
					<octave>4</octave>
				</pitch>
				<duration>2304</duration>
				<tie type='start'/>
				<voice>1</voice>
				<type>half</type>
				<dot/>
				<lyric number='1'>
					<syllabic>end</syllabic>
					<text>see;</text>
				</lyric>
				<lyric number='2'>
					<syllabic>end</syllabic>
					<text>free,</text>
				</lyric>
				<lyric number='3'>
					<syllabic>end</syllabic>
					<text>tree,</text>
				</lyric>
				<lyric number='4'>
					<syllabic>end</syllabic>
					<text>be,</text>
				</lyric>
			</note>
			<note>
				<chord/>
				<pitch>
					<step>D</step>
					<octave>5</octave>
				</pitch>
				<duration>2304</duration>
				<tie type='start'/>
				<voice>1</voice>
				<type>half</type>
				<dot/>
			</note>
			<note>
				<pitch>
					<step>G</step>
					<octave>4</octave>
				</pitch>
				<duration>1536</duration>
				<voice>1</voice>
				<type>half</type>
			</note>
			<note>
				<chord/>
				<pitch>
					<step>D</step>
					<octave>5</octave>
				</pitch>
				<duration>1536</duration>
				<voice>1</voice>
				<type>half</type>
			</note>
		</measure>
		<measure number='6'>
			<note>
				<pitch>
					<step>D</step>
					<octave>4</octave>
				</pitch>
				<duration>768</duration>
				<voice>1</voice>
				<type>quarter</type>
				<lyric number='1'>
					<syllabic>end</syllabic>
					<text>But</text>
				</lyric>
				<lyric number='2'>
					<syllabic>end</syllabic>
					<text>So</text>
				</lyric>
				<lyric number='3'>
					<syllabic>end</syllabic>
					<text>So,</text>
				</lyric>
				<lyric number='4'>
					<syllabic>end</syllabic>
					<text>As</text>
				</lyric>
			</note>
			<note>
				<chord/>
				<pitch>
					<step>C</step>
					<octave>5</octave>
				</pitch>
				<duration>768</duration>
				<voice>1</voice>
				<type>quarter</type>
			</note>
		</measure>
		<measure number='7'>
			<note>
				<pitch>
					<step>D</step>
					<octave>4</octave>
				</pitch>
				<duration>1536</duration>
				<voice>1</voice>
				<type>half</type>
				<lyric number='1'>
					<syllabic>end</syllabic>
					<text>in</text>
				</lyric>
				<lyric number='2'>
					<syllabic>end</syllabic>
					<text>life</text>
				</lyric>
				<lyric number='3'>
					<syllabic>end</syllabic>
					<text>praise</text>
				</lyric>
				<lyric number='4'>
					<syllabic>end</syllabic>
					<text>on</text>
				</lyric>
			</note>
			<note>
				<chord/>
				<pitch>
					<step>B</step>
					<octave>4</octave>
				</pitch>
				<duration>1536</duration>
				<voice>1</voice>
				<type>half</type>
			</note>
			<backup>
				<duration>1536</duration>
			</backup>
			<note>
				<rest/>
				<duration>2304</duration>
				<voice>2</voice>
				<type>half</type>
				<dot/>
			</note>
			<backup>
				<duration>768</duration>
			</backup>
			<note>
				<pitch>
					<step>D</step>
					<octave>4</octave>
				</pitch>
				<duration>768</duration>
				<voice>1</voice>
				<type>quarter</type>
				<lyric number='1'>
					<syllabic>end</syllabic>
					<text>God&#8217;s</text>
				</lyric>
				<lyric number='2'>
					<syllabic>end</syllabic>
					<text>and</text>
				</lyric>
				<lyric number='3'>
					<syllabic>end</syllabic>
					<text>the</text>
				</lyric>
				<lyric number='4'>
					<syllabic>end</syllabic>
					<text>the</text>
				</lyric>
			</note>
			<note>
				<chord/>
				<pitch>
					<step>B</step>
					<octave>4</octave>
				</pitch>
				<duration>768</duration>
				<voice>1</voice>
				<type>quarter</type>
			</note>
			<note>
				<pitch>
					<step>B</step>
					<octave>4</octave>
				</pitch>
				<duration>768</duration>
				<voice>1</voice>
				<type>quarter</type>
				<notations>
					<slur type='start' number='1'/>
				</notations>
				<lyric number='1'>
					<syllabic>end</syllabic>
					<text>Word</text>
				</lyric>
				<lyric number='2'>
					<syllabic>end</syllabic>
					<text>light</text>
				</lyric>
				<lyric number='3'>
					<syllabic>end</syllabic>
					<text>God</text>
				</lyric>
				<lyric number='4'>
					<syllabic>middle</syllabic>
					<text>won</text>
					<extend/>
				</lyric>
			</note>
			<backup>
				<duration>768</duration>
			</backup>
			<note>
				<pitch>
					<step>D</step>
					<octave>4</octave>
				</pitch>
				<duration>1536</duration>
				<voice>2</voice>
				<type>half</type>
			</note>
			<backup>
				<duration>768</duration>
			</backup>
			<note>
				<pitch>
					<step>A</step>
					<octave>4</octave>
				</pitch>
				<duration>768</duration>
				<voice>1</voice>
				<type>quarter</type>
				<notations>
					<slur type='stop' number='1'/>
				</notations>
			</note>
			<note>
				<pitch>
					<step>B</step>
					<octave>4</octave>
				</pitch>
				<duration>768</duration>
				<voice>1</voice>
				<type>quarter</type>
				<lyric number='1'>
					<syllabic>end</syllabic>
					<text>the</text>
				</lyric>
				<lyric number='2'>
					<syllabic>end</syllabic>
					<text>and</text>
				</lyric>
				<lyric number='3'>
					<syllabic>end</syllabic>
					<text>of</text>
				</lyric>
				<lyric number='4'>
					<syllabic>end</syllabic>
					<text>drous</text>
				</lyric>
			</note>
			<backup>
				<duration>768</duration>
			</backup>
			<note>
				<pitch>
					<step>D</step>
					<octave>4</octave>
				</pitch>
				<duration>384</duration>
				<voice>2</voice>
				<type>eighth</type>
				<beam number='1'>continue</beam>
				<notations>
					<slur type='start' number='1'/>
				</notations>
			</note>
			<note>
				<pitch>
					<step>F</step>
					<octave>4</octave>
				</pitch>
				<duration>384</duration>
				<voice>2</voice>
				<type>eighth</type>
				<beam number='1'>continue</beam>
				<notations>
					<slur type='stop' number='1'/>
				</notations>
			</note>
		</measure>
		<measure number='8'>
			<note>
				<pitch>
					<step>F</step>
					<octave>4</octave>
				</pitch>
				<duration>1536</duration>
				<voice>1</voice>
				<type>half</type>
				<lyric number='1'>
					<syllabic>end</syllabic>
					<text>light</text>
				</lyric>
				<lyric number='2'>
					<syllabic>end</syllabic>
					<text>love</text>
				</lyric>
				<lyric number='3'>
					<syllabic>end</syllabic>
					<text>truth</text>
				</lyric>
				<lyric number='4'>
					<syllabic>end</syllabic>
					<text>thought</text>
				</lyric>
			</note>
			<note>
				<chord/>
				<pitch>
					<step>D</step>
					<octave>5</octave>
				</pitch>
				<duration>1536</duration>
				<voice>1</voice>
				<type>half</type>
			</note>
			<note>
				<pitch>
					<step>E</step>
					<octave>4</octave>
				</pitch>
				<duration>768</duration>
				<voice>1</voice>
				<type>quarter</type>
				<lyric number='1'>
					<syllabic>end</syllabic>
					<text>I</text>
				</lyric>
				<lyric number='2'>
					<syllabic>end</syllabic>
					<text>came</text>
				</lyric>
				<lyric number='3'>
					<syllabic>end</syllabic>
					<text>and</text>
				</lyric>
				<lyric number='4'>
					<syllabic>end</syllabic>
					<text>I</text>
				</lyric>
			</note>
			<note>
				<chord/>
				<pitch>
					<step>C</step>
					<octave>5</octave>
				</pitch>
				<duration>768</duration>
				<voice>1</voice>
				<type>quarter</type>
			</note>
			<note>
				<pitch>
					<step>E</step>
					<octave>4</octave>
				</pitch>
				<duration>1536</duration>
				<voice>1</voice>
				<type>half</type>
				<lyric number='1'>
					<syllabic>end</syllabic>
					<text>found,</text>
				</lyric>
				<lyric number='2'>
					<syllabic>end</syllabic>
					<text>forth</text>
				</lyric>
				<lyric number='3'>
					<syllabic>end</syllabic>
					<text>grace,</text>
				</lyric>
				<lyric number='4'>
					<syllabic>end</syllabic>
					<text>dwell</text>
				</lyric>
			</note>
			<note>
				<chord/>
				<pitch>
					<step>G</step>
					<octave>4</octave>
				</pitch>
				<duration>1536</duration>
				<voice>1</voice>
				<type>half</type>
			</note>
			<note>
				<pitch>
					<step>E</step>
					<octave>4</octave>
				</pitch>
				<duration>768</duration>
				<voice>1</voice>
				<type>quarter</type>
				<lyric number='1'>
					<syllabic>end</syllabic>
					<text>Now</text>
				</lyric>
				<lyric number='2'>
					<syllabic>end</syllabic>
					<text>From</text>
				</lyric>
				<lyric number='3'>
					<syllabic>end</syllabic>
					<text>His</text>
				</lyric>
				<lyric number='4'>
					<syllabic>end</syllabic>
					<text>That</text>
				</lyric>
			</note>
			<note>
				<chord/>
				<pitch>
					<step>A</step>
					<octave>4</octave>
				</pitch>
				<duration>768</duration>
				<voice>1</voice>
				<type>quarter</type>
			</note>
		</measure>
		<measure number='9'>
			<note>
				<pitch>
					<step>D</step>
					<octave>4</octave>
				</pitch>
				<duration>1536</duration>
				<tie type='start'/>
				<voice>1</voice>
				<type>half</type>
				<lyric number='1'>
					<syllabic>end</syllabic>
					<text>Christ</text>
				</lyric>
				<lyric number='2'>
					<syllabic>end</syllabic>
					<text>Christ</text>
				</lyric>
				<lyric number='3'>
					<syllabic>middle</syllabic>
					<text>Spir</text>
				</lyric>
				<lyric number='4'>
					<syllabic>end</syllabic>
					<text>Christ</text>
				</lyric>
			</note>
			<note>
				<chord/>
				<pitch>
					<step>B</step>
					<octave>4</octave>
				</pitch>
				<duration>1536</duration>
				<tie type='start'/>
				<voice>1</voice>
				<type>half</type>
			</note>
			<note>
				<pitch>
					<step>D</step>
					<octave>4</octave>
				</pitch>
				<duration>768</duration>
				<voice>1</voice>
				<type>quarter</type>
				<lyric number='3'>
					<syllabic>end</syllabic>
					<text>it</text>
				</lyric>
			</note>
			<note>
				<chord/>
				<pitch>
					<step>B</step>
					<octave>4</octave>
				</pitch>
				<duration>768</duration>
				<voice>1</voice>
				<type>quarter</type>
			</note>
			<note>
				<pitch>
					<step>C</step>
					<octave>4</octave>
				</pitch>
				<duration>1152</duration>
				<voice>1</voice>
				<type>quarter</type>
				<dot/>
				<lyric number='1'>
					<syllabic>middle</syllabic>
					<text>liv</text>
				</lyric>
				<lyric number='2'>
					<syllabic>middle</syllabic>
					<text>liv</text>
				</lyric>
				<lyric number='3'>
					<syllabic>middle</syllabic>
					<text>dwell</text>
				</lyric>
				<lyric number='4'>
					<syllabic>middle</syllabic>
					<text>liv</text>
				</lyric>
			</note>
			<note>
				<chord/>
				<pitch>
					<step>A</step>
					<octave>4</octave>
				</pitch>
				<duration>1152</duration>
				<voice>1</voice>
				<type>quarter</type>
				<dot/>
			</note>
			<note>
				<pitch>
					<step>C</step>
					<octave>4</octave>
				</pitch>
				<duration>384</duration>
				<voice>1</voice>
				<type>eighth</type>
				<beam number='1'>continue</beam>
				<lyric number='1'>
					<syllabic>end</syllabic>
					<text>eth</text>
				</lyric>
				<lyric number='2'>
					<syllabic>end</syllabic>
					<text>ing</text>
				</lyric>
				<lyric number='3'>
					<syllabic>end</syllabic>
					<text>eth</text>
				</lyric>
				<lyric number='4'>
					<syllabic>end</syllabic>
					<text>eth</text>
				</lyric>
			</note>
			<note>
				<chord/>
				<pitch>
					<step>D</step>
					<octave>4</octave>
				</pitch>
				<duration>384</duration>
				<voice>1</voice>
				<type>eighth</type>
			</note>
			<note>
				<pitch>
					<step>C</step>
					<octave>4</octave>
				</pitch>
				<duration>768</duration>
				<voice>1</voice>
				<type>quarter</type>
				<lyric number='1'>
					<syllabic>end</syllabic>
					<text>in</text>
				</lyric>
				<lyric number='2'>
					<syllabic>end</syllabic>
					<text>in</text>
				</lyric>
				<lyric number='3'>
					<syllabic>end</syllabic>
					<text>in</text>
				</lyric>
				<lyric number='4'>
					<syllabic>end</syllabic>
					<text>in</text>
				</lyric>
			</note>
			<note>
				<chord/>
				<pitch>
					<step>A</step>
					<octave>4</octave>
				</pitch>
				<duration>768</duration>
				<voice>1</voice>
				<type>quarter</type>
			</note>
		</measure>
		<measure number='10'>
			<note>
				<pitch>
					<step>B</step>
					<octave>3</octave>
				</pitch>
				<duration>2304</duration>
				<tie type='start'/>
				<voice>1</voice>
				<type>half</type>
				<dot/>
				<lyric number='1'>
					<syllabic>end</syllabic>
					<text>me.</text>
				</lyric>
				<lyric number='2'>
					<syllabic>end</syllabic>
					<text>me.</text>
				</lyric>
				<lyric number='3'>
					<syllabic>end</syllabic>
					<text>me.</text>
				</lyric>
				<lyric number='4'>
					<syllabic>end</syllabic>
					<text>me.</text>
				</lyric>
			</note>
			<note>
				<chord/>
				<pitch>
					<step>G</step>
					<octave>4</octave>
				</pitch>
				<duration>2304</duration>
				<tie type='start'/>
				<voice>1</voice>
				<type>half</type>
				<dot/>
			</note>
			<note>
				<pitch>
					<step>B</step>
					<octave>3</octave>
				</pitch>
				<duration>1536</duration>
				<voice>1</voice>
				<type>half</type>
			</note>
			<note>
				<chord/>
				<pitch>
					<step>G</step>
					<octave>4</octave>
				</pitch>
				<duration>1536</duration>
				<voice>1</voice>
				<type>half</type>
			</note>
			<note>
				<rest/>
				<duration>768</duration>
				<voice>1</voice>
				<type>quarter</type>
			</note>
			<barline location='right'>
				<bar-style>light-light</bar-style>
			</barline>
		</measure>
		<measure number='11'>
			<direction>
				<direction-type>
					<words default-y='25' relative-x='-54'>Refrain</words>
				</direction-type>
			</direction>
			<note>
				<pitch>
					<step>G</step>
					<octave>4</octave>
				</pitch>
				<duration>2304</duration>
				<voice>1</voice>
				<type>half</type>
				<dot/>
				<lyric number='1'>
					<syllabic>end</syllabic>
					<text>Christ</text>
				</lyric>
			</note>
			<note>
				<chord/>
				<pitch>
					<step>B</step>
					<octave>4</octave>
				</pitch>
				<duration>2304</duration>
				<voice>1</voice>
				<type>half</type>
				<dot/>
			</note>
			<note>
				<pitch>
					<step>B</step>
					<octave>4</octave>
				</pitch>
				<duration>1152</duration>
				<voice>1</voice>
				<type>quarter</type>
				<dot/>
				<lyric number='1'>
					<syllabic>middle</syllabic>
					<text>liv</text>
				</lyric>
			</note>
			<note>
				<chord/>
				<pitch>
					<step>D</step>
					<octave>5</octave>
				</pitch>
				<duration>1152</duration>
				<voice>1</voice>
				<type>quarter</type>
				<dot/>
			</note>
			<note>
				<pitch>
					<step>A</step>
					<octave>4</octave>
				</pitch>
				<duration>384</duration>
				<voice>1</voice>
				<type>eighth</type>
				<beam number='1'>continue</beam>
				<lyric number='1'>
					<syllabic>end</syllabic>
					<text>eth</text>
				</lyric>
			</note>
			<note>
				<chord/>
				<pitch>
					<step>C</step>
					<octave>5</octave>
				</pitch>
				<duration>384</duration>
				<voice>1</voice>
				<type>eighth</type>
			</note>
			<note>
				<pitch>
					<step>G</step>
					<octave>4</octave>
				</pitch>
				<duration>768</duration>
				<voice>1</voice>
				<type>quarter</type>
				<lyric number='1'>
					<syllabic>end</syllabic>
					<text>in</text>
				</lyric>
			</note>
			<note>
				<chord/>
				<pitch>
					<step>B</step>
					<octave>4</octave>
				</pitch>
				<duration>768</duration>
				<voice>1</voice>
				<type>quarter</type>
			</note>
		</measure>
		<measure number='12'>
			<note>
				<pitch>
					<step>F</step>
					<alter>1</alter>
					<octave>4</octave>
				</pitch>
				<duration>4608</duration>
				<voice>1</voice>
				<type>whole</type>
				<dot/>
				<lyric number='1'>
					<syllabic>end</syllabic>
					<text>me,</text>
				</lyric>
			</note>
			<note>
				<chord/>
				<pitch>
					<step>A</step>
					<octave>4</octave>
				</pitch>
				<duration>4608</duration>
				<voice>1</voice>
				<type>whole</type>
				<dot/>
			</note>
		</measure>
		<measure number='13'>
			<note>
				<pitch>
					<step>E</step>
					<octave>4</octave>
				</pitch>
				<duration>2304</duration>
				<voice>1</voice>
				<type>half</type>
				<dot/>
				<lyric number='1'>
					<syllabic>end</syllabic>
					<text>Christ</text>
				</lyric>
			</note>
			<note>
				<chord/>
				<pitch>
					<step>G</step>
					<octave>4</octave>
				</pitch>
				<duration>2304</duration>
				<voice>1</voice>
				<type>half</type>
				<dot/>
			</note>
			<note>
				<pitch>
					<step>G</step>
					<octave>4</octave>
				</pitch>
				<duration>1152</duration>
				<voice>1</voice>
				<type>quarter</type>
				<dot/>
				<lyric number='1'>
					<syllabic>middle</syllabic>
					<text>liv</text>
				</lyric>
			</note>
			<note>
				<chord/>
				<pitch>
					<step>B</step>
					<octave>4</octave>
				</pitch>
				<duration>1152</duration>
				<voice>1</voice>
				<type>quarter</type>
				<dot/>
			</note>
			<note>
				<pitch>
					<step>F</step>
					<alter>1</alter>
					<octave>4</octave>
				</pitch>
				<duration>384</duration>
				<voice>1</voice>
				<type>eighth</type>
				<beam number='1'>continue</beam>
				<lyric number='1'>
					<syllabic>end</syllabic>
					<text>eth</text>
				</lyric>
			</note>
			<note>
				<chord/>
				<pitch>
					<step>A</step>
					<octave>4</octave>
				</pitch>
				<duration>384</duration>
				<voice>1</voice>
				<type>eighth</type>
			</note>
			<note>
				<pitch>
					<step>E</step>
					<octave>4</octave>
				</pitch>
				<duration>768</duration>
				<voice>1</voice>
				<type>quarter</type>
				<lyric number='1'>
					<syllabic>end</syllabic>
					<text>in</text>
				</lyric>
			</note>
			<note>
				<chord/>
				<pitch>
					<step>G</step>
					<octave>4</octave>
				</pitch>
				<duration>768</duration>
				<voice>1</voice>
				<type>quarter</type>
			</note>
		</measure>
		<measure number='14'>
			<note>
				<pitch>
					<step>D</step>
					<alter>1</alter>
					<octave>4</octave>
				</pitch>
				<duration>4608</duration>
				<voice>1</voice>
				<type>whole</type>
				<dot/>
				<lyric number='1'>
					<syllabic>end</syllabic>
					<text>me,</text>
				</lyric>
			</note>
			<note>
				<chord/>
				<pitch>
					<step>F</step>
					<alter>1</alter>
					<octave>4</octave>
				</pitch>
				<duration>4608</duration>
				<voice>1</voice>
				<type>whole</type>
				<dot/>
			</note>
		</measure>
		<measure number='15'>
			<note>
				<pitch>
					<step>C</step>
					<octave>4</octave>
				</pitch>
				<duration>2304</duration>
				<voice>1</voice>
				<type>half</type>
				<dot/>
				<lyric number='1'>
					<syllabic>end</syllabic>
					<text>Oh!</text>
				</lyric>
			</note>
			<note>
				<chord/>
				<pitch>
					<step>E</step>
					<octave>4</octave>
				</pitch>
				<duration>2304</duration>
				<voice>1</voice>
				<type>half</type>
				<dot/>
			</note>
			<note>
				<pitch>
					<step>E</step>
					<octave>4</octave>
				</pitch>
				<duration>768</duration>
				<voice>1</voice>
				<type>quarter</type>
				<lyric number='1'>
					<syllabic>end</syllabic>
					<text>what</text>
				</lyric>
			</note>
			<note>
				<chord/>
				<pitch>
					<step>G</step>
					<octave>4</octave>
				</pitch>
				<duration>768</duration>
				<voice>1</voice>
				<type>quarter</type>
			</note>
			<note>
				<pitch>
					<step>E</step>
					<octave>4</octave>
				</pitch>
				<duration>768</duration>
				<voice>1</voice>
				<type>quarter</type>
				<lyric number='1'>
					<syllabic>end</syllabic>
					<text>a</text>
				</lyric>
			</note>
			<note>
				<chord/>
				<pitch>
					<step>C</step>
					<octave>5</octave>
				</pitch>
				<duration>768</duration>
				<voice>1</voice>
				<type>quarter</type>
			</note>
			<note>
				<pitch>
					<step>G</step>
					<octave>4</octave>
				</pitch>
				<duration>768</duration>
				<voice>1</voice>
				<type>quarter</type>
				<lyric number='1'>
					<syllabic>middle</syllabic>
					<text>sal</text>
				</lyric>
			</note>
			<note>
				<chord/>
				<pitch>
					<step>E</step>
					<octave>5</octave>
				</pitch>
				<duration>768</duration>
				<voice>1</voice>
				<type>quarter</type>
			</note>
		</measure>
		<measure number='16'>
			<note>
				<pitch>
					<step>G</step>
					<octave>4</octave>
				</pitch>
				<duration>1536</duration>
				<voice>1</voice>
				<type>half</type>
				<lyric number='1'>
					<syllabic>middle</syllabic>
					<text>va</text>
				</lyric>
			</note>
			<note>
				<chord/>
				<pitch>
					<step>D</step>
					<octave>5</octave>
				</pitch>
				<duration>1536</duration>
				<voice>1</voice>
				<type>half</type>
			</note>
			<note>
				<pitch>
					<step>D</step>
					<octave>4</octave>
				</pitch>
				<duration>768</duration>
				<voice>1</voice>
				<type>quarter</type>
				<lyric number='1'>
					<syllabic>end</syllabic>
					<text>tion</text>
				</lyric>
			</note>
			<note>
				<chord/>
				<pitch>
					<step>B</step>
					<octave>4</octave>
				</pitch>
				<duration>768</duration>
				<voice>1</voice>
				<type>quarter</type>
			</note>
			<note>
				<pitch>
					<step>D</step>
					<octave>4</octave>
				</pitch>
				<duration>1536</duration>
				<voice>1</voice>
				<type>half</type>
				<lyric number='1'>
					<syllabic>end</syllabic>
					<text>this,</text>
				</lyric>
			</note>
			<note>
				<chord/>
				<pitch>
					<step>G</step>
					<octave>4</octave>
				</pitch>
				<duration>1536</duration>
				<voice>1</voice>
				<type>half</type>
			</note>
			<note>
				<pitch>
					<step>E</step>
					<octave>4</octave>
				</pitch>
				<duration>768</duration>
				<voice>1</voice>
				<type>quarter</type>
				<lyric number='1'>
					<syllabic>end</syllabic>
					<text>That</text>
				</lyric>
			</note>
			<note>
				<chord/>
				<pitch>
					<step>A</step>
					<octave>4</octave>
				</pitch>
				<duration>768</duration>
				<voice>1</voice>
				<type>quarter</type>
			</note>
		</measure>
		<measure number='17'>
			<note>
				<pitch>
					<step>D</step>
					<octave>4</octave>
				</pitch>
				<duration>2304</duration>
				<voice>1</voice>
				<type>half</type>
				<dot/>
				<lyric number='1'>
					<syllabic>end</syllabic>
					<text>Christ</text>
				</lyric>
			</note>
			<note>
				<chord/>
				<pitch>
					<step>B</step>
					<octave>4</octave>
				</pitch>
				<duration>2304</duration>
				<voice>1</voice>
				<type>half</type>
				<dot/>
			</note>
			<note>
				<pitch>
					<step>C</step>
					<octave>4</octave>
				</pitch>
				<duration>1152</duration>
				<voice>1</voice>
				<type>quarter</type>
				<dot/>
				<lyric number='1'>
					<syllabic>middle</syllabic>
					<text>liv</text>
				</lyric>
			</note>
			<note>
				<chord/>
				<pitch>
					<step>A</step>
					<octave>4</octave>
				</pitch>
				<duration>1152</duration>
				<voice>1</voice>
				<type>quarter</type>
				<dot/>
			</note>
			<note>
				<pitch>
					<step>C</step>
					<octave>4</octave>
				</pitch>
				<duration>384</duration>
				<voice>1</voice>
				<type>eighth</type>
				<beam number='1'>continue</beam>
				<lyric number='1'>
					<syllabic>end</syllabic>
					<text>eth</text>
				</lyric>
			</note>
			<note>
				<chord/>
				<pitch>
					<step>D</step>
					<octave>4</octave>
				</pitch>
				<duration>384</duration>
				<voice>1</voice>
				<type>eighth</type>
			</note>
			<note>
				<pitch>
					<step>C</step>
					<octave>4</octave>
				</pitch>
				<duration>768</duration>
				<voice>1</voice>
				<type>quarter</type>
				<lyric number='1'>
					<syllabic>end</syllabic>
					<text>in</text>
				</lyric>
			</note>
			<note>
				<chord/>
				<pitch>
					<step>A</step>
					<octave>4</octave>
				</pitch>
				<duration>768</duration>
				<voice>1</voice>
				<type>quarter</type>
			</note>
		</measure>
		<measure number='18'>
			<note>
				<pitch>
					<step>B</step>
					<octave>3</octave>
				</pitch>
				<duration>2304</duration>
				<tie type='start'/>
				<voice>1</voice>
				<type>half</type>
				<dot/>
				<lyric number='1'>
					<syllabic>end</syllabic>
					<text>me.</text>
				</lyric>
			</note>
			<note>
				<chord/>
				<pitch>
					<step>G</step>
					<octave>4</octave>
				</pitch>
				<duration>2304</duration>
				<tie type='start'/>
				<voice>1</voice>
				<type>half</type>
				<dot/>
			</note>
			<note>
				<pitch>
					<step>B</step>
					<octave>3</octave>
				</pitch>
				<duration>1536</duration>
				<voice>1</voice>
				<type>half</type>
			</note>
			<note>
				<chord/>
				<pitch>
					<step>G</step>
					<octave>4</octave>
				</pitch>
				<duration>1536</duration>
				<voice>1</voice>
				<type>half</type>
			</note>
			<barline location='right'>
				<bar-style>light-heavy</bar-style>
			</barline>
		</measure>
	</part>
	<part id='P2'>
		<measure number='1'>
			<attributes>
				<divisions>768</divisions>
				<key>
					<fifths>1</fifths>
					<mode>major</mode>
				</key>
				<time>
					<beats>6</beats>
					<beat-type>4</beat-type>
				</time>
				<clef>
					<sign>F</sign>
					<line>4</line>
				</clef>
			</attributes>
			<direction placement='above'>
				<direction-type>
					<metronome>
						<beat-unit>quarter</beat-unit>
						<per-minute>140</per-minute>
					</metronome>
				</direction-type>
				<sound tempo='140'/>
			</direction>
			<note>
				<pitch>
					<step>G</step>
					<octave>2</octave>
				</pitch>
				<duration>768</duration>
				<voice>1</voice>
				<type>quarter</type>
			</note>
			<note>
				<chord/>
				<pitch>
					<step>G</step>
					<octave>3</octave>
				</pitch>
				<duration>768</duration>
				<voice>1</voice>
				<type>quarter</type>
			</note>
		</measure>
		<measure number='2'>
			<note>
				<pitch>
					<step>G</step>
					<octave>2</octave>
				</pitch>
				<duration>1536</duration>
				<voice>1</voice>
				<type>half</type>
			</note>
			<note>
				<chord/>
				<pitch>
					<step>G</step>
					<octave>3</octave>
				</pitch>
				<duration>1536</duration>
				<voice>1</voice>
				<type>half</type>
			</note>
			<note>
				<pitch>
					<step>D</step>
					<octave>3</octave>
				</pitch>
				<duration>768</duration>
				<voice>1</voice>
				<type>quarter</type>
			</note>
			<note>
				<chord/>
				<pitch>
					<step>F</step>
					<alter>1</alter>
					<octave>3</octave>
				</pitch>
				<duration>768</duration>
				<voice>1</voice>
				<type>quarter</type>
			</note>
			<note>
				<pitch>
					<step>E</step>
					<octave>3</octave>
				</pitch>
				<duration>1536</duration>
				<voice>1</voice>
				<type>half</type>
			</note>
			<note>
				<chord/>
				<pitch>
					<step>G</step>
					<octave>3</octave>
				</pitch>
				<duration>1536</duration>
				<voice>1</voice>
				<type>half</type>
			</note>
			<note>
				<pitch>
					<step>B</step>
					<octave>2</octave>
				</pitch>
				<duration>768</duration>
				<voice>1</voice>
				<type>quarter</type>
			</note>
			<note>
				<chord/>
				<pitch>
					<step>G</step>
					<octave>3</octave>
				</pitch>
				<duration>768</duration>
				<voice>1</voice>
				<type>quarter</type>
			</note>
		</measure>
		<measure number='3'>
			<note>
				<pitch>
					<step>C</step>
					<octave>3</octave>
				</pitch>
				<duration>1536</duration>
				<voice>1</voice>
				<type>half</type>
			</note>
			<note>
				<chord/>
				<pitch>
					<step>G</step>
					<octave>3</octave>
				</pitch>
				<duration>1536</duration>
				<voice>1</voice>
				<type>half</type>
			</note>
			<note>
				<pitch>
					<step>C</step>
					<octave>3</octave>
				</pitch>
				<duration>768</duration>
				<voice>1</voice>
				<type>quarter</type>
			</note>
			<note>
				<chord/>
				<pitch>
					<step>G</step>
					<octave>3</octave>
				</pitch>
				<duration>768</duration>
				<voice>1</voice>
				<type>quarter</type>
			</note>
			<note>
				<pitch>
					<step>G</step>
					<octave>2</octave>
				</pitch>
				<duration>1536</duration>
				<voice>1</voice>
				<type>half</type>
			</note>
			<note>
				<chord/>
				<pitch>
					<step>G</step>
					<octave>3</octave>
				</pitch>
				<duration>1536</duration>
				<voice>1</voice>
				<type>half</type>
			</note>
			<note>
				<pitch>
					<step>G</step>
					<octave>2</octave>
				</pitch>
				<duration>768</duration>
				<voice>1</voice>
				<type>quarter</type>
			</note>
			<note>
				<chord/>
				<pitch>
					<step>G</step>
					<octave>3</octave>
				</pitch>
				<duration>768</duration>
				<voice>1</voice>
				<type>quarter</type>
			</note>
		</measure>
		<measure number='4'>
			<note>
				<pitch>
					<step>C</step>
					<octave>3</octave>
				</pitch>
				<duration>1536</duration>
				<voice>1</voice>
				<type>half</type>
			</note>
			<note>
				<chord/>
				<pitch>
					<step>G</step>
					<octave>3</octave>
				</pitch>
				<duration>1536</duration>
				<voice>1</voice>
				<type>half</type>
			</note>
			<note>
				<pitch>
					<step>C</step>
					<octave>3</octave>
				</pitch>
				<duration>768</duration>
				<voice>1</voice>
				<type>quarter</type>
			</note>
			<note>
				<chord/>
				<pitch>
					<step>G</step>
					<octave>3</octave>
				</pitch>
				<duration>768</duration>
				<voice>1</voice>
				<type>quarter</type>
			</note>
			<note>
				<pitch>
					<step>C</step>
					<octave>3</octave>
				</pitch>
				<duration>1536</duration>
				<voice>1</voice>
				<type>half</type>
			</note>
			<note>
				<chord/>
				<pitch>
					<step>G</step>
					<octave>3</octave>
				</pitch>
				<duration>1536</duration>
				<voice>1</voice>
				<type>half</type>
			</note>
			<note>
				<pitch>
					<step>C</step>
					<octave>3</octave>
				</pitch>
				<duration>768</duration>
				<voice>1</voice>
				<type>quarter</type>
			</note>
			<note>
				<chord/>
				<pitch>
					<step>C</step>
					<octave>4</octave>
				</pitch>
				<duration>768</duration>
				<voice>1</voice>
				<type>quarter</type>
			</note>
		</measure>
		<measure number='5'>
			<note>
				<pitch>
					<step>G</step>
					<octave>3</octave>
				</pitch>
				<duration>2304</duration>
				<tie type='start'/>
				<voice>1</voice>
				<type>half</type>
				<dot/>
			</note>
			<note>
				<chord/>
				<pitch>
					<step>B</step>
					<octave>3</octave>
				</pitch>
				<duration>2304</duration>
				<tie type='start'/>
				<voice>1</voice>
				<type>half</type>
				<dot/>
			</note>
			<note>
				<pitch>
					<step>G</step>
					<octave>3</octave>
				</pitch>
				<duration>1536</duration>
				<voice>1</voice>
				<type>half</type>
			</note>
			<note>
				<chord/>
				<pitch>
					<step>B</step>
					<octave>3</octave>
				</pitch>
				<duration>1536</duration>
				<voice>1</voice>
				<type>half</type>
			</note>
		</measure>
		<measure number='6'>
			<note>
				<pitch>
					<step>F</step>
					<alter>1</alter>
					<octave>3</octave>
				</pitch>
				<duration>768</duration>
				<voice>1</voice>
				<type>quarter</type>
			</note>
			<note>
				<chord/>
				<pitch>
					<step>A</step>
					<octave>3</octave>
				</pitch>
				<duration>768</duration>
				<voice>1</voice>
				<type>quarter</type>
			</note>
		</measure>
		<measure number='7'>
			<note>
				<pitch>
					<step>G</step>
					<octave>3</octave>
				</pitch>
				<duration>1536</duration>
				<voice>1</voice>
				<type>half</type>
			</note>
			<backup>
				<duration>1536</duration>
			</backup>
			<note>
				<pitch>
					<step>G</step>
					<octave>3</octave>
				</pitch>
				<duration>1536</duration>
				<voice>2</voice>
				<type>half</type>
			</note>
			<note>
				<pitch>
					<step>G</step>
					<octave>3</octave>
				</pitch>
				<duration>768</duration>
				<voice>1</voice>
				<type>quarter</type>
			</note>
			<backup>
				<duration>768</duration>
			</backup>
			<note>
				<pitch>
					<step>G</step>
					<octave>3</octave>
				</pitch>
				<duration>768</duration>
				<voice>2</voice>
				<type>quarter</type>
			</note>
			<note>
				<pitch>
					<step>G</step>
					<octave>3</octave>
				</pitch>
				<duration>768</duration>
				<voice>1</voice>
				<type>quarter</type>
				<notations>
					<slur type='start' number='1'/>
				</notations>
			</note>
			<backup>
				<duration>768</duration>
			</backup>
			<note>
				<pitch>
					<step>G</step>
					<octave>3</octave>
				</pitch>
				<duration>768</duration>
				<voice>2</voice>
				<type>quarter</type>
				<notations>
					<slur type='start' number='2'/>
				</notations>
			</note>
			<note>
				<pitch>
					<step>A</step>
					<octave>3</octave>
				</pitch>
				<duration>768</duration>
				<voice>1</voice>
				<type>quarter</type>
				<notations>
					<slur type='stop' number='1'/>
				</notations>
			</note>
			<backup>
				<duration>768</duration>
			</backup>
			<note>
				<pitch>
					<step>F</step>
					<alter>1</alter>
					<octave>3</octave>
				</pitch>
				<duration>768</duration>
				<voice>2</voice>
				<type>quarter</type>
				<notations>
					<slur type='stop' number='2'/>
				</notations>
			</note>
			<note>
				<pitch>
					<step>G</step>
					<octave>3</octave>
				</pitch>
				<duration>768</duration>
				<voice>1</voice>
				<type>quarter</type>
			</note>
			<backup>
				<duration>768</duration>
			</backup>
			<note>
				<pitch>
					<step>G</step>
					<octave>3</octave>
				</pitch>
				<duration>768</duration>
				<voice>2</voice>
				<type>quarter</type>
			</note>
		</measure>
		<measure number='8'>
			<note>
				<pitch>
					<step>C</step>
					<octave>3</octave>
				</pitch>
				<duration>1536</duration>
				<voice>1</voice>
				<type>half</type>
			</note>
			<note>
				<chord/>
				<pitch>
					<step>G</step>
					<octave>3</octave>
				</pitch>
				<duration>1536</duration>
				<voice>1</voice>
				<type>half</type>
			</note>
			<note>
				<pitch>
					<step>C</step>
					<octave>3</octave>
				</pitch>
				<duration>768</duration>
				<voice>1</voice>
				<type>quarter</type>
			</note>
			<note>
				<chord/>
				<pitch>
					<step>G</step>
					<octave>3</octave>
				</pitch>
				<duration>768</duration>
				<voice>1</voice>
				<type>quarter</type>
			</note>
			<note>
				<pitch>
					<step>C</step>
					<octave>3</octave>
				</pitch>
				<duration>1536</duration>
				<voice>1</voice>
				<type>half</type>
			</note>
			<note>
				<chord/>
				<pitch>
					<step>C</step>
					<octave>4</octave>
				</pitch>
				<duration>1536</duration>
				<voice>1</voice>
				<type>half</type>
			</note>
			<note>
				<pitch>
					<step>C</step>
					<octave>3</octave>
				</pitch>
				<duration>768</duration>
				<voice>1</voice>
				<type>quarter</type>
			</note>
			<note>
				<chord/>
				<pitch>
					<step>C</step>
					<octave>4</octave>
				</pitch>
				<duration>768</duration>
				<voice>1</voice>
				<type>quarter</type>
			</note>
		</measure>
		<measure number='9'>
			<note>
				<pitch>
					<step>D</step>
					<octave>3</octave>
				</pitch>
				<duration>1536</duration>
				<tie type='start'/>
				<voice>1</voice>
				<type>half</type>
			</note>
			<note>
				<chord/>
				<pitch>
					<step>G</step>
					<octave>3</octave>
				</pitch>
				<duration>1536</duration>
				<tie type='start'/>
				<voice>1</voice>
				<type>half</type>
			</note>
			<note>
				<pitch>
					<step>D</step>
					<octave>3</octave>
				</pitch>
				<duration>768</duration>
				<voice>1</voice>
				<type>quarter</type>
			</note>
			<note>
				<chord/>
				<pitch>
					<step>G</step>
					<octave>3</octave>
				</pitch>
				<duration>768</duration>
				<voice>1</voice>
				<type>quarter</type>
			</note>
			<note>
				<pitch>
					<step>D</step>
					<octave>3</octave>
				</pitch>
				<duration>1152</duration>
				<voice>1</voice>
				<type>quarter</type>
				<dot/>
			</note>
			<note>
				<chord/>
				<pitch>
					<step>F</step>
					<alter>1</alter>
					<octave>3</octave>
				</pitch>
				<duration>1152</duration>
				<voice>1</voice>
				<type>quarter</type>
				<dot/>
			</note>
			<note>
				<pitch>
					<step>D</step>
					<octave>3</octave>
				</pitch>
				<duration>384</duration>
				<voice>1</voice>
				<type>eighth</type>
				<beam number='1'>continue</beam>
			</note>
			<note>
				<chord/>
				<pitch>
					<step>F</step>
					<alter>1</alter>
					<octave>3</octave>
				</pitch>
				<duration>384</duration>
				<voice>1</voice>
				<type>eighth</type>
			</note>
			<note>
				<pitch>
					<step>D</step>
					<octave>3</octave>
				</pitch>
				<duration>768</duration>
				<voice>1</voice>
				<type>quarter</type>
			</note>
			<note>
				<chord/>
				<pitch>
					<step>F</step>
					<alter>1</alter>
					<octave>3</octave>
				</pitch>
				<duration>768</duration>
				<voice>1</voice>
				<type>quarter</type>
			</note>
		</measure>
		<measure number='10'>
			<note>
				<pitch>
					<step>G</step>
					<octave>2</octave>
				</pitch>
				<duration>2304</duration>
				<tie type='start'/>
				<voice>1</voice>
				<type>half</type>
				<dot/>
			</note>
			<note>
				<chord/>
				<pitch>
					<step>G</step>
					<octave>3</octave>
				</pitch>
				<duration>2304</duration>
				<tie type='start'/>
				<voice>1</voice>
				<type>half</type>
				<dot/>
			</note>
			<note>
				<pitch>
					<step>G</step>
					<octave>2</octave>
				</pitch>
				<duration>1536</duration>
				<voice>1</voice>
				<type>half</type>
			</note>
			<note>
				<chord/>
				<pitch>
					<step>G</step>
					<octave>3</octave>
				</pitch>
				<duration>1536</duration>
				<voice>1</voice>
				<type>half</type>
			</note>
			<note>
				<rest/>
				<duration>768</duration>
				<voice>1</voice>
				<type>quarter</type>
			</note>
			<barline location='right'>
				<bar-style>light-light</bar-style>
			</barline>
		</measure>
		<measure number='11'>
			<note>
				<rest/>
				<duration>4608</duration>
			</note>
		</measure>
		<measure number='12'>
			<note>
				<pitch>
					<step>D</step>
					<octave>3</octave>
				</pitch>
				<duration>2304</duration>
				<voice>1</voice>
				<type>half</type>
				<dot/>
				<lyric number='1'>
					<syllabic>end</syllabic>
					<text>Christ</text>
				</lyric>
			</note>
			<note>
				<chord/>
				<pitch>
					<step>D</step>
					<octave>4</octave>
				</pitch>
				<duration>2304</duration>
				<voice>1</voice>
				<type>half</type>
				<dot/>
			</note>
			<note>
				<pitch>
					<step>D</step>
					<octave>3</octave>
				</pitch>
				<duration>1152</duration>
				<voice>1</voice>
				<type>quarter</type>
				<dot/>
				<lyric number='1'>
					<syllabic>middle</syllabic>
					<text>liv</text>
				</lyric>
			</note>
			<note>
				<chord/>
				<pitch>
					<step>D</step>
					<octave>4</octave>
				</pitch>
				<duration>1152</duration>
				<voice>1</voice>
				<type>quarter</type>
				<dot/>
			</note>
			<note>
				<pitch>
					<step>D</step>
					<octave>3</octave>
				</pitch>
				<duration>384</duration>
				<voice>1</voice>
				<type>eighth</type>
				<beam number='1'>continue</beam>
				<lyric number='1'>
					<syllabic>end</syllabic>
					<text>eth</text>
				</lyric>
			</note>
			<note>
				<chord/>
				<pitch>
					<step>D</step>
					<octave>4</octave>
				</pitch>
				<duration>384</duration>
				<voice>1</voice>
				<type>eighth</type>
			</note>
			<note>
				<pitch>
					<step>D</step>
					<octave>3</octave>
				</pitch>
				<duration>768</duration>
				<voice>1</voice>
				<type>quarter</type>
				<lyric number='1'>
					<syllabic>end</syllabic>
					<text>in</text>
				</lyric>
			</note>
			<note>
				<chord/>
				<pitch>
					<step>C</step>
					<octave>4</octave>
				</pitch>
				<duration>768</duration>
				<voice>1</voice>
				<type>quarter</type>
			</note>
		</measure>
		<measure number='13'>
			<note>
				<pitch>
					<step>E</step>
					<octave>3</octave>
				</pitch>
				<duration>4608</duration>
				<voice>1</voice>
				<type>whole</type>
				<dot/>
				<lyric number='1'>
					<syllabic>end</syllabic>
					<text>me,</text>
				</lyric>
			</note>
			<note>
				<chord/>
				<pitch>
					<step>B</step>
					<octave>3</octave>
				</pitch>
				<duration>4608</duration>
				<voice>1</voice>
				<type>whole</type>
				<dot/>
			</note>
		</measure>
		<measure number='14'>
			<note>
				<pitch>
					<step>B</step>
					<octave>2</octave>
				</pitch>
				<duration>2304</duration>
				<voice>1</voice>
				<type>half</type>
				<dot/>
				<lyric number='1'>
					<syllabic>end</syllabic>
					<text>Christ</text>
				</lyric>
			</note>
			<note>
				<chord/>
				<pitch>
					<step>B</step>
					<octave>3</octave>
				</pitch>
				<duration>2304</duration>
				<voice>1</voice>
				<type>half</type>
				<dot/>
			</note>
			<note>
				<pitch>
					<step>B</step>
					<octave>2</octave>
				</pitch>
				<duration>1152</duration>
				<voice>1</voice>
				<type>quarter</type>
				<dot/>
				<lyric number='1'>
					<syllabic>middle</syllabic>
					<text>liv</text>
				</lyric>
			</note>
			<note>
				<chord/>
				<pitch>
					<step>B</step>
					<octave>3</octave>
				</pitch>
				<duration>1152</duration>
				<voice>1</voice>
				<type>quarter</type>
				<dot/>
			</note>
			<note>
				<pitch>
					<step>B</step>
					<octave>2</octave>
				</pitch>
				<duration>384</duration>
				<voice>1</voice>
				<type>eighth</type>
				<beam number='1'>continue</beam>
				<lyric number='1'>
					<syllabic>end</syllabic>
					<text>eth</text>
				</lyric>
			</note>
			<note>
				<chord/>
				<pitch>
					<step>B</step>
					<octave>3</octave>
				</pitch>
				<duration>384</duration>
				<voice>1</voice>
				<type>eighth</type>
			</note>
			<note>
				<pitch>
					<step>B</step>
					<octave>2</octave>
				</pitch>
				<duration>768</duration>
				<voice>1</voice>
				<type>quarter</type>
				<lyric number='1'>
					<syllabic>end</syllabic>
					<text>in</text>
				</lyric>
			</note>
			<note>
				<chord/>
				<pitch>
					<step>A</step>
					<octave>3</octave>
				</pitch>
				<duration>768</duration>
				<voice>1</voice>
				<type>quarter</type>
			</note>
		</measure>
		<measure number='15'>
			<note>
				<pitch>
					<step>C</step>
					<octave>3</octave>
				</pitch>
				<duration>1536</duration>
				<voice>1</voice>
				<type>half</type>
				<lyric number='1'>
					<syllabic>end</syllabic>
					<text>me,</text>
				</lyric>
			</note>
			<note>
				<chord/>
				<pitch>
					<step>G</step>
					<octave>3</octave>
				</pitch>
				<duration>1536</duration>
				<voice>1</voice>
				<type>half</type>
			</note>
			<note>
				<pitch>
					<step>C</step>
					<octave>3</octave>
				</pitch>
				<duration>768</duration>
				<voice>1</voice>
				<type>quarter</type>
				<lyric number='1'>
					<syllabic>end</syllabic>
					<text>Oh!</text>
				</lyric>
			</note>
			<note>
				<chord/>
				<pitch>
					<step>G</step>
					<octave>3</octave>
				</pitch>
				<duration>768</duration>
				<voice>1</voice>
				<type>quarter</type>
			</note>
			<note>
				<pitch>
					<step>C</step>
					<octave>3</octave>
				</pitch>
				<duration>768</duration>
				<voice>1</voice>
				<type>quarter</type>
			</note>
			<note>
				<chord/>
				<pitch>
					<step>C</step>
					<octave>4</octave>
				</pitch>
				<duration>768</duration>
				<voice>1</voice>
				<type>quarter</type>
			</note>
			<note>
				<pitch>
					<step>C</step>
					<octave>3</octave>
				</pitch>
				<duration>768</duration>
				<voice>1</voice>
				<type>quarter</type>
			</note>
			<note>
				<chord/>
				<pitch>
					<step>C</step>
					<octave>4</octave>
				</pitch>
				<duration>768</duration>
				<voice>1</voice>
				<type>quarter</type>
			</note>
			<note>
				<pitch>
					<step>C</step>
					<octave>3</octave>
				</pitch>
				<duration>768</duration>
				<voice>1</voice>
				<type>quarter</type>
			</note>
			<note>
				<chord/>
				<pitch>
					<step>C</step>
					<octave>4</octave>
				</pitch>
				<duration>768</duration>
				<voice>1</voice>
				<type>quarter</type>
			</note>
		</measure>
		<measure number='16'>
			<note>
				<pitch>
					<step>G</step>
					<octave>3</octave>
				</pitch>
				<duration>1536</duration>
				<voice>1</voice>
				<type>half</type>
			</note>
			<note>
				<chord/>
				<pitch>
					<step>B</step>
					<octave>3</octave>
				</pitch>
				<duration>1536</duration>
				<voice>1</voice>
				<type>half</type>
			</note>
			<backup>
				<duration>1536</duration>
			</backup>
			<note>
				<rest/>
				<duration>1536</duration>
				<voice>2</voice>
				<type>half</type>
			</note>
			<note>
				<pitch>
					<step>G</step>
					<octave>3</octave>
				</pitch>
				<duration>768</duration>
				<voice>1</voice>
				<type>quarter</type>
			</note>
			<backup>
				<duration>768</duration>
			</backup>
			<note>
				<pitch>
					<step>G</step>
					<octave>3</octave>
				</pitch>
				<duration>768</duration>
				<voice>2</voice>
				<type>quarter</type>
			</note>
			<note>
				<pitch>
					<step>B</step>
					<octave>2</octave>
				</pitch>
				<duration>1536</duration>
				<voice>1</voice>
				<type>half</type>
			</note>
			<note>
				<chord/>
				<pitch>
					<step>G</step>
					<octave>3</octave>
				</pitch>
				<duration>1536</duration>
				<voice>1</voice>
				<type>half</type>
			</note>
			<backup>
				<duration>1536</duration>
			</backup>
			<note>
				<rest/>
				<duration>2304</duration>
				<voice>2</voice>
				<type>half</type>
				<dot/>
			</note>
			<backup>
				<duration>768</duration>
			</backup>
			<note>
				<pitch>
					<step>C</step>
					<octave>3</octave>
				</pitch>
				<duration>768</duration>
				<voice>1</voice>
				<type>quarter</type>
			</note>
			<note>
				<chord/>
				<pitch>
					<step>G</step>
					<octave>3</octave>
				</pitch>
				<duration>768</duration>
				<voice>1</voice>
				<type>quarter</type>
			</note>
		</measure>
		<measure number='17'>
			<note>
				<pitch>
					<step>D</step>
					<octave>3</octave>
				</pitch>
				<duration>2304</duration>
				<voice>1</voice>
				<type>half</type>
				<dot/>
			</note>
			<note>
				<chord/>
				<pitch>
					<step>G</step>
					<octave>3</octave>
				</pitch>
				<duration>2304</duration>
				<voice>1</voice>
				<type>half</type>
				<dot/>
			</note>
			<backup>
				<duration>2304</duration>
			</backup>
			<note>
				<rest/>
				<duration>2304</duration>
				<voice>2</voice>
				<type>half</type>
				<dot/>
			</note>
			<note>
				<pitch>
					<step>D</step>
					<octave>3</octave>
				</pitch>
				<duration>1152</duration>
				<voice>1</voice>
				<type>quarter</type>
				<dot/>
			</note>
			<note>
				<chord/>
				<pitch>
					<step>F</step>
					<alter>1</alter>
					<octave>3</octave>
				</pitch>
				<duration>1152</duration>
				<voice>1</voice>
				<type>quarter</type>
				<dot/>
			</note>
			<backup>
				<duration>1152</duration>
			</backup>
			<note>
				<rest/>
				<duration>1152</duration>
				<voice>2</voice>
				<type>quarter</type>
				<dot/>
			</note>
			<note>
				<pitch>
					<step>D</step>
					<octave>3</octave>
				</pitch>
				<duration>384</duration>
				<voice>1</voice>
				<type>eighth</type>
				<beam number='1'>continue</beam>
			</note>
			<note>
				<chord/>
				<pitch>
					<step>F</step>
					<alter>1</alter>
					<octave>3</octave>
				</pitch>
				<duration>384</duration>
				<voice>1</voice>
				<type>eighth</type>
			</note>
			<backup>
				<duration>384</duration>
			</backup>
			<note>
				<rest/>
				<duration>384</duration>
				<voice>2</voice>
				<type>eighth</type>
			</note>
			<note>
				<pitch>
					<step>D</step>
					<octave>3</octave>
				</pitch>
				<duration>768</duration>
				<voice>1</voice>
				<type>quarter</type>
			</note>
			<backup>
				<duration>768</duration>
			</backup>
			<note>
				<pitch>
					<step>D</step>
					<octave>3</octave>
				</pitch>
				<duration>768</duration>
				<voice>2</voice>
				<type>quarter</type>
			</note>
		</measure>
		<measure number='18'>
			<note>
				<pitch>
					<step>G</step>
					<octave>2</octave>
				</pitch>
				<duration>2304</duration>
				<tie type='start'/>
				<voice>1</voice>
				<type>half</type>
				<dot/>
			</note>
			<note>
				<chord/>
				<pitch>
					<step>D</step>
					<octave>3</octave>
				</pitch>
				<duration>2304</duration>
				<tie type='start'/>
				<voice>1</voice>
				<type>half</type>
				<dot/>
			</note>
			<note>
				<pitch>
					<step>G</step>
					<octave>2</octave>
				</pitch>
				<duration>1536</duration>
				<voice>1</voice>
				<type>half</type>
			</note>
			<note>
				<chord/>
				<pitch>
					<step>D</step>
					<octave>3</octave>
				</pitch>
				<duration>1536</duration>
				<voice>1</voice>
				<type>half</type>
			</note>
			<barline location='right'>
				<bar-style>light-heavy</bar-style>
			</barline>
		</measure>
	</part>
</score-partwise>
