<?xml version="1.0" encoding="UTF-8" standalone="no"?>
<!DOCTYPE score-partwise PUBLIC "-//Recordare//DTD MusicXML 2.0 Partwise//EN" "http://www.musicxml.org/dtds/partwise.dtd">
<score-partwise version="2.0">
  <movement-number/>
  <movement-title>Welcome! Wanderer, Welcome!</movement-title>
  <identification>
    <creator type="composer">Ira David Sankey, 1884</creator>
    <creator type="poet">Horatius Bonar, 1883</creator>
    <rights>Public Domain</rights>
    <encoding>
      <software>NWC2MusicXML</software>
      <encoding-date>2011-07-29</encoding-date>
    </encoding>
  </identification>
  <defaults>
    <scaling>
      <millimeters>8</millimeters>
      <tenths>36</tenths>
    </scaling>
    <page-layout>
      <page-height>1594</page-height>
      <page-width>1232</page-width>
      <page-margins type="odd">
        <left-margin>100</left-margin>
        <right-margin>100</right-margin>
        <top-margin>100</top-margin>
        <bottom-margin>100</bottom-margin>
      </page-margins>
      <page-margins type="even">
        <left-margin>100</left-margin>
        <right-margin>100</right-margin>
        <top-margin>100</top-margin>
        <bottom-margin>100</bottom-margin>
      </page-margins>
    </page-layout>
  </defaults>
  <credit page="1">
    <credit-words default-x="616" default-y="1485" font-size="24" justify="center" valign="top">Welcome! Wanderer, Welcome!</credit-words>
  </credit>
  <credit page="1">
    <credit-words default-x="1123" default-y="1418" font-size="12" justify="right" valign="top">Ira David Sankey, 1884</credit-words>
  </credit>
  <credit page="1">
    <credit-words default-x="616" default-y="100" font-size="8" justify="center" valign="bottom">From Hymnary.org (based on a score from the Cyber Hymnal)
Public Domain</credit-words>
  </credit> 
  <part-list>
    <score-part id="P1">
      <midi-instrument id="P1">
        <midi-channel>2</midi-channel>
        <midi-program>1</midi-program>
      </midi-instrument>
    </score-part>
    <score-part id="P2">
      <midi-instrument id="P2">
        <midi-channel>5</midi-channel>
        <midi-program>92</midi-program>
      </midi-instrument>
    </score-part>
  </part-list>
  <part id="P1">
    <measure number="1">
      <attributes>
        <divisions>480</divisions>
        <key>
          <fifths>-1</fifths>
          <mode>major</mode>
        </key>
        <time>
          <beats>4</beats>
          <beat-type>4</beat-type>
        </time>
        <clef>
          <sign>G</sign>
          <line>2</line>
        </clef>
      </attributes>
      <note>
        <pitch>
          <step>F</step>
          <octave>4</octave>
        </pitch>
        <duration>720</duration>
        <voice>1</voice>
        <type>quarter</type>
        <dot/>
        <staff>1</staff>
        <lyric number="1">
          <syllabic>single</syllabic>
          <text>1. In</text>
        </lyric>
        <lyric number="2">
          <syllabic>single</syllabic>
          <text>2. &#8220;From</text>
        </lyric>
        <lyric number="3">
          <syllabic>single</syllabic>
          <text>3. &#8220;Leave</text>
        </lyric>
        <lyric number="4">
          <syllabic>single</syllabic>
          <text>4. &#8220;See</text>
        </lyric>
        <lyric number="5">
          <syllabic>single</syllabic>
          <text>5. &#8220;Far</text>
        </lyric>
        <lyric number="6">
          <syllabic>single</syllabic>
          <text>6. &#8220;See</text>
        </lyric>
        <lyric number="7">
          <syllabic>single</syllabic>
          <text>7. &#8220;Thou</text>
        </lyric>
      </note>
      <note>
        <chord/>
        <pitch>
          <step>A</step>
          <octave>4</octave>
        </pitch>
        <duration>720</duration>
        <voice>1</voice>
        <type>quarter</type>
        <dot/>
        <staff>1</staff>
      </note>
      <note>
        <pitch>
          <step>F</step>
          <octave>4</octave>
        </pitch>
        <duration>240</duration>
        <voice>1</voice>
        <type>eighth</type>
        <staff>1</staff>
        <lyric number="1">
          <syllabic>single</syllabic>
          <text>the</text>
        </lyric>
        <lyric number="2">
          <syllabic>single</syllabic>
          <text>the</text>
        </lyric>
        <lyric number="3">
          <syllabic>single</syllabic>
          <text>the</text>
        </lyric>
        <lyric number="4">
          <syllabic>single</syllabic>
          <text>the</text>
        </lyric>
        <lyric number="5">
          <syllabic>single</syllabic>
          <text>off</text>
        </lyric>
        <lyric number="6">
          <syllabic>single</syllabic>
          <text>the</text>
        </lyric>
        <lyric number="7">
          <syllabic>single</syllabic>
          <text>art</text>
        </lyric>
      </note>
      <note>
        <chord/>
        <pitch>
          <step>A</step>
          <octave>4</octave>
        </pitch>
        <duration>240</duration>
        <voice>1</voice>
        <type>eighth</type>
        <staff>1</staff>
      </note>
      <note>
        <pitch>
          <step>F</step>
          <octave>4</octave>
        </pitch>
        <duration>480</duration>
        <voice>1</voice>
        <type>quarter</type>
        <staff>1</staff>
        <lyric number="1">
          <syllabic>single</syllabic>
          <text>land</text>
        </lyric>
        <lyric number="2">
          <syllabic>single</syllabic>
          <text>land</text>
        </lyric>
        <lyric number="3">
          <syllabic>single</syllabic>
          <text>haunts</text>
        </lyric>
        <lyric number="4">
          <syllabic>single</syllabic>
          <text>door</text>
        </lyric>
        <lyric number="5">
          <syllabic>single</syllabic>
          <text>thou</text>
        </lyric>
        <lyric number="6">
          <syllabic>begin</syllabic>
          <text>well</text>
        </lyric>
        <lyric number="7">
          <syllabic>begin</syllabic>
          <text>friend</text>
        </lyric>
      </note>
      <note>
        <chord/>
        <pitch>
          <step>A</step>
          <octave>4</octave>
        </pitch>
        <duration>480</duration>
        <voice>1</voice>
        <type>quarter</type>
        <staff>1</staff>
      </note>
      <note>
        <pitch>
          <step>F</step>
          <octave>4</octave>
        </pitch>
        <duration>480</duration>
        <voice>1</voice>
        <type>quarter</type>
        <staff>1</staff>
        <lyric number="1">
          <syllabic>single</syllabic>
          <text>of</text>
        </lyric>
        <lyric number="2">
          <syllabic>single</syllabic>
          <text>of</text>
        </lyric>
        <lyric number="3">
          <syllabic>single</syllabic>
          <text>of</text>
        </lyric>
        <lyric number="4">
          <syllabic>single</syllabic>
          <text>still</text>
        </lyric>
        <lyric number="5">
          <syllabic>single</syllabic>
          <text>hast</text>
        </lyric>
        <lyric number="6">
          <syllabic>end</syllabic>
          <text>spread</text>
        </lyric>
        <lyric number="7">
          <syllabic>end</syllabic>
          <text>less,</text>
        </lyric>
      </note>
      <note>
        <chord/>
        <pitch>
          <step>A</step>
          <octave>4</octave>
        </pitch>
        <duration>480</duration>
        <voice>1</voice>
        <type>quarter</type>
        <staff>1</staff>
      </note>
    </measure>
    <measure number="2">
      <note>
        <pitch>
          <step>E</step>
          <octave>4</octave>
        </pitch>
        <duration>960</duration>
        <voice>1</voice>
        <type>half</type>
        <staff>1</staff>
        <lyric number="1">
          <syllabic>begin</syllabic>
          <text>strang</text>
        </lyric>
        <lyric number="2">
          <syllabic>begin</syllabic>
          <text>hun</text>
        </lyric>
        <lyric number="3">
          <syllabic>begin</syllabic>
          <text>ri</text>
        </lyric>
        <lyric number="4">
          <syllabic>begin</syllabic>
          <text>o</text>
        </lyric>
        <lyric number="5">
          <syllabic>begin</syllabic>
          <text>wan</text>
        </lyric>
        <lyric number="6">
          <syllabic>begin</syllabic>
          <text>ta</text>
        </lyric>
        <lyric number="7">
          <syllabic>begin</syllabic>
          <text>home</text>
        </lyric>
      </note>
      <note>
        <chord/>
        <pitch>
          <step>C</step>
          <octave>5</octave>
        </pitch>
        <duration>960</duration>
        <voice>1</voice>
        <type>half</type>
        <staff>1</staff>
      </note>
      <note>
        <pitch>
          <step>E</step>
          <octave>4</octave>
        </pitch>
        <duration>480</duration>
        <voice>1</voice>
        <type>quarter</type>
        <staff>1</staff>
        <lyric number="1">
          <syllabic>end</syllabic>
          <text>ers,</text>
          <end-line/>
        </lyric>
        <lyric number="2">
          <syllabic>end</syllabic>
          <text>ger,</text>
          <end-line/>
        </lyric>
        <lyric number="3">
          <syllabic>end</syllabic>
          <text>ot,</text>
          <end-line/>
        </lyric>
        <lyric number="4">
          <syllabic>end</syllabic>
          <text>pen!</text>
          <end-line/>
        </lyric>
        <lyric number="5">
          <syllabic>end</syllabic>
          <text>dered,</text>
          <end-line/>
        </lyric>
        <lyric number="6">
          <syllabic>end</syllabic>
          <text>ble,</text>
          <end-line/>
        </lyric>
        <lyric number="7">
          <syllabic>end</syllabic>
          <text>less,</text>
          <end-line/>
        </lyric>
      </note>
      <note>
        <chord/>
        <pitch>
          <step>C</step>
          <octave>5</octave>
        </pitch>
        <duration>480</duration>
        <voice>1</voice>
        <type>quarter</type>
        <staff>1</staff>
      </note>
      <note>
        <rest/>
        <duration>480</duration>
        <voice>1</voice>
        <type>quarter</type>
        <staff>1</staff>
      </note>
    </measure>
    <measure number="3">
      <note>
        <pitch>
          <step>D</step>
          <octave>4</octave>
        </pitch>
        <duration>720</duration>
        <voice>1</voice>
        <type>quarter</type>
        <dot/>
        <staff>1</staff>
        <lyric number="1">
          <syllabic>begin</syllabic>
          <text>Whi</text>
        </lyric>
        <lyric number="2">
          <syllabic>begin</syllabic>
          <text>Faint</text>
        </lyric>
        <lyric number="3">
          <syllabic>begin</syllabic>
          <text>Wast</text>
        </lyric>
        <lyric number="4">
          <syllabic>single</syllabic>
          <text>Thou</text>
        </lyric>
        <lyric number="5">
          <syllabic>single</syllabic>
          <text>Wilt</text>
        </lyric>
        <lyric number="6">
          <syllabic>begin</syllabic>
          <text>Un</text>
        </lyric>
        <lyric number="7">
          <syllabic>begin</syllabic>
          <text>Hope</text>
        </lyric>
      </note>
      <note>
        <chord/>
        <pitch>
          <step>F</step>
          <octave>4</octave>
        </pitch>
        <duration>720</duration>
        <voice>1</voice>
        <type>quarter</type>
        <dot/>
        <staff>1</staff>
      </note>
      <note>
        <pitch>
          <step>D</step>
          <octave>4</octave>
        </pitch>
        <duration>240</duration>
        <voice>1</voice>
        <type>eighth</type>
        <staff>1</staff>
        <lyric number="1">
          <syllabic>end</syllabic>
          <text>ther</text>
        </lyric>
        <lyric number="2">
          <syllabic>end</syllabic>
          <text>ing,</text>
        </lyric>
        <lyric number="3">
          <syllabic>end</syllabic>
          <text>ed,</text>
        </lyric>
        <lyric number="4">
          <syllabic>single</syllabic>
          <text>art</text>
        </lyric>
        <lyric number="5">
          <syllabic>single</syllabic>
          <text>thou</text>
        </lyric>
        <lyric number="6">
          <syllabic>middle</syllabic>
          <text>for</text>
        </lyric>
        <lyric number="7">
          <syllabic>end</syllabic>
          <text>less,</text>
        </lyric>
      </note>
      <note>
        <chord/>
        <pitch>
          <step>F</step>
          <octave>4</octave>
        </pitch>
        <duration>240</duration>
        <voice>1</voice>
        <type>eighth</type>
        <staff>1</staff>
      </note>
      <note>
        <pitch>
          <step>D</step>
          <octave>4</octave>
        </pitch>
        <duration>480</duration>
        <voice>1</voice>
        <type>quarter</type>
        <staff>1</staff>
        <lyric number="1">
          <syllabic>single</syllabic>
          <text>thou</text>
        </lyric>
        <lyric number="2">
          <syllabic>begin</syllabic>
          <text>fam</text>
        </lyric>
        <lyric number="3">
          <syllabic>begin</syllabic>
          <text>woe</text>
        </lyric>
        <lyric number="4">
          <syllabic>single</syllabic>
          <text>still</text>
        </lyric>
        <lyric number="5">
          <syllabic>begin</syllabic>
          <text>far</text>
        </lyric>
        <lyric number="6">
          <syllabic>middle</syllabic>
          <text>got</text>
        </lyric>
        <lyric number="7">
          <syllabic>single</syllabic>
          <text>and</text>
        </lyric>
      </note>
      <note>
        <chord/>
        <pitch>
          <step>F</step>
          <octave>4</octave>
        </pitch>
        <duration>480</duration>
        <voice>1</voice>
        <type>quarter</type>
        <staff>1</staff>
      </note>
      <note>
        <pitch>
          <step>D</step>
          <octave>4</octave>
        </pitch>
        <duration>480</duration>
        <voice>1</voice>
        <type>quarter</type>
        <staff>1</staff>
        <lyric number="1">
          <syllabic>single</syllabic>
          <text>art</text>
        </lyric>
        <lyric number="2">
          <syllabic>end</syllabic>
          <text>ished</text>
        </lyric>
        <lyric number="3">
          <syllabic>middle</syllabic>
          <text>be</text>
        </lyric>
        <lyric number="4">
          <syllabic>single</syllabic>
          <text>my</text>
        </lyric>
        <lyric number="5">
          <syllabic>end</syllabic>
          <text>ther</text>
        </lyric>
        <lyric number="6">
          <syllabic>end</syllabic>
          <text>ten</text>
        </lyric>
        <lyric number="7">
          <syllabic>begin</syllabic>
          <text>un</text>
        </lyric>
      </note>
      <note>
        <chord/>
        <pitch>
          <step>F</step>
          <octave>4</octave>
        </pitch>
        <duration>480</duration>
        <voice>1</voice>
        <type>quarter</type>
        <staff>1</staff>
      </note>
    </measure>
    <measure number="4">
      <note>
        <pitch>
          <step>C</step>
          <alter>1</alter>
          <octave>4</octave>
        </pitch>
        <duration>1440</duration>
        <voice>1</voice>
        <type>half</type>
        <dot/>
        <accidental>sharp</accidental>
        <staff>1</staff>
        <lyric number="1">
          <syllabic>single</syllabic>
          <text>gone,</text>
          <end-line/>
        </lyric>
        <lyric number="2">
          <syllabic>single</syllabic>
          <text>lone,</text>
          <end-line/>
        </lyric>
        <lyric number="3">
          <syllabic>end</syllabic>
          <text>gone,</text>
          <end-line/>
        </lyric>
        <lyric number="4">
          <syllabic>single</syllabic>
          <text>own;</text>
          <end-line/>
        </lyric>
        <lyric number="5">
          <syllabic>single</syllabic>
          <text>roam?</text>
          <end-line/>
        </lyric>
        <lyric number="6">
          <syllabic>single</syllabic>
          <text>one!</text>
          <end-line/>
        </lyric>
        <lyric number="7">
          <syllabic>end</syllabic>
          <text>done;</text>
          <end-line/>
        </lyric>
      </note>
      <note>
        <chord/>
        <pitch>
          <step>A</step>
          <octave>4</octave>
        </pitch>
        <duration>1440</duration>
        <voice>1</voice>
        <type>half</type>
        <dot/>
        <staff>1</staff>
      </note>
      <note>
        <rest/>
        <duration>480</duration>
        <voice>1</voice>
        <type>quarter</type>
        <staff>1</staff>
      </note>
    </measure>
    <measure number="5">
      <note>
        <pitch>
          <step>B</step>
          <alter>-1</alter>
          <octave>3</octave>
        </pitch>
        <duration>480</duration>
        <voice>1</voice>
        <type>quarter</type>
        <staff>1</staff>
        <lyric number="1">
          <syllabic>single</syllabic>
          <text>Hear</text>
        </lyric>
        <lyric number="2">
          <syllabic>single</syllabic>
          <text>Come</text>
        </lyric>
        <lyric number="3">
          <syllabic>single</syllabic>
          <text>Sick</text>
        </lyric>
        <lyric number="4">
          <syllabic>single</syllabic>
          <text>Eyes</text>
        </lyric>
        <lyric number="5">
          <syllabic>single</syllabic>
          <text>Come,</text>
        </lyric>
        <lyric number="6">
          <syllabic>single</syllabic>
          <text>Here</text>
        </lyric>
        <lyric number="7">
          <syllabic>single</syllabic>
          <text>Mine</text>
        </lyric>
      </note>
      <note>
        <chord/>
        <pitch>
          <step>D</step>
          <octave>4</octave>
        </pitch>
        <duration>480</duration>
        <voice>1</voice>
        <type>quarter</type>
        <staff>1</staff>
      </note>
      <note>
        <pitch>
          <step>D</step>
          <octave>4</octave>
        </pitch>
        <duration>480</duration>
        <voice>1</voice>
        <type>quarter</type>
        <staff>1</staff>
        <lyric number="1">
          <syllabic>single</syllabic>
          <text>a</text>
        </lyric>
        <lyric number="2">
          <syllabic>single</syllabic>
          <text>to</text>
        </lyric>
        <lyric number="3">
          <syllabic>single</syllabic>
          <text>at</text>
        </lyric>
        <lyric number="4">
          <syllabic>single</syllabic>
          <text>of</text>
        </lyric>
        <lyric number="5">
          <syllabic>single</syllabic>
          <text>and</text>
        </lyric>
        <lyric number="6">
          <syllabic>single</syllabic>
          <text>is</text>
        </lyric>
        <lyric number="7">
          <syllabic>single</syllabic>
          <text>is</text>
        </lyric>
      </note>
      <note>
        <chord/>
        <pitch>
          <step>F</step>
          <octave>4</octave>
        </pitch>
        <duration>480</duration>
        <voice>1</voice>
        <type>quarter</type>
        <staff>1</staff>
      </note>
      <note>
        <pitch>
          <step>C</step>
          <octave>4</octave>
        </pitch>
        <duration>480</duration>
        <voice>1</voice>
        <type>quarter</type>
        <staff>1</staff>
        <lyric number="1">
          <syllabic>single</syllabic>
          <text>far</text>
        </lyric>
        <lyric number="2">
          <syllabic>single</syllabic>
          <text>love</text>
        </lyric>
        <lyric number="3">
          <syllabic>single</syllabic>
          <text>heart</text>
        </lyric>
        <lyric number="4">
          <syllabic>single</syllabic>
          <text>love</text>
        </lyric>
        <lyric number="5">
          <syllabic>single</syllabic>
          <text>all</text>
        </lyric>
        <lyric number="6">
          <syllabic>single</syllabic>
          <text>rest</text>
        </lyric>
        <lyric number="7">
          <syllabic>single</syllabic>
          <text>love</text>
        </lyric>
      </note>
      <note>
        <chord/>
        <pitch>
          <step>E</step>
          <octave>4</octave>
        </pitch>
        <duration>480</duration>
        <voice>1</voice>
        <type>quarter</type>
        <staff>1</staff>
      </note>
      <note>
        <pitch>
          <step>B</step>
          <alter>-1</alter>
          <octave>3</octave>
        </pitch>
        <duration>480</duration>
        <voice>1</voice>
        <type>quarter</type>
        <staff>1</staff>
        <lyric number="1">
          <syllabic>single</syllabic>
          <text>voice</text>
        </lyric>
        <lyric number="2">
          <syllabic>single</syllabic>
          <text>and</text>
        </lyric>
        <lyric number="3">
          <syllabic>single</syllabic>
          <text>and</text>
        </lyric>
        <lyric number="4">
          <syllabic>single</syllabic>
          <text>are</text>
        </lyric>
        <lyric number="5">
          <syllabic>single</syllabic>
          <text>is</text>
        </lyric>
        <lyric number="6">
          <syllabic>single</syllabic>
          <text>and</text>
        </lyric>
        <lyric number="7">
          <syllabic>begin</syllabic>
          <text>un</text>
        </lyric>
      </note>
      <note>
        <chord/>
        <pitch>
          <step>D</step>
          <octave>4</octave>
        </pitch>
        <duration>480</duration>
        <voice>1</voice>
        <type>quarter</type>
        <staff>1</staff>
      </note>
    </measure>
    <measure number="6">
      <note>
        <pitch>
          <step>A</step>
          <octave>3</octave>
        </pitch>
        <duration>960</duration>
        <voice>1</voice>
        <type>half</type>
        <staff>1</staff>
        <lyric number="1">
          <syllabic>begin</syllabic>
          <text>call</text>
        </lyric>
        <lyric number="2">
          <syllabic>begin</syllabic>
          <text>glad</text>
        </lyric>
        <lyric number="3">
          <syllabic>begin</syllabic>
          <text>wear</text>
        </lyric>
        <lyric number="4">
          <syllabic>single</syllabic>
          <text>on</text>
        </lyric>
        <lyric number="5">
          <syllabic>begin</syllabic>
          <text>par</text>
        </lyric>
        <lyric number="6">
          <syllabic>begin</syllabic>
          <text>plen</text>
        </lyric>
        <lyric number="7">
          <syllabic>middle</syllabic>
          <text>chang</text>
        </lyric>
      </note>
      <note>
        <chord/>
        <pitch>
          <step>C</step>
          <octave>4</octave>
        </pitch>
        <duration>960</duration>
        <voice>1</voice>
        <type>half</type>
        <staff>1</staff>
      </note>
      <note>
        <pitch>
          <step>A</step>
          <octave>3</octave>
        </pitch>
        <duration>480</duration>
        <voice>1</voice>
        <type>quarter</type>
        <staff>1</staff>
        <lyric number="1">
          <syllabic>end</syllabic>
          <text>ing,</text>
          <end-line/>
        </lyric>
        <lyric number="2">
          <syllabic>end</syllabic>
          <text>ness,</text>
          <end-line/>
        </lyric>
        <lyric number="3">
          <syllabic>end</syllabic>
          <text>y</text>
          <end-line/>
        </lyric>
        <lyric number="4">
          <syllabic>single</syllabic>
          <text>thee,</text>
          <end-line/>
        </lyric>
        <lyric number="5">
          <syllabic>end</syllabic>
          <text>doned,</text>
          <end-line/>
        </lyric>
        <lyric number="6">
          <syllabic>end</syllabic>
          <text>ty,</text>
          <end-line/>
        </lyric>
        <lyric number="7">
          <syllabic>end</syllabic>
          <text>ing,</text>
          <end-line/>
        </lyric>
      </note>
      <note>
        <chord/>
        <pitch>
          <step>F</step>
          <octave>4</octave>
        </pitch>
        <duration>480</duration>
        <voice>1</voice>
        <type>quarter</type>
        <staff>1</staff>
      </note>
      <note>
        <pitch>
          <step>F</step>
          <octave>4</octave>
        </pitch>
        <duration>480</duration>
        <voice>1</voice>
        <type>quarter</type>
        <staff>1</staff>
        <lyric number="1">
          <syllabic>single</syllabic>
          <text>&#8220;My</text>
        </lyric>
        <lyric number="2">
          <syllabic>single</syllabic>
          <text>My</text>
        </lyric>
        <lyric number="3">
          <syllabic>single</syllabic>
          <text>My</text>
        </lyric>
        <lyric number="4">
          <syllabic>single</syllabic>
          <text>My</text>
        </lyric>
        <lyric number="5">
          <syllabic>single</syllabic>
          <text>My</text>
        </lyric>
        <lyric number="6">
          <syllabic>single</syllabic>
          <text>My</text>
        </lyric>
        <lyric number="7">
          <syllabic>single</syllabic>
          <text>My</text>
        </lyric>
      </note>
      <note>
        <chord/>
        <pitch>
          <step>A</step>
          <octave>4</octave>
        </pitch>
        <duration>480</duration>
        <voice>1</voice>
        <type>quarter</type>
        <staff>1</staff>
      </note>
    </measure>
    <measure number="7">
      <note>
        <pitch>
          <step>E</step>
          <octave>4</octave>
        </pitch>
        <duration>1440</duration>
        <voice>1</voice>
        <type>half</type>
        <dot/>
        <staff>1</staff>
        <lyric number="1">
          <syllabic>single</syllabic>
          <text>son!</text>
        </lyric>
        <lyric number="2">
          <syllabic>single</syllabic>
          <text>son!</text>
        </lyric>
        <lyric number="3">
          <syllabic>single</syllabic>
          <text>son!</text>
        </lyric>
        <lyric number="4">
          <syllabic>single</syllabic>
          <text>son!</text>
        </lyric>
        <lyric number="5">
          <syllabic>single</syllabic>
          <text>son!</text>
        </lyric>
        <lyric number="6">
          <syllabic>single</syllabic>
          <text>son!</text>
        </lyric>
        <lyric number="7">
          <syllabic>single</syllabic>
          <text>son!</text>
        </lyric>
      </note>
      <note>
        <chord/>
        <pitch>
          <step>C</step>
          <octave>5</octave>
        </pitch>
        <duration>1440</duration>
        <voice>1</voice>
        <type>half</type>
        <dot/>
        <staff>1</staff>
      </note>
      <note>
        <pitch>
          <step>E</step>
          <octave>4</octave>
        </pitch>
        <duration>480</duration>
        <voice>1</voice>
        <type>quarter</type>
        <staff>1</staff>
        <lyric number="1">
          <syllabic>single</syllabic>
          <text>my</text>
        </lyric>
        <lyric number="2">
          <syllabic>single</syllabic>
          <text>my</text>
        </lyric>
        <lyric number="3">
          <syllabic>single</syllabic>
          <text>my</text>
        </lyric>
        <lyric number="4">
          <syllabic>single</syllabic>
          <text>my</text>
        </lyric>
        <lyric number="5">
          <syllabic>single</syllabic>
          <text>my</text>
        </lyric>
        <lyric number="6">
          <syllabic>single</syllabic>
          <text>my</text>
        </lyric>
        <lyric number="7">
          <syllabic>single</syllabic>
          <text>my</text>
        </lyric>
      </note>
      <note>
        <chord/>
        <pitch>
          <step>C</step>
          <octave>5</octave>
        </pitch>
        <duration>480</duration>
        <voice>1</voice>
        <type>quarter</type>
        <staff>1</staff>
      </note>
    </measure>
    <measure number="8">
      <note>
        <pitch>
          <step>F</step>
          <octave>4</octave>
        </pitch>
        <duration>1440</duration>
        <voice>1</voice>
        <type>half</type>
        <dot/>
        <staff>1</staff>
        <lyric number="1">
          <syllabic>single</syllabic>
          <text>son!&#8221;</text>
        </lyric>
        <lyric number="2">
          <syllabic>single</syllabic>
          <text>son!&#8221;</text>
        </lyric>
        <lyric number="3">
          <syllabic>single</syllabic>
          <text>son!&#8221;</text>
        </lyric>
        <lyric number="4">
          <syllabic>single</syllabic>
          <text>son!&#8221;</text>
          <end-paragraph/>
        </lyric>
        <lyric number="5">
          <syllabic>single</syllabic>
          <text>son!&#8221;</text>
        </lyric>
        <lyric number="6">
          <syllabic>single</syllabic>
          <text>son!&#8221;</text>
        </lyric>
        <lyric number="7">
          <syllabic>single</syllabic>
          <text>son!&#8221;</text>
        </lyric>
      </note>
      <note>
        <chord/>
        <pitch>
          <step>C</step>
          <octave>5</octave>
        </pitch>
        <duration>1440</duration>
        <voice>1</voice>
        <type>half</type>
        <dot/>
        <staff>1</staff>
      </note>
      <note>
        <rest/>
        <duration>480</duration>
        <voice>1</voice>
        <type>quarter</type>
        <staff>1</staff>
      </note>
      <barline location="right">
        <bar-style>light-light</bar-style>
      </barline>
    </measure>
    <measure number="9">
      <direction>
        <direction-type>
          <words>Refrain</words>
        </direction-type>
      </direction>
      <note>
        <pitch>
          <step>F</step>
          <octave>4</octave>
        </pitch>
        <duration>480</duration>
        <voice>1</voice>
        <type>quarter</type>
        <stem>down</stem>
        <staff>1</staff>
        <notations>
          <articulations>
            <staccato/>
          </articulations>
        </notations>
        <lyric number="4">
          <syllabic>begin</syllabic>
          <text>&#8220;Wel</text>
        </lyric>
      </note>
      <note>
        <chord/>
        <pitch>
          <step>A</step>
          <octave>4</octave>
        </pitch>
        <duration>480</duration>
        <voice>1</voice>
        <type>quarter</type>
        <stem>down</stem>
        <staff>1</staff>
      </note>
      <note>
        <pitch>
          <step>F</step>
          <octave>4</octave>
        </pitch>
        <duration>480</duration>
        <voice>1</voice>
        <type>quarter</type>
        <staff>1</staff>
        <notations>
          <articulations>
            <staccato/>
          </articulations>
        </notations>
        <lyric number="4">
          <syllabic>end</syllabic>
          <text>come,</text>
        </lyric>
      </note>
      <note>
        <chord/>
        <pitch>
          <step>A</step>
          <octave>4</octave>
        </pitch>
        <duration>480</duration>
        <voice>1</voice>
        <type>quarter</type>
        <staff>1</staff>
      </note>
      <note>
        <pitch>
          <step>F</step>
          <octave>4</octave>
        </pitch>
        <duration>480</duration>
        <voice>1</voice>
        <type>quarter</type>
        <staff>1</staff>
        <notations>
          <articulations>
            <staccato/>
          </articulations>
        </notations>
        <lyric number="4">
          <syllabic>begin</syllabic>
          <text>wan</text>
        </lyric>
      </note>
      <note>
        <chord/>
        <pitch>
          <step>A</step>
          <octave>4</octave>
        </pitch>
        <duration>480</duration>
        <voice>1</voice>
        <type>quarter</type>
        <staff>1</staff>
      </note>
      <note>
        <pitch>
          <step>F</step>
          <octave>4</octave>
        </pitch>
        <duration>480</duration>
        <voice>1</voice>
        <type>quarter</type>
        <staff>1</staff>
        <notations>
          <articulations>
            <staccato/>
          </articulations>
        </notations>
        <lyric number="4">
          <syllabic>end</syllabic>
          <text>d&#8217;rer,</text>
        </lyric>
      </note>
      <note>
        <chord/>
        <pitch>
          <step>A</step>
          <octave>4</octave>
        </pitch>
        <duration>480</duration>
        <voice>1</voice>
        <type>quarter</type>
        <staff>1</staff>
      </note>
    </measure>
    <measure number="10">
      <note>
        <pitch>
          <step>C</step>
          <octave>5</octave>
        </pitch>
        <duration>480</duration>
        <voice>1</voice>
        <type>quarter</type>
        <stem>up</stem>
        <staff>1</staff>
        <notations>
          <slur number="1" type="start"/>
        </notations>
        <lyric number="4">
          <syllabic>begin</syllabic>
          <text>wel</text>
        </lyric>
      </note>
      <note>
        <pitch>
          <step>B</step>
          <alter>-1</alter>
          <octave>4</octave>
        </pitch>
        <duration>480</duration>
        <voice>1</voice>
        <type>quarter</type>
        <stem>up</stem>
        <staff>1</staff>
        <notations>
          <slur number="1" type="stop"/>
        </notations>
      </note>
      <note>
        <pitch>
          <step>F</step>
          <octave>4</octave>
        </pitch>
        <duration>960</duration>
        <voice>1</voice>
        <type>half</type>
        <staff>1</staff>
        <lyric number="4">
          <syllabic>end</syllabic>
          <text>come!</text>
          <end-line/>
        </lyric>
      </note>
      <note>
        <chord/>
        <pitch>
          <step>A</step>
          <octave>4</octave>
        </pitch>
        <duration>960</duration>
        <voice>1</voice>
        <type>half</type>
        <staff>1</staff>
      </note>
      <backup>
        <duration>1920</duration>
      </backup>
      <note>
        <pitch>
          <step>F</step>
          <octave>4</octave>
        </pitch>
        <duration>960</duration>
        <voice>2</voice>
        <type>half</type>
        <staff>1</staff>
        <lyric number="4">
          <syllabic>begin</syllabic>
          <text>Wel</text>
        </lyric>
      </note>
    </measure>
    <measure number="11">
      <note>
        <pitch>
          <step>F</step>
          <alter>1</alter>
          <octave>4</octave>
        </pitch>
        <duration>480</duration>
        <voice>1</voice>
        <type>quarter</type>
        <accidental>sharp</accidental>
        <staff>1</staff>
        <lyric number="4">
          <syllabic>end</syllabic>
          <text>come</text>
        </lyric>
      </note>
      <note>
        <chord/>
        <pitch>
          <step>D</step>
          <octave>5</octave>
        </pitch>
        <duration>480</duration>
        <voice>1</voice>
        <type>quarter</type>
        <staff>1</staff>
      </note>
      <note>
        <pitch>
          <step>A</step>
          <octave>4</octave>
        </pitch>
        <duration>480</duration>
        <voice>1</voice>
        <type>quarter</type>
        <staff>1</staff>
        <lyric number="4">
          <syllabic>single</syllabic>
          <text>back</text>
        </lyric>
      </note>
      <note>
        <chord/>
        <pitch>
          <step>C</step>
          <octave>5</octave>
        </pitch>
        <duration>480</duration>
        <voice>1</voice>
        <type>quarter</type>
        <staff>1</staff>
      </note>
      <note>
        <pitch>
          <step>G</step>
          <octave>4</octave>
        </pitch>
        <duration>480</duration>
        <voice>1</voice>
        <type>quarter</type>
        <staff>1</staff>
        <lyric number="4">
          <syllabic>single</syllabic>
          <text>to</text>
        </lyric>
      </note>
      <note>
        <chord/>
        <pitch>
          <step>B</step>
          <alter>-1</alter>
          <octave>4</octave>
        </pitch>
        <duration>480</duration>
        <voice>1</voice>
        <type>quarter</type>
        <staff>1</staff>
      </note>
      <note>
        <pitch>
          <step>F</step>
          <alter>1</alter>
          <octave>4</octave>
        </pitch>
        <duration>480</duration>
        <voice>1</voice>
        <type>quarter</type>
        <staff>1</staff>
        <lyric number="4">
          <syllabic>single</syllabic>
          <text>home!</text>
          <end-line/>
        </lyric>
      </note>
      <note>
        <chord/>
        <pitch>
          <step>A</step>
          <octave>4</octave>
        </pitch>
        <duration>480</duration>
        <voice>1</voice>
        <type>quarter</type>
        <staff>1</staff>
      </note>
    </measure>
    <measure number="12">
      <note>
        <pitch>
          <step>G</step>
          <octave>4</octave>
        </pitch>
        <duration>1440</duration>
        <voice>1</voice>
        <type>half</type>
        <dot/>
        <staff>1</staff>
        <lyric number="4">
          <syllabic>single</syllabic>
          <text>Thou</text>
        </lyric>
      </note>
      <note>
        <chord/>
        <pitch>
          <step>B</step>
          <alter>-1</alter>
          <octave>4</octave>
        </pitch>
        <duration>1440</duration>
        <voice>1</voice>
        <type>half</type>
        <dot/>
        <staff>1</staff>
      </note>
      <note>
        <rest/>
        <duration>480</duration>
        <voice>1</voice>
        <type>quarter</type>
        <staff>1</staff>
      </note>
    </measure>
    <measure number="13">
      <note>
        <pitch>
          <step>E</step>
          <octave>4</octave>
        </pitch>
        <duration>480</duration>
        <voice>1</voice>
        <type>quarter</type>
        <staff>1</staff>
        <lyric number="4">
          <syllabic>single</syllabic>
          <text>hast</text>
        </lyric>
      </note>
      <note>
        <chord/>
        <pitch>
          <step>B</step>
          <alter>-1</alter>
          <octave>4</octave>
        </pitch>
        <duration>480</duration>
        <voice>1</voice>
        <type>quarter</type>
        <staff>1</staff>
      </note>
      <note>
        <pitch>
          <step>E</step>
          <octave>4</octave>
        </pitch>
        <duration>480</duration>
        <voice>1</voice>
        <type>quarter</type>
        <staff>1</staff>
        <lyric number="4">
          <syllabic>begin</syllabic>
          <text>wan</text>
        </lyric>
      </note>
      <note>
        <chord/>
        <pitch>
          <step>G</step>
          <octave>4</octave>
        </pitch>
        <duration>480</duration>
        <voice>1</voice>
        <type>quarter</type>
        <staff>1</staff>
      </note>
      <note>
        <pitch>
          <step>F</step>
          <octave>4</octave>
        </pitch>
        <duration>480</duration>
        <voice>1</voice>
        <type>quarter</type>
        <staff>1</staff>
        <lyric number="4">
          <syllabic>end</syllabic>
          <text>dered</text>
        </lyric>
      </note>
      <note>
        <chord/>
        <pitch>
          <step>A</step>
          <octave>4</octave>
        </pitch>
        <duration>480</duration>
        <voice>1</voice>
        <type>quarter</type>
        <staff>1</staff>
      </note>
      <note>
        <pitch>
          <step>G</step>
          <octave>4</octave>
        </pitch>
        <duration>480</duration>
        <voice>1</voice>
        <type>quarter</type>
        <staff>1</staff>
        <lyric number="4">
          <syllabic>single</syllabic>
          <text>far</text>
        </lyric>
      </note>
      <note>
        <chord/>
        <pitch>
          <step>B</step>
          <alter>-1</alter>
          <octave>4</octave>
        </pitch>
        <duration>480</duration>
        <voice>1</voice>
        <type>quarter</type>
        <staff>1</staff>
      </note>
    </measure>
    <measure number="14">
      <note>
        <pitch>
          <step>A</step>
          <octave>4</octave>
        </pitch>
        <duration>480</duration>
        <voice>1</voice>
        <type>quarter</type>
        <staff>1</staff>
        <lyric number="4">
          <syllabic>begin</syllabic>
          <text>a</text>
        </lyric>
      </note>
      <note>
        <chord/>
        <pitch>
          <step>C</step>
          <octave>5</octave>
        </pitch>
        <duration>480</duration>
        <voice>1</voice>
        <type>quarter</type>
        <staff>1</staff>
      </note>
      <note>
        <pitch>
          <step>C</step>
          <octave>5</octave>
        </pitch>
        <duration>480</duration>
        <voice>1</voice>
        <type>quarter</type>
        <staff>1</staff>
        <lyric number="4">
          <syllabic>end</syllabic>
          <text>way:</text>
          <end-line/>
        </lyric>
      </note>
      <note>
        <chord/>
        <pitch>
          <step>F</step>
          <octave>5</octave>
        </pitch>
        <duration>480</duration>
        <voice>1</voice>
        <type>quarter</type>
        <staff>1</staff>
      </note>
      <note>
        <pitch>
          <step>B</step>
          <alter>-1</alter>
          <octave>4</octave>
        </pitch>
        <duration>480</duration>
        <voice>1</voice>
        <type>quarter</type>
        <staff>1</staff>
        <lyric number="4">
          <syllabic>single</syllabic>
          <text>Come</text>
        </lyric>
      </note>
      <note>
        <chord/>
        <pitch>
          <step>F</step>
          <octave>5</octave>
        </pitch>
        <duration>480</duration>
        <voice>1</voice>
        <type>quarter</type>
        <staff>1</staff>
      </note>
      <note>
        <pitch>
          <step>F</step>
          <octave>4</octave>
        </pitch>
        <duration>480</duration>
        <voice>1</voice>
        <type>quarter</type>
        <staff>1</staff>
        <lyric number="4">
          <syllabic>single</syllabic>
          <text>home!</text>
        </lyric>
      </note>
    </measure>
    <measure number="15">
      <note>
        <pitch>
          <step>F</step>
          <octave>4</octave>
        </pitch>
        <duration>1440</duration>
        <voice>1</voice>
        <type>half</type>
        <dot/>
        <staff>1</staff>
        <lyric number="4">
          <syllabic>single</syllabic>
          <text>come</text>
        </lyric>
      </note>
      <note>
        <chord/>
        <pitch>
          <step>A</step>
          <octave>4</octave>
        </pitch>
        <duration>1440</duration>
        <voice>1</voice>
        <type>half</type>
        <dot/>
        <staff>1</staff>
      </note>
      <note>
        <pitch>
          <step>E</step>
          <octave>4</octave>
        </pitch>
        <duration>480</duration>
        <voice>1</voice>
        <type>quarter</type>
        <staff>1</staff>
        <lyric number="4">
          <syllabic>single</syllabic>
          <text>home!&#8221;</text>
        </lyric>
      </note>
      <note>
        <chord/>
        <pitch>
          <step>G</step>
          <octave>4</octave>
        </pitch>
        <duration>480</duration>
        <voice>1</voice>
        <type>quarter</type>
        <staff>1</staff>
      </note>
    </measure>
    <measure number="16">
      <note>
        <pitch>
          <step>F</step>
          <octave>4</octave>
        </pitch>
        <duration>1440</duration>
        <voice>1</voice>
        <type>half</type>
        <dot/>
        <stem>up</stem>
        <staff>1</staff>
      </note>
      <note>
        <rest/>
        <duration>480</duration>
        <voice>1</voice>
        <type>quarter</type>
        <staff>1</staff>
      </note>
      <backup>
        <duration>1920</duration>
      </backup>
      <note>
        <pitch>
          <step>F</step>
          <octave>4</octave>
        </pitch>
        <duration>1440</duration>
        <voice>2</voice>
        <type>half</type>
        <dot/>
        <staff>1</staff>
      </note>
      <barline location="right">
        <bar-style>light-heavy</bar-style>
      </barline>
    </measure>
  </part>
  <part id="P2">
    <measure number="1">
      <attributes>
        <divisions>480</divisions>
        <key>
          <fifths>-1</fifths>
          <mode>major</mode>
        </key>
        <time>
          <beats>4</beats>
          <beat-type>4</beat-type>
        </time>
        <clef>
          <sign>F</sign>
          <line>4</line>
        </clef>
      </attributes>
      <note>
        <pitch>
          <step>F</step>
          <octave>3</octave>
        </pitch>
        <duration>720</duration>
        <voice>1</voice>
        <type>quarter</type>
        <dot/>
        <staff>1</staff>
      </note>
      <note>
        <chord/>
        <pitch>
          <step>C</step>
          <octave>4</octave>
        </pitch>
        <duration>720</duration>
        <voice>1</voice>
        <type>quarter</type>
        <dot/>
        <staff>1</staff>
      </note>
      <note>
        <pitch>
          <step>F</step>
          <octave>3</octave>
        </pitch>
        <duration>240</duration>
        <voice>1</voice>
        <type>eighth</type>
        <staff>1</staff>
      </note>
      <note>
        <chord/>
        <pitch>
          <step>C</step>
          <octave>4</octave>
        </pitch>
        <duration>240</duration>
        <voice>1</voice>
        <type>eighth</type>
        <staff>1</staff>
      </note>
      <note>
        <pitch>
          <step>F</step>
          <octave>3</octave>
        </pitch>
        <duration>480</duration>
        <voice>1</voice>
        <type>quarter</type>
        <staff>1</staff>
      </note>
      <note>
        <chord/>
        <pitch>
          <step>C</step>
          <octave>4</octave>
        </pitch>
        <duration>480</duration>
        <voice>1</voice>
        <type>quarter</type>
        <staff>1</staff>
      </note>
      <note>
        <pitch>
          <step>F</step>
          <octave>3</octave>
        </pitch>
        <duration>480</duration>
        <voice>1</voice>
        <type>quarter</type>
        <staff>1</staff>
      </note>
      <note>
        <chord/>
        <pitch>
          <step>C</step>
          <octave>4</octave>
        </pitch>
        <duration>480</duration>
        <voice>1</voice>
        <type>quarter</type>
        <staff>1</staff>
      </note>
    </measure>
    <measure number="2">
      <note>
        <pitch>
          <step>C</step>
          <octave>3</octave>
        </pitch>
        <duration>960</duration>
        <voice>1</voice>
        <type>half</type>
        <staff>1</staff>
      </note>
      <note>
        <chord/>
        <pitch>
          <step>C</step>
          <octave>4</octave>
        </pitch>
        <duration>960</duration>
        <voice>1</voice>
        <type>half</type>
        <staff>1</staff>
      </note>
      <note>
        <pitch>
          <step>C</step>
          <octave>3</octave>
        </pitch>
        <duration>480</duration>
        <voice>1</voice>
        <type>quarter</type>
        <staff>1</staff>
      </note>
      <note>
        <chord/>
        <pitch>
          <step>B</step>
          <alter>-1</alter>
          <octave>3</octave>
        </pitch>
        <duration>480</duration>
        <voice>1</voice>
        <type>quarter</type>
        <staff>1</staff>
      </note>
      <note>
        <rest/>
        <duration>480</duration>
        <voice>1</voice>
        <type>quarter</type>
        <staff>1</staff>
      </note>
    </measure>
    <measure number="3">
      <note>
        <pitch>
          <step>D</step>
          <octave>3</octave>
        </pitch>
        <duration>720</duration>
        <voice>1</voice>
        <type>quarter</type>
        <dot/>
        <staff>1</staff>
      </note>
      <note>
        <chord/>
        <pitch>
          <step>A</step>
          <octave>3</octave>
        </pitch>
        <duration>720</duration>
        <voice>1</voice>
        <type>quarter</type>
        <dot/>
        <staff>1</staff>
      </note>
      <note>
        <pitch>
          <step>D</step>
          <octave>3</octave>
        </pitch>
        <duration>240</duration>
        <voice>1</voice>
        <type>eighth</type>
        <staff>1</staff>
      </note>
      <note>
        <chord/>
        <pitch>
          <step>A</step>
          <octave>3</octave>
        </pitch>
        <duration>240</duration>
        <voice>1</voice>
        <type>eighth</type>
        <staff>1</staff>
      </note>
      <note>
        <pitch>
          <step>D</step>
          <octave>3</octave>
        </pitch>
        <duration>480</duration>
        <voice>1</voice>
        <type>quarter</type>
        <staff>1</staff>
      </note>
      <note>
        <chord/>
        <pitch>
          <step>A</step>
          <octave>3</octave>
        </pitch>
        <duration>480</duration>
        <voice>1</voice>
        <type>quarter</type>
        <staff>1</staff>
      </note>
      <note>
        <pitch>
          <step>D</step>
          <octave>3</octave>
        </pitch>
        <duration>480</duration>
        <voice>1</voice>
        <type>quarter</type>
        <staff>1</staff>
      </note>
      <note>
        <chord/>
        <pitch>
          <step>A</step>
          <octave>3</octave>
        </pitch>
        <duration>480</duration>
        <voice>1</voice>
        <type>quarter</type>
        <staff>1</staff>
      </note>
    </measure>
    <measure number="4">
      <note>
        <pitch>
          <step>A</step>
          <octave>2</octave>
        </pitch>
        <duration>1440</duration>
        <voice>1</voice>
        <type>half</type>
        <dot/>
        <staff>1</staff>
      </note>
      <note>
        <chord/>
        <pitch>
          <step>A</step>
          <octave>3</octave>
        </pitch>
        <duration>1440</duration>
        <voice>1</voice>
        <type>half</type>
        <dot/>
        <staff>1</staff>
      </note>
      <note>
        <rest/>
        <duration>480</duration>
        <voice>1</voice>
        <type>quarter</type>
        <staff>1</staff>
      </note>
    </measure>
    <measure number="5">
      <note>
        <pitch>
          <step>B</step>
          <alter>-1</alter>
          <octave>2</octave>
        </pitch>
        <duration>480</duration>
        <voice>1</voice>
        <type>quarter</type>
        <staff>1</staff>
      </note>
      <note>
        <chord/>
        <pitch>
          <step>F</step>
          <octave>3</octave>
        </pitch>
        <duration>480</duration>
        <voice>1</voice>
        <type>quarter</type>
        <staff>1</staff>
      </note>
      <note>
        <pitch>
          <step>B</step>
          <alter>-1</alter>
          <octave>2</octave>
        </pitch>
        <duration>480</duration>
        <voice>1</voice>
        <type>quarter</type>
        <staff>1</staff>
      </note>
      <note>
        <chord/>
        <pitch>
          <step>F</step>
          <octave>3</octave>
        </pitch>
        <duration>480</duration>
        <voice>1</voice>
        <type>quarter</type>
        <staff>1</staff>
      </note>
      <note>
        <pitch>
          <step>B</step>
          <alter>-1</alter>
          <octave>2</octave>
        </pitch>
        <duration>480</duration>
        <voice>1</voice>
        <type>quarter</type>
        <staff>1</staff>
      </note>
      <note>
        <chord/>
        <pitch>
          <step>F</step>
          <octave>3</octave>
        </pitch>
        <duration>480</duration>
        <voice>1</voice>
        <type>quarter</type>
        <staff>1</staff>
      </note>
      <note>
        <pitch>
          <step>B</step>
          <alter>-1</alter>
          <octave>2</octave>
        </pitch>
        <duration>480</duration>
        <voice>1</voice>
        <type>quarter</type>
        <staff>1</staff>
      </note>
      <note>
        <chord/>
        <pitch>
          <step>F</step>
          <octave>3</octave>
        </pitch>
        <duration>480</duration>
        <voice>1</voice>
        <type>quarter</type>
        <staff>1</staff>
      </note>
    </measure>
    <measure number="6">
      <note>
        <pitch>
          <step>F</step>
          <octave>2</octave>
        </pitch>
        <duration>960</duration>
        <voice>1</voice>
        <type>half</type>
        <staff>1</staff>
      </note>
      <note>
        <chord/>
        <pitch>
          <step>F</step>
          <octave>3</octave>
        </pitch>
        <duration>960</duration>
        <voice>1</voice>
        <type>half</type>
        <staff>1</staff>
      </note>
      <note>
        <pitch>
          <step>F</step>
          <octave>2</octave>
        </pitch>
        <duration>480</duration>
        <voice>1</voice>
        <type>quarter</type>
        <staff>1</staff>
      </note>
      <note>
        <chord/>
        <pitch>
          <step>F</step>
          <octave>3</octave>
        </pitch>
        <duration>480</duration>
        <voice>1</voice>
        <type>quarter</type>
        <staff>1</staff>
      </note>
      <note>
        <pitch>
          <step>F</step>
          <octave>3</octave>
        </pitch>
        <duration>480</duration>
        <voice>1</voice>
        <type>quarter</type>
        <stem>down</stem>
        <staff>1</staff>
      </note>
      <backup>
        <duration>1920</duration>
      </backup>
      <forward>
        <duration>1440</duration>
      </forward>
      <note>
        <pitch>
          <step>F</step>
          <octave>3</octave>
        </pitch>
        <duration>480</duration>
        <voice>2</voice>
        <type>quarter</type>
        <staff>1</staff>
      </note>
    </measure>
    <measure number="7">
      <note>
        <pitch>
          <step>C</step>
          <octave>3</octave>
        </pitch>
        <duration>1440</duration>
        <voice>1</voice>
        <type>half</type>
        <dot/>
        <staff>1</staff>
      </note>
      <note>
        <chord/>
        <pitch>
          <step>G</step>
          <octave>3</octave>
        </pitch>
        <duration>1440</duration>
        <voice>1</voice>
        <type>half</type>
        <dot/>
        <staff>1</staff>
      </note>
      <note>
        <pitch>
          <step>C</step>
          <octave>3</octave>
        </pitch>
        <duration>480</duration>
        <voice>1</voice>
        <type>quarter</type>
        <staff>1</staff>
      </note>
      <note>
        <chord/>
        <pitch>
          <step>B</step>
          <alter>-1</alter>
          <octave>3</octave>
        </pitch>
        <duration>480</duration>
        <voice>1</voice>
        <type>quarter</type>
        <staff>1</staff>
      </note>
    </measure>
    <measure number="8">
      <note>
        <pitch>
          <step>F</step>
          <octave>3</octave>
        </pitch>
        <duration>1440</duration>
        <voice>1</voice>
        <type>half</type>
        <dot/>
        <staff>1</staff>
      </note>
      <note>
        <chord/>
        <pitch>
          <step>A</step>
          <octave>3</octave>
        </pitch>
        <duration>1440</duration>
        <voice>1</voice>
        <type>half</type>
        <dot/>
        <staff>1</staff>
      </note>
      <note>
        <rest/>
        <duration>480</duration>
        <voice>1</voice>
        <type>quarter</type>
        <staff>1</staff>
      </note>
      <barline location="right">
        <bar-style>light-light</bar-style>
      </barline>
    </measure>
    <measure number="9">
      <note>
        <pitch>
          <step>F</step>
          <octave>3</octave>
        </pitch>
        <duration>480</duration>
        <voice>1</voice>
        <type>quarter</type>
        <staff>1</staff>
      </note>
      <note>
        <chord/>
        <pitch>
          <step>C</step>
          <octave>4</octave>
        </pitch>
        <duration>480</duration>
        <voice>1</voice>
        <type>quarter</type>
        <staff>1</staff>
      </note>
      <note>
        <pitch>
          <step>F</step>
          <octave>3</octave>
        </pitch>
        <duration>480</duration>
        <voice>1</voice>
        <type>quarter</type>
        <staff>1</staff>
      </note>
      <note>
        <chord/>
        <pitch>
          <step>C</step>
          <octave>4</octave>
        </pitch>
        <duration>480</duration>
        <voice>1</voice>
        <type>quarter</type>
        <staff>1</staff>
      </note>
      <note>
        <pitch>
          <step>F</step>
          <octave>3</octave>
        </pitch>
        <duration>480</duration>
        <voice>1</voice>
        <type>quarter</type>
        <staff>1</staff>
      </note>
      <note>
        <chord/>
        <pitch>
          <step>C</step>
          <octave>4</octave>
        </pitch>
        <duration>480</duration>
        <voice>1</voice>
        <type>quarter</type>
        <staff>1</staff>
      </note>
      <note>
        <pitch>
          <step>F</step>
          <octave>3</octave>
        </pitch>
        <duration>480</duration>
        <voice>1</voice>
        <type>quarter</type>
        <staff>1</staff>
      </note>
      <note>
        <chord/>
        <pitch>
          <step>C</step>
          <octave>4</octave>
        </pitch>
        <duration>480</duration>
        <voice>1</voice>
        <type>quarter</type>
        <staff>1</staff>
      </note>
    </measure>
    <measure number="10">
      <note>
        <pitch>
          <step>E</step>
          <octave>4</octave>
        </pitch>
        <duration>480</duration>
        <voice>1</voice>
        <type>quarter</type>
        <stem>up</stem>
        <staff>1</staff>
        <notations>
          <slur number="1" type="start"/>
        </notations>
      </note>
      <note>
        <pitch>
          <step>D</step>
          <octave>4</octave>
        </pitch>
        <duration>480</duration>
        <voice>1</voice>
        <type>quarter</type>
        <stem>up</stem>
        <staff>1</staff>
        <notations>
          <slur number="1" type="stop"/>
        </notations>
      </note>
      <note>
        <pitch>
          <step>F</step>
          <octave>3</octave>
        </pitch>
        <duration>960</duration>
        <voice>1</voice>
        <type>half</type>
        <staff>1</staff>
      </note>
      <note>
        <chord/>
        <pitch>
          <step>C</step>
          <octave>4</octave>
        </pitch>
        <duration>960</duration>
        <voice>1</voice>
        <type>half</type>
        <staff>1</staff>
      </note>
      <backup>
        <duration>1920</duration>
      </backup>
      <note>
        <pitch>
          <step>F</step>
          <octave>3</octave>
        </pitch>
        <duration>960</duration>
        <voice>2</voice>
        <type>half</type>
        <staff>1</staff>
      </note>
    </measure>
    <measure number="11">
      <note>
        <pitch>
          <step>D</step>
          <octave>3</octave>
        </pitch>
        <duration>480</duration>
        <voice>1</voice>
        <type>quarter</type>
        <staff>1</staff>
      </note>
      <note>
        <chord/>
        <pitch>
          <step>D</step>
          <octave>4</octave>
        </pitch>
        <duration>480</duration>
        <voice>1</voice>
        <type>quarter</type>
        <staff>1</staff>
      </note>
      <note>
        <pitch>
          <step>D</step>
          <octave>3</octave>
        </pitch>
        <duration>480</duration>
        <voice>1</voice>
        <type>quarter</type>
        <staff>1</staff>
      </note>
      <note>
        <chord/>
        <pitch>
          <step>D</step>
          <octave>4</octave>
        </pitch>
        <duration>480</duration>
        <voice>1</voice>
        <type>quarter</type>
        <staff>1</staff>
      </note>
      <note>
        <pitch>
          <step>D</step>
          <octave>3</octave>
        </pitch>
        <duration>480</duration>
        <voice>1</voice>
        <type>quarter</type>
        <staff>1</staff>
      </note>
      <note>
        <chord/>
        <pitch>
          <step>D</step>
          <octave>4</octave>
        </pitch>
        <duration>480</duration>
        <voice>1</voice>
        <type>quarter</type>
        <staff>1</staff>
      </note>
      <note>
        <pitch>
          <step>D</step>
          <octave>3</octave>
        </pitch>
        <duration>480</duration>
        <voice>1</voice>
        <type>quarter</type>
        <staff>1</staff>
      </note>
      <note>
        <chord/>
        <pitch>
          <step>D</step>
          <octave>4</octave>
        </pitch>
        <duration>480</duration>
        <voice>1</voice>
        <type>quarter</type>
        <staff>1</staff>
      </note>
    </measure>
    <measure number="12">
      <note>
        <pitch>
          <step>G</step>
          <octave>3</octave>
        </pitch>
        <duration>1440</duration>
        <voice>1</voice>
        <type>half</type>
        <dot/>
        <staff>1</staff>
      </note>
      <note>
        <chord/>
        <pitch>
          <step>D</step>
          <octave>4</octave>
        </pitch>
        <duration>1440</duration>
        <voice>1</voice>
        <type>half</type>
        <dot/>
        <staff>1</staff>
      </note>
      <note>
        <rest/>
        <duration>480</duration>
        <voice>1</voice>
        <type>quarter</type>
        <staff>1</staff>
      </note>
    </measure>
    <measure number="13">
      <note>
        <pitch>
          <step>C</step>
          <octave>3</octave>
        </pitch>
        <duration>480</duration>
        <voice>1</voice>
        <type>quarter</type>
        <staff>1</staff>
      </note>
      <note>
        <chord/>
        <pitch>
          <step>C</step>
          <octave>4</octave>
        </pitch>
        <duration>480</duration>
        <voice>1</voice>
        <type>quarter</type>
        <staff>1</staff>
      </note>
      <note>
        <pitch>
          <step>B</step>
          <alter>-1</alter>
          <octave>3</octave>
        </pitch>
        <duration>480</duration>
        <voice>1</voice>
        <type>quarter</type>
        <staff>1</staff>
      </note>
      <note>
        <chord/>
        <pitch>
          <step>C</step>
          <octave>4</octave>
        </pitch>
        <duration>480</duration>
        <voice>1</voice>
        <type>quarter</type>
        <staff>1</staff>
      </note>
      <note>
        <pitch>
          <step>A</step>
          <octave>3</octave>
        </pitch>
        <duration>480</duration>
        <voice>1</voice>
        <type>quarter</type>
        <staff>1</staff>
      </note>
      <note>
        <chord/>
        <pitch>
          <step>C</step>
          <octave>4</octave>
        </pitch>
        <duration>480</duration>
        <voice>1</voice>
        <type>quarter</type>
        <staff>1</staff>
      </note>
      <note>
        <pitch>
          <step>G</step>
          <octave>3</octave>
        </pitch>
        <duration>480</duration>
        <voice>1</voice>
        <type>quarter</type>
        <staff>1</staff>
      </note>
      <note>
        <chord/>
        <pitch>
          <step>C</step>
          <octave>4</octave>
        </pitch>
        <duration>480</duration>
        <voice>1</voice>
        <type>quarter</type>
        <staff>1</staff>
      </note>
    </measure>
    <measure number="14">
      <note>
        <pitch>
          <step>F</step>
          <octave>3</octave>
        </pitch>
        <duration>480</duration>
        <voice>1</voice>
        <type>quarter</type>
        <staff>1</staff>
      </note>
      <note>
        <chord/>
        <pitch>
          <step>E</step>
          <alter>-1</alter>
          <octave>4</octave>
        </pitch>
        <duration>480</duration>
        <voice>1</voice>
        <type>quarter</type>
        <accidental>flat</accidental>
        <staff>1</staff>
      </note>
      <note>
        <pitch>
          <step>A</step>
          <octave>2</octave>
        </pitch>
        <duration>480</duration>
        <voice>1</voice>
        <type>quarter</type>
        <staff>1</staff>
      </note>
      <note>
        <chord/>
        <pitch>
          <step>E</step>
          <alter>-1</alter>
          <octave>4</octave>
        </pitch>
        <duration>480</duration>
        <voice>1</voice>
        <type>quarter</type>
        <staff>1</staff>
      </note>
      <note>
        <pitch>
          <step>B</step>
          <alter>-1</alter>
          <octave>2</octave>
        </pitch>
        <duration>480</duration>
        <voice>1</voice>
        <type>quarter</type>
        <staff>1</staff>
      </note>
      <note>
        <chord/>
        <pitch>
          <step>D</step>
          <octave>4</octave>
        </pitch>
        <duration>480</duration>
        <voice>1</voice>
        <type>quarter</type>
        <staff>1</staff>
      </note>
      <note>
        <pitch>
          <step>B</step>
          <alter>-1</alter>
          <octave>2</octave>
        </pitch>
        <duration>480</duration>
        <voice>1</voice>
        <type>quarter</type>
        <staff>1</staff>
      </note>
      <note>
        <chord/>
        <pitch>
          <step>D</step>
          <octave>4</octave>
        </pitch>
        <duration>480</duration>
        <voice>1</voice>
        <type>quarter</type>
        <staff>1</staff>
      </note>
    </measure>
    <measure number="15">
      <note>
        <pitch>
          <step>C</step>
          <octave>3</octave>
        </pitch>
        <duration>1440</duration>
        <voice>1</voice>
        <type>half</type>
        <dot/>
        <staff>1</staff>
      </note>
      <note>
        <chord/>
        <pitch>
          <step>C</step>
          <octave>4</octave>
        </pitch>
        <duration>1440</duration>
        <voice>1</voice>
        <type>half</type>
        <dot/>
        <staff>1</staff>
      </note>
      <note>
        <pitch>
          <step>C</step>
          <octave>3</octave>
        </pitch>
        <duration>480</duration>
        <voice>1</voice>
        <type>quarter</type>
        <staff>1</staff>
      </note>
      <note>
        <chord/>
        <pitch>
          <step>B</step>
          <alter>-1</alter>
          <octave>3</octave>
        </pitch>
        <duration>480</duration>
        <voice>1</voice>
        <type>quarter</type>
        <staff>1</staff>
      </note>
    </measure>
    <measure number="16">
      <note>
        <pitch>
          <step>F</step>
          <octave>3</octave>
        </pitch>
        <duration>1440</duration>
        <voice>1</voice>
        <type>half</type>
        <dot/>
        <staff>1</staff>
      </note>
      <note>
        <chord/>
        <pitch>
          <step>A</step>
          <octave>3</octave>
        </pitch>
        <duration>1440</duration>
        <voice>1</voice>
        <type>half</type>
        <dot/>
        <staff>1</staff>
      </note>
      <note>
        <rest/>
        <duration>480</duration>
        <voice>1</voice>
        <type>quarter</type>
        <staff>1</staff>
      </note>
      <barline location="right">
        <bar-style>light-heavy</bar-style>
      </barline>
    </measure>
  </part>
</score-partwise>
